<?xml version="1.0" encoding="utf-8" standalone="no"?>
<!DOCTYPE svg PUBLIC "-//W3C//DTD SVG 1.1//EN"
  "http://www.w3.org/Graphics/SVG/1.1/DTD/svg11.dtd">
<svg xmlns:xlink="http://www.w3.org/1999/xlink" width="712.8pt" height="447.2pt" viewBox="0 0 712.8 447.2" xmlns="http://www.w3.org/2000/svg" version="1.1">
 <metadata>
  <rdf:RDF xmlns:dc="http://purl.org/dc/elements/1.1/" xmlns:cc="http://creativecommons.org/ns#" xmlns:rdf="http://www.w3.org/1999/02/22-rdf-syntax-ns#">
   <cc:Work>
    <dc:type rdf:resource="http://purl.org/dc/dcmitype/StillImage"/>
    <dc:date>2025-10-15T19:47:41.069328</dc:date>
    <dc:format>image/svg+xml</dc:format>
    <dc:creator>
     <cc:Agent>
      <dc:title>Matplotlib v3.10.6, https://matplotlib.org/</dc:title>
     </cc:Agent>
    </dc:creator>
   </cc:Work>
  </rdf:RDF>
 </metadata>
 <defs>
  <style type="text/css">*{stroke-linejoin: round; stroke-linecap: butt}</style>
 </defs>
 <g id="figure_1">
  <g id="patch_1">
   <path d="M 0 447.2 
L 712.8 447.2 
L 712.8 0 
L 0 0 
z
" style="fill: #ffffff"/>
  </g>
  <g id="axes_1">
   <g id="patch_2">
    <path d="M 71.865469 393.574739 
L 705.6 393.574739 
L 705.6 81.44 
L 71.865469 81.44 
z
" style="fill: #ffffff"/>
   </g>
   <g id="matplotlib.axis_1">
    <g id="xtick_1">
     <g id="line2d_1">
      <defs>
       <path id="mc2565290a5" d="M 0 0 
L 0 3.5 
" style="stroke: #000000; stroke-width: 0.8"/>
      </defs>
      <g>
       <use xlink:href="#mc2565290a5" x="100.671584" y="393.574739" style="stroke: #000000; stroke-width: 0.8"/>
      </g>
     </g>
     <g id="text_1">
      <!-- $\mathdefault{1}$ -->
      <g transform="translate(96.102536 414.411736) scale(0.2 -0.2)">
       <defs>
        <path id="CMR17-31" d="M 1702 4058 
C 1702 4192 1696 4192 1606 4192 
C 1357 3916 979 3827 621 3827 
C 602 3827 570 3827 563 3808 
C 557 3795 557 3782 557 3648 
C 755 3648 1088 3686 1344 3839 
L 1344 461 
C 1344 236 1331 160 781 160 
L 589 160 
L 589 0 
C 896 0 1216 0 1523 0 
C 1830 0 2150 0 2458 0 
L 2458 160 
L 2266 160 
C 1715 160 1702 230 1702 458 
L 1702 4058 
z
" transform="scale(0.015625)"/>
       </defs>
       <use xlink:href="#CMR17-31" transform="scale(0.996264)"/>
      </g>
     </g>
    </g>
    <g id="xtick_2">
     <g id="line2d_2">
      <g>
       <use xlink:href="#mc2565290a5" x="130.99381" y="393.574739" style="stroke: #000000; stroke-width: 0.8"/>
      </g>
     </g>
     <g id="text_2">
      <!-- $\mathdefault{2}$ -->
      <g transform="translate(126.424763 414.411736) scale(0.2 -0.2)">
       <defs>
        <path id="CMR17-32" d="M 2669 989 
L 2554 989 
C 2490 536 2438 459 2413 420 
C 2381 369 1920 369 1830 369 
L 602 369 
C 832 619 1280 1072 1824 1597 
C 2214 1967 2669 2402 2669 3035 
C 2669 3790 2067 4224 1395 4224 
C 691 4224 262 3604 262 3030 
C 262 2780 448 2748 525 2748 
C 589 2748 781 2787 781 3010 
C 781 3207 614 3264 525 3264 
C 486 3264 448 3258 422 3245 
C 544 3790 915 4058 1306 4058 
C 1862 4058 2227 3617 2227 3035 
C 2227 2479 1901 2000 1536 1584 
L 262 146 
L 262 0 
L 2515 0 
L 2669 989 
z
" transform="scale(0.015625)"/>
       </defs>
       <use xlink:href="#CMR17-32" transform="scale(0.996264)"/>
      </g>
     </g>
    </g>
    <g id="xtick_3">
     <g id="line2d_3">
      <g>
       <use xlink:href="#mc2565290a5" x="161.316037" y="393.574739" style="stroke: #000000; stroke-width: 0.8"/>
      </g>
     </g>
     <g id="text_3">
      <!-- $\mathdefault{3}$ -->
      <g transform="translate(156.746989 414.411736) scale(0.2 -0.2)">
       <defs>
        <path id="CMR17-33" d="M 1414 2157 
C 1984 2157 2234 1662 2234 1090 
C 2234 320 1824 25 1453 25 
C 1114 25 563 194 390 693 
C 422 680 454 680 486 680 
C 640 680 755 782 755 948 
C 755 1133 614 1216 486 1216 
C 378 1216 211 1165 211 926 
C 211 335 787 -128 1466 -128 
C 2176 -128 2720 430 2720 1085 
C 2720 1707 2208 2157 1600 2227 
C 2086 2328 2554 2756 2554 3329 
C 2554 3820 2048 4179 1472 4179 
C 890 4179 378 3829 378 3329 
C 378 3110 544 3072 627 3072 
C 762 3072 877 3155 877 3321 
C 877 3486 762 3569 627 3569 
C 602 3569 570 3569 544 3557 
C 730 3959 1235 4032 1459 4032 
C 1683 4032 2106 3925 2106 3320 
C 2106 3143 2080 2828 1862 2550 
C 1670 2304 1453 2304 1242 2284 
C 1210 2284 1062 2269 1037 2269 
C 992 2263 966 2257 966 2208 
C 966 2163 973 2157 1101 2157 
L 1414 2157 
z
" transform="scale(0.015625)"/>
       </defs>
       <use xlink:href="#CMR17-33" transform="scale(0.996264)"/>
      </g>
     </g>
    </g>
    <g id="xtick_4">
     <g id="line2d_4">
      <g>
       <use xlink:href="#mc2565290a5" x="191.638263" y="393.574739" style="stroke: #000000; stroke-width: 0.8"/>
      </g>
     </g>
     <g id="text_4">
      <!-- $\mathdefault{4}$ -->
      <g transform="translate(187.069215 414.411736) scale(0.2 -0.2)">
       <defs>
        <path id="CMR17-34" d="M 2150 4122 
C 2150 4256 2144 4256 2029 4256 
L 128 1254 
L 128 1088 
L 1779 1088 
L 1779 457 
C 1779 224 1766 160 1318 160 
L 1197 160 
L 1197 0 
C 1402 0 1747 0 1965 0 
C 2182 0 2528 0 2733 0 
L 2733 160 
L 2611 160 
C 2163 160 2150 224 2150 457 
L 2150 1088 
L 2803 1088 
L 2803 1254 
L 2150 1254 
L 2150 4122 
z
M 1798 3703 
L 1798 1254 
L 256 1254 
L 1798 3703 
z
" transform="scale(0.015625)"/>
       </defs>
       <use xlink:href="#CMR17-34" transform="scale(0.996264)"/>
      </g>
     </g>
    </g>
    <g id="xtick_5">
     <g id="line2d_5">
      <g>
       <use xlink:href="#mc2565290a5" x="221.960489" y="393.574739" style="stroke: #000000; stroke-width: 0.8"/>
      </g>
     </g>
     <g id="text_5">
      <!-- $\mathdefault{5}$ -->
      <g transform="translate(217.391442 414.411736) scale(0.2 -0.2)">
       <defs>
        <path id="CMR17-35" d="M 730 3692 
C 794 3666 1056 3584 1325 3584 
C 1920 3584 2246 3911 2432 4100 
C 2432 4157 2432 4192 2394 4192 
C 2387 4192 2374 4192 2323 4163 
C 2099 4058 1837 3973 1517 3973 
C 1325 3973 1037 3999 723 4139 
C 653 4171 640 4171 634 4171 
C 602 4171 595 4164 595 4037 
L 595 2203 
C 595 2089 595 2057 659 2057 
C 691 2057 704 2070 736 2114 
C 941 2401 1222 2522 1542 2522 
C 1766 2522 2246 2382 2246 1289 
C 2246 1085 2246 715 2054 421 
C 1894 159 1645 25 1370 25 
C 947 25 518 320 403 814 
C 429 807 480 795 506 795 
C 589 795 749 840 749 1038 
C 749 1210 627 1280 506 1280 
C 358 1280 262 1190 262 1011 
C 262 454 704 -128 1382 -128 
C 2042 -128 2669 440 2669 1264 
C 2669 2030 2170 2624 1549 2624 
C 1222 2624 947 2503 730 2274 
L 730 3692 
z
" transform="scale(0.015625)"/>
       </defs>
       <use xlink:href="#CMR17-35" transform="scale(0.996264)"/>
      </g>
     </g>
    </g>
    <g id="xtick_6">
     <g id="line2d_6">
      <g>
       <use xlink:href="#mc2565290a5" x="252.282716" y="393.574739" style="stroke: #000000; stroke-width: 0.8"/>
      </g>
     </g>
     <g id="text_6">
      <!-- $\mathdefault{6}$ -->
      <g transform="translate(247.713668 414.411736) scale(0.2 -0.2)">
       <defs>
        <path id="CMR17-36" d="M 678 2176 
C 678 3690 1395 4032 1811 4032 
C 1946 4032 2272 4009 2400 3776 
C 2298 3776 2106 3776 2106 3553 
C 2106 3381 2246 3323 2336 3323 
C 2394 3323 2566 3348 2566 3560 
C 2566 3954 2246 4179 1805 4179 
C 1043 4179 243 3390 243 1984 
C 243 253 966 -128 1478 -128 
C 2099 -128 2688 427 2688 1283 
C 2688 2081 2170 2662 1517 2662 
C 1126 2662 838 2407 678 1960 
L 678 2176 
z
M 1478 25 
C 691 25 691 1200 691 1436 
C 691 1896 909 2560 1504 2560 
C 1613 2560 1926 2560 2138 2120 
C 2253 1870 2253 1609 2253 1289 
C 2253 944 2253 690 2118 434 
C 1978 171 1773 25 1478 25 
z
" transform="scale(0.015625)"/>
       </defs>
       <use xlink:href="#CMR17-36" transform="scale(0.996264)"/>
      </g>
     </g>
    </g>
    <g id="xtick_7">
     <g id="line2d_7">
      <g>
       <use xlink:href="#mc2565290a5" x="282.604942" y="393.574739" style="stroke: #000000; stroke-width: 0.8"/>
      </g>
     </g>
     <g id="text_7">
      <!-- $\mathdefault{7}$ -->
      <g transform="translate(278.035894 414.411736) scale(0.2 -0.2)">
       <defs>
        <path id="CMR17-37" d="M 2886 3941 
L 2886 4081 
L 1382 4081 
C 634 4081 621 4165 595 4288 
L 480 4288 
L 294 3094 
L 410 3094 
C 429 3215 474 3540 550 3661 
C 589 3712 1062 3712 1171 3712 
L 2579 3712 
L 1869 2661 
C 1395 1954 1069 999 1069 165 
C 1069 89 1069 -128 1299 -128 
C 1530 -128 1530 89 1530 171 
L 1530 465 
C 1530 1508 1709 2196 2003 2636 
L 2886 3941 
z
" transform="scale(0.015625)"/>
       </defs>
       <use xlink:href="#CMR17-37" transform="scale(0.996264)"/>
      </g>
     </g>
    </g>
    <g id="xtick_8">
     <g id="line2d_8">
      <g>
       <use xlink:href="#mc2565290a5" x="312.927169" y="393.574739" style="stroke: #000000; stroke-width: 0.8"/>
      </g>
     </g>
     <g id="text_8">
      <!-- $\mathdefault{8}$ -->
      <g transform="translate(308.358121 414.411736) scale(0.2 -0.2)">
       <defs>
        <path id="CMR17-38" d="M 1741 2264 
C 2144 2467 2554 2773 2554 3263 
C 2554 3841 1990 4179 1472 4179 
C 890 4179 378 3759 378 3180 
C 378 3021 416 2747 666 2505 
C 730 2442 998 2251 1171 2130 
C 883 1983 211 1634 211 934 
C 211 279 838 -128 1459 -128 
C 2144 -128 2720 362 2720 1010 
C 2720 1590 2330 1857 2074 2029 
L 1741 2264 
z
M 902 2822 
C 851 2854 595 3051 595 3351 
C 595 3739 998 4032 1459 4032 
C 1965 4032 2336 3676 2336 3262 
C 2336 2669 1670 2331 1638 2331 
C 1632 2331 1626 2331 1574 2370 
L 902 2822 
z
M 2080 1519 
C 2176 1449 2483 1240 2483 851 
C 2483 381 2010 25 1472 25 
C 890 25 448 438 448 940 
C 448 1443 838 1862 1280 2060 
L 2080 1519 
z
" transform="scale(0.015625)"/>
       </defs>
       <use xlink:href="#CMR17-38" transform="scale(0.996264)"/>
      </g>
     </g>
    </g>
    <g id="xtick_9">
     <g id="line2d_9">
      <g>
       <use xlink:href="#mc2565290a5" x="343.249395" y="393.574739" style="stroke: #000000; stroke-width: 0.8"/>
      </g>
     </g>
     <g id="text_9">
      <!-- $\mathdefault{9}$ -->
      <g transform="translate(338.680347 414.411736) scale(0.2 -0.2)">
       <defs>
        <path id="CMR17-39" d="M 2253 1864 
C 2253 464 1670 31 1190 31 
C 1043 31 685 31 538 294 
C 704 268 826 357 826 518 
C 826 692 685 749 595 749 
C 538 749 365 723 365 506 
C 365 71 742 -128 1203 -128 
C 1939 -128 2688 674 2688 2073 
C 2688 3817 1971 4179 1485 4179 
C 851 4179 243 3628 243 2778 
C 243 1991 762 1408 1414 1408 
C 1952 1408 2189 1903 2253 2112 
L 2253 1864 
z
M 1427 1510 
C 1254 1510 1011 1542 813 1922 
C 678 2169 678 2461 678 2771 
C 678 3146 678 3405 858 3684 
C 947 3817 1114 4032 1485 4032 
C 2240 4032 2240 2885 2240 2632 
C 2240 2182 2035 1510 1427 1510 
z
" transform="scale(0.015625)"/>
       </defs>
       <use xlink:href="#CMR17-39" transform="scale(0.996264)"/>
      </g>
     </g>
    </g>
    <g id="xtick_10">
     <g id="line2d_10">
      <g>
       <use xlink:href="#mc2565290a5" x="373.571621" y="393.574739" style="stroke: #000000; stroke-width: 0.8"/>
      </g>
     </g>
     <g id="text_10">
      <!-- $\mathdefault{10}$ -->
      <g transform="translate(364.433526 414.411736) scale(0.2 -0.2)">
       <defs>
        <path id="CMR17-30" d="M 2688 2025 
C 2688 2416 2682 3080 2413 3591 
C 2176 4039 1798 4198 1466 4198 
C 1158 4198 768 4058 525 3597 
C 269 3118 243 2524 243 2025 
C 243 1661 250 1106 448 619 
C 723 -39 1216 -128 1466 -128 
C 1760 -128 2208 -7 2470 600 
C 2662 1042 2688 1559 2688 2025 
z
M 1466 -26 
C 1056 -26 813 325 723 812 
C 653 1188 653 1738 653 2096 
C 653 2588 653 2997 736 3387 
C 858 3929 1216 4096 1466 4096 
C 1728 4096 2067 3923 2189 3400 
C 2272 3036 2278 2607 2278 2096 
C 2278 1680 2278 1169 2202 792 
C 2067 95 1690 -26 1466 -26 
z
" transform="scale(0.015625)"/>
       </defs>
       <use xlink:href="#CMR17-31" transform="scale(0.996264)"/>
       <use xlink:href="#CMR17-30" transform="translate(45.690477 0) scale(0.996264)"/>
      </g>
     </g>
    </g>
    <g id="xtick_11">
     <g id="line2d_11">
      <g>
       <use xlink:href="#mc2565290a5" x="403.893848" y="393.574739" style="stroke: #000000; stroke-width: 0.8"/>
      </g>
     </g>
     <g id="text_11">
      <!-- $\mathdefault{11}$ -->
      <g transform="translate(394.755752 414.411736) scale(0.2 -0.2)">
       <use xlink:href="#CMR17-31" transform="scale(0.996264)"/>
       <use xlink:href="#CMR17-31" transform="translate(45.690477 0) scale(0.996264)"/>
      </g>
     </g>
    </g>
    <g id="xtick_12">
     <g id="line2d_12">
      <g>
       <use xlink:href="#mc2565290a5" x="434.216074" y="393.574739" style="stroke: #000000; stroke-width: 0.8"/>
      </g>
     </g>
     <g id="text_12">
      <!-- $\mathdefault{12}$ -->
      <g transform="translate(425.077979 414.411736) scale(0.2 -0.2)">
       <use xlink:href="#CMR17-31" transform="scale(0.996264)"/>
       <use xlink:href="#CMR17-32" transform="translate(45.690477 0) scale(0.996264)"/>
      </g>
     </g>
    </g>
    <g id="xtick_13">
     <g id="line2d_13">
      <g>
       <use xlink:href="#mc2565290a5" x="464.5383" y="393.574739" style="stroke: #000000; stroke-width: 0.8"/>
      </g>
     </g>
     <g id="text_13">
      <!-- $\mathdefault{13}$ -->
      <g transform="translate(455.400205 414.411736) scale(0.2 -0.2)">
       <use xlink:href="#CMR17-31" transform="scale(0.996264)"/>
       <use xlink:href="#CMR17-33" transform="translate(45.690477 0) scale(0.996264)"/>
      </g>
     </g>
    </g>
    <g id="xtick_14">
     <g id="line2d_14">
      <g>
       <use xlink:href="#mc2565290a5" x="494.860527" y="393.574739" style="stroke: #000000; stroke-width: 0.8"/>
      </g>
     </g>
     <g id="text_14">
      <!-- $\mathdefault{14}$ -->
      <g transform="translate(485.722431 414.411736) scale(0.2 -0.2)">
       <use xlink:href="#CMR17-31" transform="scale(0.996264)"/>
       <use xlink:href="#CMR17-34" transform="translate(45.690477 0) scale(0.996264)"/>
      </g>
     </g>
    </g>
    <g id="xtick_15">
     <g id="line2d_15">
      <g>
       <use xlink:href="#mc2565290a5" x="525.182753" y="393.574739" style="stroke: #000000; stroke-width: 0.8"/>
      </g>
     </g>
     <g id="text_15">
      <!-- $\mathdefault{15}$ -->
      <g transform="translate(516.044658 414.411736) scale(0.2 -0.2)">
       <use xlink:href="#CMR17-31" transform="scale(0.996264)"/>
       <use xlink:href="#CMR17-35" transform="translate(45.690477 0) scale(0.996264)"/>
      </g>
     </g>
    </g>
    <g id="xtick_16">
     <g id="line2d_16">
      <g>
       <use xlink:href="#mc2565290a5" x="555.504979" y="393.574739" style="stroke: #000000; stroke-width: 0.8"/>
      </g>
     </g>
     <g id="text_16">
      <!-- $\mathdefault{16}$ -->
      <g transform="translate(546.366884 414.411736) scale(0.2 -0.2)">
       <use xlink:href="#CMR17-31" transform="scale(0.996264)"/>
       <use xlink:href="#CMR17-36" transform="translate(45.690477 0) scale(0.996264)"/>
      </g>
     </g>
    </g>
    <g id="xtick_17">
     <g id="line2d_17">
      <g>
       <use xlink:href="#mc2565290a5" x="585.827206" y="393.574739" style="stroke: #000000; stroke-width: 0.8"/>
      </g>
     </g>
     <g id="text_17">
      <!-- $\mathdefault{17}$ -->
      <g transform="translate(576.68911 414.411736) scale(0.2 -0.2)">
       <use xlink:href="#CMR17-31" transform="scale(0.996264)"/>
       <use xlink:href="#CMR17-37" transform="translate(45.690477 0) scale(0.996264)"/>
      </g>
     </g>
    </g>
    <g id="xtick_18">
     <g id="line2d_18">
      <g>
       <use xlink:href="#mc2565290a5" x="616.149432" y="393.574739" style="stroke: #000000; stroke-width: 0.8"/>
      </g>
     </g>
     <g id="text_18">
      <!-- $\mathdefault{18}$ -->
      <g transform="translate(607.011337 414.411736) scale(0.2 -0.2)">
       <use xlink:href="#CMR17-31" transform="scale(0.996264)"/>
       <use xlink:href="#CMR17-38" transform="translate(45.690477 0) scale(0.996264)"/>
      </g>
     </g>
    </g>
    <g id="xtick_19">
     <g id="line2d_19">
      <g>
       <use xlink:href="#mc2565290a5" x="646.471659" y="393.574739" style="stroke: #000000; stroke-width: 0.8"/>
      </g>
     </g>
     <g id="text_19">
      <!-- $\mathdefault{19}$ -->
      <g transform="translate(637.333563 414.411736) scale(0.2 -0.2)">
       <use xlink:href="#CMR17-31" transform="scale(0.996264)"/>
       <use xlink:href="#CMR17-39" transform="translate(45.690477 0) scale(0.996264)"/>
      </g>
     </g>
    </g>
    <g id="xtick_20">
     <g id="line2d_20">
      <g>
       <use xlink:href="#mc2565290a5" x="676.793885" y="393.574739" style="stroke: #000000; stroke-width: 0.8"/>
      </g>
     </g>
     <g id="text_20">
      <!-- $\mathdefault{20}$ -->
      <g transform="translate(667.65579 414.411736) scale(0.2 -0.2)">
       <use xlink:href="#CMR17-32" transform="scale(0.996264)"/>
       <use xlink:href="#CMR17-30" transform="translate(45.690477 0) scale(0.996264)"/>
      </g>
     </g>
    </g>
    <g id="text_21">
     <!-- $p$ -->
     <g transform="translate(383.836788 436.124366) scale(0.2 -0.2)">
      <defs>
       <path id="CMMI12-70" d="M 275 -789 
C 230 -980 205 -1031 -58 -1031 
C -134 -1031 -198 -1031 -198 -1152 
C -198 -1165 -192 -1216 -122 -1216 
C -38 -1216 51 -1216 134 -1216 
L 410 -1216 
C 544 -1216 870 -1216 1005 -1216 
C 1043 -1216 1120 -1216 1120 -1101 
C 1120 -1031 1075 -1031 966 -1031 
C 672 -1031 653 -987 653 -937 
C 653 -861 941 219 979 364 
C 1050 185 1222 -64 1555 -64 
C 2278 -64 3059 875 3059 1814 
C 3059 2401 2726 2816 2246 2816 
C 1837 2816 1491 2420 1421 2331 
C 1370 2650 1120 2816 864 2816 
C 678 2816 531 2727 410 2484 
C 294 2254 205 1865 205 1839 
C 205 1814 230 1782 275 1782 
C 326 1782 333 1788 371 1935 
C 467 2312 589 2689 845 2689 
C 992 2689 1043 2587 1043 2397 
C 1043 2245 1024 2181 998 2067 
L 275 -789 
z
M 1382 1993 
C 1427 2171 1606 2357 1709 2446 
C 1779 2510 1990 2689 2234 2689 
C 2515 2689 2643 2408 2643 2076 
C 2643 1769 2464 1047 2304 715 
C 2144 370 1850 64 1555 64 
C 1120 64 1050 613 1050 639 
C 1050 658 1062 709 1069 741 
L 1382 1993 
z
" transform="scale(0.015625)"/>
      </defs>
      <use xlink:href="#CMMI12-70" transform="scale(0.996264)"/>
     </g>
    </g>
   </g>
   <g id="matplotlib.axis_2">
    <g id="ytick_1">
     <g id="line2d_21">
      <defs>
       <path id="m7e2fe32ff1" d="M 0 0 
L -3.5 0 
" style="stroke: #000000; stroke-width: 0.8"/>
      </defs>
      <g>
       <use xlink:href="#m7e2fe32ff1" x="71.865469" y="367.489133" style="stroke: #000000; stroke-width: 0.8"/>
      </g>
     </g>
     <g id="text_22">
      <!-- $\mathdefault{10^{-3}}$ -->
      <g transform="translate(28.91263 374.407631) scale(0.2 -0.2)">
       <defs>
        <path id="CMSY10-0" d="M 4218 1472 
C 4326 1472 4442 1472 4442 1600 
C 4442 1728 4326 1728 4218 1728 
L 755 1728 
C 646 1728 531 1728 531 1600 
C 531 1472 646 1472 755 1472 
L 4218 1472 
z
" transform="scale(0.015625)"/>
       </defs>
       <use xlink:href="#CMR17-31" transform="scale(0.996264)"/>
       <use xlink:href="#CMR17-30" transform="translate(45.690477 0) scale(0.996264)"/>
       <use xlink:href="#CMSY10-0" transform="translate(91.380954 36.153639) scale(0.697382)"/>
       <use xlink:href="#CMR17-33" transform="translate(145.621947 36.153639) scale(0.697382)"/>
      </g>
     </g>
    </g>
    <g id="ytick_2">
     <g id="line2d_22">
      <g>
       <use xlink:href="#m7e2fe32ff1" x="71.865469" y="280.834624" style="stroke: #000000; stroke-width: 0.8"/>
      </g>
     </g>
     <g id="text_23">
      <!-- $\mathdefault{10^{-2}}$ -->
      <g transform="translate(28.91263 287.753122) scale(0.2 -0.2)">
       <use xlink:href="#CMR17-31" transform="scale(0.996264)"/>
       <use xlink:href="#CMR17-30" transform="translate(45.690477 0) scale(0.996264)"/>
       <use xlink:href="#CMSY10-0" transform="translate(91.380954 36.153639) scale(0.697382)"/>
       <use xlink:href="#CMR17-32" transform="translate(145.621947 36.153639) scale(0.697382)"/>
      </g>
     </g>
    </g>
    <g id="ytick_3">
     <g id="line2d_23">
      <g>
       <use xlink:href="#m7e2fe32ff1" x="71.865469" y="194.180115" style="stroke: #000000; stroke-width: 0.8"/>
      </g>
     </g>
     <g id="text_24">
      <!-- $\mathdefault{10^{-1}}$ -->
      <g transform="translate(28.91263 201.098614) scale(0.2 -0.2)">
       <use xlink:href="#CMR17-31" transform="scale(0.996264)"/>
       <use xlink:href="#CMR17-30" transform="translate(45.690477 0) scale(0.996264)"/>
       <use xlink:href="#CMSY10-0" transform="translate(91.380954 36.153639) scale(0.697382)"/>
       <use xlink:href="#CMR17-31" transform="translate(145.621947 36.153639) scale(0.697382)"/>
      </g>
     </g>
    </g>
    <g id="ytick_4">
     <g id="line2d_24">
      <g>
       <use xlink:href="#m7e2fe32ff1" x="71.865469" y="107.525606" style="stroke: #000000; stroke-width: 0.8"/>
      </g>
     </g>
     <g id="text_25">
      <!-- $\mathdefault{10^{0}}$ -->
      <g transform="translate(39.76082 114.444105) scale(0.2 -0.2)">
       <use xlink:href="#CMR17-31" transform="scale(0.996264)"/>
       <use xlink:href="#CMR17-30" transform="translate(45.690477 0) scale(0.996264)"/>
       <use xlink:href="#CMR17-30" transform="translate(91.380954 36.153639) scale(0.697382)"/>
      </g>
     </g>
    </g>
    <g id="ytick_5">
     <g id="line2d_25">
      <defs>
       <path id="m66d985141f" d="M 0 0 
L -2 0 
" style="stroke: #000000; stroke-width: 0.6"/>
      </defs>
      <g>
       <use xlink:href="#m66d985141f" x="71.865469" y="393.574739" style="stroke: #000000; stroke-width: 0.6"/>
      </g>
     </g>
    </g>
    <g id="ytick_6">
     <g id="line2d_26">
      <g>
       <use xlink:href="#m66d985141f" x="71.865469" y="386.713327" style="stroke: #000000; stroke-width: 0.6"/>
      </g>
     </g>
    </g>
    <g id="ytick_7">
     <g id="line2d_27">
      <g>
       <use xlink:href="#m66d985141f" x="71.865469" y="380.912086" style="stroke: #000000; stroke-width: 0.6"/>
      </g>
     </g>
    </g>
    <g id="ytick_8">
     <g id="line2d_28">
      <g>
       <use xlink:href="#m66d985141f" x="71.865469" y="375.886822" style="stroke: #000000; stroke-width: 0.6"/>
      </g>
     </g>
    </g>
    <g id="ytick_9">
     <g id="line2d_29">
      <g>
       <use xlink:href="#m66d985141f" x="71.865469" y="371.454226" style="stroke: #000000; stroke-width: 0.6"/>
      </g>
     </g>
    </g>
    <g id="ytick_10">
     <g id="line2d_30">
      <g>
       <use xlink:href="#m66d985141f" x="71.865469" y="341.403526" style="stroke: #000000; stroke-width: 0.6"/>
      </g>
     </g>
    </g>
    <g id="ytick_11">
     <g id="line2d_31">
      <g>
       <use xlink:href="#m66d985141f" x="71.865469" y="326.144425" style="stroke: #000000; stroke-width: 0.6"/>
      </g>
     </g>
    </g>
    <g id="ytick_12">
     <g id="line2d_32">
      <g>
       <use xlink:href="#m66d985141f" x="71.865469" y="315.31792" style="stroke: #000000; stroke-width: 0.6"/>
      </g>
     </g>
    </g>
    <g id="ytick_13">
     <g id="line2d_33">
      <g>
       <use xlink:href="#m66d985141f" x="71.865469" y="306.92023" style="stroke: #000000; stroke-width: 0.6"/>
      </g>
     </g>
    </g>
    <g id="ytick_14">
     <g id="line2d_34">
      <g>
       <use xlink:href="#m66d985141f" x="71.865469" y="300.058818" style="stroke: #000000; stroke-width: 0.6"/>
      </g>
     </g>
    </g>
    <g id="ytick_15">
     <g id="line2d_35">
      <g>
       <use xlink:href="#m66d985141f" x="71.865469" y="294.257577" style="stroke: #000000; stroke-width: 0.6"/>
      </g>
     </g>
    </g>
    <g id="ytick_16">
     <g id="line2d_36">
      <g>
       <use xlink:href="#m66d985141f" x="71.865469" y="289.232314" style="stroke: #000000; stroke-width: 0.6"/>
      </g>
     </g>
    </g>
    <g id="ytick_17">
     <g id="line2d_37">
      <g>
       <use xlink:href="#m66d985141f" x="71.865469" y="284.799717" style="stroke: #000000; stroke-width: 0.6"/>
      </g>
     </g>
    </g>
    <g id="ytick_18">
     <g id="line2d_38">
      <g>
       <use xlink:href="#m66d985141f" x="71.865469" y="254.749018" style="stroke: #000000; stroke-width: 0.6"/>
      </g>
     </g>
    </g>
    <g id="ytick_19">
     <g id="line2d_39">
      <g>
       <use xlink:href="#m66d985141f" x="71.865469" y="239.489916" style="stroke: #000000; stroke-width: 0.6"/>
      </g>
     </g>
    </g>
    <g id="ytick_20">
     <g id="line2d_40">
      <g>
       <use xlink:href="#m66d985141f" x="71.865469" y="228.663411" style="stroke: #000000; stroke-width: 0.6"/>
      </g>
     </g>
    </g>
    <g id="ytick_21">
     <g id="line2d_41">
      <g>
       <use xlink:href="#m66d985141f" x="71.865469" y="220.265722" style="stroke: #000000; stroke-width: 0.6"/>
      </g>
     </g>
    </g>
    <g id="ytick_22">
     <g id="line2d_42">
      <g>
       <use xlink:href="#m66d985141f" x="71.865469" y="213.40431" style="stroke: #000000; stroke-width: 0.6"/>
      </g>
     </g>
    </g>
    <g id="ytick_23">
     <g id="line2d_43">
      <g>
       <use xlink:href="#m66d985141f" x="71.865469" y="207.603068" style="stroke: #000000; stroke-width: 0.6"/>
      </g>
     </g>
    </g>
    <g id="ytick_24">
     <g id="line2d_44">
      <g>
       <use xlink:href="#m66d985141f" x="71.865469" y="202.577805" style="stroke: #000000; stroke-width: 0.6"/>
      </g>
     </g>
    </g>
    <g id="ytick_25">
     <g id="line2d_45">
      <g>
       <use xlink:href="#m66d985141f" x="71.865469" y="198.145208" style="stroke: #000000; stroke-width: 0.6"/>
      </g>
     </g>
    </g>
    <g id="ytick_26">
     <g id="line2d_46">
      <g>
       <use xlink:href="#m66d985141f" x="71.865469" y="168.094509" style="stroke: #000000; stroke-width: 0.6"/>
      </g>
     </g>
    </g>
    <g id="ytick_27">
     <g id="line2d_47">
      <g>
       <use xlink:href="#m66d985141f" x="71.865469" y="152.835407" style="stroke: #000000; stroke-width: 0.6"/>
      </g>
     </g>
    </g>
    <g id="ytick_28">
     <g id="line2d_48">
      <g>
       <use xlink:href="#m66d985141f" x="71.865469" y="142.008902" style="stroke: #000000; stroke-width: 0.6"/>
      </g>
     </g>
    </g>
    <g id="ytick_29">
     <g id="line2d_49">
      <g>
       <use xlink:href="#m66d985141f" x="71.865469" y="133.611213" style="stroke: #000000; stroke-width: 0.6"/>
      </g>
     </g>
    </g>
    <g id="ytick_30">
     <g id="line2d_50">
      <g>
       <use xlink:href="#m66d985141f" x="71.865469" y="126.749801" style="stroke: #000000; stroke-width: 0.6"/>
      </g>
     </g>
    </g>
    <g id="ytick_31">
     <g id="line2d_51">
      <g>
       <use xlink:href="#m66d985141f" x="71.865469" y="120.94856" style="stroke: #000000; stroke-width: 0.6"/>
      </g>
     </g>
    </g>
    <g id="ytick_32">
     <g id="line2d_52">
      <g>
       <use xlink:href="#m66d985141f" x="71.865469" y="115.923296" style="stroke: #000000; stroke-width: 0.6"/>
      </g>
     </g>
    </g>
    <g id="ytick_33">
     <g id="line2d_53">
      <g>
       <use xlink:href="#m66d985141f" x="71.865469" y="111.490699" style="stroke: #000000; stroke-width: 0.6"/>
      </g>
     </g>
    </g>
    <g id="ytick_34">
     <g id="line2d_54">
      <g>
       <use xlink:href="#m66d985141f" x="71.865469" y="81.44" style="stroke: #000000; stroke-width: 0.6"/>
      </g>
     </g>
    </g>
    <g id="text_26">
     <!-- Error -->
     <g transform="translate(21.036997 257.093612) rotate(-90) scale(0.2 -0.2)">
      <defs>
       <path id="CMSS17-45" d="M 1958 433 
C 1446 433 1216 433 1101 433 
L 1101 2107 
L 3085 2107 
L 3085 2496 
L 1101 2496 
L 1101 4009 
L 1926 4009 
C 2003 4009 2080 4009 2157 4009 
L 3251 4009 
L 3251 4416 
L 563 4416 
L 563 0 
L 3334 0 
L 3334 433 
L 1958 433 
z
" transform="scale(0.015625)"/>
       <path id="CMSS17-72" d="M 954 1363 
C 954 1965 1395 2368 1958 2368 
L 1958 2789 
C 1549 2789 1165 2585 934 2253 
L 934 2758 
L 480 2758 
L 480 0 
L 954 0 
L 954 1363 
z
" transform="scale(0.015625)"/>
       <path id="CMSS17-6f" d="M 2829 1356 
C 2829 2176 2221 2816 1504 2816 
C 768 2816 173 2157 173 1356 
C 173 544 787 -64 1498 -64 
C 2227 -64 2829 563 2829 1356 
z
M 1504 337 
C 1050 337 659 709 659 1408 
C 659 2151 1114 2427 1498 2427 
C 1914 2427 2342 2126 2342 1408 
C 2342 683 1926 337 1504 337 
z
" transform="scale(0.015625)"/>
      </defs>
      <use xlink:href="#CMSS17-45" transform="scale(0.996264)"/>
      <use xlink:href="#CMSS17-72" transform="translate(55.892013 0) scale(0.996264)"/>
      <use xlink:href="#CMSS17-72" transform="translate(87.801786 0) scale(0.996264)"/>
      <use xlink:href="#CMSS17-6f" transform="translate(119.711558 0) scale(0.996264)"/>
      <use xlink:href="#CMSS17-72" transform="translate(163.952728 0) scale(0.996264)"/>
     </g>
    </g>
   </g>
   <g id="line2d_55">
    <path d="M 100.671584 113.518009 
L 130.99381 114.352411 
L 161.316037 116.235061 
L 191.638263 119.904073 
L 221.960489 124.121586 
L 252.282716 128.344927 
L 282.604942 132.711326 
L 312.927169 136.847464 
L 343.249395 140.714254 
L 373.571621 144.387573 
L 403.893848 147.564759 
L 434.216074 150.749201 
L 464.5383 153.672589 
L 494.860527 156.703058 
L 525.182753 159.953602 
L 555.504979 162.508933 
L 585.827206 165.267946 
L 616.149432 167.6828 
L 646.471659 170.14389 
L 676.793885 172.353452 
" clip-path="url(#p6ed90731b2)" style="fill: none; stroke: #94c4df; stroke-width: 1.5; stroke-linecap: square"/>
    <defs>
     <path id="m36d3960308" d="M -0 4.242641 
L 2.545584 0 
L 0 -4.242641 
L -2.545584 -0 
z
" style="stroke: #94c4df; stroke-linejoin: miter"/>
    </defs>
    <g clip-path="url(#p6ed90731b2)">
     <use xlink:href="#m36d3960308" x="100.671584" y="113.518009" style="fill: #94c4df; stroke: #94c4df; stroke-linejoin: miter"/>
     <use xlink:href="#m36d3960308" x="130.99381" y="114.352411" style="fill: #94c4df; stroke: #94c4df; stroke-linejoin: miter"/>
     <use xlink:href="#m36d3960308" x="161.316037" y="116.235061" style="fill: #94c4df; stroke: #94c4df; stroke-linejoin: miter"/>
     <use xlink:href="#m36d3960308" x="191.638263" y="119.904073" style="fill: #94c4df; stroke: #94c4df; stroke-linejoin: miter"/>
     <use xlink:href="#m36d3960308" x="221.960489" y="124.121586" style="fill: #94c4df; stroke: #94c4df; stroke-linejoin: miter"/>
     <use xlink:href="#m36d3960308" x="252.282716" y="128.344927" style="fill: #94c4df; stroke: #94c4df; stroke-linejoin: miter"/>
     <use xlink:href="#m36d3960308" x="282.604942" y="132.711326" style="fill: #94c4df; stroke: #94c4df; stroke-linejoin: miter"/>
     <use xlink:href="#m36d3960308" x="312.927169" y="136.847464" style="fill: #94c4df; stroke: #94c4df; stroke-linejoin: miter"/>
     <use xlink:href="#m36d3960308" x="343.249395" y="140.714254" style="fill: #94c4df; stroke: #94c4df; stroke-linejoin: miter"/>
     <use xlink:href="#m36d3960308" x="373.571621" y="144.387573" style="fill: #94c4df; stroke: #94c4df; stroke-linejoin: miter"/>
     <use xlink:href="#m36d3960308" x="403.893848" y="147.564759" style="fill: #94c4df; stroke: #94c4df; stroke-linejoin: miter"/>
     <use xlink:href="#m36d3960308" x="434.216074" y="150.749201" style="fill: #94c4df; stroke: #94c4df; stroke-linejoin: miter"/>
     <use xlink:href="#m36d3960308" x="464.5383" y="153.672589" style="fill: #94c4df; stroke: #94c4df; stroke-linejoin: miter"/>
     <use xlink:href="#m36d3960308" x="494.860527" y="156.703058" style="fill: #94c4df; stroke: #94c4df; stroke-linejoin: miter"/>
     <use xlink:href="#m36d3960308" x="525.182753" y="159.953602" style="fill: #94c4df; stroke: #94c4df; stroke-linejoin: miter"/>
     <use xlink:href="#m36d3960308" x="555.504979" y="162.508933" style="fill: #94c4df; stroke: #94c4df; stroke-linejoin: miter"/>
     <use xlink:href="#m36d3960308" x="585.827206" y="165.267946" style="fill: #94c4df; stroke: #94c4df; stroke-linejoin: miter"/>
     <use xlink:href="#m36d3960308" x="616.149432" y="167.6828" style="fill: #94c4df; stroke: #94c4df; stroke-linejoin: miter"/>
     <use xlink:href="#m36d3960308" x="646.471659" y="170.14389" style="fill: #94c4df; stroke: #94c4df; stroke-linejoin: miter"/>
     <use xlink:href="#m36d3960308" x="676.793885" y="172.353452" style="fill: #94c4df; stroke: #94c4df; stroke-linejoin: miter"/>
    </g>
   </g>
   <g id="line2d_56">
    <path d="M 100.671584 265.608611 
L 130.99381 269.078994 
L 161.316037 276.308637 
L 191.638263 287.364114 
L 221.960489 298.376718 
L 252.282716 308.137723 
L 282.604942 316.782641 
L 312.927169 324.347314 
L 343.249395 330.692653 
L 373.571621 336.258793 
L 403.893848 341.289113 
L 434.216074 345.937592 
L 464.5383 350.588373 
L 494.860527 354.743511 
L 525.182753 359.594803 
L 555.504979 363.399086 
L 585.827206 367.674516 
L 616.149432 371.00482 
L 646.471659 374.64382 
L 676.793885 377.773304 
" clip-path="url(#p6ed90731b2)" style="fill: none; stroke: #fda762; stroke-width: 1.5; stroke-linecap: square"/>
    <defs>
     <path id="me9b957874d" d="M -0 4.242641 
L 2.545584 0 
L 0 -4.242641 
L -2.545584 -0 
z
" style="stroke: #fda762; stroke-linejoin: miter"/>
    </defs>
    <g clip-path="url(#p6ed90731b2)">
     <use xlink:href="#me9b957874d" x="100.671584" y="265.608611" style="fill: #fda762; stroke: #fda762; stroke-linejoin: miter"/>
     <use xlink:href="#me9b957874d" x="130.99381" y="269.078994" style="fill: #fda762; stroke: #fda762; stroke-linejoin: miter"/>
     <use xlink:href="#me9b957874d" x="161.316037" y="276.308637" style="fill: #fda762; stroke: #fda762; stroke-linejoin: miter"/>
     <use xlink:href="#me9b957874d" x="191.638263" y="287.364114" style="fill: #fda762; stroke: #fda762; stroke-linejoin: miter"/>
     <use xlink:href="#me9b957874d" x="221.960489" y="298.376718" style="fill: #fda762; stroke: #fda762; stroke-linejoin: miter"/>
     <use xlink:href="#me9b957874d" x="252.282716" y="308.137723" style="fill: #fda762; stroke: #fda762; stroke-linejoin: miter"/>
     <use xlink:href="#me9b957874d" x="282.604942" y="316.782641" style="fill: #fda762; stroke: #fda762; stroke-linejoin: miter"/>
     <use xlink:href="#me9b957874d" x="312.927169" y="324.347314" style="fill: #fda762; stroke: #fda762; stroke-linejoin: miter"/>
     <use xlink:href="#me9b957874d" x="343.249395" y="330.692653" style="fill: #fda762; stroke: #fda762; stroke-linejoin: miter"/>
     <use xlink:href="#me9b957874d" x="373.571621" y="336.258793" style="fill: #fda762; stroke: #fda762; stroke-linejoin: miter"/>
     <use xlink:href="#me9b957874d" x="403.893848" y="341.289113" style="fill: #fda762; stroke: #fda762; stroke-linejoin: miter"/>
     <use xlink:href="#me9b957874d" x="434.216074" y="345.937592" style="fill: #fda762; stroke: #fda762; stroke-linejoin: miter"/>
     <use xlink:href="#me9b957874d" x="464.5383" y="350.588373" style="fill: #fda762; stroke: #fda762; stroke-linejoin: miter"/>
     <use xlink:href="#me9b957874d" x="494.860527" y="354.743511" style="fill: #fda762; stroke: #fda762; stroke-linejoin: miter"/>
     <use xlink:href="#me9b957874d" x="525.182753" y="359.594803" style="fill: #fda762; stroke: #fda762; stroke-linejoin: miter"/>
     <use xlink:href="#me9b957874d" x="555.504979" y="363.399086" style="fill: #fda762; stroke: #fda762; stroke-linejoin: miter"/>
     <use xlink:href="#me9b957874d" x="585.827206" y="367.674516" style="fill: #fda762; stroke: #fda762; stroke-linejoin: miter"/>
     <use xlink:href="#me9b957874d" x="616.149432" y="371.00482" style="fill: #fda762; stroke: #fda762; stroke-linejoin: miter"/>
     <use xlink:href="#me9b957874d" x="646.471659" y="374.64382" style="fill: #fda762; stroke: #fda762; stroke-linejoin: miter"/>
     <use xlink:href="#me9b957874d" x="676.793885" y="377.773304" style="fill: #fda762; stroke: #fda762; stroke-linejoin: miter"/>
    </g>
   </g>
   <g id="line2d_57">
    <path d="M 100.671584 108.082926 
L 130.99381 108.236018 
L 161.316037 108.617618 
L 191.638263 109.132513 
L 221.960489 110.240518 
L 252.282716 111.637337 
L 282.604942 113.421049 
L 312.927169 115.40008 
L 343.249395 117.670874 
L 373.571621 119.737114 
L 403.893848 121.835248 
L 434.216074 124.068981 
L 464.5383 126.170955 
L 494.860527 128.292613 
L 525.182753 130.106549 
L 555.504979 131.969108 
L 585.827206 133.739385 
L 616.149432 135.612936 
L 646.471659 137.334556 
L 676.793885 138.947428 
" clip-path="url(#p6ed90731b2)" style="fill: none; stroke: #6aaed6; stroke-width: 1.5; stroke-linecap: square"/>
    <defs>
     <path id="m8ff7406358" d="M -3 3 
L 3 3 
L 3 -3 
L -3 -3 
z
" style="stroke: #6aaed6; stroke-linejoin: miter"/>
    </defs>
    <g clip-path="url(#p6ed90731b2)">
     <use xlink:href="#m8ff7406358" x="100.671584" y="108.082926" style="fill: #6aaed6; stroke: #6aaed6; stroke-linejoin: miter"/>
     <use xlink:href="#m8ff7406358" x="130.99381" y="108.236018" style="fill: #6aaed6; stroke: #6aaed6; stroke-linejoin: miter"/>
     <use xlink:href="#m8ff7406358" x="161.316037" y="108.617618" style="fill: #6aaed6; stroke: #6aaed6; stroke-linejoin: miter"/>
     <use xlink:href="#m8ff7406358" x="191.638263" y="109.132513" style="fill: #6aaed6; stroke: #6aaed6; stroke-linejoin: miter"/>
     <use xlink:href="#m8ff7406358" x="221.960489" y="110.240518" style="fill: #6aaed6; stroke: #6aaed6; stroke-linejoin: miter"/>
     <use xlink:href="#m8ff7406358" x="252.282716" y="111.637337" style="fill: #6aaed6; stroke: #6aaed6; stroke-linejoin: miter"/>
     <use xlink:href="#m8ff7406358" x="282.604942" y="113.421049" style="fill: #6aaed6; stroke: #6aaed6; stroke-linejoin: miter"/>
     <use xlink:href="#m8ff7406358" x="312.927169" y="115.40008" style="fill: #6aaed6; stroke: #6aaed6; stroke-linejoin: miter"/>
     <use xlink:href="#m8ff7406358" x="343.249395" y="117.670874" style="fill: #6aaed6; stroke: #6aaed6; stroke-linejoin: miter"/>
     <use xlink:href="#m8ff7406358" x="373.571621" y="119.737114" style="fill: #6aaed6; stroke: #6aaed6; stroke-linejoin: miter"/>
     <use xlink:href="#m8ff7406358" x="403.893848" y="121.835248" style="fill: #6aaed6; stroke: #6aaed6; stroke-linejoin: miter"/>
     <use xlink:href="#m8ff7406358" x="434.216074" y="124.068981" style="fill: #6aaed6; stroke: #6aaed6; stroke-linejoin: miter"/>
     <use xlink:href="#m8ff7406358" x="464.5383" y="126.170955" style="fill: #6aaed6; stroke: #6aaed6; stroke-linejoin: miter"/>
     <use xlink:href="#m8ff7406358" x="494.860527" y="128.292613" style="fill: #6aaed6; stroke: #6aaed6; stroke-linejoin: miter"/>
     <use xlink:href="#m8ff7406358" x="525.182753" y="130.106549" style="fill: #6aaed6; stroke: #6aaed6; stroke-linejoin: miter"/>
     <use xlink:href="#m8ff7406358" x="555.504979" y="131.969108" style="fill: #6aaed6; stroke: #6aaed6; stroke-linejoin: miter"/>
     <use xlink:href="#m8ff7406358" x="585.827206" y="133.739385" style="fill: #6aaed6; stroke: #6aaed6; stroke-linejoin: miter"/>
     <use xlink:href="#m8ff7406358" x="616.149432" y="135.612936" style="fill: #6aaed6; stroke: #6aaed6; stroke-linejoin: miter"/>
     <use xlink:href="#m8ff7406358" x="646.471659" y="137.334556" style="fill: #6aaed6; stroke: #6aaed6; stroke-linejoin: miter"/>
     <use xlink:href="#m8ff7406358" x="676.793885" y="138.947428" style="fill: #6aaed6; stroke: #6aaed6; stroke-linejoin: miter"/>
    </g>
   </g>
   <g id="line2d_58">
    <path d="M 100.671584 259.748642 
L 130.99381 262.059697 
L 161.316037 266.454509 
L 191.638263 273.742145 
L 221.960489 283.031811 
L 252.282716 292.280048 
L 282.604942 301.05404 
L 312.927169 308.905404 
L 343.249395 316.125438 
L 373.571621 322.184531 
L 403.893848 327.84564 
L 434.216074 333.132712 
L 464.5383 337.88009 
L 494.860527 342.245689 
L 525.182753 346.437061 
L 555.504979 350.052578 
L 585.827206 353.487377 
L 616.149432 356.861098 
L 646.471659 359.865366 
L 676.793885 362.772814 
" clip-path="url(#p6ed90731b2)" style="fill: none; stroke: #fd8c3b; stroke-width: 1.5; stroke-linecap: square"/>
    <defs>
     <path id="m455303d5fc" d="M -3 3 
L 3 3 
L 3 -3 
L -3 -3 
z
" style="stroke: #fd8c3b; stroke-linejoin: miter"/>
    </defs>
    <g clip-path="url(#p6ed90731b2)">
     <use xlink:href="#m455303d5fc" x="100.671584" y="259.748642" style="fill: #fd8c3b; stroke: #fd8c3b; stroke-linejoin: miter"/>
     <use xlink:href="#m455303d5fc" x="130.99381" y="262.059697" style="fill: #fd8c3b; stroke: #fd8c3b; stroke-linejoin: miter"/>
     <use xlink:href="#m455303d5fc" x="161.316037" y="266.454509" style="fill: #fd8c3b; stroke: #fd8c3b; stroke-linejoin: miter"/>
     <use xlink:href="#m455303d5fc" x="191.638263" y="273.742145" style="fill: #fd8c3b; stroke: #fd8c3b; stroke-linejoin: miter"/>
     <use xlink:href="#m455303d5fc" x="221.960489" y="283.031811" style="fill: #fd8c3b; stroke: #fd8c3b; stroke-linejoin: miter"/>
     <use xlink:href="#m455303d5fc" x="252.282716" y="292.280048" style="fill: #fd8c3b; stroke: #fd8c3b; stroke-linejoin: miter"/>
     <use xlink:href="#m455303d5fc" x="282.604942" y="301.05404" style="fill: #fd8c3b; stroke: #fd8c3b; stroke-linejoin: miter"/>
     <use xlink:href="#m455303d5fc" x="312.927169" y="308.905404" style="fill: #fd8c3b; stroke: #fd8c3b; stroke-linejoin: miter"/>
     <use xlink:href="#m455303d5fc" x="343.249395" y="316.125438" style="fill: #fd8c3b; stroke: #fd8c3b; stroke-linejoin: miter"/>
     <use xlink:href="#m455303d5fc" x="373.571621" y="322.184531" style="fill: #fd8c3b; stroke: #fd8c3b; stroke-linejoin: miter"/>
     <use xlink:href="#m455303d5fc" x="403.893848" y="327.84564" style="fill: #fd8c3b; stroke: #fd8c3b; stroke-linejoin: miter"/>
     <use xlink:href="#m455303d5fc" x="434.216074" y="333.132712" style="fill: #fd8c3b; stroke: #fd8c3b; stroke-linejoin: miter"/>
     <use xlink:href="#m455303d5fc" x="464.5383" y="337.88009" style="fill: #fd8c3b; stroke: #fd8c3b; stroke-linejoin: miter"/>
     <use xlink:href="#m455303d5fc" x="494.860527" y="342.245689" style="fill: #fd8c3b; stroke: #fd8c3b; stroke-linejoin: miter"/>
     <use xlink:href="#m455303d5fc" x="525.182753" y="346.437061" style="fill: #fd8c3b; stroke: #fd8c3b; stroke-linejoin: miter"/>
     <use xlink:href="#m455303d5fc" x="555.504979" y="350.052578" style="fill: #fd8c3b; stroke: #fd8c3b; stroke-linejoin: miter"/>
     <use xlink:href="#m455303d5fc" x="585.827206" y="353.487377" style="fill: #fd8c3b; stroke: #fd8c3b; stroke-linejoin: miter"/>
     <use xlink:href="#m455303d5fc" x="616.149432" y="356.861098" style="fill: #fd8c3b; stroke: #fd8c3b; stroke-linejoin: miter"/>
     <use xlink:href="#m455303d5fc" x="646.471659" y="359.865366" style="fill: #fd8c3b; stroke: #fd8c3b; stroke-linejoin: miter"/>
     <use xlink:href="#m455303d5fc" x="676.793885" y="362.772814" style="fill: #fd8c3b; stroke: #fd8c3b; stroke-linejoin: miter"/>
    </g>
   </g>
   <g id="line2d_59">
    <path d="M 100.671584 107.574562 
L 130.99381 107.593408 
L 161.316037 107.657555 
L 191.638263 107.771023 
L 221.960489 108.006614 
L 252.282716 108.416699 
L 282.604942 108.967917 
L 312.927169 109.682438 
L 343.249395 110.671737 
L 373.571621 111.729803 
L 403.893848 112.835811 
L 434.216074 114.064753 
L 464.5383 115.367619 
L 494.860527 116.712408 
L 525.182753 118.092086 
L 555.504979 119.451872 
L 585.827206 120.862638 
L 616.149432 122.233667 
L 646.471659 123.541168 
L 676.793885 124.943532 
" clip-path="url(#p6ed90731b2)" style="fill: none; stroke: #4a98c9; stroke-width: 1.5; stroke-linecap: square"/>
    <defs>
     <path id="m6bf3b0d04b" d="M 0 -3 
L -3 3 
L 3 3 
z
" style="stroke: #4a98c9; stroke-linejoin: miter"/>
    </defs>
    <g clip-path="url(#p6ed90731b2)">
     <use xlink:href="#m6bf3b0d04b" x="100.671584" y="107.574562" style="fill: #4a98c9; stroke: #4a98c9; stroke-linejoin: miter"/>
     <use xlink:href="#m6bf3b0d04b" x="130.99381" y="107.593408" style="fill: #4a98c9; stroke: #4a98c9; stroke-linejoin: miter"/>
     <use xlink:href="#m6bf3b0d04b" x="161.316037" y="107.657555" style="fill: #4a98c9; stroke: #4a98c9; stroke-linejoin: miter"/>
     <use xlink:href="#m6bf3b0d04b" x="191.638263" y="107.771023" style="fill: #4a98c9; stroke: #4a98c9; stroke-linejoin: miter"/>
     <use xlink:href="#m6bf3b0d04b" x="221.960489" y="108.006614" style="fill: #4a98c9; stroke: #4a98c9; stroke-linejoin: miter"/>
     <use xlink:href="#m6bf3b0d04b" x="252.282716" y="108.416699" style="fill: #4a98c9; stroke: #4a98c9; stroke-linejoin: miter"/>
     <use xlink:href="#m6bf3b0d04b" x="282.604942" y="108.967917" style="fill: #4a98c9; stroke: #4a98c9; stroke-linejoin: miter"/>
     <use xlink:href="#m6bf3b0d04b" x="312.927169" y="109.682438" style="fill: #4a98c9; stroke: #4a98c9; stroke-linejoin: miter"/>
     <use xlink:href="#m6bf3b0d04b" x="343.249395" y="110.671737" style="fill: #4a98c9; stroke: #4a98c9; stroke-linejoin: miter"/>
     <use xlink:href="#m6bf3b0d04b" x="373.571621" y="111.729803" style="fill: #4a98c9; stroke: #4a98c9; stroke-linejoin: miter"/>
     <use xlink:href="#m6bf3b0d04b" x="403.893848" y="112.835811" style="fill: #4a98c9; stroke: #4a98c9; stroke-linejoin: miter"/>
     <use xlink:href="#m6bf3b0d04b" x="434.216074" y="114.064753" style="fill: #4a98c9; stroke: #4a98c9; stroke-linejoin: miter"/>
     <use xlink:href="#m6bf3b0d04b" x="464.5383" y="115.367619" style="fill: #4a98c9; stroke: #4a98c9; stroke-linejoin: miter"/>
     <use xlink:href="#m6bf3b0d04b" x="494.860527" y="116.712408" style="fill: #4a98c9; stroke: #4a98c9; stroke-linejoin: miter"/>
     <use xlink:href="#m6bf3b0d04b" x="525.182753" y="118.092086" style="fill: #4a98c9; stroke: #4a98c9; stroke-linejoin: miter"/>
     <use xlink:href="#m6bf3b0d04b" x="555.504979" y="119.451872" style="fill: #4a98c9; stroke: #4a98c9; stroke-linejoin: miter"/>
     <use xlink:href="#m6bf3b0d04b" x="585.827206" y="120.862638" style="fill: #4a98c9; stroke: #4a98c9; stroke-linejoin: miter"/>
     <use xlink:href="#m6bf3b0d04b" x="616.149432" y="122.233667" style="fill: #4a98c9; stroke: #4a98c9; stroke-linejoin: miter"/>
     <use xlink:href="#m6bf3b0d04b" x="646.471659" y="123.541168" style="fill: #4a98c9; stroke: #4a98c9; stroke-linejoin: miter"/>
     <use xlink:href="#m6bf3b0d04b" x="676.793885" y="124.943532" style="fill: #4a98c9; stroke: #4a98c9; stroke-linejoin: miter"/>
    </g>
   </g>
   <g id="line2d_60">
    <path d="M 100.671584 257.750182 
L 130.99381 259.821989 
L 161.316037 263.226588 
L 191.638263 268.756017 
L 221.960489 276.34329 
L 252.282716 284.30638 
L 282.604942 292.006428 
L 312.927169 299.324698 
L 343.249395 306.061382 
L 373.571621 312.227883 
L 403.893848 318.044397 
L 434.216074 323.386092 
L 464.5383 328.162594 
L 494.860527 332.648777 
L 525.182753 337.153017 
L 555.504979 341.049226 
L 585.827206 344.876458 
L 616.149432 348.35279 
L 646.471659 351.487094 
L 676.793885 355.008031 
" clip-path="url(#p6ed90731b2)" style="fill: none; stroke: #f3701b; stroke-width: 1.5; stroke-linecap: square"/>
    <defs>
     <path id="m419159d60b" d="M 0 -3 
L -3 3 
L 3 3 
z
" style="stroke: #f3701b; stroke-linejoin: miter"/>
    </defs>
    <g clip-path="url(#p6ed90731b2)">
     <use xlink:href="#m419159d60b" x="100.671584" y="257.750182" style="fill: #f3701b; stroke: #f3701b; stroke-linejoin: miter"/>
     <use xlink:href="#m419159d60b" x="130.99381" y="259.821989" style="fill: #f3701b; stroke: #f3701b; stroke-linejoin: miter"/>
     <use xlink:href="#m419159d60b" x="161.316037" y="263.226588" style="fill: #f3701b; stroke: #f3701b; stroke-linejoin: miter"/>
     <use xlink:href="#m419159d60b" x="191.638263" y="268.756017" style="fill: #f3701b; stroke: #f3701b; stroke-linejoin: miter"/>
     <use xlink:href="#m419159d60b" x="221.960489" y="276.34329" style="fill: #f3701b; stroke: #f3701b; stroke-linejoin: miter"/>
     <use xlink:href="#m419159d60b" x="252.282716" y="284.30638" style="fill: #f3701b; stroke: #f3701b; stroke-linejoin: miter"/>
     <use xlink:href="#m419159d60b" x="282.604942" y="292.006428" style="fill: #f3701b; stroke: #f3701b; stroke-linejoin: miter"/>
     <use xlink:href="#m419159d60b" x="312.927169" y="299.324698" style="fill: #f3701b; stroke: #f3701b; stroke-linejoin: miter"/>
     <use xlink:href="#m419159d60b" x="343.249395" y="306.061382" style="fill: #f3701b; stroke: #f3701b; stroke-linejoin: miter"/>
     <use xlink:href="#m419159d60b" x="373.571621" y="312.227883" style="fill: #f3701b; stroke: #f3701b; stroke-linejoin: miter"/>
     <use xlink:href="#m419159d60b" x="403.893848" y="318.044397" style="fill: #f3701b; stroke: #f3701b; stroke-linejoin: miter"/>
     <use xlink:href="#m419159d60b" x="434.216074" y="323.386092" style="fill: #f3701b; stroke: #f3701b; stroke-linejoin: miter"/>
     <use xlink:href="#m419159d60b" x="464.5383" y="328.162594" style="fill: #f3701b; stroke: #f3701b; stroke-linejoin: miter"/>
     <use xlink:href="#m419159d60b" x="494.860527" y="332.648777" style="fill: #f3701b; stroke: #f3701b; stroke-linejoin: miter"/>
     <use xlink:href="#m419159d60b" x="525.182753" y="337.153017" style="fill: #f3701b; stroke: #f3701b; stroke-linejoin: miter"/>
     <use xlink:href="#m419159d60b" x="555.504979" y="341.049226" style="fill: #f3701b; stroke: #f3701b; stroke-linejoin: miter"/>
     <use xlink:href="#m419159d60b" x="585.827206" y="344.876458" style="fill: #f3701b; stroke: #f3701b; stroke-linejoin: miter"/>
     <use xlink:href="#m419159d60b" x="616.149432" y="348.35279" style="fill: #f3701b; stroke: #f3701b; stroke-linejoin: miter"/>
     <use xlink:href="#m419159d60b" x="646.471659" y="351.487094" style="fill: #f3701b; stroke: #f3701b; stroke-linejoin: miter"/>
     <use xlink:href="#m419159d60b" x="676.793885" y="355.008031" style="fill: #f3701b; stroke: #f3701b; stroke-linejoin: miter"/>
    </g>
   </g>
   <g id="line2d_61">
    <path d="M 100.671584 107.52937 
L 130.99381 107.52937 
L 161.316037 107.536898 
L 191.638263 107.551959 
L 221.960489 107.585868 
L 252.282716 107.680221 
L 282.604942 107.801339 
L 312.927169 108.048567 
L 343.249395 108.412846 
L 373.571621 108.866384 
L 403.893848 109.408449 
L 434.216074 110.083097 
L 464.5383 110.786473 
L 494.860527 111.654132 
L 525.182753 112.529371 
L 555.504979 113.421049 
L 585.827206 114.420151 
L 616.149432 115.251916 
L 646.471659 116.168713 
L 676.793885 117.064735 
" clip-path="url(#p6ed90731b2)" style="fill: none; stroke: #2e7ebc; stroke-width: 1.5; stroke-linecap: square"/>
    <defs>
     <path id="mae39ce1148" d="M 0 3 
C 0.795609 3 1.55874 2.683901 2.12132 2.12132 
C 2.683901 1.55874 3 0.795609 3 0 
C 3 -0.795609 2.683901 -1.55874 2.12132 -2.12132 
C 1.55874 -2.683901 0.795609 -3 0 -3 
C -0.795609 -3 -1.55874 -2.683901 -2.12132 -2.12132 
C -2.683901 -1.55874 -3 -0.795609 -3 0 
C -3 0.795609 -2.683901 1.55874 -2.12132 2.12132 
C -1.55874 2.683901 -0.795609 3 0 3 
z
" style="stroke: #2e7ebc"/>
    </defs>
    <g clip-path="url(#p6ed90731b2)">
     <use xlink:href="#mae39ce1148" x="100.671584" y="107.52937" style="fill: #2e7ebc; stroke: #2e7ebc"/>
     <use xlink:href="#mae39ce1148" x="130.99381" y="107.52937" style="fill: #2e7ebc; stroke: #2e7ebc"/>
     <use xlink:href="#mae39ce1148" x="161.316037" y="107.536898" style="fill: #2e7ebc; stroke: #2e7ebc"/>
     <use xlink:href="#mae39ce1148" x="191.638263" y="107.551959" style="fill: #2e7ebc; stroke: #2e7ebc"/>
     <use xlink:href="#mae39ce1148" x="221.960489" y="107.585868" style="fill: #2e7ebc; stroke: #2e7ebc"/>
     <use xlink:href="#mae39ce1148" x="252.282716" y="107.680221" style="fill: #2e7ebc; stroke: #2e7ebc"/>
     <use xlink:href="#mae39ce1148" x="282.604942" y="107.801339" style="fill: #2e7ebc; stroke: #2e7ebc"/>
     <use xlink:href="#mae39ce1148" x="312.927169" y="108.048567" style="fill: #2e7ebc; stroke: #2e7ebc"/>
     <use xlink:href="#mae39ce1148" x="343.249395" y="108.412846" style="fill: #2e7ebc; stroke: #2e7ebc"/>
     <use xlink:href="#mae39ce1148" x="373.571621" y="108.866384" style="fill: #2e7ebc; stroke: #2e7ebc"/>
     <use xlink:href="#mae39ce1148" x="403.893848" y="109.408449" style="fill: #2e7ebc; stroke: #2e7ebc"/>
     <use xlink:href="#mae39ce1148" x="434.216074" y="110.083097" style="fill: #2e7ebc; stroke: #2e7ebc"/>
     <use xlink:href="#mae39ce1148" x="464.5383" y="110.786473" style="fill: #2e7ebc; stroke: #2e7ebc"/>
     <use xlink:href="#mae39ce1148" x="494.860527" y="111.654132" style="fill: #2e7ebc; stroke: #2e7ebc"/>
     <use xlink:href="#mae39ce1148" x="525.182753" y="112.529371" style="fill: #2e7ebc; stroke: #2e7ebc"/>
     <use xlink:href="#mae39ce1148" x="555.504979" y="113.421049" style="fill: #2e7ebc; stroke: #2e7ebc"/>
     <use xlink:href="#mae39ce1148" x="585.827206" y="114.420151" style="fill: #2e7ebc; stroke: #2e7ebc"/>
     <use xlink:href="#mae39ce1148" x="616.149432" y="115.251916" style="fill: #2e7ebc; stroke: #2e7ebc"/>
     <use xlink:href="#mae39ce1148" x="646.471659" y="116.168713" style="fill: #2e7ebc; stroke: #2e7ebc"/>
     <use xlink:href="#mae39ce1148" x="676.793885" y="117.064735" style="fill: #2e7ebc; stroke: #2e7ebc"/>
    </g>
   </g>
   <g id="line2d_62">
    <path d="M 100.671584 257.204845 
L 130.99381 259.143649 
L 161.316037 262.305654 
L 191.638263 266.672776 
L 221.960489 272.62366 
L 252.282716 279.586032 
L 282.604942 286.600529 
L 312.927169 293.496607 
L 343.249395 299.923081 
L 373.571621 306.061007 
L 403.893848 311.575157 
L 434.216074 316.738351 
L 464.5383 321.641092 
L 494.860527 326.234588 
L 525.182753 330.48056 
L 555.504979 334.561291 
L 585.827206 338.315893 
L 616.149432 341.725699 
L 646.471659 345.018634 
L 676.793885 348.254687 
" clip-path="url(#p6ed90731b2)" style="fill: none; stroke: #e25508; stroke-width: 1.5; stroke-linecap: square"/>
    <defs>
     <path id="m7bad2694b7" d="M 0 3 
C 0.795609 3 1.55874 2.683901 2.12132 2.12132 
C 2.683901 1.55874 3 0.795609 3 0 
C 3 -0.795609 2.683901 -1.55874 2.12132 -2.12132 
C 1.55874 -2.683901 0.795609 -3 0 -3 
C -0.795609 -3 -1.55874 -2.683901 -2.12132 -2.12132 
C -2.683901 -1.55874 -3 -0.795609 -3 0 
C -3 0.795609 -2.683901 1.55874 -2.12132 2.12132 
C -1.55874 2.683901 -0.795609 3 0 3 
z
" style="stroke: #e25508"/>
    </defs>
    <g clip-path="url(#p6ed90731b2)">
     <use xlink:href="#m7bad2694b7" x="100.671584" y="257.204845" style="fill: #e25508; stroke: #e25508"/>
     <use xlink:href="#m7bad2694b7" x="130.99381" y="259.143649" style="fill: #e25508; stroke: #e25508"/>
     <use xlink:href="#m7bad2694b7" x="161.316037" y="262.305654" style="fill: #e25508; stroke: #e25508"/>
     <use xlink:href="#m7bad2694b7" x="191.638263" y="266.672776" style="fill: #e25508; stroke: #e25508"/>
     <use xlink:href="#m7bad2694b7" x="221.960489" y="272.62366" style="fill: #e25508; stroke: #e25508"/>
     <use xlink:href="#m7bad2694b7" x="252.282716" y="279.586032" style="fill: #e25508; stroke: #e25508"/>
     <use xlink:href="#m7bad2694b7" x="282.604942" y="286.600529" style="fill: #e25508; stroke: #e25508"/>
     <use xlink:href="#m7bad2694b7" x="312.927169" y="293.496607" style="fill: #e25508; stroke: #e25508"/>
     <use xlink:href="#m7bad2694b7" x="343.249395" y="299.923081" style="fill: #e25508; stroke: #e25508"/>
     <use xlink:href="#m7bad2694b7" x="373.571621" y="306.061007" style="fill: #e25508; stroke: #e25508"/>
     <use xlink:href="#m7bad2694b7" x="403.893848" y="311.575157" style="fill: #e25508; stroke: #e25508"/>
     <use xlink:href="#m7bad2694b7" x="434.216074" y="316.738351" style="fill: #e25508; stroke: #e25508"/>
     <use xlink:href="#m7bad2694b7" x="464.5383" y="321.641092" style="fill: #e25508; stroke: #e25508"/>
     <use xlink:href="#m7bad2694b7" x="494.860527" y="326.234588" style="fill: #e25508; stroke: #e25508"/>
     <use xlink:href="#m7bad2694b7" x="525.182753" y="330.48056" style="fill: #e25508; stroke: #e25508"/>
     <use xlink:href="#m7bad2694b7" x="555.504979" y="334.561291" style="fill: #e25508; stroke: #e25508"/>
     <use xlink:href="#m7bad2694b7" x="585.827206" y="338.315893" style="fill: #e25508; stroke: #e25508"/>
     <use xlink:href="#m7bad2694b7" x="616.149432" y="341.725699" style="fill: #e25508; stroke: #e25508"/>
     <use xlink:href="#m7bad2694b7" x="646.471659" y="345.018634" style="fill: #e25508; stroke: #e25508"/>
     <use xlink:href="#m7bad2694b7" x="676.793885" y="348.254687" style="fill: #e25508; stroke: #e25508"/>
    </g>
   </g>
   <g id="line2d_63">
    <path d="M 100.671584 107.525606 
L 130.99381 107.525606 
L 161.316037 107.52937 
L 191.638263 107.52937 
L 221.960489 107.536898 
L 252.282716 107.559492 
L 282.604942 107.585868 
L 312.927169 107.672664 
L 343.249395 107.797548 
L 373.571621 107.99137 
L 403.893848 108.270549 
L 434.216074 108.613744 
L 464.5383 109.014871 
L 494.860527 109.448034 
L 525.182753 109.962451 
L 555.504979 110.463647 
L 585.827206 111.037653 
L 616.149432 111.662533 
L 646.471659 112.319331 
L 676.793885 113.009558 
" clip-path="url(#p6ed90731b2)" style="fill: none; stroke: #1764ab; stroke-width: 1.5; stroke-linecap: square"/>
    <defs>
     <path id="me9abfcb848" d="M -0 3 
L 3 -3 
L -3 -3 
z
" style="stroke: #1764ab; stroke-linejoin: miter"/>
    </defs>
    <g clip-path="url(#p6ed90731b2)">
     <use xlink:href="#me9abfcb848" x="100.671584" y="107.525606" style="fill: #1764ab; stroke: #1764ab; stroke-linejoin: miter"/>
     <use xlink:href="#me9abfcb848" x="130.99381" y="107.525606" style="fill: #1764ab; stroke: #1764ab; stroke-linejoin: miter"/>
     <use xlink:href="#me9abfcb848" x="161.316037" y="107.52937" style="fill: #1764ab; stroke: #1764ab; stroke-linejoin: miter"/>
     <use xlink:href="#me9abfcb848" x="191.638263" y="107.52937" style="fill: #1764ab; stroke: #1764ab; stroke-linejoin: miter"/>
     <use xlink:href="#me9abfcb848" x="221.960489" y="107.536898" style="fill: #1764ab; stroke: #1764ab; stroke-linejoin: miter"/>
     <use xlink:href="#me9abfcb848" x="252.282716" y="107.559492" style="fill: #1764ab; stroke: #1764ab; stroke-linejoin: miter"/>
     <use xlink:href="#me9abfcb848" x="282.604942" y="107.585868" style="fill: #1764ab; stroke: #1764ab; stroke-linejoin: miter"/>
     <use xlink:href="#me9abfcb848" x="312.927169" y="107.672664" style="fill: #1764ab; stroke: #1764ab; stroke-linejoin: miter"/>
     <use xlink:href="#me9abfcb848" x="343.249395" y="107.797548" style="fill: #1764ab; stroke: #1764ab; stroke-linejoin: miter"/>
     <use xlink:href="#me9abfcb848" x="373.571621" y="107.99137" style="fill: #1764ab; stroke: #1764ab; stroke-linejoin: miter"/>
     <use xlink:href="#me9abfcb848" x="403.893848" y="108.270549" style="fill: #1764ab; stroke: #1764ab; stroke-linejoin: miter"/>
     <use xlink:href="#me9abfcb848" x="434.216074" y="108.613744" style="fill: #1764ab; stroke: #1764ab; stroke-linejoin: miter"/>
     <use xlink:href="#me9abfcb848" x="464.5383" y="109.014871" style="fill: #1764ab; stroke: #1764ab; stroke-linejoin: miter"/>
     <use xlink:href="#me9abfcb848" x="494.860527" y="109.448034" style="fill: #1764ab; stroke: #1764ab; stroke-linejoin: miter"/>
     <use xlink:href="#me9abfcb848" x="525.182753" y="109.962451" style="fill: #1764ab; stroke: #1764ab; stroke-linejoin: miter"/>
     <use xlink:href="#me9abfcb848" x="555.504979" y="110.463647" style="fill: #1764ab; stroke: #1764ab; stroke-linejoin: miter"/>
     <use xlink:href="#me9abfcb848" x="585.827206" y="111.037653" style="fill: #1764ab; stroke: #1764ab; stroke-linejoin: miter"/>
     <use xlink:href="#me9abfcb848" x="616.149432" y="111.662533" style="fill: #1764ab; stroke: #1764ab; stroke-linejoin: miter"/>
     <use xlink:href="#me9abfcb848" x="646.471659" y="112.319331" style="fill: #1764ab; stroke: #1764ab; stroke-linejoin: miter"/>
     <use xlink:href="#me9abfcb848" x="676.793885" y="113.009558" style="fill: #1764ab; stroke: #1764ab; stroke-linejoin: miter"/>
    </g>
   </g>
   <g id="line2d_64">
    <path d="M 100.671584 256.881631 
L 130.99381 258.710252 
L 161.316037 261.402429 
L 191.638263 265.256688 
L 221.960489 270.246332 
L 252.282716 276.069054 
L 282.604942 282.501987 
L 312.927169 288.873063 
L 343.249395 294.916076 
L 373.571621 300.457654 
L 403.893848 305.81262 
L 434.216074 311.040151 
L 464.5383 315.853052 
L 494.860527 320.428455 
L 525.182753 324.402449 
L 555.504979 328.251254 
L 585.827206 331.923062 
L 616.149432 335.46851 
L 646.471659 338.955859 
L 676.793885 342.240944 
" clip-path="url(#p6ed90731b2)" style="fill: none; stroke: #c54102; stroke-width: 1.5; stroke-linecap: square"/>
    <defs>
     <path id="mcb7b003f21" d="M -0 3 
L 3 -3 
L -3 -3 
z
" style="stroke: #c54102; stroke-linejoin: miter"/>
    </defs>
    <g clip-path="url(#p6ed90731b2)">
     <use xlink:href="#mcb7b003f21" x="100.671584" y="256.881631" style="fill: #c54102; stroke: #c54102; stroke-linejoin: miter"/>
     <use xlink:href="#mcb7b003f21" x="130.99381" y="258.710252" style="fill: #c54102; stroke: #c54102; stroke-linejoin: miter"/>
     <use xlink:href="#mcb7b003f21" x="161.316037" y="261.402429" style="fill: #c54102; stroke: #c54102; stroke-linejoin: miter"/>
     <use xlink:href="#mcb7b003f21" x="191.638263" y="265.256688" style="fill: #c54102; stroke: #c54102; stroke-linejoin: miter"/>
     <use xlink:href="#mcb7b003f21" x="221.960489" y="270.246332" style="fill: #c54102; stroke: #c54102; stroke-linejoin: miter"/>
     <use xlink:href="#mcb7b003f21" x="252.282716" y="276.069054" style="fill: #c54102; stroke: #c54102; stroke-linejoin: miter"/>
     <use xlink:href="#mcb7b003f21" x="282.604942" y="282.501987" style="fill: #c54102; stroke: #c54102; stroke-linejoin: miter"/>
     <use xlink:href="#mcb7b003f21" x="312.927169" y="288.873063" style="fill: #c54102; stroke: #c54102; stroke-linejoin: miter"/>
     <use xlink:href="#mcb7b003f21" x="343.249395" y="294.916076" style="fill: #c54102; stroke: #c54102; stroke-linejoin: miter"/>
     <use xlink:href="#mcb7b003f21" x="373.571621" y="300.457654" style="fill: #c54102; stroke: #c54102; stroke-linejoin: miter"/>
     <use xlink:href="#mcb7b003f21" x="403.893848" y="305.81262" style="fill: #c54102; stroke: #c54102; stroke-linejoin: miter"/>
     <use xlink:href="#mcb7b003f21" x="434.216074" y="311.040151" style="fill: #c54102; stroke: #c54102; stroke-linejoin: miter"/>
     <use xlink:href="#mcb7b003f21" x="464.5383" y="315.853052" style="fill: #c54102; stroke: #c54102; stroke-linejoin: miter"/>
     <use xlink:href="#mcb7b003f21" x="494.860527" y="320.428455" style="fill: #c54102; stroke: #c54102; stroke-linejoin: miter"/>
     <use xlink:href="#mcb7b003f21" x="525.182753" y="324.402449" style="fill: #c54102; stroke: #c54102; stroke-linejoin: miter"/>
     <use xlink:href="#mcb7b003f21" x="555.504979" y="328.251254" style="fill: #c54102; stroke: #c54102; stroke-linejoin: miter"/>
     <use xlink:href="#mcb7b003f21" x="585.827206" y="331.923062" style="fill: #c54102; stroke: #c54102; stroke-linejoin: miter"/>
     <use xlink:href="#mcb7b003f21" x="616.149432" y="335.46851" style="fill: #c54102; stroke: #c54102; stroke-linejoin: miter"/>
     <use xlink:href="#mcb7b003f21" x="646.471659" y="338.955859" style="fill: #c54102; stroke: #c54102; stroke-linejoin: miter"/>
     <use xlink:href="#mcb7b003f21" x="676.793885" y="342.240944" style="fill: #c54102; stroke: #c54102; stroke-linejoin: miter"/>
    </g>
   </g>
   <g id="line2d_65">
    <path clip-path="url(#p6ed90731b2)" style="fill: none; stroke-dasharray: 3.7,1.6; stroke-dashoffset: 0; stroke: #000000"/>
   </g>
   <g id="patch_3">
    <path d="M 71.865469 393.574739 
L 71.865469 81.44 
" style="fill: none; stroke: #000000; stroke-width: 0.8; stroke-linejoin: miter; stroke-linecap: square"/>
   </g>
   <g id="patch_4">
    <path d="M 705.6 393.574739 
L 705.6 81.44 
" style="fill: none; stroke: #000000; stroke-width: 0.8; stroke-linejoin: miter; stroke-linecap: square"/>
   </g>
   <g id="patch_5">
    <path d="M 71.865469 393.574739 
L 705.6 393.574739 
" style="fill: none; stroke: #000000; stroke-width: 0.8; stroke-linejoin: miter; stroke-linecap: square"/>
   </g>
   <g id="patch_6">
    <path d="M 71.865469 81.44 
L 705.6 81.44 
" style="fill: none; stroke: #000000; stroke-width: 0.8; stroke-linejoin: miter; stroke-linecap: square"/>
   </g>
  </g>
  <g id="legend_1">
   <g id="patch_7">
    <path d="M 24.760685 75.635634 
L 688.039315 75.635634 
Q 692.039315 75.635634 692.039315 71.635634 
L 692.039315 45.76 
Q 692.039315 41.76 688.039315 41.76 
L 24.760685 41.76 
Q 20.760685 41.76 20.760685 45.76 
L 20.760685 71.635634 
Q 20.760685 75.635634 24.760685 75.635634 
z
" style="fill: #ffffff; opacity: 0.8; stroke: #cccccc; stroke-linejoin: miter"/>
   </g>
   <g id="line2d_66"/>
   <g id="text_27">
    <!-- Absolute Error $\epsilon$: -->
    <g transform="translate(38.760685 63.76) scale(0.2 -0.2)">
     <defs>
      <path id="CMSS17-41" d="M 2272 4416 
L 1722 4416 
L 166 0 
L 653 0 
L 1101 1280 
L 2816 1280 
L 3270 0 
L 3827 0 
L 2272 4416 
z
M 2694 1637 
L 1222 1637 
C 1530 2528 1914 3638 1958 3925 
L 1965 3925 
C 2010 3663 2138 3281 2246 2956 
L 2694 1637 
z
" transform="scale(0.015625)"/>
      <path id="CMSS17-62" d="M 954 4416 
L 480 4416 
L 480 -13 
L 966 -13 
L 966 274 
C 1210 38 1504 -64 1766 -64 
C 2381 -64 2880 549 2880 1352 
C 2880 2086 2496 2756 1926 2756 
C 1523 2756 1165 2591 954 2419 
L 954 4416 
z
M 966 2046 
C 1107 2222 1306 2368 1587 2368 
C 1965 2368 2394 2097 2394 1352 
C 2394 558 1882 325 1530 325 
C 1402 325 1267 356 1139 464 
C 966 615 966 709 966 797 
L 966 2046 
z
" transform="scale(0.015625)"/>
      <path id="CMSS17-73" d="M 2061 2627 
C 1683 2807 1389 2807 1197 2807 
C 742 2807 198 2648 198 2003 
C 198 1359 902 1218 1094 1179 
C 1389 1122 1715 1058 1715 740 
C 1715 337 1254 337 1171 337 
C 915 337 563 407 243 638 
L 166 210 
C 531 0 883 -64 1178 -64 
C 1965 -64 2163 416 2163 781 
C 2163 1094 1984 1305 1862 1401 
C 1651 1568 1574 1587 1050 1696 
C 960 1709 646 1779 646 2066 
C 646 2432 1050 2432 1139 2432 
C 1555 2432 1811 2303 1984 2208 
L 2061 2627 
z
" transform="scale(0.015625)"/>
      <path id="CMSS17-6c" d="M 947 4416 
L 474 4416 
L 474 0 
L 947 0 
L 947 4416 
z
" transform="scale(0.015625)"/>
      <path id="CMSS17-75" d="M 2618 2739 
L 2131 2739 
L 2131 972 
C 2131 498 1786 306 1421 306 
C 998 306 960 447 960 709 
L 960 2739 
L 474 2739 
L 474 678 
C 474 179 646 -64 1088 -64 
C 1306 -64 1798 -13 2144 306 
L 2144 0 
L 2618 0 
L 2618 2739 
z
" transform="scale(0.015625)"/>
      <path id="CMSS17-74" d="M 1069 2368 
L 1901 2368 
L 1901 2737 
L 1069 2737 
L 1069 3520 
L 614 3520 
L 614 2737 
L 109 2737 
L 109 2368 
L 602 2368 
L 602 749 
C 602 384 685 -64 1107 -64 
C 1427 -64 1722 25 2003 172 
L 1901 548 
C 1747 414 1562 337 1363 337 
C 1082 337 1069 696 1069 856 
L 1069 2368 
z
" transform="scale(0.015625)"/>
      <path id="CMSS17-65" d="M 2502 1377 
C 2502 1590 2490 2003 2285 2345 
C 2061 2713 1696 2816 1421 2816 
C 755 2816 192 2188 192 1375 
C 192 582 774 -64 1510 -64 
C 1798 -64 2150 19 2470 248 
C 2470 274 2458 414 2451 420 
C 2451 433 2432 630 2432 656 
C 2125 407 1773 325 1517 325 
C 1107 325 666 667 646 1377 
L 2502 1377 
z
M 698 1728 
C 781 2084 1062 2421 1421 2421 
C 1517 2421 1965 2421 2080 1728 
L 698 1728 
z
" transform="scale(0.015625)"/>
      <path id="CMMI12-f" d="M 1862 1467 
C 1958 1467 2067 1467 2067 1569 
C 2067 1652 2003 1652 1888 1652 
L 851 1652 
C 1011 2226 1389 2573 1958 2573 
L 2144 2573 
C 2253 2573 2349 2573 2349 2675 
C 2349 2758 2278 2758 2163 2758 
L 1946 2758 
C 1158 2758 294 2131 294 1126 
C 294 416 774 -64 1408 -64 
C 1818 -64 2221 194 2221 258 
C 2221 296 2202 336 2163 336 
C 2144 336 2131 329 2099 304 
C 1856 142 1619 64 1427 64 
C 1088 64 730 290 730 918 
C 730 1040 742 1208 800 1467 
L 1862 1467 
z
" transform="scale(0.015625)"/>
      <path id="CMSS17-3a" d="M 1088 2749 
L 576 2749 
L 576 2240 
L 1088 2240 
L 1088 2749 
z
M 576 510 
L 576 0 
L 1088 0 
L 1088 510 
L 576 510 
z
" transform="scale(0.015625)"/>
     </defs>
     <use xlink:href="#CMSS17-41" transform="scale(0.996264)"/>
     <use xlink:href="#CMSS17-62" transform="translate(62.217855 0) scale(0.996264)"/>
     <use xlink:href="#CMSS17-73" transform="translate(110.422798 0) scale(0.996264)"/>
     <use xlink:href="#CMSS17-6f" transform="translate(146.33634 0) scale(0.996264)"/>
     <use xlink:href="#CMSS17-6c" transform="translate(193.179964 0) scale(0.996264)"/>
     <use xlink:href="#CMSS17-75" transform="translate(215.360687 0) scale(0.996264)"/>
     <use xlink:href="#CMSS17-74" transform="translate(263.56563 0) scale(0.996264)"/>
     <use xlink:href="#CMSS17-65" transform="translate(297.397196 0) scale(0.996264)"/>
     <use xlink:href="#CMSS17-45" transform="translate(370.265131 0) scale(0.996264)"/>
     <use xlink:href="#CMSS17-72" transform="translate(426.157144 0) scale(0.996264)"/>
     <use xlink:href="#CMSS17-72" transform="translate(458.066917 0) scale(0.996264)"/>
     <use xlink:href="#CMSS17-6f" transform="translate(489.97669 0) scale(0.996264)"/>
     <use xlink:href="#CMSS17-72" transform="translate(534.217859 0) scale(0.996264)"/>
     <use xlink:href="#CMMI12-f" transform="translate(597.356744 0) scale(0.996264)"/>
     <use xlink:href="#CMSS17-3a" transform="translate(636.745703 0) scale(0.996264)"/>
    </g>
   </g>
   <g id="line2d_67">
    <path d="M 211.314618 56.76 
L 211.314618 56.76 
L 211.314618 56.76 
" style="fill: none; stroke: #94c4df; stroke-width: 1.5; stroke-linecap: square"/>
    <g>
     <use xlink:href="#m36d3960308" x="211.314618" y="56.76" style="fill: #94c4df; stroke: #94c4df; stroke-linejoin: miter"/>
    </g>
   </g>
   <g id="text_28">
    <!-- Size 4 -->
    <g transform="translate(221.314618 63.76) scale(0.2 -0.2)">
     <defs>
      <path id="CMSS17-53" d="M 2797 4169 
C 2515 4334 2208 4480 1690 4480 
C 864 4480 333 3879 333 3266 
C 333 3025 403 2753 653 2475 
C 902 2196 1184 2121 1542 2033 
C 1690 1994 1939 1924 1984 1906 
C 2342 1767 2515 1444 2515 1140 
C 2515 742 2202 318 1645 318 
C 1453 318 890 318 358 819 
L 269 318 
C 794 -64 1363 -128 1651 -128 
C 2438 -128 3002 488 3002 1186 
C 3002 1440 2925 1763 2656 2061 
C 2394 2347 2163 2410 1638 2549 
C 1338 2626 1146 2677 986 2873 
C 877 3013 819 3146 819 3317 
C 819 3673 1126 4060 1690 4060 
C 1971 4060 2336 4002 2707 3660 
L 2797 4169 
z
" transform="scale(0.015625)"/>
      <path id="CMSS17-69" d="M 979 4183 
L 442 4183 
L 442 3648 
L 979 3648 
L 979 4183 
z
M 947 2739 
L 474 2739 
L 474 0 
L 947 0 
L 947 2739 
z
" transform="scale(0.015625)"/>
      <path id="CMSS17-7a" d="M 2400 2502 
L 2400 2750 
L 250 2750 
L 250 2368 
L 1069 2368 
C 1146 2368 1222 2368 1299 2368 
L 1747 2368 
L 166 261 
L 166 0 
L 2419 0 
L 2419 395 
L 1549 395 
C 1472 395 1395 395 1318 395 
L 826 395 
L 2400 2502 
z
" transform="scale(0.015625)"/>
      <path id="CMSS17-34" d="M 2253 1088 
L 2835 1088 
L 2835 1477 
L 2253 1477 
L 2253 4192 
L 1690 4192 
L 166 1477 
L 166 1088 
L 1747 1088 
L 1747 0 
L 2253 0 
L 2253 1088 
z
M 659 1477 
C 1030 2127 1766 3439 1766 3885 
L 1766 1477 
L 659 1477 
z
" transform="scale(0.015625)"/>
     </defs>
     <use xlink:href="#CMSS17-53" transform="scale(0.996264)"/>
     <use xlink:href="#CMSS17-69" transform="translate(52.048516 0) scale(0.996264)"/>
     <use xlink:href="#CMSS17-7a" transform="translate(74.229239 0) scale(0.996264)"/>
     <use xlink:href="#CMSS17-65" transform="translate(114.907111 0) scale(0.996264)"/>
     <use xlink:href="#CMSS17-34" transform="translate(187.775046 0) scale(0.996264)"/>
    </g>
   </g>
   <g id="line2d_68">
    <path d="M 308.238324 56.76 
L 308.238324 56.76 
L 308.238324 56.76 
" style="fill: none; stroke: #6aaed6; stroke-width: 1.5; stroke-linecap: square"/>
    <g>
     <use xlink:href="#m8ff7406358" x="308.238324" y="56.76" style="fill: #6aaed6; stroke: #6aaed6; stroke-linejoin: miter"/>
    </g>
   </g>
   <g id="text_29">
    <!-- Size 8 -->
    <g transform="translate(318.238324 63.76) scale(0.2 -0.2)">
     <defs>
      <path id="CMSS17-38" d="M 1933 2222 
C 2419 2380 2669 2760 2669 3134 
C 2669 3722 2157 4229 1504 4229 
C 826 4229 333 3708 333 3144 
C 333 2780 576 2403 1069 2241 
C 442 1997 250 1512 250 1149 
C 250 446 819 -128 1498 -128 
C 2202 -128 2752 455 2752 1138 
C 2752 1557 2502 2000 1933 2222 
z
M 1504 2432 
C 1075 2432 787 2712 787 3136 
C 787 3566 1075 3840 1504 3840 
C 1901 3840 2214 3591 2214 3136 
C 2214 2687 1907 2432 1504 2432 
z
M 1504 267 
C 1139 267 749 517 749 1156 
C 749 1813 1184 2043 1498 2043 
C 1843 2043 2253 1800 2253 1156 
C 2253 491 1830 267 1504 267 
z
" transform="scale(0.015625)"/>
     </defs>
     <use xlink:href="#CMSS17-53" transform="scale(0.996264)"/>
     <use xlink:href="#CMSS17-69" transform="translate(52.048516 0) scale(0.996264)"/>
     <use xlink:href="#CMSS17-7a" transform="translate(74.229239 0) scale(0.996264)"/>
     <use xlink:href="#CMSS17-65" transform="translate(114.907111 0) scale(0.996264)"/>
     <use xlink:href="#CMSS17-38" transform="translate(187.775046 0) scale(0.996264)"/>
    </g>
   </g>
   <g id="line2d_69">
    <path d="M 405.162031 56.76 
L 405.162031 56.76 
L 405.162031 56.76 
" style="fill: none; stroke: #4a98c9; stroke-width: 1.5; stroke-linecap: square"/>
    <g>
     <use xlink:href="#m6bf3b0d04b" x="405.162031" y="56.76" style="fill: #4a98c9; stroke: #4a98c9; stroke-linejoin: miter"/>
    </g>
   </g>
   <g id="text_30">
    <!-- Size 12 -->
    <g transform="translate(415.162031 63.76) scale(0.2 -0.2)">
     <defs>
      <path id="CMSS17-31" d="M 1818 4288 
L 1696 4288 
C 1350 3940 947 3890 538 3890 
L 538 3520 
C 723 3520 1024 3520 1325 3667 
L 1325 369 
L 570 369 
L 570 0 
L 2573 0 
L 2573 369 
L 1818 369 
L 1818 4288 
z
" transform="scale(0.015625)"/>
      <path id="CMSS17-32" d="M 1651 1357 
C 1830 1541 2099 1764 2285 1987 
C 2464 2204 2701 2511 2701 2957 
C 2701 3657 2227 4288 1421 4288 
C 787 4288 422 3893 250 3274 
L 499 2929 
C 640 3510 838 3880 1338 3880 
C 1888 3880 2195 3433 2195 2942 
C 2195 2355 1747 1901 1408 1563 
C 1030 1187 659 804 301 408 
L 301 0 
L 2701 0 
L 2701 433 
L 1613 433 
C 1536 433 1459 433 1382 433 
L 742 433 
L 742 439 
L 1651 1357 
z
" transform="scale(0.015625)"/>
     </defs>
     <use xlink:href="#CMSS17-53" transform="scale(0.996264)"/>
     <use xlink:href="#CMSS17-69" transform="translate(52.048516 0) scale(0.996264)"/>
     <use xlink:href="#CMSS17-7a" transform="translate(74.229239 0) scale(0.996264)"/>
     <use xlink:href="#CMSS17-65" transform="translate(114.907111 0) scale(0.996264)"/>
     <use xlink:href="#CMSS17-31" transform="translate(187.775046 0) scale(0.996264)"/>
     <use xlink:href="#CMSS17-32" transform="translate(234.618669 0) scale(0.996264)"/>
    </g>
   </g>
   <g id="line2d_70">
    <path d="M 511.454459 56.76 
L 511.454459 56.76 
L 511.454459 56.76 
" style="fill: none; stroke: #2e7ebc; stroke-width: 1.5; stroke-linecap: square"/>
    <g>
     <use xlink:href="#mae39ce1148" x="511.454459" y="56.76" style="fill: #2e7ebc; stroke: #2e7ebc"/>
    </g>
   </g>
   <g id="text_31">
    <!-- Size 16 -->
    <g transform="translate(521.454459 63.76) scale(0.2 -0.2)">
     <defs>
      <path id="CMSS17-36" d="M 2496 4101 
C 2227 4210 2035 4229 1856 4229 
C 1024 4229 250 3368 250 2006 
C 250 265 986 -128 1510 -128 
C 1798 -128 2086 -39 2362 280 
C 2643 617 2752 898 2752 1389 
C 2752 2179 2362 2880 1779 2880 
C 1357 2880 992 2657 768 2376 
C 832 3258 1254 3840 1862 3840 
C 2029 3840 2246 3816 2496 3710 
L 2496 4101 
z
M 774 1369 
C 774 1420 774 1452 781 1548 
C 781 2045 1069 2491 1536 2491 
C 1837 2491 1990 2332 2106 2135 
C 2240 1886 2246 1650 2246 1388 
C 2246 1140 2246 891 2099 637 
C 1978 439 1818 267 1510 267 
C 902 267 800 1114 774 1369 
z
" transform="scale(0.015625)"/>
     </defs>
     <use xlink:href="#CMSS17-53" transform="scale(0.996264)"/>
     <use xlink:href="#CMSS17-69" transform="translate(52.048516 0) scale(0.996264)"/>
     <use xlink:href="#CMSS17-7a" transform="translate(74.229239 0) scale(0.996264)"/>
     <use xlink:href="#CMSS17-65" transform="translate(114.907111 0) scale(0.996264)"/>
     <use xlink:href="#CMSS17-31" transform="translate(187.775046 0) scale(0.996264)"/>
     <use xlink:href="#CMSS17-36" transform="translate(234.618669 0) scale(0.996264)"/>
    </g>
   </g>
   <g id="line2d_71">
    <path d="M 617.746887 56.76 
L 617.746887 56.76 
L 617.746887 56.76 
" style="fill: none; stroke: #1764ab; stroke-width: 1.5; stroke-linecap: square"/>
    <g>
     <use xlink:href="#me9abfcb848" x="617.746887" y="56.76" style="fill: #1764ab; stroke: #1764ab; stroke-linejoin: miter"/>
    </g>
   </g>
   <g id="text_32">
    <!-- Size 20 -->
    <g transform="translate(627.746887 63.76) scale(0.2 -0.2)">
     <defs>
      <path id="CMSS17-30" d="M 2758 2044 
C 2758 2405 2752 3077 2490 3596 
C 2227 4096 1805 4229 1504 4229 
C 1069 4229 698 3975 506 3570 
C 301 3146 243 2709 243 2044 
C 243 1589 262 1031 493 543 
C 755 5 1197 -128 1498 -128 
C 1894 -128 2278 81 2496 518 
C 2720 974 2758 1474 2758 2044 
z
M 1498 261 
C 1011 261 864 811 819 995 
C 742 1310 730 1614 730 2114 
C 730 2506 730 2948 851 3297 
C 998 3701 1254 3840 1498 3840 
C 1971 3840 2125 3372 2176 3208 
C 2272 2873 2272 2481 2272 2114 
C 2272 1526 2272 261 1498 261 
z
" transform="scale(0.015625)"/>
     </defs>
     <use xlink:href="#CMSS17-53" transform="scale(0.996264)"/>
     <use xlink:href="#CMSS17-69" transform="translate(52.048516 0) scale(0.996264)"/>
     <use xlink:href="#CMSS17-7a" transform="translate(74.229239 0) scale(0.996264)"/>
     <use xlink:href="#CMSS17-65" transform="translate(114.907111 0) scale(0.996264)"/>
     <use xlink:href="#CMSS17-32" transform="translate(187.775046 0) scale(0.996264)"/>
     <use xlink:href="#CMSS17-30" transform="translate(234.618669 0) scale(0.996264)"/>
    </g>
   </g>
  </g>
  <g id="legend_2">
   <g id="patch_8">
    <path d="M 24.760685 75.635634 
L 688.039315 75.635634 
Q 692.039315 75.635634 692.039315 71.635634 
L 692.039315 45.76 
Q 692.039315 41.76 688.039315 41.76 
L 24.760685 41.76 
Q 20.760685 41.76 20.760685 45.76 
L 20.760685 71.635634 
Q 20.760685 75.635634 24.760685 75.635634 
z
" style="fill: #ffffff; opacity: 0.8; stroke: #cccccc; stroke-linejoin: miter"/>
   </g>
   <g id="line2d_72"/>
   <g id="text_33">
    <!-- Absolute Error $\epsilon$: -->
    <g transform="translate(38.760685 63.76) scale(0.2 -0.2)">
     <use xlink:href="#CMSS17-41" transform="scale(0.996264)"/>
     <use xlink:href="#CMSS17-62" transform="translate(62.217855 0) scale(0.996264)"/>
     <use xlink:href="#CMSS17-73" transform="translate(110.422798 0) scale(0.996264)"/>
     <use xlink:href="#CMSS17-6f" transform="translate(146.33634 0) scale(0.996264)"/>
     <use xlink:href="#CMSS17-6c" transform="translate(193.179964 0) scale(0.996264)"/>
     <use xlink:href="#CMSS17-75" transform="translate(215.360687 0) scale(0.996264)"/>
     <use xlink:href="#CMSS17-74" transform="translate(263.56563 0) scale(0.996264)"/>
     <use xlink:href="#CMSS17-65" transform="translate(297.397196 0) scale(0.996264)"/>
     <use xlink:href="#CMSS17-45" transform="translate(370.265131 0) scale(0.996264)"/>
     <use xlink:href="#CMSS17-72" transform="translate(426.157144 0) scale(0.996264)"/>
     <use xlink:href="#CMSS17-72" transform="translate(458.066917 0) scale(0.996264)"/>
     <use xlink:href="#CMSS17-6f" transform="translate(489.97669 0) scale(0.996264)"/>
     <use xlink:href="#CMSS17-72" transform="translate(534.217859 0) scale(0.996264)"/>
     <use xlink:href="#CMMI12-f" transform="translate(597.356744 0) scale(0.996264)"/>
     <use xlink:href="#CMSS17-3a" transform="translate(636.745703 0) scale(0.996264)"/>
    </g>
   </g>
   <g id="line2d_73">
    <path d="M 211.314618 56.76 
L 211.314618 56.76 
L 211.314618 56.76 
" style="fill: none; stroke: #94c4df; stroke-width: 1.5; stroke-linecap: square"/>
    <g>
     <use xlink:href="#m36d3960308" x="211.314618" y="56.76" style="fill: #94c4df; stroke: #94c4df; stroke-linejoin: miter"/>
    </g>
   </g>
   <g id="text_34">
    <!-- Size 4 -->
    <g transform="translate(221.314618 63.76) scale(0.2 -0.2)">
     <use xlink:href="#CMSS17-53" transform="scale(0.996264)"/>
     <use xlink:href="#CMSS17-69" transform="translate(52.048516 0) scale(0.996264)"/>
     <use xlink:href="#CMSS17-7a" transform="translate(74.229239 0) scale(0.996264)"/>
     <use xlink:href="#CMSS17-65" transform="translate(114.907111 0) scale(0.996264)"/>
     <use xlink:href="#CMSS17-34" transform="translate(187.775046 0) scale(0.996264)"/>
    </g>
   </g>
   <g id="line2d_74">
    <path d="M 308.238324 56.76 
L 308.238324 56.76 
L 308.238324 56.76 
" style="fill: none; stroke: #6aaed6; stroke-width: 1.5; stroke-linecap: square"/>
    <g>
     <use xlink:href="#m8ff7406358" x="308.238324" y="56.76" style="fill: #6aaed6; stroke: #6aaed6; stroke-linejoin: miter"/>
    </g>
   </g>
   <g id="text_35">
    <!-- Size 8 -->
    <g transform="translate(318.238324 63.76) scale(0.2 -0.2)">
     <use xlink:href="#CMSS17-53" transform="scale(0.996264)"/>
     <use xlink:href="#CMSS17-69" transform="translate(52.048516 0) scale(0.996264)"/>
     <use xlink:href="#CMSS17-7a" transform="translate(74.229239 0) scale(0.996264)"/>
     <use xlink:href="#CMSS17-65" transform="translate(114.907111 0) scale(0.996264)"/>
     <use xlink:href="#CMSS17-38" transform="translate(187.775046 0) scale(0.996264)"/>
    </g>
   </g>
   <g id="line2d_75">
    <path d="M 405.162031 56.76 
L 405.162031 56.76 
L 405.162031 56.76 
" style="fill: none; stroke: #4a98c9; stroke-width: 1.5; stroke-linecap: square"/>
    <g>
     <use xlink:href="#m6bf3b0d04b" x="405.162031" y="56.76" style="fill: #4a98c9; stroke: #4a98c9; stroke-linejoin: miter"/>
    </g>
   </g>
   <g id="text_36">
    <!-- Size 12 -->
    <g transform="translate(415.162031 63.76) scale(0.2 -0.2)">
     <use xlink:href="#CMSS17-53" transform="scale(0.996264)"/>
     <use xlink:href="#CMSS17-69" transform="translate(52.048516 0) scale(0.996264)"/>
     <use xlink:href="#CMSS17-7a" transform="translate(74.229239 0) scale(0.996264)"/>
     <use xlink:href="#CMSS17-65" transform="translate(114.907111 0) scale(0.996264)"/>
     <use xlink:href="#CMSS17-31" transform="translate(187.775046 0) scale(0.996264)"/>
     <use xlink:href="#CMSS17-32" transform="translate(234.618669 0) scale(0.996264)"/>
    </g>
   </g>
   <g id="line2d_76">
    <path d="M 511.454459 56.76 
L 511.454459 56.76 
L 511.454459 56.76 
" style="fill: none; stroke: #2e7ebc; stroke-width: 1.5; stroke-linecap: square"/>
    <g>
     <use xlink:href="#mae39ce1148" x="511.454459" y="56.76" style="fill: #2e7ebc; stroke: #2e7ebc"/>
    </g>
   </g>
   <g id="text_37">
    <!-- Size 16 -->
    <g transform="translate(521.454459 63.76) scale(0.2 -0.2)">
     <use xlink:href="#CMSS17-53" transform="scale(0.996264)"/>
     <use xlink:href="#CMSS17-69" transform="translate(52.048516 0) scale(0.996264)"/>
     <use xlink:href="#CMSS17-7a" transform="translate(74.229239 0) scale(0.996264)"/>
     <use xlink:href="#CMSS17-65" transform="translate(114.907111 0) scale(0.996264)"/>
     <use xlink:href="#CMSS17-31" transform="translate(187.775046 0) scale(0.996264)"/>
     <use xlink:href="#CMSS17-36" transform="translate(234.618669 0) scale(0.996264)"/>
    </g>
   </g>
   <g id="line2d_77">
    <path d="M 617.746887 56.76 
L 617.746887 56.76 
L 617.746887 56.76 
" style="fill: none; stroke: #1764ab; stroke-width: 1.5; stroke-linecap: square"/>
    <g>
     <use xlink:href="#me9abfcb848" x="617.746887" y="56.76" style="fill: #1764ab; stroke: #1764ab; stroke-linejoin: miter"/>
    </g>
   </g>
   <g id="text_38">
    <!-- Size 20 -->
    <g transform="translate(627.746887 63.76) scale(0.2 -0.2)">
     <use xlink:href="#CMSS17-53" transform="scale(0.996264)"/>
     <use xlink:href="#CMSS17-69" transform="translate(52.048516 0) scale(0.996264)"/>
     <use xlink:href="#CMSS17-7a" transform="translate(74.229239 0) scale(0.996264)"/>
     <use xlink:href="#CMSS17-65" transform="translate(114.907111 0) scale(0.996264)"/>
     <use xlink:href="#CMSS17-32" transform="translate(187.775046 0) scale(0.996264)"/>
     <use xlink:href="#CMSS17-30" transform="translate(234.618669 0) scale(0.996264)"/>
    </g>
   </g>
  </g>
  <g id="legend_3">
   <g id="patch_9">
    <path d="M 26.928163 41.075634 
L 685.871837 41.075634 
Q 689.871837 41.075634 689.871837 37.075634 
L 689.871837 11.2 
Q 689.871837 7.2 685.871837 7.2 
L 26.928163 7.2 
Q 22.928163 7.2 22.928163 11.2 
L 22.928163 37.075634 
Q 22.928163 41.075634 26.928163 41.075634 
z
" style="fill: #ffffff; opacity: 0.8; stroke: #cccccc; stroke-linejoin: miter"/>
   </g>
   <g id="line2d_78"/>
   <g id="text_39">
    <!-- Relative Error $\delta$: -->
    <g transform="translate(40.928163 29.2) scale(0.2 -0.2)">
     <defs>
      <path id="CMSS17-52" d="M 2522 2109 
L 2534 2115 
C 3533 2459 3539 3147 3539 3268 
C 3539 3873 2925 4453 2003 4453 
L 570 4453 
L 570 32 
L 1094 32 
L 1094 2048 
L 2035 2048 
L 3168 32 
L 3706 32 
L 2522 2109 
z
M 1094 2437 
L 1094 4096 
L 1933 4096 
C 2746 4096 3034 3637 3034 3267 
C 3034 2922 2778 2437 1933 2437 
L 1094 2437 
z
" transform="scale(0.015625)"/>
      <path id="CMSS17-61" d="M 2406 1791 
C 2406 2392 1978 2808 1402 2808 
C 1120 2808 813 2757 461 2553 
L 499 2135 
C 659 2248 934 2432 1395 2432 
C 1722 2432 1920 2180 1920 1782 
L 1920 1536 
C 896 1536 256 1238 256 726 
C 256 461 416 -64 947 -64 
C 1043 -64 1562 -64 1933 217 
L 1933 -19 
L 2406 -19 
L 2406 1791 
z
M 1920 816 
C 1920 701 1920 548 1728 434 
C 1562 325 1350 325 1261 325 
C 941 325 723 511 723 744 
C 723 1211 1722 1211 1920 1211 
L 1920 816 
z
" transform="scale(0.015625)"/>
      <path id="CMSS17-76" d="M 2675 2752 
L 2176 2752 
L 1747 1556 
C 1613 1165 1421 627 1389 352 
L 1382 352 
C 1370 468 1318 634 1286 749 
C 1248 890 1197 1056 1158 1172 
L 595 2752 
L 83 2752 
L 1094 0 
L 1664 0 
L 2675 2752 
z
" transform="scale(0.015625)"/>
      <path id="CMMI12-e" d="M 1664 2795 
C 845 2597 256 1748 256 1001 
C 256 319 717 -64 1229 -64 
C 1984 -64 2496 970 2496 1818 
C 2496 2392 2227 2744 2067 2954 
C 1830 3254 1446 3746 1446 4052 
C 1446 4161 1530 4352 1811 4352 
C 2010 4352 2131 4282 2323 4173 
C 2381 4134 2528 4052 2611 4052 
C 2746 4052 2842 4185 2842 4287 
C 2842 4409 2746 4428 2522 4479 
C 2221 4543 2131 4543 2022 4543 
C 1914 4543 1286 4543 1286 3892 
C 1286 3579 1446 3216 1664 2795 
z
M 1734 2669 
C 1978 2165 2074 1974 2074 1560 
C 2074 1063 1805 63 1235 63 
C 986 63 627 229 627 821 
C 627 1235 864 2439 1734 2669 
z
" transform="scale(0.015625)"/>
     </defs>
     <use xlink:href="#CMSS17-52" transform="scale(0.996264)"/>
     <use xlink:href="#CMSS17-65" transform="translate(60.416155 0) scale(0.996264)"/>
     <use xlink:href="#CMSS17-6c" transform="translate(102.054977 0) scale(0.996264)"/>
     <use xlink:href="#CMSS17-61" transform="translate(124.2357 0) scale(0.996264)"/>
     <use xlink:href="#CMSS17-74" transform="translate(169.157621 0) scale(0.996264)"/>
     <use xlink:href="#CMSS17-69" transform="translate(202.989187 0) scale(0.996264)"/>
     <use xlink:href="#CMSS17-76" transform="translate(225.16991 0) scale(0.996264)"/>
     <use xlink:href="#CMSS17-65" transform="translate(268.170052 0) scale(0.996264)"/>
     <use xlink:href="#CMSS17-45" transform="translate(341.037987 0) scale(0.996264)"/>
     <use xlink:href="#CMSS17-72" transform="translate(396.93 0) scale(0.996264)"/>
     <use xlink:href="#CMSS17-72" transform="translate(428.839773 0) scale(0.996264)"/>
     <use xlink:href="#CMSS17-6f" transform="translate(460.749545 0) scale(0.996264)"/>
     <use xlink:href="#CMSS17-72" transform="translate(504.990715 0) scale(0.996264)"/>
     <use xlink:href="#CMMI12-e" transform="translate(568.1296 0) scale(0.996264)"/>
     <use xlink:href="#CMSS17-3a" transform="translate(615.070986 0) scale(0.996264)"/>
    </g>
   </g>
   <g id="line2d_79">
    <path d="M 209.14714 22.2 
L 209.14714 22.2 
L 209.14714 22.2 
" style="fill: none; stroke: #fda762; stroke-width: 1.5; stroke-linecap: square"/>
    <g>
     <use xlink:href="#me9b957874d" x="209.14714" y="22.2" style="fill: #fda762; stroke: #fda762; stroke-linejoin: miter"/>
    </g>
   </g>
   <g id="text_40">
    <!-- Size 4 -->
    <g transform="translate(219.14714 29.2) scale(0.2 -0.2)">
     <use xlink:href="#CMSS17-53" transform="scale(0.996264)"/>
     <use xlink:href="#CMSS17-69" transform="translate(52.048516 0) scale(0.996264)"/>
     <use xlink:href="#CMSS17-7a" transform="translate(74.229239 0) scale(0.996264)"/>
     <use xlink:href="#CMSS17-65" transform="translate(114.907111 0) scale(0.996264)"/>
     <use xlink:href="#CMSS17-34" transform="translate(187.775046 0) scale(0.996264)"/>
    </g>
   </g>
   <g id="line2d_80">
    <path d="M 306.070846 22.2 
L 306.070846 22.2 
L 306.070846 22.2 
" style="fill: none; stroke: #fd8c3b; stroke-width: 1.5; stroke-linecap: square"/>
    <g>
     <use xlink:href="#m455303d5fc" x="306.070846" y="22.2" style="fill: #fd8c3b; stroke: #fd8c3b; stroke-linejoin: miter"/>
    </g>
   </g>
   <g id="text_41">
    <!-- Size 8 -->
    <g transform="translate(316.070846 29.2) scale(0.2 -0.2)">
     <use xlink:href="#CMSS17-53" transform="scale(0.996264)"/>
     <use xlink:href="#CMSS17-69" transform="translate(52.048516 0) scale(0.996264)"/>
     <use xlink:href="#CMSS17-7a" transform="translate(74.229239 0) scale(0.996264)"/>
     <use xlink:href="#CMSS17-65" transform="translate(114.907111 0) scale(0.996264)"/>
     <use xlink:href="#CMSS17-38" transform="translate(187.775046 0) scale(0.996264)"/>
    </g>
   </g>
   <g id="line2d_81">
    <path d="M 402.994553 22.2 
L 402.994553 22.2 
L 402.994553 22.2 
" style="fill: none; stroke: #f3701b; stroke-width: 1.5; stroke-linecap: square"/>
    <g>
     <use xlink:href="#m419159d60b" x="402.994553" y="22.2" style="fill: #f3701b; stroke: #f3701b; stroke-linejoin: miter"/>
    </g>
   </g>
   <g id="text_42">
    <!-- Size 12 -->
    <g transform="translate(412.994553 29.2) scale(0.2 -0.2)">
     <use xlink:href="#CMSS17-53" transform="scale(0.996264)"/>
     <use xlink:href="#CMSS17-69" transform="translate(52.048516 0) scale(0.996264)"/>
     <use xlink:href="#CMSS17-7a" transform="translate(74.229239 0) scale(0.996264)"/>
     <use xlink:href="#CMSS17-65" transform="translate(114.907111 0) scale(0.996264)"/>
     <use xlink:href="#CMSS17-31" transform="translate(187.775046 0) scale(0.996264)"/>
     <use xlink:href="#CMSS17-32" transform="translate(234.618669 0) scale(0.996264)"/>
    </g>
   </g>
   <g id="line2d_82">
    <path d="M 509.286981 22.2 
L 509.286981 22.2 
L 509.286981 22.2 
" style="fill: none; stroke: #e25508; stroke-width: 1.5; stroke-linecap: square"/>
    <g>
     <use xlink:href="#m7bad2694b7" x="509.286981" y="22.2" style="fill: #e25508; stroke: #e25508"/>
    </g>
   </g>
   <g id="text_43">
    <!-- Size 16 -->
    <g transform="translate(519.286981 29.2) scale(0.2 -0.2)">
     <use xlink:href="#CMSS17-53" transform="scale(0.996264)"/>
     <use xlink:href="#CMSS17-69" transform="translate(52.048516 0) scale(0.996264)"/>
     <use xlink:href="#CMSS17-7a" transform="translate(74.229239 0) scale(0.996264)"/>
     <use xlink:href="#CMSS17-65" transform="translate(114.907111 0) scale(0.996264)"/>
     <use xlink:href="#CMSS17-31" transform="translate(187.775046 0) scale(0.996264)"/>
     <use xlink:href="#CMSS17-36" transform="translate(234.618669 0) scale(0.996264)"/>
    </g>
   </g>
   <g id="line2d_83">
    <path d="M 615.579409 22.2 
L 615.579409 22.2 
L 615.579409 22.2 
" style="fill: none; stroke: #c54102; stroke-width: 1.5; stroke-linecap: square"/>
    <g>
     <use xlink:href="#mcb7b003f21" x="615.579409" y="22.2" style="fill: #c54102; stroke: #c54102; stroke-linejoin: miter"/>
    </g>
   </g>
   <g id="text_44">
    <!-- Size 20 -->
    <g transform="translate(625.579409 29.2) scale(0.2 -0.2)">
     <use xlink:href="#CMSS17-53" transform="scale(0.996264)"/>
     <use xlink:href="#CMSS17-69" transform="translate(52.048516 0) scale(0.996264)"/>
     <use xlink:href="#CMSS17-7a" transform="translate(74.229239 0) scale(0.996264)"/>
     <use xlink:href="#CMSS17-65" transform="translate(114.907111 0) scale(0.996264)"/>
     <use xlink:href="#CMSS17-32" transform="translate(187.775046 0) scale(0.996264)"/>
     <use xlink:href="#CMSS17-30" transform="translate(234.618669 0) scale(0.996264)"/>
    </g>
   </g>
  </g>
 </g>
 <defs>
  <clipPath id="p6ed90731b2">
   <rect x="71.865469" y="81.44" width="633.734531" height="312.134739"/>
  </clipPath>
 </defs>
</svg>
