<?xml version="1.0" encoding="utf-8" standalone="no"?>
<!DOCTYPE svg PUBLIC "-//W3C//DTD SVG 1.1//EN"
  "http://www.w3.org/Graphics/SVG/1.1/DTD/svg11.dtd">
<svg xmlns:xlink="http://www.w3.org/1999/xlink" width="712.8pt" height="438.4pt" viewBox="0 0 712.8 438.4" xmlns="http://www.w3.org/2000/svg" version="1.1">
 <metadata>
  <rdf:RDF xmlns:dc="http://purl.org/dc/elements/1.1/" xmlns:cc="http://creativecommons.org/ns#" xmlns:rdf="http://www.w3.org/1999/02/22-rdf-syntax-ns#">
   <cc:Work>
    <dc:type rdf:resource="http://purl.org/dc/dcmitype/StillImage"/>
    <dc:date>2025-10-15T19:47:44.406626</dc:date>
    <dc:format>image/svg+xml</dc:format>
    <dc:creator>
     <cc:Agent>
      <dc:title>Matplotlib v3.10.6, https://matplotlib.org/</dc:title>
     </cc:Agent>
    </dc:creator>
   </cc:Work>
  </rdf:RDF>
 </metadata>
 <defs>
  <style type="text/css">*{stroke-linejoin: round; stroke-linecap: butt}</style>
 </defs>
 <g id="figure_1">
  <g id="patch_1">
   <path d="M 0 438.4 
L 712.8 438.4 
L 712.8 0 
L 0 0 
z
" style="fill: #ffffff"/>
  </g>
  <g id="axes_1">
   <g id="patch_2">
    <path d="M 62.234653 391.861871 
L 705.6 391.861871 
L 705.6 72.64 
L 62.234653 72.64 
z
" style="fill: #ffffff"/>
   </g>
   <g id="matplotlib.axis_1">
    <g id="xtick_1">
     <g id="line2d_1">
      <defs>
       <path id="md50051e098" d="M 0 0 
L 0 3.5 
" style="stroke: #000000; stroke-width: 0.8"/>
      </defs>
      <g>
       <use xlink:href="#md50051e098" x="91.478533" y="391.861871" style="stroke: #000000; stroke-width: 0.8"/>
      </g>
     </g>
     <g id="text_1">
      <!-- $\mathdefault{1}$ -->
      <g transform="translate(87.576539 409.931459) scale(0.16 -0.16)">
       <defs>
        <path id="CMR17-31" d="M 1702 4058 
C 1702 4192 1696 4192 1606 4192 
C 1357 3916 979 3827 621 3827 
C 602 3827 570 3827 563 3808 
C 557 3795 557 3782 557 3648 
C 755 3648 1088 3686 1344 3839 
L 1344 461 
C 1344 236 1331 160 781 160 
L 589 160 
L 589 0 
C 896 0 1216 0 1523 0 
C 1830 0 2150 0 2458 0 
L 2458 160 
L 2266 160 
C 1715 160 1702 230 1702 458 
L 1702 4058 
z
" transform="scale(0.015625)"/>
       </defs>
       <use xlink:href="#CMR17-31" transform="scale(0.996264)"/>
      </g>
     </g>
    </g>
    <g id="xtick_2">
     <g id="line2d_2">
      <g>
       <use xlink:href="#md50051e098" x="122.261564" y="391.861871" style="stroke: #000000; stroke-width: 0.8"/>
      </g>
     </g>
     <g id="text_2">
      <!-- $\mathdefault{2}$ -->
      <g transform="translate(118.35957 409.931459) scale(0.16 -0.16)">
       <defs>
        <path id="CMR17-32" d="M 2669 989 
L 2554 989 
C 2490 536 2438 459 2413 420 
C 2381 369 1920 369 1830 369 
L 602 369 
C 832 619 1280 1072 1824 1597 
C 2214 1967 2669 2402 2669 3035 
C 2669 3790 2067 4224 1395 4224 
C 691 4224 262 3604 262 3030 
C 262 2780 448 2748 525 2748 
C 589 2748 781 2787 781 3010 
C 781 3207 614 3264 525 3264 
C 486 3264 448 3258 422 3245 
C 544 3790 915 4058 1306 4058 
C 1862 4058 2227 3617 2227 3035 
C 2227 2479 1901 2000 1536 1584 
L 262 146 
L 262 0 
L 2515 0 
L 2669 989 
z
" transform="scale(0.015625)"/>
       </defs>
       <use xlink:href="#CMR17-32" transform="scale(0.996264)"/>
      </g>
     </g>
    </g>
    <g id="xtick_3">
     <g id="line2d_3">
      <g>
       <use xlink:href="#md50051e098" x="153.044595" y="391.861871" style="stroke: #000000; stroke-width: 0.8"/>
      </g>
     </g>
     <g id="text_3">
      <!-- $\mathdefault{3}$ -->
      <g transform="translate(149.142601 409.931459) scale(0.16 -0.16)">
       <defs>
        <path id="CMR17-33" d="M 1414 2157 
C 1984 2157 2234 1662 2234 1090 
C 2234 320 1824 25 1453 25 
C 1114 25 563 194 390 693 
C 422 680 454 680 486 680 
C 640 680 755 782 755 948 
C 755 1133 614 1216 486 1216 
C 378 1216 211 1165 211 926 
C 211 335 787 -128 1466 -128 
C 2176 -128 2720 430 2720 1085 
C 2720 1707 2208 2157 1600 2227 
C 2086 2328 2554 2756 2554 3329 
C 2554 3820 2048 4179 1472 4179 
C 890 4179 378 3829 378 3329 
C 378 3110 544 3072 627 3072 
C 762 3072 877 3155 877 3321 
C 877 3486 762 3569 627 3569 
C 602 3569 570 3569 544 3557 
C 730 3959 1235 4032 1459 4032 
C 1683 4032 2106 3925 2106 3320 
C 2106 3143 2080 2828 1862 2550 
C 1670 2304 1453 2304 1242 2284 
C 1210 2284 1062 2269 1037 2269 
C 992 2263 966 2257 966 2208 
C 966 2163 973 2157 1101 2157 
L 1414 2157 
z
" transform="scale(0.015625)"/>
       </defs>
       <use xlink:href="#CMR17-33" transform="scale(0.996264)"/>
      </g>
     </g>
    </g>
    <g id="xtick_4">
     <g id="line2d_4">
      <g>
       <use xlink:href="#md50051e098" x="183.827626" y="391.861871" style="stroke: #000000; stroke-width: 0.8"/>
      </g>
     </g>
     <g id="text_4">
      <!-- $\mathdefault{4}$ -->
      <g transform="translate(179.925632 409.931459) scale(0.16 -0.16)">
       <defs>
        <path id="CMR17-34" d="M 2150 4122 
C 2150 4256 2144 4256 2029 4256 
L 128 1254 
L 128 1088 
L 1779 1088 
L 1779 457 
C 1779 224 1766 160 1318 160 
L 1197 160 
L 1197 0 
C 1402 0 1747 0 1965 0 
C 2182 0 2528 0 2733 0 
L 2733 160 
L 2611 160 
C 2163 160 2150 224 2150 457 
L 2150 1088 
L 2803 1088 
L 2803 1254 
L 2150 1254 
L 2150 4122 
z
M 1798 3703 
L 1798 1254 
L 256 1254 
L 1798 3703 
z
" transform="scale(0.015625)"/>
       </defs>
       <use xlink:href="#CMR17-34" transform="scale(0.996264)"/>
      </g>
     </g>
    </g>
    <g id="xtick_5">
     <g id="line2d_5">
      <g>
       <use xlink:href="#md50051e098" x="214.610657" y="391.861871" style="stroke: #000000; stroke-width: 0.8"/>
      </g>
     </g>
     <g id="text_5">
      <!-- $\mathdefault{5}$ -->
      <g transform="translate(210.708663 409.931459) scale(0.16 -0.16)">
       <defs>
        <path id="CMR17-35" d="M 730 3692 
C 794 3666 1056 3584 1325 3584 
C 1920 3584 2246 3911 2432 4100 
C 2432 4157 2432 4192 2394 4192 
C 2387 4192 2374 4192 2323 4163 
C 2099 4058 1837 3973 1517 3973 
C 1325 3973 1037 3999 723 4139 
C 653 4171 640 4171 634 4171 
C 602 4171 595 4164 595 4037 
L 595 2203 
C 595 2089 595 2057 659 2057 
C 691 2057 704 2070 736 2114 
C 941 2401 1222 2522 1542 2522 
C 1766 2522 2246 2382 2246 1289 
C 2246 1085 2246 715 2054 421 
C 1894 159 1645 25 1370 25 
C 947 25 518 320 403 814 
C 429 807 480 795 506 795 
C 589 795 749 840 749 1038 
C 749 1210 627 1280 506 1280 
C 358 1280 262 1190 262 1011 
C 262 454 704 -128 1382 -128 
C 2042 -128 2669 440 2669 1264 
C 2669 2030 2170 2624 1549 2624 
C 1222 2624 947 2503 730 2274 
L 730 3692 
z
" transform="scale(0.015625)"/>
       </defs>
       <use xlink:href="#CMR17-35" transform="scale(0.996264)"/>
      </g>
     </g>
    </g>
    <g id="xtick_6">
     <g id="line2d_6">
      <g>
       <use xlink:href="#md50051e098" x="245.393687" y="391.861871" style="stroke: #000000; stroke-width: 0.8"/>
      </g>
     </g>
     <g id="text_6">
      <!-- $\mathdefault{6}$ -->
      <g transform="translate(241.491694 409.931459) scale(0.16 -0.16)">
       <defs>
        <path id="CMR17-36" d="M 678 2176 
C 678 3690 1395 4032 1811 4032 
C 1946 4032 2272 4009 2400 3776 
C 2298 3776 2106 3776 2106 3553 
C 2106 3381 2246 3323 2336 3323 
C 2394 3323 2566 3348 2566 3560 
C 2566 3954 2246 4179 1805 4179 
C 1043 4179 243 3390 243 1984 
C 243 253 966 -128 1478 -128 
C 2099 -128 2688 427 2688 1283 
C 2688 2081 2170 2662 1517 2662 
C 1126 2662 838 2407 678 1960 
L 678 2176 
z
M 1478 25 
C 691 25 691 1200 691 1436 
C 691 1896 909 2560 1504 2560 
C 1613 2560 1926 2560 2138 2120 
C 2253 1870 2253 1609 2253 1289 
C 2253 944 2253 690 2118 434 
C 1978 171 1773 25 1478 25 
z
" transform="scale(0.015625)"/>
       </defs>
       <use xlink:href="#CMR17-36" transform="scale(0.996264)"/>
      </g>
     </g>
    </g>
    <g id="xtick_7">
     <g id="line2d_7">
      <g>
       <use xlink:href="#md50051e098" x="276.176718" y="391.861871" style="stroke: #000000; stroke-width: 0.8"/>
      </g>
     </g>
     <g id="text_7">
      <!-- $\mathdefault{7}$ -->
      <g transform="translate(272.274725 409.931459) scale(0.16 -0.16)">
       <defs>
        <path id="CMR17-37" d="M 2886 3941 
L 2886 4081 
L 1382 4081 
C 634 4081 621 4165 595 4288 
L 480 4288 
L 294 3094 
L 410 3094 
C 429 3215 474 3540 550 3661 
C 589 3712 1062 3712 1171 3712 
L 2579 3712 
L 1869 2661 
C 1395 1954 1069 999 1069 165 
C 1069 89 1069 -128 1299 -128 
C 1530 -128 1530 89 1530 171 
L 1530 465 
C 1530 1508 1709 2196 2003 2636 
L 2886 3941 
z
" transform="scale(0.015625)"/>
       </defs>
       <use xlink:href="#CMR17-37" transform="scale(0.996264)"/>
      </g>
     </g>
    </g>
    <g id="xtick_8">
     <g id="line2d_8">
      <g>
       <use xlink:href="#md50051e098" x="306.959749" y="391.861871" style="stroke: #000000; stroke-width: 0.8"/>
      </g>
     </g>
     <g id="text_8">
      <!-- $\mathdefault{8}$ -->
      <g transform="translate(303.057756 409.931459) scale(0.16 -0.16)">
       <defs>
        <path id="CMR17-38" d="M 1741 2264 
C 2144 2467 2554 2773 2554 3263 
C 2554 3841 1990 4179 1472 4179 
C 890 4179 378 3759 378 3180 
C 378 3021 416 2747 666 2505 
C 730 2442 998 2251 1171 2130 
C 883 1983 211 1634 211 934 
C 211 279 838 -128 1459 -128 
C 2144 -128 2720 362 2720 1010 
C 2720 1590 2330 1857 2074 2029 
L 1741 2264 
z
M 902 2822 
C 851 2854 595 3051 595 3351 
C 595 3739 998 4032 1459 4032 
C 1965 4032 2336 3676 2336 3262 
C 2336 2669 1670 2331 1638 2331 
C 1632 2331 1626 2331 1574 2370 
L 902 2822 
z
M 2080 1519 
C 2176 1449 2483 1240 2483 851 
C 2483 381 2010 25 1472 25 
C 890 25 448 438 448 940 
C 448 1443 838 1862 1280 2060 
L 2080 1519 
z
" transform="scale(0.015625)"/>
       </defs>
       <use xlink:href="#CMR17-38" transform="scale(0.996264)"/>
      </g>
     </g>
    </g>
    <g id="xtick_9">
     <g id="line2d_9">
      <g>
       <use xlink:href="#md50051e098" x="337.74278" y="391.861871" style="stroke: #000000; stroke-width: 0.8"/>
      </g>
     </g>
     <g id="text_9">
      <!-- $\mathdefault{9}$ -->
      <g transform="translate(333.840787 409.931459) scale(0.16 -0.16)">
       <defs>
        <path id="CMR17-39" d="M 2253 1864 
C 2253 464 1670 31 1190 31 
C 1043 31 685 31 538 294 
C 704 268 826 357 826 518 
C 826 692 685 749 595 749 
C 538 749 365 723 365 506 
C 365 71 742 -128 1203 -128 
C 1939 -128 2688 674 2688 2073 
C 2688 3817 1971 4179 1485 4179 
C 851 4179 243 3628 243 2778 
C 243 1991 762 1408 1414 1408 
C 1952 1408 2189 1903 2253 2112 
L 2253 1864 
z
M 1427 1510 
C 1254 1510 1011 1542 813 1922 
C 678 2169 678 2461 678 2771 
C 678 3146 678 3405 858 3684 
C 947 3817 1114 4032 1485 4032 
C 2240 4032 2240 2885 2240 2632 
C 2240 2182 2035 1510 1427 1510 
z
" transform="scale(0.015625)"/>
       </defs>
       <use xlink:href="#CMR17-39" transform="scale(0.996264)"/>
      </g>
     </g>
    </g>
    <g id="xtick_10">
     <g id="line2d_10">
      <g>
       <use xlink:href="#md50051e098" x="368.525811" y="391.861871" style="stroke: #000000; stroke-width: 0.8"/>
      </g>
     </g>
     <g id="text_10">
      <!-- $\mathdefault{10}$ -->
      <g transform="translate(360.721824 409.931459) scale(0.16 -0.16)">
       <defs>
        <path id="CMR17-30" d="M 2688 2025 
C 2688 2416 2682 3080 2413 3591 
C 2176 4039 1798 4198 1466 4198 
C 1158 4198 768 4058 525 3597 
C 269 3118 243 2524 243 2025 
C 243 1661 250 1106 448 619 
C 723 -39 1216 -128 1466 -128 
C 1760 -128 2208 -7 2470 600 
C 2662 1042 2688 1559 2688 2025 
z
M 1466 -26 
C 1056 -26 813 325 723 812 
C 653 1188 653 1738 653 2096 
C 653 2588 653 2997 736 3387 
C 858 3929 1216 4096 1466 4096 
C 1728 4096 2067 3923 2189 3400 
C 2272 3036 2278 2607 2278 2096 
C 2278 1680 2278 1169 2202 792 
C 2067 95 1690 -26 1466 -26 
z
" transform="scale(0.015625)"/>
       </defs>
       <use xlink:href="#CMR17-31" transform="scale(0.996264)"/>
       <use xlink:href="#CMR17-30" transform="translate(45.690477 0) scale(0.996264)"/>
      </g>
     </g>
    </g>
    <g id="xtick_11">
     <g id="line2d_11">
      <g>
       <use xlink:href="#md50051e098" x="399.308842" y="391.861871" style="stroke: #000000; stroke-width: 0.8"/>
      </g>
     </g>
     <g id="text_11">
      <!-- $\mathdefault{11}$ -->
      <g transform="translate(391.504855 409.931459) scale(0.16 -0.16)">
       <use xlink:href="#CMR17-31" transform="scale(0.996264)"/>
       <use xlink:href="#CMR17-31" transform="translate(45.690477 0) scale(0.996264)"/>
      </g>
     </g>
    </g>
    <g id="xtick_12">
     <g id="line2d_12">
      <g>
       <use xlink:href="#md50051e098" x="430.091873" y="391.861871" style="stroke: #000000; stroke-width: 0.8"/>
      </g>
     </g>
     <g id="text_12">
      <!-- $\mathdefault{12}$ -->
      <g transform="translate(422.287886 409.931459) scale(0.16 -0.16)">
       <use xlink:href="#CMR17-31" transform="scale(0.996264)"/>
       <use xlink:href="#CMR17-32" transform="translate(45.690477 0) scale(0.996264)"/>
      </g>
     </g>
    </g>
    <g id="xtick_13">
     <g id="line2d_13">
      <g>
       <use xlink:href="#md50051e098" x="460.874904" y="391.861871" style="stroke: #000000; stroke-width: 0.8"/>
      </g>
     </g>
     <g id="text_13">
      <!-- $\mathdefault{13}$ -->
      <g transform="translate(453.070917 409.931459) scale(0.16 -0.16)">
       <use xlink:href="#CMR17-31" transform="scale(0.996264)"/>
       <use xlink:href="#CMR17-33" transform="translate(45.690477 0) scale(0.996264)"/>
      </g>
     </g>
    </g>
    <g id="xtick_14">
     <g id="line2d_14">
      <g>
       <use xlink:href="#md50051e098" x="491.657935" y="391.861871" style="stroke: #000000; stroke-width: 0.8"/>
      </g>
     </g>
     <g id="text_14">
      <!-- $\mathdefault{14}$ -->
      <g transform="translate(483.853948 409.931459) scale(0.16 -0.16)">
       <use xlink:href="#CMR17-31" transform="scale(0.996264)"/>
       <use xlink:href="#CMR17-34" transform="translate(45.690477 0) scale(0.996264)"/>
      </g>
     </g>
    </g>
    <g id="xtick_15">
     <g id="line2d_15">
      <g>
       <use xlink:href="#md50051e098" x="522.440966" y="391.861871" style="stroke: #000000; stroke-width: 0.8"/>
      </g>
     </g>
     <g id="text_15">
      <!-- $\mathdefault{15}$ -->
      <g transform="translate(514.636979 409.931459) scale(0.16 -0.16)">
       <use xlink:href="#CMR17-31" transform="scale(0.996264)"/>
       <use xlink:href="#CMR17-35" transform="translate(45.690477 0) scale(0.996264)"/>
      </g>
     </g>
    </g>
    <g id="xtick_16">
     <g id="line2d_16">
      <g>
       <use xlink:href="#md50051e098" x="553.223997" y="391.861871" style="stroke: #000000; stroke-width: 0.8"/>
      </g>
     </g>
     <g id="text_16">
      <!-- $\mathdefault{16}$ -->
      <g transform="translate(545.42001 409.931459) scale(0.16 -0.16)">
       <use xlink:href="#CMR17-31" transform="scale(0.996264)"/>
       <use xlink:href="#CMR17-36" transform="translate(45.690477 0) scale(0.996264)"/>
      </g>
     </g>
    </g>
    <g id="xtick_17">
     <g id="line2d_17">
      <g>
       <use xlink:href="#md50051e098" x="584.007028" y="391.861871" style="stroke: #000000; stroke-width: 0.8"/>
      </g>
     </g>
     <g id="text_17">
      <!-- $\mathdefault{17}$ -->
      <g transform="translate(576.203041 409.931459) scale(0.16 -0.16)">
       <use xlink:href="#CMR17-31" transform="scale(0.996264)"/>
       <use xlink:href="#CMR17-37" transform="translate(45.690477 0) scale(0.996264)"/>
      </g>
     </g>
    </g>
    <g id="xtick_18">
     <g id="line2d_18">
      <g>
       <use xlink:href="#md50051e098" x="614.790059" y="391.861871" style="stroke: #000000; stroke-width: 0.8"/>
      </g>
     </g>
     <g id="text_18">
      <!-- $\mathdefault{18}$ -->
      <g transform="translate(606.986072 409.931459) scale(0.16 -0.16)">
       <use xlink:href="#CMR17-31" transform="scale(0.996264)"/>
       <use xlink:href="#CMR17-38" transform="translate(45.690477 0) scale(0.996264)"/>
      </g>
     </g>
    </g>
    <g id="xtick_19">
     <g id="line2d_19">
      <g>
       <use xlink:href="#md50051e098" x="645.57309" y="391.861871" style="stroke: #000000; stroke-width: 0.8"/>
      </g>
     </g>
     <g id="text_19">
      <!-- $\mathdefault{19}$ -->
      <g transform="translate(637.769103 409.931459) scale(0.16 -0.16)">
       <use xlink:href="#CMR17-31" transform="scale(0.996264)"/>
       <use xlink:href="#CMR17-39" transform="translate(45.690477 0) scale(0.996264)"/>
      </g>
     </g>
    </g>
    <g id="xtick_20">
     <g id="line2d_20">
      <g>
       <use xlink:href="#md50051e098" x="676.356121" y="391.861871" style="stroke: #000000; stroke-width: 0.8"/>
      </g>
     </g>
     <g id="text_20">
      <!-- $\mathdefault{20}$ -->
      <g transform="translate(668.552134 409.931459) scale(0.16 -0.16)">
       <use xlink:href="#CMR17-32" transform="scale(0.996264)"/>
       <use xlink:href="#CMR17-30" transform="translate(45.690477 0) scale(0.996264)"/>
      </g>
     </g>
    </g>
    <g id="text_21">
     <!-- $p$ -->
     <g transform="translate(380.000565 428.100524) scale(0.16 -0.16)">
      <defs>
       <path id="CMMI12-70" d="M 275 -789 
C 230 -980 205 -1031 -58 -1031 
C -134 -1031 -198 -1031 -198 -1152 
C -198 -1165 -192 -1216 -122 -1216 
C -38 -1216 51 -1216 134 -1216 
L 410 -1216 
C 544 -1216 870 -1216 1005 -1216 
C 1043 -1216 1120 -1216 1120 -1101 
C 1120 -1031 1075 -1031 966 -1031 
C 672 -1031 653 -987 653 -937 
C 653 -861 941 219 979 364 
C 1050 185 1222 -64 1555 -64 
C 2278 -64 3059 875 3059 1814 
C 3059 2401 2726 2816 2246 2816 
C 1837 2816 1491 2420 1421 2331 
C 1370 2650 1120 2816 864 2816 
C 678 2816 531 2727 410 2484 
C 294 2254 205 1865 205 1839 
C 205 1814 230 1782 275 1782 
C 326 1782 333 1788 371 1935 
C 467 2312 589 2689 845 2689 
C 992 2689 1043 2587 1043 2397 
C 1043 2245 1024 2181 998 2067 
L 275 -789 
z
M 1382 1993 
C 1427 2171 1606 2357 1709 2446 
C 1779 2510 1990 2689 2234 2689 
C 2515 2689 2643 2408 2643 2076 
C 2643 1769 2464 1047 2304 715 
C 2144 370 1850 64 1555 64 
C 1120 64 1050 613 1050 639 
C 1050 658 1062 709 1069 741 
L 1382 1993 
z
" transform="scale(0.015625)"/>
      </defs>
      <use xlink:href="#CMMI12-70" transform="scale(0.996264)"/>
     </g>
    </g>
   </g>
   <g id="matplotlib.axis_2">
    <g id="ytick_1">
     <g id="line2d_21">
      <defs>
       <path id="m2ea5970f51" d="M 0 0 
L -3.5 0 
" style="stroke: #000000; stroke-width: 0.8"/>
      </defs>
      <g>
       <use xlink:href="#m2ea5970f51" x="62.234653" y="391.861871" style="stroke: #000000; stroke-width: 0.8"/>
      </g>
     </g>
     <g id="text_22">
      <!-- $\mathdefault{10^{-4}}$ -->
      <g transform="translate(25.369064 397.396665) scale(0.16 -0.16)">
       <defs>
        <path id="CMSY10-0" d="M 4218 1472 
C 4326 1472 4442 1472 4442 1600 
C 4442 1728 4326 1728 4218 1728 
L 755 1728 
C 646 1728 531 1728 531 1600 
C 531 1472 646 1472 755 1472 
L 4218 1472 
z
" transform="scale(0.015625)"/>
       </defs>
       <use xlink:href="#CMR17-31" transform="scale(0.996264)"/>
       <use xlink:href="#CMR17-30" transform="translate(45.690477 0) scale(0.996264)"/>
       <use xlink:href="#CMSY10-0" transform="translate(91.380954 36.153639) scale(0.697382)"/>
       <use xlink:href="#CMR17-34" transform="translate(145.621947 36.153639) scale(0.697382)"/>
      </g>
     </g>
    </g>
    <g id="ytick_2">
     <g id="line2d_22">
      <g>
       <use xlink:href="#m2ea5970f51" x="62.234653" y="317.642005" style="stroke: #000000; stroke-width: 0.8"/>
      </g>
     </g>
     <g id="text_23">
      <!-- $\mathdefault{10^{-3}}$ -->
      <g transform="translate(25.369064 323.176799) scale(0.16 -0.16)">
       <use xlink:href="#CMR17-31" transform="scale(0.996264)"/>
       <use xlink:href="#CMR17-30" transform="translate(45.690477 0) scale(0.996264)"/>
       <use xlink:href="#CMSY10-0" transform="translate(91.380954 36.153639) scale(0.697382)"/>
       <use xlink:href="#CMR17-33" transform="translate(145.621947 36.153639) scale(0.697382)"/>
      </g>
     </g>
    </g>
    <g id="ytick_3">
     <g id="line2d_23">
      <g>
       <use xlink:href="#m2ea5970f51" x="62.234653" y="243.422139" style="stroke: #000000; stroke-width: 0.8"/>
      </g>
     </g>
     <g id="text_24">
      <!-- $\mathdefault{10^{-2}}$ -->
      <g transform="translate(25.369064 248.956933) scale(0.16 -0.16)">
       <use xlink:href="#CMR17-31" transform="scale(0.996264)"/>
       <use xlink:href="#CMR17-30" transform="translate(45.690477 0) scale(0.996264)"/>
       <use xlink:href="#CMSY10-0" transform="translate(91.380954 36.153639) scale(0.697382)"/>
       <use xlink:href="#CMR17-32" transform="translate(145.621947 36.153639) scale(0.697382)"/>
      </g>
     </g>
    </g>
    <g id="ytick_4">
     <g id="line2d_24">
      <g>
       <use xlink:href="#m2ea5970f51" x="62.234653" y="169.202272" style="stroke: #000000; stroke-width: 0.8"/>
      </g>
     </g>
     <g id="text_25">
      <!-- $\mathdefault{10^{-1}}$ -->
      <g transform="translate(25.369064 174.737066) scale(0.16 -0.16)">
       <use xlink:href="#CMR17-31" transform="scale(0.996264)"/>
       <use xlink:href="#CMR17-30" transform="translate(45.690477 0) scale(0.996264)"/>
       <use xlink:href="#CMSY10-0" transform="translate(91.380954 36.153639) scale(0.697382)"/>
       <use xlink:href="#CMR17-31" transform="translate(145.621947 36.153639) scale(0.697382)"/>
      </g>
     </g>
    </g>
    <g id="ytick_5">
     <g id="line2d_25">
      <g>
       <use xlink:href="#m2ea5970f51" x="62.234653" y="94.982406" style="stroke: #000000; stroke-width: 0.8"/>
      </g>
     </g>
     <g id="text_26">
      <!-- $\mathdefault{10^{0}}$ -->
      <g transform="translate(34.04761 100.5172) scale(0.16 -0.16)">
       <use xlink:href="#CMR17-31" transform="scale(0.996264)"/>
       <use xlink:href="#CMR17-30" transform="translate(45.690477 0) scale(0.996264)"/>
       <use xlink:href="#CMR17-30" transform="translate(91.380954 36.153639) scale(0.697382)"/>
      </g>
     </g>
    </g>
    <g id="ytick_6">
     <g id="line2d_26">
      <defs>
       <path id="me924d18215" d="M 0 0 
L -2 0 
" style="stroke: #000000; stroke-width: 0.6"/>
      </defs>
      <g>
       <use xlink:href="#me924d18215" x="62.234653" y="369.519465" style="stroke: #000000; stroke-width: 0.6"/>
      </g>
     </g>
    </g>
    <g id="ytick_7">
     <g id="line2d_27">
      <g>
       <use xlink:href="#me924d18215" x="62.234653" y="356.449995" style="stroke: #000000; stroke-width: 0.6"/>
      </g>
     </g>
    </g>
    <g id="ytick_8">
     <g id="line2d_28">
      <g>
       <use xlink:href="#me924d18215" x="62.234653" y="347.177059" style="stroke: #000000; stroke-width: 0.6"/>
      </g>
     </g>
    </g>
    <g id="ytick_9">
     <g id="line2d_29">
      <g>
       <use xlink:href="#me924d18215" x="62.234653" y="339.984411" style="stroke: #000000; stroke-width: 0.6"/>
      </g>
     </g>
    </g>
    <g id="ytick_10">
     <g id="line2d_30">
      <g>
       <use xlink:href="#me924d18215" x="62.234653" y="334.107589" style="stroke: #000000; stroke-width: 0.6"/>
      </g>
     </g>
    </g>
    <g id="ytick_11">
     <g id="line2d_31">
      <g>
       <use xlink:href="#me924d18215" x="62.234653" y="329.138808" style="stroke: #000000; stroke-width: 0.6"/>
      </g>
     </g>
    </g>
    <g id="ytick_12">
     <g id="line2d_32">
      <g>
       <use xlink:href="#me924d18215" x="62.234653" y="324.834653" style="stroke: #000000; stroke-width: 0.6"/>
      </g>
     </g>
    </g>
    <g id="ytick_13">
     <g id="line2d_33">
      <g>
       <use xlink:href="#me924d18215" x="62.234653" y="321.03812" style="stroke: #000000; stroke-width: 0.6"/>
      </g>
     </g>
    </g>
    <g id="ytick_14">
     <g id="line2d_34">
      <g>
       <use xlink:href="#me924d18215" x="62.234653" y="295.299599" style="stroke: #000000; stroke-width: 0.6"/>
      </g>
     </g>
    </g>
    <g id="ytick_15">
     <g id="line2d_35">
      <g>
       <use xlink:href="#me924d18215" x="62.234653" y="282.230129" style="stroke: #000000; stroke-width: 0.6"/>
      </g>
     </g>
    </g>
    <g id="ytick_16">
     <g id="line2d_36">
      <g>
       <use xlink:href="#me924d18215" x="62.234653" y="272.957193" style="stroke: #000000; stroke-width: 0.6"/>
      </g>
     </g>
    </g>
    <g id="ytick_17">
     <g id="line2d_37">
      <g>
       <use xlink:href="#me924d18215" x="62.234653" y="265.764545" style="stroke: #000000; stroke-width: 0.6"/>
      </g>
     </g>
    </g>
    <g id="ytick_18">
     <g id="line2d_38">
      <g>
       <use xlink:href="#me924d18215" x="62.234653" y="259.887723" style="stroke: #000000; stroke-width: 0.6"/>
      </g>
     </g>
    </g>
    <g id="ytick_19">
     <g id="line2d_39">
      <g>
       <use xlink:href="#me924d18215" x="62.234653" y="254.918941" style="stroke: #000000; stroke-width: 0.6"/>
      </g>
     </g>
    </g>
    <g id="ytick_20">
     <g id="line2d_40">
      <g>
       <use xlink:href="#me924d18215" x="62.234653" y="250.614787" style="stroke: #000000; stroke-width: 0.6"/>
      </g>
     </g>
    </g>
    <g id="ytick_21">
     <g id="line2d_41">
      <g>
       <use xlink:href="#me924d18215" x="62.234653" y="246.818253" style="stroke: #000000; stroke-width: 0.6"/>
      </g>
     </g>
    </g>
    <g id="ytick_22">
     <g id="line2d_42">
      <g>
       <use xlink:href="#me924d18215" x="62.234653" y="221.079732" style="stroke: #000000; stroke-width: 0.6"/>
      </g>
     </g>
    </g>
    <g id="ytick_23">
     <g id="line2d_43">
      <g>
       <use xlink:href="#me924d18215" x="62.234653" y="208.010263" style="stroke: #000000; stroke-width: 0.6"/>
      </g>
     </g>
    </g>
    <g id="ytick_24">
     <g id="line2d_44">
      <g>
       <use xlink:href="#me924d18215" x="62.234653" y="198.737326" style="stroke: #000000; stroke-width: 0.6"/>
      </g>
     </g>
    </g>
    <g id="ytick_25">
     <g id="line2d_45">
      <g>
       <use xlink:href="#me924d18215" x="62.234653" y="191.544678" style="stroke: #000000; stroke-width: 0.6"/>
      </g>
     </g>
    </g>
    <g id="ytick_26">
     <g id="line2d_46">
      <g>
       <use xlink:href="#me924d18215" x="62.234653" y="185.667857" style="stroke: #000000; stroke-width: 0.6"/>
      </g>
     </g>
    </g>
    <g id="ytick_27">
     <g id="line2d_47">
      <g>
       <use xlink:href="#me924d18215" x="62.234653" y="180.699075" style="stroke: #000000; stroke-width: 0.6"/>
      </g>
     </g>
    </g>
    <g id="ytick_28">
     <g id="line2d_48">
      <g>
       <use xlink:href="#me924d18215" x="62.234653" y="176.39492" style="stroke: #000000; stroke-width: 0.6"/>
      </g>
     </g>
    </g>
    <g id="ytick_29">
     <g id="line2d_49">
      <g>
       <use xlink:href="#me924d18215" x="62.234653" y="172.598387" style="stroke: #000000; stroke-width: 0.6"/>
      </g>
     </g>
    </g>
    <g id="ytick_30">
     <g id="line2d_50">
      <g>
       <use xlink:href="#me924d18215" x="62.234653" y="146.859866" style="stroke: #000000; stroke-width: 0.6"/>
      </g>
     </g>
    </g>
    <g id="ytick_31">
     <g id="line2d_51">
      <g>
       <use xlink:href="#me924d18215" x="62.234653" y="133.790397" style="stroke: #000000; stroke-width: 0.6"/>
      </g>
     </g>
    </g>
    <g id="ytick_32">
     <g id="line2d_52">
      <g>
       <use xlink:href="#me924d18215" x="62.234653" y="124.51746" style="stroke: #000000; stroke-width: 0.6"/>
      </g>
     </g>
    </g>
    <g id="ytick_33">
     <g id="line2d_53">
      <g>
       <use xlink:href="#me924d18215" x="62.234653" y="117.324812" style="stroke: #000000; stroke-width: 0.6"/>
      </g>
     </g>
    </g>
    <g id="ytick_34">
     <g id="line2d_54">
      <g>
       <use xlink:href="#me924d18215" x="62.234653" y="111.447991" style="stroke: #000000; stroke-width: 0.6"/>
      </g>
     </g>
    </g>
    <g id="ytick_35">
     <g id="line2d_55">
      <g>
       <use xlink:href="#me924d18215" x="62.234653" y="106.479209" style="stroke: #000000; stroke-width: 0.6"/>
      </g>
     </g>
    </g>
    <g id="ytick_36">
     <g id="line2d_56">
      <g>
       <use xlink:href="#me924d18215" x="62.234653" y="102.175054" style="stroke: #000000; stroke-width: 0.6"/>
      </g>
     </g>
    </g>
    <g id="ytick_37">
     <g id="line2d_57">
      <g>
       <use xlink:href="#me924d18215" x="62.234653" y="98.378521" style="stroke: #000000; stroke-width: 0.6"/>
      </g>
     </g>
    </g>
    <g id="ytick_38">
     <g id="line2d_58">
      <g>
       <use xlink:href="#me924d18215" x="62.234653" y="72.64" style="stroke: #000000; stroke-width: 0.6"/>
      </g>
     </g>
    </g>
    <g id="text_27">
     <!-- Error -->
     <g transform="translate(18.269588 248.541515) rotate(-90) scale(0.16 -0.16)">
      <defs>
       <path id="CMSS17-45" d="M 1958 433 
C 1446 433 1216 433 1101 433 
L 1101 2107 
L 3085 2107 
L 3085 2496 
L 1101 2496 
L 1101 4009 
L 1926 4009 
C 2003 4009 2080 4009 2157 4009 
L 3251 4009 
L 3251 4416 
L 563 4416 
L 563 0 
L 3334 0 
L 3334 433 
L 1958 433 
z
" transform="scale(0.015625)"/>
       <path id="CMSS17-72" d="M 954 1363 
C 954 1965 1395 2368 1958 2368 
L 1958 2789 
C 1549 2789 1165 2585 934 2253 
L 934 2758 
L 480 2758 
L 480 0 
L 954 0 
L 954 1363 
z
" transform="scale(0.015625)"/>
       <path id="CMSS17-6f" d="M 2829 1356 
C 2829 2176 2221 2816 1504 2816 
C 768 2816 173 2157 173 1356 
C 173 544 787 -64 1498 -64 
C 2227 -64 2829 563 2829 1356 
z
M 1504 337 
C 1050 337 659 709 659 1408 
C 659 2151 1114 2427 1498 2427 
C 1914 2427 2342 2126 2342 1408 
C 2342 683 1926 337 1504 337 
z
" transform="scale(0.015625)"/>
      </defs>
      <use xlink:href="#CMSS17-45" transform="scale(0.996264)"/>
      <use xlink:href="#CMSS17-72" transform="translate(55.892013 0) scale(0.996264)"/>
      <use xlink:href="#CMSS17-72" transform="translate(87.801786 0) scale(0.996264)"/>
      <use xlink:href="#CMSS17-6f" transform="translate(119.711558 0) scale(0.996264)"/>
      <use xlink:href="#CMSS17-72" transform="translate(163.952728 0) scale(0.996264)"/>
     </g>
    </g>
   </g>
   <g id="line2d_59">
    <path d="M 91.478533 109.977814 
L 122.261564 126.119957 
L 153.044595 138.527219 
L 183.827626 147.363395 
L 214.610657 154.45797 
L 245.393687 160.40014 
L 276.176718 165.291335 
L 306.959749 170.150859 
L 337.74278 174.402891 
L 368.525811 179.523538 
L 399.308842 183.236931 
L 430.091873 186.373921 
L 460.874904 190.218539 
L 491.657935 193.60778 
L 522.440966 197.16466 
L 553.223997 200.053153 
L 584.007028 202.857815 
L 614.790059 205.729144 
L 645.57309 208.552011 
L 676.356121 209.89061 
" clip-path="url(#p969524c248)" style="fill: none; stroke: #94c4df; stroke-width: 1.5; stroke-linecap: square"/>
    <defs>
     <path id="m2813319f40" d="M -0 4.242641 
L 2.545584 0 
L 0 -4.242641 
L -2.545584 -0 
z
" style="stroke: #94c4df; stroke-linejoin: miter"/>
    </defs>
    <g clip-path="url(#p969524c248)">
     <use xlink:href="#m2813319f40" x="91.478533" y="109.977814" style="fill: #94c4df; stroke: #94c4df; stroke-linejoin: miter"/>
     <use xlink:href="#m2813319f40" x="122.261564" y="126.119957" style="fill: #94c4df; stroke: #94c4df; stroke-linejoin: miter"/>
     <use xlink:href="#m2813319f40" x="153.044595" y="138.527219" style="fill: #94c4df; stroke: #94c4df; stroke-linejoin: miter"/>
     <use xlink:href="#m2813319f40" x="183.827626" y="147.363395" style="fill: #94c4df; stroke: #94c4df; stroke-linejoin: miter"/>
     <use xlink:href="#m2813319f40" x="214.610657" y="154.45797" style="fill: #94c4df; stroke: #94c4df; stroke-linejoin: miter"/>
     <use xlink:href="#m2813319f40" x="245.393687" y="160.40014" style="fill: #94c4df; stroke: #94c4df; stroke-linejoin: miter"/>
     <use xlink:href="#m2813319f40" x="276.176718" y="165.291335" style="fill: #94c4df; stroke: #94c4df; stroke-linejoin: miter"/>
     <use xlink:href="#m2813319f40" x="306.959749" y="170.150859" style="fill: #94c4df; stroke: #94c4df; stroke-linejoin: miter"/>
     <use xlink:href="#m2813319f40" x="337.74278" y="174.402891" style="fill: #94c4df; stroke: #94c4df; stroke-linejoin: miter"/>
     <use xlink:href="#m2813319f40" x="368.525811" y="179.523538" style="fill: #94c4df; stroke: #94c4df; stroke-linejoin: miter"/>
     <use xlink:href="#m2813319f40" x="399.308842" y="183.236931" style="fill: #94c4df; stroke: #94c4df; stroke-linejoin: miter"/>
     <use xlink:href="#m2813319f40" x="430.091873" y="186.373921" style="fill: #94c4df; stroke: #94c4df; stroke-linejoin: miter"/>
     <use xlink:href="#m2813319f40" x="460.874904" y="190.218539" style="fill: #94c4df; stroke: #94c4df; stroke-linejoin: miter"/>
     <use xlink:href="#m2813319f40" x="491.657935" y="193.60778" style="fill: #94c4df; stroke: #94c4df; stroke-linejoin: miter"/>
     <use xlink:href="#m2813319f40" x="522.440966" y="197.16466" style="fill: #94c4df; stroke: #94c4df; stroke-linejoin: miter"/>
     <use xlink:href="#m2813319f40" x="553.223997" y="200.053153" style="fill: #94c4df; stroke: #94c4df; stroke-linejoin: miter"/>
     <use xlink:href="#m2813319f40" x="584.007028" y="202.857815" style="fill: #94c4df; stroke: #94c4df; stroke-linejoin: miter"/>
     <use xlink:href="#m2813319f40" x="614.790059" y="205.729144" style="fill: #94c4df; stroke: #94c4df; stroke-linejoin: miter"/>
     <use xlink:href="#m2813319f40" x="645.57309" y="208.552011" style="fill: #94c4df; stroke: #94c4df; stroke-linejoin: miter"/>
     <use xlink:href="#m2813319f40" x="676.356121" y="209.89061" style="fill: #94c4df; stroke: #94c4df; stroke-linejoin: miter"/>
    </g>
   </g>
   <g id="line2d_60">
    <path d="M 91.478533 157.327001 
L 122.261564 201.934341 
L 153.044595 231.421035 
L 183.827626 250.504729 
L 214.610657 265.035886 
L 245.393687 276.582001 
L 276.176718 286.63554 
L 306.959749 295.478662 
L 337.74278 302.969944 
L 368.525811 311.116255 
L 399.308842 316.878179 
L 430.091873 321.919115 
L 460.874904 328.294311 
L 491.657935 334.518047 
L 522.440966 340.53252 
L 553.223997 345.36223 
L 584.007028 350.166343 
L 614.790059 354.872638 
L 645.57309 359.372872 
L 676.356121 361.476175 
" clip-path="url(#p969524c248)" style="fill: none; stroke: #fda762; stroke-width: 1.5; stroke-linecap: square"/>
    <defs>
     <path id="m29c171131b" d="M -0 4.242641 
L 2.545584 0 
L 0 -4.242641 
L -2.545584 -0 
z
" style="stroke: #fda762; stroke-linejoin: miter"/>
    </defs>
    <g clip-path="url(#p969524c248)">
     <use xlink:href="#m29c171131b" x="91.478533" y="157.327001" style="fill: #fda762; stroke: #fda762; stroke-linejoin: miter"/>
     <use xlink:href="#m29c171131b" x="122.261564" y="201.934341" style="fill: #fda762; stroke: #fda762; stroke-linejoin: miter"/>
     <use xlink:href="#m29c171131b" x="153.044595" y="231.421035" style="fill: #fda762; stroke: #fda762; stroke-linejoin: miter"/>
     <use xlink:href="#m29c171131b" x="183.827626" y="250.504729" style="fill: #fda762; stroke: #fda762; stroke-linejoin: miter"/>
     <use xlink:href="#m29c171131b" x="214.610657" y="265.035886" style="fill: #fda762; stroke: #fda762; stroke-linejoin: miter"/>
     <use xlink:href="#m29c171131b" x="245.393687" y="276.582001" style="fill: #fda762; stroke: #fda762; stroke-linejoin: miter"/>
     <use xlink:href="#m29c171131b" x="276.176718" y="286.63554" style="fill: #fda762; stroke: #fda762; stroke-linejoin: miter"/>
     <use xlink:href="#m29c171131b" x="306.959749" y="295.478662" style="fill: #fda762; stroke: #fda762; stroke-linejoin: miter"/>
     <use xlink:href="#m29c171131b" x="337.74278" y="302.969944" style="fill: #fda762; stroke: #fda762; stroke-linejoin: miter"/>
     <use xlink:href="#m29c171131b" x="368.525811" y="311.116255" style="fill: #fda762; stroke: #fda762; stroke-linejoin: miter"/>
     <use xlink:href="#m29c171131b" x="399.308842" y="316.878179" style="fill: #fda762; stroke: #fda762; stroke-linejoin: miter"/>
     <use xlink:href="#m29c171131b" x="430.091873" y="321.919115" style="fill: #fda762; stroke: #fda762; stroke-linejoin: miter"/>
     <use xlink:href="#m29c171131b" x="460.874904" y="328.294311" style="fill: #fda762; stroke: #fda762; stroke-linejoin: miter"/>
     <use xlink:href="#m29c171131b" x="491.657935" y="334.518047" style="fill: #fda762; stroke: #fda762; stroke-linejoin: miter"/>
     <use xlink:href="#m29c171131b" x="522.440966" y="340.53252" style="fill: #fda762; stroke: #fda762; stroke-linejoin: miter"/>
     <use xlink:href="#m29c171131b" x="553.223997" y="345.36223" style="fill: #fda762; stroke: #fda762; stroke-linejoin: miter"/>
     <use xlink:href="#m29c171131b" x="584.007028" y="350.166343" style="fill: #fda762; stroke: #fda762; stroke-linejoin: miter"/>
     <use xlink:href="#m29c171131b" x="614.790059" y="354.872638" style="fill: #fda762; stroke: #fda762; stroke-linejoin: miter"/>
     <use xlink:href="#m29c171131b" x="645.57309" y="359.372872" style="fill: #fda762; stroke: #fda762; stroke-linejoin: miter"/>
     <use xlink:href="#m29c171131b" x="676.356121" y="361.476175" style="fill: #fda762; stroke: #fda762; stroke-linejoin: miter"/>
    </g>
   </g>
   <g id="line2d_61">
    <path d="M 91.478533 101.497273 
L 122.261564 105.84542 
L 153.044595 108.96231 
L 183.827626 111.679827 
L 214.610657 113.82186 
L 245.393687 115.715328 
L 276.176718 117.350609 
L 306.959749 119.0257 
L 337.74278 120.478302 
L 368.525811 121.821096 
L 399.308842 123.160401 
L 430.091873 124.461101 
L 460.874904 125.824894 
L 491.657935 126.995588 
L 522.440966 128.012216 
L 553.223997 129.043404 
L 584.007028 130.060787 
L 614.790059 130.953517 
L 645.57309 132.054419 
L 676.356121 133.046927 
" clip-path="url(#p969524c248)" style="fill: none; stroke: #6aaed6; stroke-width: 1.5; stroke-linecap: square"/>
    <defs>
     <path id="m9ae357b11b" d="M -3 3 
L 3 3 
L 3 -3 
L -3 -3 
z
" style="stroke: #6aaed6; stroke-linejoin: miter"/>
    </defs>
    <g clip-path="url(#p969524c248)">
     <use xlink:href="#m9ae357b11b" x="91.478533" y="101.497273" style="fill: #6aaed6; stroke: #6aaed6; stroke-linejoin: miter"/>
     <use xlink:href="#m9ae357b11b" x="122.261564" y="105.84542" style="fill: #6aaed6; stroke: #6aaed6; stroke-linejoin: miter"/>
     <use xlink:href="#m9ae357b11b" x="153.044595" y="108.96231" style="fill: #6aaed6; stroke: #6aaed6; stroke-linejoin: miter"/>
     <use xlink:href="#m9ae357b11b" x="183.827626" y="111.679827" style="fill: #6aaed6; stroke: #6aaed6; stroke-linejoin: miter"/>
     <use xlink:href="#m9ae357b11b" x="214.610657" y="113.82186" style="fill: #6aaed6; stroke: #6aaed6; stroke-linejoin: miter"/>
     <use xlink:href="#m9ae357b11b" x="245.393687" y="115.715328" style="fill: #6aaed6; stroke: #6aaed6; stroke-linejoin: miter"/>
     <use xlink:href="#m9ae357b11b" x="276.176718" y="117.350609" style="fill: #6aaed6; stroke: #6aaed6; stroke-linejoin: miter"/>
     <use xlink:href="#m9ae357b11b" x="306.959749" y="119.0257" style="fill: #6aaed6; stroke: #6aaed6; stroke-linejoin: miter"/>
     <use xlink:href="#m9ae357b11b" x="337.74278" y="120.478302" style="fill: #6aaed6; stroke: #6aaed6; stroke-linejoin: miter"/>
     <use xlink:href="#m9ae357b11b" x="368.525811" y="121.821096" style="fill: #6aaed6; stroke: #6aaed6; stroke-linejoin: miter"/>
     <use xlink:href="#m9ae357b11b" x="399.308842" y="123.160401" style="fill: #6aaed6; stroke: #6aaed6; stroke-linejoin: miter"/>
     <use xlink:href="#m9ae357b11b" x="430.091873" y="124.461101" style="fill: #6aaed6; stroke: #6aaed6; stroke-linejoin: miter"/>
     <use xlink:href="#m9ae357b11b" x="460.874904" y="125.824894" style="fill: #6aaed6; stroke: #6aaed6; stroke-linejoin: miter"/>
     <use xlink:href="#m9ae357b11b" x="491.657935" y="126.995588" style="fill: #6aaed6; stroke: #6aaed6; stroke-linejoin: miter"/>
     <use xlink:href="#m9ae357b11b" x="522.440966" y="128.012216" style="fill: #6aaed6; stroke: #6aaed6; stroke-linejoin: miter"/>
     <use xlink:href="#m9ae357b11b" x="553.223997" y="129.043404" style="fill: #6aaed6; stroke: #6aaed6; stroke-linejoin: miter"/>
     <use xlink:href="#m9ae357b11b" x="584.007028" y="130.060787" style="fill: #6aaed6; stroke: #6aaed6; stroke-linejoin: miter"/>
     <use xlink:href="#m9ae357b11b" x="614.790059" y="130.953517" style="fill: #6aaed6; stroke: #6aaed6; stroke-linejoin: miter"/>
     <use xlink:href="#m9ae357b11b" x="645.57309" y="132.054419" style="fill: #6aaed6; stroke: #6aaed6; stroke-linejoin: miter"/>
     <use xlink:href="#m9ae357b11b" x="676.356121" y="133.046927" style="fill: #6aaed6; stroke: #6aaed6; stroke-linejoin: miter"/>
    </g>
   </g>
   <g id="line2d_62">
    <path d="M 91.478533 169.098043 
L 122.261564 193.791663 
L 153.044595 209.110207 
L 183.827626 220.42345 
L 214.610657 228.509434 
L 245.393687 235.271998 
L 276.176718 240.90121 
L 306.959749 246.369829 
L 337.74278 251.085701 
L 368.525811 255.175506 
L 399.308842 259.06895 
L 430.091873 262.777436 
L 460.874904 266.56815 
L 491.657935 269.767929 
L 522.440966 272.204213 
L 553.223997 275.006029 
L 584.007028 277.632842 
L 614.790059 280.059226 
L 645.57309 282.701984 
L 676.356121 285.092409 
" clip-path="url(#p969524c248)" style="fill: none; stroke: #fd8c3b; stroke-width: 1.5; stroke-linecap: square"/>
    <defs>
     <path id="ma36731f8c7" d="M -3 3 
L 3 3 
L 3 -3 
L -3 -3 
z
" style="stroke: #fd8c3b; stroke-linejoin: miter"/>
    </defs>
    <g clip-path="url(#p969524c248)">
     <use xlink:href="#ma36731f8c7" x="91.478533" y="169.098043" style="fill: #fd8c3b; stroke: #fd8c3b; stroke-linejoin: miter"/>
     <use xlink:href="#ma36731f8c7" x="122.261564" y="193.791663" style="fill: #fd8c3b; stroke: #fd8c3b; stroke-linejoin: miter"/>
     <use xlink:href="#ma36731f8c7" x="153.044595" y="209.110207" style="fill: #fd8c3b; stroke: #fd8c3b; stroke-linejoin: miter"/>
     <use xlink:href="#ma36731f8c7" x="183.827626" y="220.42345" style="fill: #fd8c3b; stroke: #fd8c3b; stroke-linejoin: miter"/>
     <use xlink:href="#ma36731f8c7" x="214.610657" y="228.509434" style="fill: #fd8c3b; stroke: #fd8c3b; stroke-linejoin: miter"/>
     <use xlink:href="#ma36731f8c7" x="245.393687" y="235.271998" style="fill: #fd8c3b; stroke: #fd8c3b; stroke-linejoin: miter"/>
     <use xlink:href="#ma36731f8c7" x="276.176718" y="240.90121" style="fill: #fd8c3b; stroke: #fd8c3b; stroke-linejoin: miter"/>
     <use xlink:href="#ma36731f8c7" x="306.959749" y="246.369829" style="fill: #fd8c3b; stroke: #fd8c3b; stroke-linejoin: miter"/>
     <use xlink:href="#ma36731f8c7" x="337.74278" y="251.085701" style="fill: #fd8c3b; stroke: #fd8c3b; stroke-linejoin: miter"/>
     <use xlink:href="#ma36731f8c7" x="368.525811" y="255.175506" style="fill: #fd8c3b; stroke: #fd8c3b; stroke-linejoin: miter"/>
     <use xlink:href="#ma36731f8c7" x="399.308842" y="259.06895" style="fill: #fd8c3b; stroke: #fd8c3b; stroke-linejoin: miter"/>
     <use xlink:href="#ma36731f8c7" x="430.091873" y="262.777436" style="fill: #fd8c3b; stroke: #fd8c3b; stroke-linejoin: miter"/>
     <use xlink:href="#ma36731f8c7" x="460.874904" y="266.56815" style="fill: #fd8c3b; stroke: #fd8c3b; stroke-linejoin: miter"/>
     <use xlink:href="#ma36731f8c7" x="491.657935" y="269.767929" style="fill: #fd8c3b; stroke: #fd8c3b; stroke-linejoin: miter"/>
     <use xlink:href="#ma36731f8c7" x="522.440966" y="272.204213" style="fill: #fd8c3b; stroke: #fd8c3b; stroke-linejoin: miter"/>
     <use xlink:href="#ma36731f8c7" x="553.223997" y="275.006029" style="fill: #fd8c3b; stroke: #fd8c3b; stroke-linejoin: miter"/>
     <use xlink:href="#ma36731f8c7" x="584.007028" y="277.632842" style="fill: #fd8c3b; stroke: #fd8c3b; stroke-linejoin: miter"/>
     <use xlink:href="#ma36731f8c7" x="614.790059" y="280.059226" style="fill: #fd8c3b; stroke: #fd8c3b; stroke-linejoin: miter"/>
     <use xlink:href="#ma36731f8c7" x="645.57309" y="282.701984" style="fill: #fd8c3b; stroke: #fd8c3b; stroke-linejoin: miter"/>
     <use xlink:href="#ma36731f8c7" x="676.356121" y="285.092409" style="fill: #fd8c3b; stroke: #fd8c3b; stroke-linejoin: miter"/>
    </g>
   </g>
   <g id="line2d_63">
    <path d="M 91.478533 99.515769 
L 122.261564 101.922211 
L 153.044595 103.96867 
L 183.827626 105.624936 
L 214.610657 107.17743 
L 245.393687 108.512869 
L 276.176718 109.717104 
L 306.959749 110.641586 
L 337.74278 111.652784 
L 368.525811 112.485222 
L 399.308842 113.419585 
L 430.091873 114.129814 
L 460.874904 114.99368 
L 491.657935 115.844372 
L 522.440966 116.547762 
L 553.223997 117.215405 
L 584.007028 117.936566 
L 614.790059 118.68768 
L 645.57309 119.477384 
L 676.356121 120.026492 
" clip-path="url(#p969524c248)" style="fill: none; stroke: #4a98c9; stroke-width: 1.5; stroke-linecap: square"/>
    <defs>
     <path id="m665e87a2b0" d="M 0 -3 
L -3 3 
L 3 3 
z
" style="stroke: #4a98c9; stroke-linejoin: miter"/>
    </defs>
    <g clip-path="url(#p969524c248)">
     <use xlink:href="#m665e87a2b0" x="91.478533" y="99.515769" style="fill: #4a98c9; stroke: #4a98c9; stroke-linejoin: miter"/>
     <use xlink:href="#m665e87a2b0" x="122.261564" y="101.922211" style="fill: #4a98c9; stroke: #4a98c9; stroke-linejoin: miter"/>
     <use xlink:href="#m665e87a2b0" x="153.044595" y="103.96867" style="fill: #4a98c9; stroke: #4a98c9; stroke-linejoin: miter"/>
     <use xlink:href="#m665e87a2b0" x="183.827626" y="105.624936" style="fill: #4a98c9; stroke: #4a98c9; stroke-linejoin: miter"/>
     <use xlink:href="#m665e87a2b0" x="214.610657" y="107.17743" style="fill: #4a98c9; stroke: #4a98c9; stroke-linejoin: miter"/>
     <use xlink:href="#m665e87a2b0" x="245.393687" y="108.512869" style="fill: #4a98c9; stroke: #4a98c9; stroke-linejoin: miter"/>
     <use xlink:href="#m665e87a2b0" x="276.176718" y="109.717104" style="fill: #4a98c9; stroke: #4a98c9; stroke-linejoin: miter"/>
     <use xlink:href="#m665e87a2b0" x="306.959749" y="110.641586" style="fill: #4a98c9; stroke: #4a98c9; stroke-linejoin: miter"/>
     <use xlink:href="#m665e87a2b0" x="337.74278" y="111.652784" style="fill: #4a98c9; stroke: #4a98c9; stroke-linejoin: miter"/>
     <use xlink:href="#m665e87a2b0" x="368.525811" y="112.485222" style="fill: #4a98c9; stroke: #4a98c9; stroke-linejoin: miter"/>
     <use xlink:href="#m665e87a2b0" x="399.308842" y="113.419585" style="fill: #4a98c9; stroke: #4a98c9; stroke-linejoin: miter"/>
     <use xlink:href="#m665e87a2b0" x="430.091873" y="114.129814" style="fill: #4a98c9; stroke: #4a98c9; stroke-linejoin: miter"/>
     <use xlink:href="#m665e87a2b0" x="460.874904" y="114.99368" style="fill: #4a98c9; stroke: #4a98c9; stroke-linejoin: miter"/>
     <use xlink:href="#m665e87a2b0" x="491.657935" y="115.844372" style="fill: #4a98c9; stroke: #4a98c9; stroke-linejoin: miter"/>
     <use xlink:href="#m665e87a2b0" x="522.440966" y="116.547762" style="fill: #4a98c9; stroke: #4a98c9; stroke-linejoin: miter"/>
     <use xlink:href="#m665e87a2b0" x="553.223997" y="117.215405" style="fill: #4a98c9; stroke: #4a98c9; stroke-linejoin: miter"/>
     <use xlink:href="#m665e87a2b0" x="584.007028" y="117.936566" style="fill: #4a98c9; stroke: #4a98c9; stroke-linejoin: miter"/>
     <use xlink:href="#m665e87a2b0" x="614.790059" y="118.68768" style="fill: #4a98c9; stroke: #4a98c9; stroke-linejoin: miter"/>
     <use xlink:href="#m665e87a2b0" x="645.57309" y="119.477384" style="fill: #4a98c9; stroke: #4a98c9; stroke-linejoin: miter"/>
     <use xlink:href="#m665e87a2b0" x="676.356121" y="120.026492" style="fill: #4a98c9; stroke: #4a98c9; stroke-linejoin: miter"/>
    </g>
   </g>
   <g id="line2d_64">
    <path d="M 91.478533 180.397311 
L 122.261564 199.897867 
L 153.044595 212.966067 
L 183.827626 222.527774 
L 214.610657 230.333431 
L 245.393687 236.202133 
L 276.176718 241.290497 
L 306.959749 245.197773 
L 337.74278 249.206422 
L 368.525811 252.719307 
L 399.308842 256.036056 
L 430.091873 258.447241 
L 460.874904 261.401935 
L 491.657935 264.214426 
L 522.440966 266.5506 
L 553.223997 268.802223 
L 584.007028 271.163917 
L 614.790059 273.392723 
L 645.57309 275.603219 
L 676.356121 277.328317 
" clip-path="url(#p969524c248)" style="fill: none; stroke: #f3701b; stroke-width: 1.5; stroke-linecap: square"/>
    <defs>
     <path id="m038121a94d" d="M 0 -3 
L -3 3 
L 3 3 
z
" style="stroke: #f3701b; stroke-linejoin: miter"/>
    </defs>
    <g clip-path="url(#p969524c248)">
     <use xlink:href="#m038121a94d" x="91.478533" y="180.397311" style="fill: #f3701b; stroke: #f3701b; stroke-linejoin: miter"/>
     <use xlink:href="#m038121a94d" x="122.261564" y="199.897867" style="fill: #f3701b; stroke: #f3701b; stroke-linejoin: miter"/>
     <use xlink:href="#m038121a94d" x="153.044595" y="212.966067" style="fill: #f3701b; stroke: #f3701b; stroke-linejoin: miter"/>
     <use xlink:href="#m038121a94d" x="183.827626" y="222.527774" style="fill: #f3701b; stroke: #f3701b; stroke-linejoin: miter"/>
     <use xlink:href="#m038121a94d" x="214.610657" y="230.333431" style="fill: #f3701b; stroke: #f3701b; stroke-linejoin: miter"/>
     <use xlink:href="#m038121a94d" x="245.393687" y="236.202133" style="fill: #f3701b; stroke: #f3701b; stroke-linejoin: miter"/>
     <use xlink:href="#m038121a94d" x="276.176718" y="241.290497" style="fill: #f3701b; stroke: #f3701b; stroke-linejoin: miter"/>
     <use xlink:href="#m038121a94d" x="306.959749" y="245.197773" style="fill: #f3701b; stroke: #f3701b; stroke-linejoin: miter"/>
     <use xlink:href="#m038121a94d" x="337.74278" y="249.206422" style="fill: #f3701b; stroke: #f3701b; stroke-linejoin: miter"/>
     <use xlink:href="#m038121a94d" x="368.525811" y="252.719307" style="fill: #f3701b; stroke: #f3701b; stroke-linejoin: miter"/>
     <use xlink:href="#m038121a94d" x="399.308842" y="256.036056" style="fill: #f3701b; stroke: #f3701b; stroke-linejoin: miter"/>
     <use xlink:href="#m038121a94d" x="430.091873" y="258.447241" style="fill: #f3701b; stroke: #f3701b; stroke-linejoin: miter"/>
     <use xlink:href="#m038121a94d" x="460.874904" y="261.401935" style="fill: #f3701b; stroke: #f3701b; stroke-linejoin: miter"/>
     <use xlink:href="#m038121a94d" x="491.657935" y="264.214426" style="fill: #f3701b; stroke: #f3701b; stroke-linejoin: miter"/>
     <use xlink:href="#m038121a94d" x="522.440966" y="266.5506" style="fill: #f3701b; stroke: #f3701b; stroke-linejoin: miter"/>
     <use xlink:href="#m038121a94d" x="553.223997" y="268.802223" style="fill: #f3701b; stroke: #f3701b; stroke-linejoin: miter"/>
     <use xlink:href="#m038121a94d" x="584.007028" y="271.163917" style="fill: #f3701b; stroke: #f3701b; stroke-linejoin: miter"/>
     <use xlink:href="#m038121a94d" x="614.790059" y="273.392723" style="fill: #f3701b; stroke: #f3701b; stroke-linejoin: miter"/>
     <use xlink:href="#m038121a94d" x="645.57309" y="275.603219" style="fill: #f3701b; stroke: #f3701b; stroke-linejoin: miter"/>
     <use xlink:href="#m038121a94d" x="676.356121" y="277.328317" style="fill: #f3701b; stroke: #f3701b; stroke-linejoin: miter"/>
    </g>
   </g>
   <g id="line2d_65">
    <path d="M 91.478533 98.25698 
L 122.261564 99.95656 
L 153.044595 101.446025 
L 183.827626 102.748232 
L 214.610657 103.913341 
L 245.393687 105.135397 
L 276.176718 105.990228 
L 306.959749 106.914988 
L 337.74278 107.785444 
L 368.525811 108.483455 
L 399.308842 109.151859 
L 430.091873 109.686571 
L 460.874904 110.256178 
L 491.657935 110.867675 
L 522.440966 111.399677 
L 553.223997 112.000667 
L 584.007028 112.479675 
L 614.790059 112.98844 
L 645.57309 113.334033 
L 676.356121 113.856575 
" clip-path="url(#p969524c248)" style="fill: none; stroke: #2e7ebc; stroke-width: 1.5; stroke-linecap: square"/>
    <defs>
     <path id="mff40367492" d="M 0 3 
C 0.795609 3 1.55874 2.683901 2.12132 2.12132 
C 2.683901 1.55874 3 0.795609 3 0 
C 3 -0.795609 2.683901 -1.55874 2.12132 -2.12132 
C 1.55874 -2.683901 0.795609 -3 0 -3 
C -0.795609 -3 -1.55874 -2.683901 -2.12132 -2.12132 
C -2.683901 -1.55874 -3 -0.795609 -3 0 
C -3 0.795609 -2.683901 1.55874 -2.12132 2.12132 
C -1.55874 2.683901 -0.795609 3 0 3 
z
" style="stroke: #2e7ebc"/>
    </defs>
    <g clip-path="url(#p969524c248)">
     <use xlink:href="#mff40367492" x="91.478533" y="98.25698" style="fill: #2e7ebc; stroke: #2e7ebc"/>
     <use xlink:href="#mff40367492" x="122.261564" y="99.95656" style="fill: #2e7ebc; stroke: #2e7ebc"/>
     <use xlink:href="#mff40367492" x="153.044595" y="101.446025" style="fill: #2e7ebc; stroke: #2e7ebc"/>
     <use xlink:href="#mff40367492" x="183.827626" y="102.748232" style="fill: #2e7ebc; stroke: #2e7ebc"/>
     <use xlink:href="#mff40367492" x="214.610657" y="103.913341" style="fill: #2e7ebc; stroke: #2e7ebc"/>
     <use xlink:href="#mff40367492" x="245.393687" y="105.135397" style="fill: #2e7ebc; stroke: #2e7ebc"/>
     <use xlink:href="#mff40367492" x="276.176718" y="105.990228" style="fill: #2e7ebc; stroke: #2e7ebc"/>
     <use xlink:href="#mff40367492" x="306.959749" y="106.914988" style="fill: #2e7ebc; stroke: #2e7ebc"/>
     <use xlink:href="#mff40367492" x="337.74278" y="107.785444" style="fill: #2e7ebc; stroke: #2e7ebc"/>
     <use xlink:href="#mff40367492" x="368.525811" y="108.483455" style="fill: #2e7ebc; stroke: #2e7ebc"/>
     <use xlink:href="#mff40367492" x="399.308842" y="109.151859" style="fill: #2e7ebc; stroke: #2e7ebc"/>
     <use xlink:href="#mff40367492" x="430.091873" y="109.686571" style="fill: #2e7ebc; stroke: #2e7ebc"/>
     <use xlink:href="#mff40367492" x="460.874904" y="110.256178" style="fill: #2e7ebc; stroke: #2e7ebc"/>
     <use xlink:href="#mff40367492" x="491.657935" y="110.867675" style="fill: #2e7ebc; stroke: #2e7ebc"/>
     <use xlink:href="#mff40367492" x="522.440966" y="111.399677" style="fill: #2e7ebc; stroke: #2e7ebc"/>
     <use xlink:href="#mff40367492" x="553.223997" y="112.000667" style="fill: #2e7ebc; stroke: #2e7ebc"/>
     <use xlink:href="#mff40367492" x="584.007028" y="112.479675" style="fill: #2e7ebc; stroke: #2e7ebc"/>
     <use xlink:href="#mff40367492" x="614.790059" y="112.98844" style="fill: #2e7ebc; stroke: #2e7ebc"/>
     <use xlink:href="#mff40367492" x="645.57309" y="113.334033" style="fill: #2e7ebc; stroke: #2e7ebc"/>
     <use xlink:href="#mff40367492" x="676.356121" y="113.856575" style="fill: #2e7ebc; stroke: #2e7ebc"/>
    </g>
   </g>
   <g id="line2d_66">
    <path d="M 91.478533 188.204391 
L 122.261564 205.703296 
L 153.044595 217.138973 
L 183.827626 225.802315 
L 214.610657 232.704117 
L 245.393687 238.576235 
L 276.176718 243.076848 
L 306.959749 247.187205 
L 337.74278 250.951473 
L 368.525811 254.166051 
L 399.308842 257.248414 
L 430.091873 259.931825 
L 460.874904 262.526742 
L 491.657935 265.007986 
L 522.440966 267.195004 
L 553.223997 269.2326 
L 584.007028 270.966333 
L 614.790059 272.827022 
L 645.57309 274.331482 
L 676.356121 276.169952 
" clip-path="url(#p969524c248)" style="fill: none; stroke: #e25508; stroke-width: 1.5; stroke-linecap: square"/>
    <defs>
     <path id="mc517caef23" d="M 0 3 
C 0.795609 3 1.55874 2.683901 2.12132 2.12132 
C 2.683901 1.55874 3 0.795609 3 0 
C 3 -0.795609 2.683901 -1.55874 2.12132 -2.12132 
C 1.55874 -2.683901 0.795609 -3 0 -3 
C -0.795609 -3 -1.55874 -2.683901 -2.12132 -2.12132 
C -2.683901 -1.55874 -3 -0.795609 -3 0 
C -3 0.795609 -2.683901 1.55874 -2.12132 2.12132 
C -1.55874 2.683901 -0.795609 3 0 3 
z
" style="stroke: #e25508"/>
    </defs>
    <g clip-path="url(#p969524c248)">
     <use xlink:href="#mc517caef23" x="91.478533" y="188.204391" style="fill: #e25508; stroke: #e25508"/>
     <use xlink:href="#mc517caef23" x="122.261564" y="205.703296" style="fill: #e25508; stroke: #e25508"/>
     <use xlink:href="#mc517caef23" x="153.044595" y="217.138973" style="fill: #e25508; stroke: #e25508"/>
     <use xlink:href="#mc517caef23" x="183.827626" y="225.802315" style="fill: #e25508; stroke: #e25508"/>
     <use xlink:href="#mc517caef23" x="214.610657" y="232.704117" style="fill: #e25508; stroke: #e25508"/>
     <use xlink:href="#mc517caef23" x="245.393687" y="238.576235" style="fill: #e25508; stroke: #e25508"/>
     <use xlink:href="#mc517caef23" x="276.176718" y="243.076848" style="fill: #e25508; stroke: #e25508"/>
     <use xlink:href="#mc517caef23" x="306.959749" y="247.187205" style="fill: #e25508; stroke: #e25508"/>
     <use xlink:href="#mc517caef23" x="337.74278" y="250.951473" style="fill: #e25508; stroke: #e25508"/>
     <use xlink:href="#mc517caef23" x="368.525811" y="254.166051" style="fill: #e25508; stroke: #e25508"/>
     <use xlink:href="#mc517caef23" x="399.308842" y="257.248414" style="fill: #e25508; stroke: #e25508"/>
     <use xlink:href="#mc517caef23" x="430.091873" y="259.931825" style="fill: #e25508; stroke: #e25508"/>
     <use xlink:href="#mc517caef23" x="460.874904" y="262.526742" style="fill: #e25508; stroke: #e25508"/>
     <use xlink:href="#mc517caef23" x="491.657935" y="265.007986" style="fill: #e25508; stroke: #e25508"/>
     <use xlink:href="#mc517caef23" x="522.440966" y="267.195004" style="fill: #e25508; stroke: #e25508"/>
     <use xlink:href="#mc517caef23" x="553.223997" y="269.2326" style="fill: #e25508; stroke: #e25508"/>
     <use xlink:href="#mc517caef23" x="584.007028" y="270.966333" style="fill: #e25508; stroke: #e25508"/>
     <use xlink:href="#mc517caef23" x="614.790059" y="272.827022" style="fill: #e25508; stroke: #e25508"/>
     <use xlink:href="#mc517caef23" x="645.57309" y="274.331482" style="fill: #e25508; stroke: #e25508"/>
     <use xlink:href="#mc517caef23" x="676.356121" y="276.169952" style="fill: #e25508; stroke: #e25508"/>
    </g>
   </g>
   <g id="line2d_67">
    <path d="M 91.478533 97.708631 
L 122.261564 98.956712 
L 153.044595 100.096025 
L 183.827626 101.07397 
L 214.610657 101.966216 
L 245.393687 102.863277 
L 276.176718 103.66764 
L 306.959749 104.410435 
L 337.74278 105.0604 
L 368.525811 105.593561 
L 399.308842 106.185844 
L 430.091873 106.793863 
L 460.874904 107.370939 
L 491.657935 107.838234 
L 522.440966 108.181067 
L 553.223997 108.625874 
L 584.007028 109.036999 
L 614.790059 109.428197 
L 645.57309 109.834418 
L 676.356121 110.209617 
" clip-path="url(#p969524c248)" style="fill: none; stroke: #1764ab; stroke-width: 1.5; stroke-linecap: square"/>
    <defs>
     <path id="m541e100ba5" d="M -0 3 
L 3 -3 
L -3 -3 
z
" style="stroke: #1764ab; stroke-linejoin: miter"/>
    </defs>
    <g clip-path="url(#p969524c248)">
     <use xlink:href="#m541e100ba5" x="91.478533" y="97.708631" style="fill: #1764ab; stroke: #1764ab; stroke-linejoin: miter"/>
     <use xlink:href="#m541e100ba5" x="122.261564" y="98.956712" style="fill: #1764ab; stroke: #1764ab; stroke-linejoin: miter"/>
     <use xlink:href="#m541e100ba5" x="153.044595" y="100.096025" style="fill: #1764ab; stroke: #1764ab; stroke-linejoin: miter"/>
     <use xlink:href="#m541e100ba5" x="183.827626" y="101.07397" style="fill: #1764ab; stroke: #1764ab; stroke-linejoin: miter"/>
     <use xlink:href="#m541e100ba5" x="214.610657" y="101.966216" style="fill: #1764ab; stroke: #1764ab; stroke-linejoin: miter"/>
     <use xlink:href="#m541e100ba5" x="245.393687" y="102.863277" style="fill: #1764ab; stroke: #1764ab; stroke-linejoin: miter"/>
     <use xlink:href="#m541e100ba5" x="276.176718" y="103.66764" style="fill: #1764ab; stroke: #1764ab; stroke-linejoin: miter"/>
     <use xlink:href="#m541e100ba5" x="306.959749" y="104.410435" style="fill: #1764ab; stroke: #1764ab; stroke-linejoin: miter"/>
     <use xlink:href="#m541e100ba5" x="337.74278" y="105.0604" style="fill: #1764ab; stroke: #1764ab; stroke-linejoin: miter"/>
     <use xlink:href="#m541e100ba5" x="368.525811" y="105.593561" style="fill: #1764ab; stroke: #1764ab; stroke-linejoin: miter"/>
     <use xlink:href="#m541e100ba5" x="399.308842" y="106.185844" style="fill: #1764ab; stroke: #1764ab; stroke-linejoin: miter"/>
     <use xlink:href="#m541e100ba5" x="430.091873" y="106.793863" style="fill: #1764ab; stroke: #1764ab; stroke-linejoin: miter"/>
     <use xlink:href="#m541e100ba5" x="460.874904" y="107.370939" style="fill: #1764ab; stroke: #1764ab; stroke-linejoin: miter"/>
     <use xlink:href="#m541e100ba5" x="491.657935" y="107.838234" style="fill: #1764ab; stroke: #1764ab; stroke-linejoin: miter"/>
     <use xlink:href="#m541e100ba5" x="522.440966" y="108.181067" style="fill: #1764ab; stroke: #1764ab; stroke-linejoin: miter"/>
     <use xlink:href="#m541e100ba5" x="553.223997" y="108.625874" style="fill: #1764ab; stroke: #1764ab; stroke-linejoin: miter"/>
     <use xlink:href="#m541e100ba5" x="584.007028" y="109.036999" style="fill: #1764ab; stroke: #1764ab; stroke-linejoin: miter"/>
     <use xlink:href="#m541e100ba5" x="614.790059" y="109.428197" style="fill: #1764ab; stroke: #1764ab; stroke-linejoin: miter"/>
     <use xlink:href="#m541e100ba5" x="645.57309" y="109.834418" style="fill: #1764ab; stroke: #1764ab; stroke-linejoin: miter"/>
     <use xlink:href="#m541e100ba5" x="676.356121" y="110.209617" style="fill: #1764ab; stroke: #1764ab; stroke-linejoin: miter"/>
    </g>
   </g>
   <g id="line2d_68">
    <path d="M 91.478533 194.935569 
L 122.261564 210.614996 
L 153.044595 221.693581 
L 183.827626 229.713176 
L 214.610657 236.137269 
L 245.393687 241.62237 
L 276.176718 246.050195 
L 306.959749 250.014407 
L 337.74278 253.370582 
L 368.525811 256.45886 
L 399.308842 259.342518 
L 430.091873 261.975819 
L 460.874904 264.6458 
L 491.657935 266.971614 
L 522.440966 268.832052 
L 553.223997 270.67851 
L 584.007028 272.627958 
L 614.790059 274.342515 
L 645.57309 275.887487 
L 676.356121 277.532859 
" clip-path="url(#p969524c248)" style="fill: none; stroke: #c54102; stroke-width: 1.5; stroke-linecap: square"/>
    <defs>
     <path id="m59e16310f1" d="M -0 3 
L 3 -3 
L -3 -3 
z
" style="stroke: #c54102; stroke-linejoin: miter"/>
    </defs>
    <g clip-path="url(#p969524c248)">
     <use xlink:href="#m59e16310f1" x="91.478533" y="194.935569" style="fill: #c54102; stroke: #c54102; stroke-linejoin: miter"/>
     <use xlink:href="#m59e16310f1" x="122.261564" y="210.614996" style="fill: #c54102; stroke: #c54102; stroke-linejoin: miter"/>
     <use xlink:href="#m59e16310f1" x="153.044595" y="221.693581" style="fill: #c54102; stroke: #c54102; stroke-linejoin: miter"/>
     <use xlink:href="#m59e16310f1" x="183.827626" y="229.713176" style="fill: #c54102; stroke: #c54102; stroke-linejoin: miter"/>
     <use xlink:href="#m59e16310f1" x="214.610657" y="236.137269" style="fill: #c54102; stroke: #c54102; stroke-linejoin: miter"/>
     <use xlink:href="#m59e16310f1" x="245.393687" y="241.62237" style="fill: #c54102; stroke: #c54102; stroke-linejoin: miter"/>
     <use xlink:href="#m59e16310f1" x="276.176718" y="246.050195" style="fill: #c54102; stroke: #c54102; stroke-linejoin: miter"/>
     <use xlink:href="#m59e16310f1" x="306.959749" y="250.014407" style="fill: #c54102; stroke: #c54102; stroke-linejoin: miter"/>
     <use xlink:href="#m59e16310f1" x="337.74278" y="253.370582" style="fill: #c54102; stroke: #c54102; stroke-linejoin: miter"/>
     <use xlink:href="#m59e16310f1" x="368.525811" y="256.45886" style="fill: #c54102; stroke: #c54102; stroke-linejoin: miter"/>
     <use xlink:href="#m59e16310f1" x="399.308842" y="259.342518" style="fill: #c54102; stroke: #c54102; stroke-linejoin: miter"/>
     <use xlink:href="#m59e16310f1" x="430.091873" y="261.975819" style="fill: #c54102; stroke: #c54102; stroke-linejoin: miter"/>
     <use xlink:href="#m59e16310f1" x="460.874904" y="264.6458" style="fill: #c54102; stroke: #c54102; stroke-linejoin: miter"/>
     <use xlink:href="#m59e16310f1" x="491.657935" y="266.971614" style="fill: #c54102; stroke: #c54102; stroke-linejoin: miter"/>
     <use xlink:href="#m59e16310f1" x="522.440966" y="268.832052" style="fill: #c54102; stroke: #c54102; stroke-linejoin: miter"/>
     <use xlink:href="#m59e16310f1" x="553.223997" y="270.67851" style="fill: #c54102; stroke: #c54102; stroke-linejoin: miter"/>
     <use xlink:href="#m59e16310f1" x="584.007028" y="272.627958" style="fill: #c54102; stroke: #c54102; stroke-linejoin: miter"/>
     <use xlink:href="#m59e16310f1" x="614.790059" y="274.342515" style="fill: #c54102; stroke: #c54102; stroke-linejoin: miter"/>
     <use xlink:href="#m59e16310f1" x="645.57309" y="275.887487" style="fill: #c54102; stroke: #c54102; stroke-linejoin: miter"/>
     <use xlink:href="#m59e16310f1" x="676.356121" y="277.532859" style="fill: #c54102; stroke: #c54102; stroke-linejoin: miter"/>
    </g>
   </g>
   <g id="line2d_69">
    <path clip-path="url(#p969524c248)" style="fill: none; stroke-dasharray: 3.7,1.6; stroke-dashoffset: 0; stroke: #000000"/>
   </g>
   <g id="patch_3">
    <path d="M 62.234653 391.861871 
L 62.234653 72.64 
" style="fill: none; stroke: #000000; stroke-width: 0.8; stroke-linejoin: miter; stroke-linecap: square"/>
   </g>
   <g id="patch_4">
    <path d="M 705.6 391.861871 
L 705.6 72.64 
" style="fill: none; stroke: #000000; stroke-width: 0.8; stroke-linejoin: miter; stroke-linecap: square"/>
   </g>
   <g id="patch_5">
    <path d="M 62.234653 391.861871 
L 705.6 391.861871 
" style="fill: none; stroke: #000000; stroke-width: 0.8; stroke-linejoin: miter; stroke-linecap: square"/>
   </g>
   <g id="patch_6">
    <path d="M 62.234653 72.64 
L 705.6 72.64 
" style="fill: none; stroke: #000000; stroke-width: 0.8; stroke-linejoin: miter; stroke-linecap: square"/>
   </g>
  </g>
  <g id="legend_1">
   <g id="patch_7">
    <path d="M 84.86066 66.699476 
L 627.93934 66.699476 
Q 631.13934 66.699476 631.13934 63.499476 
L 631.13934 42.8 
Q 631.13934 39.6 627.93934 39.6 
L 84.86066 39.6 
Q 81.66066 39.6 81.66066 42.8 
L 81.66066 63.499476 
Q 81.66066 66.699476 84.86066 66.699476 
z
" style="fill: #ffffff; opacity: 0.8; stroke: #cccccc; stroke-linejoin: miter"/>
   </g>
   <g id="line2d_70"/>
   <g id="text_28">
    <!-- Absolute Error $\epsilon$: -->
    <g transform="translate(96.06066 57.2) scale(0.16 -0.16)">
     <defs>
      <path id="CMSS17-41" d="M 2272 4416 
L 1722 4416 
L 166 0 
L 653 0 
L 1101 1280 
L 2816 1280 
L 3270 0 
L 3827 0 
L 2272 4416 
z
M 2694 1637 
L 1222 1637 
C 1530 2528 1914 3638 1958 3925 
L 1965 3925 
C 2010 3663 2138 3281 2246 2956 
L 2694 1637 
z
" transform="scale(0.015625)"/>
      <path id="CMSS17-62" d="M 954 4416 
L 480 4416 
L 480 -13 
L 966 -13 
L 966 274 
C 1210 38 1504 -64 1766 -64 
C 2381 -64 2880 549 2880 1352 
C 2880 2086 2496 2756 1926 2756 
C 1523 2756 1165 2591 954 2419 
L 954 4416 
z
M 966 2046 
C 1107 2222 1306 2368 1587 2368 
C 1965 2368 2394 2097 2394 1352 
C 2394 558 1882 325 1530 325 
C 1402 325 1267 356 1139 464 
C 966 615 966 709 966 797 
L 966 2046 
z
" transform="scale(0.015625)"/>
      <path id="CMSS17-73" d="M 2061 2627 
C 1683 2807 1389 2807 1197 2807 
C 742 2807 198 2648 198 2003 
C 198 1359 902 1218 1094 1179 
C 1389 1122 1715 1058 1715 740 
C 1715 337 1254 337 1171 337 
C 915 337 563 407 243 638 
L 166 210 
C 531 0 883 -64 1178 -64 
C 1965 -64 2163 416 2163 781 
C 2163 1094 1984 1305 1862 1401 
C 1651 1568 1574 1587 1050 1696 
C 960 1709 646 1779 646 2066 
C 646 2432 1050 2432 1139 2432 
C 1555 2432 1811 2303 1984 2208 
L 2061 2627 
z
" transform="scale(0.015625)"/>
      <path id="CMSS17-6c" d="M 947 4416 
L 474 4416 
L 474 0 
L 947 0 
L 947 4416 
z
" transform="scale(0.015625)"/>
      <path id="CMSS17-75" d="M 2618 2739 
L 2131 2739 
L 2131 972 
C 2131 498 1786 306 1421 306 
C 998 306 960 447 960 709 
L 960 2739 
L 474 2739 
L 474 678 
C 474 179 646 -64 1088 -64 
C 1306 -64 1798 -13 2144 306 
L 2144 0 
L 2618 0 
L 2618 2739 
z
" transform="scale(0.015625)"/>
      <path id="CMSS17-74" d="M 1069 2368 
L 1901 2368 
L 1901 2737 
L 1069 2737 
L 1069 3520 
L 614 3520 
L 614 2737 
L 109 2737 
L 109 2368 
L 602 2368 
L 602 749 
C 602 384 685 -64 1107 -64 
C 1427 -64 1722 25 2003 172 
L 1901 548 
C 1747 414 1562 337 1363 337 
C 1082 337 1069 696 1069 856 
L 1069 2368 
z
" transform="scale(0.015625)"/>
      <path id="CMSS17-65" d="M 2502 1377 
C 2502 1590 2490 2003 2285 2345 
C 2061 2713 1696 2816 1421 2816 
C 755 2816 192 2188 192 1375 
C 192 582 774 -64 1510 -64 
C 1798 -64 2150 19 2470 248 
C 2470 274 2458 414 2451 420 
C 2451 433 2432 630 2432 656 
C 2125 407 1773 325 1517 325 
C 1107 325 666 667 646 1377 
L 2502 1377 
z
M 698 1728 
C 781 2084 1062 2421 1421 2421 
C 1517 2421 1965 2421 2080 1728 
L 698 1728 
z
" transform="scale(0.015625)"/>
      <path id="CMMI12-f" d="M 1862 1467 
C 1958 1467 2067 1467 2067 1569 
C 2067 1652 2003 1652 1888 1652 
L 851 1652 
C 1011 2226 1389 2573 1958 2573 
L 2144 2573 
C 2253 2573 2349 2573 2349 2675 
C 2349 2758 2278 2758 2163 2758 
L 1946 2758 
C 1158 2758 294 2131 294 1126 
C 294 416 774 -64 1408 -64 
C 1818 -64 2221 194 2221 258 
C 2221 296 2202 336 2163 336 
C 2144 336 2131 329 2099 304 
C 1856 142 1619 64 1427 64 
C 1088 64 730 290 730 918 
C 730 1040 742 1208 800 1467 
L 1862 1467 
z
" transform="scale(0.015625)"/>
      <path id="CMSS17-3a" d="M 1088 2749 
L 576 2749 
L 576 2240 
L 1088 2240 
L 1088 2749 
z
M 576 510 
L 576 0 
L 1088 0 
L 1088 510 
L 576 510 
z
" transform="scale(0.015625)"/>
     </defs>
     <use xlink:href="#CMSS17-41" transform="scale(0.996264)"/>
     <use xlink:href="#CMSS17-62" transform="translate(62.217855 0) scale(0.996264)"/>
     <use xlink:href="#CMSS17-73" transform="translate(110.422798 0) scale(0.996264)"/>
     <use xlink:href="#CMSS17-6f" transform="translate(146.33634 0) scale(0.996264)"/>
     <use xlink:href="#CMSS17-6c" transform="translate(193.179964 0) scale(0.996264)"/>
     <use xlink:href="#CMSS17-75" transform="translate(215.360687 0) scale(0.996264)"/>
     <use xlink:href="#CMSS17-74" transform="translate(263.56563 0) scale(0.996264)"/>
     <use xlink:href="#CMSS17-65" transform="translate(297.397196 0) scale(0.996264)"/>
     <use xlink:href="#CMSS17-45" transform="translate(370.265131 0) scale(0.996264)"/>
     <use xlink:href="#CMSS17-72" transform="translate(426.157144 0) scale(0.996264)"/>
     <use xlink:href="#CMSS17-72" transform="translate(458.066917 0) scale(0.996264)"/>
     <use xlink:href="#CMSS17-6f" transform="translate(489.97669 0) scale(0.996264)"/>
     <use xlink:href="#CMSS17-72" transform="translate(534.217859 0) scale(0.996264)"/>
     <use xlink:href="#CMMI12-f" transform="translate(597.356744 0) scale(0.996264)"/>
     <use xlink:href="#CMSS17-3a" transform="translate(636.745703 0) scale(0.996264)"/>
    </g>
   </g>
   <g id="line2d_71">
    <path d="M 238.043306 51.6 
L 238.043306 51.6 
L 238.043306 51.6 
" style="fill: none; stroke: #94c4df; stroke-width: 1.5; stroke-linecap: square"/>
    <g>
     <use xlink:href="#m2813319f40" x="238.043306" y="51.6" style="fill: #94c4df; stroke: #94c4df; stroke-linejoin: miter"/>
    </g>
   </g>
   <g id="text_29">
    <!-- Size 4 -->
    <g transform="translate(246.043306 57.2) scale(0.16 -0.16)">
     <defs>
      <path id="CMSS17-53" d="M 2797 4169 
C 2515 4334 2208 4480 1690 4480 
C 864 4480 333 3879 333 3266 
C 333 3025 403 2753 653 2475 
C 902 2196 1184 2121 1542 2033 
C 1690 1994 1939 1924 1984 1906 
C 2342 1767 2515 1444 2515 1140 
C 2515 742 2202 318 1645 318 
C 1453 318 890 318 358 819 
L 269 318 
C 794 -64 1363 -128 1651 -128 
C 2438 -128 3002 488 3002 1186 
C 3002 1440 2925 1763 2656 2061 
C 2394 2347 2163 2410 1638 2549 
C 1338 2626 1146 2677 986 2873 
C 877 3013 819 3146 819 3317 
C 819 3673 1126 4060 1690 4060 
C 1971 4060 2336 4002 2707 3660 
L 2797 4169 
z
" transform="scale(0.015625)"/>
      <path id="CMSS17-69" d="M 979 4183 
L 442 4183 
L 442 3648 
L 979 3648 
L 979 4183 
z
M 947 2739 
L 474 2739 
L 474 0 
L 947 0 
L 947 2739 
z
" transform="scale(0.015625)"/>
      <path id="CMSS17-7a" d="M 2400 2502 
L 2400 2750 
L 250 2750 
L 250 2368 
L 1069 2368 
C 1146 2368 1222 2368 1299 2368 
L 1747 2368 
L 166 261 
L 166 0 
L 2419 0 
L 2419 395 
L 1549 395 
C 1472 395 1395 395 1318 395 
L 826 395 
L 2400 2502 
z
" transform="scale(0.015625)"/>
      <path id="CMSS17-34" d="M 2253 1088 
L 2835 1088 
L 2835 1477 
L 2253 1477 
L 2253 4192 
L 1690 4192 
L 166 1477 
L 166 1088 
L 1747 1088 
L 1747 0 
L 2253 0 
L 2253 1088 
z
M 659 1477 
C 1030 2127 1766 3439 1766 3885 
L 1766 1477 
L 659 1477 
z
" transform="scale(0.015625)"/>
     </defs>
     <use xlink:href="#CMSS17-53" transform="scale(0.996264)"/>
     <use xlink:href="#CMSS17-69" transform="translate(52.048516 0) scale(0.996264)"/>
     <use xlink:href="#CMSS17-7a" transform="translate(74.229239 0) scale(0.996264)"/>
     <use xlink:href="#CMSS17-65" transform="translate(114.907111 0) scale(0.996264)"/>
     <use xlink:href="#CMSS17-34" transform="translate(187.775046 0) scale(0.996264)"/>
    </g>
   </g>
   <g id="line2d_72">
    <path d="M 317.100121 51.6 
L 317.100121 51.6 
L 317.100121 51.6 
" style="fill: none; stroke: #6aaed6; stroke-width: 1.5; stroke-linecap: square"/>
    <g>
     <use xlink:href="#m9ae357b11b" x="317.100121" y="51.6" style="fill: #6aaed6; stroke: #6aaed6; stroke-linejoin: miter"/>
    </g>
   </g>
   <g id="text_30">
    <!-- Size 8 -->
    <g transform="translate(325.100121 57.2) scale(0.16 -0.16)">
     <defs>
      <path id="CMSS17-38" d="M 1933 2222 
C 2419 2380 2669 2760 2669 3134 
C 2669 3722 2157 4229 1504 4229 
C 826 4229 333 3708 333 3144 
C 333 2780 576 2403 1069 2241 
C 442 1997 250 1512 250 1149 
C 250 446 819 -128 1498 -128 
C 2202 -128 2752 455 2752 1138 
C 2752 1557 2502 2000 1933 2222 
z
M 1504 2432 
C 1075 2432 787 2712 787 3136 
C 787 3566 1075 3840 1504 3840 
C 1901 3840 2214 3591 2214 3136 
C 2214 2687 1907 2432 1504 2432 
z
M 1504 267 
C 1139 267 749 517 749 1156 
C 749 1813 1184 2043 1498 2043 
C 1843 2043 2253 1800 2253 1156 
C 2253 491 1830 267 1504 267 
z
" transform="scale(0.015625)"/>
     </defs>
     <use xlink:href="#CMSS17-53" transform="scale(0.996264)"/>
     <use xlink:href="#CMSS17-69" transform="translate(52.048516 0) scale(0.996264)"/>
     <use xlink:href="#CMSS17-7a" transform="translate(74.229239 0) scale(0.996264)"/>
     <use xlink:href="#CMSS17-65" transform="translate(114.907111 0) scale(0.996264)"/>
     <use xlink:href="#CMSS17-38" transform="translate(187.775046 0) scale(0.996264)"/>
    </g>
   </g>
   <g id="line2d_73">
    <path d="M 396.156935 51.6 
L 396.156935 51.6 
L 396.156935 51.6 
" style="fill: none; stroke: #4a98c9; stroke-width: 1.5; stroke-linecap: square"/>
    <g>
     <use xlink:href="#m665e87a2b0" x="396.156935" y="51.6" style="fill: #4a98c9; stroke: #4a98c9; stroke-linejoin: miter"/>
    </g>
   </g>
   <g id="text_31">
    <!-- Size 12 -->
    <g transform="translate(404.156935 57.2) scale(0.16 -0.16)">
     <defs>
      <path id="CMSS17-31" d="M 1818 4288 
L 1696 4288 
C 1350 3940 947 3890 538 3890 
L 538 3520 
C 723 3520 1024 3520 1325 3667 
L 1325 369 
L 570 369 
L 570 0 
L 2573 0 
L 2573 369 
L 1818 369 
L 1818 4288 
z
" transform="scale(0.015625)"/>
      <path id="CMSS17-32" d="M 1651 1357 
C 1830 1541 2099 1764 2285 1987 
C 2464 2204 2701 2511 2701 2957 
C 2701 3657 2227 4288 1421 4288 
C 787 4288 422 3893 250 3274 
L 499 2929 
C 640 3510 838 3880 1338 3880 
C 1888 3880 2195 3433 2195 2942 
C 2195 2355 1747 1901 1408 1563 
C 1030 1187 659 804 301 408 
L 301 0 
L 2701 0 
L 2701 433 
L 1613 433 
C 1536 433 1459 433 1382 433 
L 742 433 
L 742 439 
L 1651 1357 
z
" transform="scale(0.015625)"/>
     </defs>
     <use xlink:href="#CMSS17-53" transform="scale(0.996264)"/>
     <use xlink:href="#CMSS17-69" transform="translate(52.048516 0) scale(0.996264)"/>
     <use xlink:href="#CMSS17-7a" transform="translate(74.229239 0) scale(0.996264)"/>
     <use xlink:href="#CMSS17-65" transform="translate(114.907111 0) scale(0.996264)"/>
     <use xlink:href="#CMSS17-31" transform="translate(187.775046 0) scale(0.996264)"/>
     <use xlink:href="#CMSS17-32" transform="translate(234.618669 0) scale(0.996264)"/>
    </g>
   </g>
   <g id="line2d_74">
    <path d="M 483.017737 51.6 
L 483.017737 51.6 
L 483.017737 51.6 
" style="fill: none; stroke: #2e7ebc; stroke-width: 1.5; stroke-linecap: square"/>
    <g>
     <use xlink:href="#mff40367492" x="483.017737" y="51.6" style="fill: #2e7ebc; stroke: #2e7ebc"/>
    </g>
   </g>
   <g id="text_32">
    <!-- Size 16 -->
    <g transform="translate(491.017737 57.2) scale(0.16 -0.16)">
     <defs>
      <path id="CMSS17-36" d="M 2496 4101 
C 2227 4210 2035 4229 1856 4229 
C 1024 4229 250 3368 250 2006 
C 250 265 986 -128 1510 -128 
C 1798 -128 2086 -39 2362 280 
C 2643 617 2752 898 2752 1389 
C 2752 2179 2362 2880 1779 2880 
C 1357 2880 992 2657 768 2376 
C 832 3258 1254 3840 1862 3840 
C 2029 3840 2246 3816 2496 3710 
L 2496 4101 
z
M 774 1369 
C 774 1420 774 1452 781 1548 
C 781 2045 1069 2491 1536 2491 
C 1837 2491 1990 2332 2106 2135 
C 2240 1886 2246 1650 2246 1388 
C 2246 1140 2246 891 2099 637 
C 1978 439 1818 267 1510 267 
C 902 267 800 1114 774 1369 
z
" transform="scale(0.015625)"/>
     </defs>
     <use xlink:href="#CMSS17-53" transform="scale(0.996264)"/>
     <use xlink:href="#CMSS17-69" transform="translate(52.048516 0) scale(0.996264)"/>
     <use xlink:href="#CMSS17-7a" transform="translate(74.229239 0) scale(0.996264)"/>
     <use xlink:href="#CMSS17-65" transform="translate(114.907111 0) scale(0.996264)"/>
     <use xlink:href="#CMSS17-31" transform="translate(187.775046 0) scale(0.996264)"/>
     <use xlink:href="#CMSS17-36" transform="translate(234.618669 0) scale(0.996264)"/>
    </g>
   </g>
   <g id="line2d_75">
    <path d="M 569.878538 51.6 
L 569.878538 51.6 
L 569.878538 51.6 
" style="fill: none; stroke: #1764ab; stroke-width: 1.5; stroke-linecap: square"/>
    <g>
     <use xlink:href="#m541e100ba5" x="569.878538" y="51.6" style="fill: #1764ab; stroke: #1764ab; stroke-linejoin: miter"/>
    </g>
   </g>
   <g id="text_33">
    <!-- Size 20 -->
    <g transform="translate(577.878538 57.2) scale(0.16 -0.16)">
     <defs>
      <path id="CMSS17-30" d="M 2758 2044 
C 2758 2405 2752 3077 2490 3596 
C 2227 4096 1805 4229 1504 4229 
C 1069 4229 698 3975 506 3570 
C 301 3146 243 2709 243 2044 
C 243 1589 262 1031 493 543 
C 755 5 1197 -128 1498 -128 
C 1894 -128 2278 81 2496 518 
C 2720 974 2758 1474 2758 2044 
z
M 1498 261 
C 1011 261 864 811 819 995 
C 742 1310 730 1614 730 2114 
C 730 2506 730 2948 851 3297 
C 998 3701 1254 3840 1498 3840 
C 1971 3840 2125 3372 2176 3208 
C 2272 2873 2272 2481 2272 2114 
C 2272 1526 2272 261 1498 261 
z
" transform="scale(0.015625)"/>
     </defs>
     <use xlink:href="#CMSS17-53" transform="scale(0.996264)"/>
     <use xlink:href="#CMSS17-69" transform="translate(52.048516 0) scale(0.996264)"/>
     <use xlink:href="#CMSS17-7a" transform="translate(74.229239 0) scale(0.996264)"/>
     <use xlink:href="#CMSS17-65" transform="translate(114.907111 0) scale(0.996264)"/>
     <use xlink:href="#CMSS17-32" transform="translate(187.775046 0) scale(0.996264)"/>
     <use xlink:href="#CMSS17-30" transform="translate(234.618669 0) scale(0.996264)"/>
    </g>
   </g>
  </g>
  <g id="legend_2">
   <g id="patch_8">
    <path d="M 84.86066 66.699476 
L 627.93934 66.699476 
Q 631.13934 66.699476 631.13934 63.499476 
L 631.13934 42.8 
Q 631.13934 39.6 627.93934 39.6 
L 84.86066 39.6 
Q 81.66066 39.6 81.66066 42.8 
L 81.66066 63.499476 
Q 81.66066 66.699476 84.86066 66.699476 
z
" style="fill: #ffffff; opacity: 0.8; stroke: #cccccc; stroke-linejoin: miter"/>
   </g>
   <g id="line2d_76"/>
   <g id="text_34">
    <!-- Absolute Error $\epsilon$: -->
    <g transform="translate(96.06066 57.2) scale(0.16 -0.16)">
     <use xlink:href="#CMSS17-41" transform="scale(0.996264)"/>
     <use xlink:href="#CMSS17-62" transform="translate(62.217855 0) scale(0.996264)"/>
     <use xlink:href="#CMSS17-73" transform="translate(110.422798 0) scale(0.996264)"/>
     <use xlink:href="#CMSS17-6f" transform="translate(146.33634 0) scale(0.996264)"/>
     <use xlink:href="#CMSS17-6c" transform="translate(193.179964 0) scale(0.996264)"/>
     <use xlink:href="#CMSS17-75" transform="translate(215.360687 0) scale(0.996264)"/>
     <use xlink:href="#CMSS17-74" transform="translate(263.56563 0) scale(0.996264)"/>
     <use xlink:href="#CMSS17-65" transform="translate(297.397196 0) scale(0.996264)"/>
     <use xlink:href="#CMSS17-45" transform="translate(370.265131 0) scale(0.996264)"/>
     <use xlink:href="#CMSS17-72" transform="translate(426.157144 0) scale(0.996264)"/>
     <use xlink:href="#CMSS17-72" transform="translate(458.066917 0) scale(0.996264)"/>
     <use xlink:href="#CMSS17-6f" transform="translate(489.97669 0) scale(0.996264)"/>
     <use xlink:href="#CMSS17-72" transform="translate(534.217859 0) scale(0.996264)"/>
     <use xlink:href="#CMMI12-f" transform="translate(597.356744 0) scale(0.996264)"/>
     <use xlink:href="#CMSS17-3a" transform="translate(636.745703 0) scale(0.996264)"/>
    </g>
   </g>
   <g id="line2d_77">
    <path d="M 238.043306 51.6 
L 238.043306 51.6 
L 238.043306 51.6 
" style="fill: none; stroke: #94c4df; stroke-width: 1.5; stroke-linecap: square"/>
    <g>
     <use xlink:href="#m2813319f40" x="238.043306" y="51.6" style="fill: #94c4df; stroke: #94c4df; stroke-linejoin: miter"/>
    </g>
   </g>
   <g id="text_35">
    <!-- Size 4 -->
    <g transform="translate(246.043306 57.2) scale(0.16 -0.16)">
     <use xlink:href="#CMSS17-53" transform="scale(0.996264)"/>
     <use xlink:href="#CMSS17-69" transform="translate(52.048516 0) scale(0.996264)"/>
     <use xlink:href="#CMSS17-7a" transform="translate(74.229239 0) scale(0.996264)"/>
     <use xlink:href="#CMSS17-65" transform="translate(114.907111 0) scale(0.996264)"/>
     <use xlink:href="#CMSS17-34" transform="translate(187.775046 0) scale(0.996264)"/>
    </g>
   </g>
   <g id="line2d_78">
    <path d="M 317.100121 51.6 
L 317.100121 51.6 
L 317.100121 51.6 
" style="fill: none; stroke: #6aaed6; stroke-width: 1.5; stroke-linecap: square"/>
    <g>
     <use xlink:href="#m9ae357b11b" x="317.100121" y="51.6" style="fill: #6aaed6; stroke: #6aaed6; stroke-linejoin: miter"/>
    </g>
   </g>
   <g id="text_36">
    <!-- Size 8 -->
    <g transform="translate(325.100121 57.2) scale(0.16 -0.16)">
     <use xlink:href="#CMSS17-53" transform="scale(0.996264)"/>
     <use xlink:href="#CMSS17-69" transform="translate(52.048516 0) scale(0.996264)"/>
     <use xlink:href="#CMSS17-7a" transform="translate(74.229239 0) scale(0.996264)"/>
     <use xlink:href="#CMSS17-65" transform="translate(114.907111 0) scale(0.996264)"/>
     <use xlink:href="#CMSS17-38" transform="translate(187.775046 0) scale(0.996264)"/>
    </g>
   </g>
   <g id="line2d_79">
    <path d="M 396.156935 51.6 
L 396.156935 51.6 
L 396.156935 51.6 
" style="fill: none; stroke: #4a98c9; stroke-width: 1.5; stroke-linecap: square"/>
    <g>
     <use xlink:href="#m665e87a2b0" x="396.156935" y="51.6" style="fill: #4a98c9; stroke: #4a98c9; stroke-linejoin: miter"/>
    </g>
   </g>
   <g id="text_37">
    <!-- Size 12 -->
    <g transform="translate(404.156935 57.2) scale(0.16 -0.16)">
     <use xlink:href="#CMSS17-53" transform="scale(0.996264)"/>
     <use xlink:href="#CMSS17-69" transform="translate(52.048516 0) scale(0.996264)"/>
     <use xlink:href="#CMSS17-7a" transform="translate(74.229239 0) scale(0.996264)"/>
     <use xlink:href="#CMSS17-65" transform="translate(114.907111 0) scale(0.996264)"/>
     <use xlink:href="#CMSS17-31" transform="translate(187.775046 0) scale(0.996264)"/>
     <use xlink:href="#CMSS17-32" transform="translate(234.618669 0) scale(0.996264)"/>
    </g>
   </g>
   <g id="line2d_80">
    <path d="M 483.017737 51.6 
L 483.017737 51.6 
L 483.017737 51.6 
" style="fill: none; stroke: #2e7ebc; stroke-width: 1.5; stroke-linecap: square"/>
    <g>
     <use xlink:href="#mff40367492" x="483.017737" y="51.6" style="fill: #2e7ebc; stroke: #2e7ebc"/>
    </g>
   </g>
   <g id="text_38">
    <!-- Size 16 -->
    <g transform="translate(491.017737 57.2) scale(0.16 -0.16)">
     <use xlink:href="#CMSS17-53" transform="scale(0.996264)"/>
     <use xlink:href="#CMSS17-69" transform="translate(52.048516 0) scale(0.996264)"/>
     <use xlink:href="#CMSS17-7a" transform="translate(74.229239 0) scale(0.996264)"/>
     <use xlink:href="#CMSS17-65" transform="translate(114.907111 0) scale(0.996264)"/>
     <use xlink:href="#CMSS17-31" transform="translate(187.775046 0) scale(0.996264)"/>
     <use xlink:href="#CMSS17-36" transform="translate(234.618669 0) scale(0.996264)"/>
    </g>
   </g>
   <g id="line2d_81">
    <path d="M 569.878538 51.6 
L 569.878538 51.6 
L 569.878538 51.6 
" style="fill: none; stroke: #1764ab; stroke-width: 1.5; stroke-linecap: square"/>
    <g>
     <use xlink:href="#m541e100ba5" x="569.878538" y="51.6" style="fill: #1764ab; stroke: #1764ab; stroke-linejoin: miter"/>
    </g>
   </g>
   <g id="text_39">
    <!-- Size 20 -->
    <g transform="translate(577.878538 57.2) scale(0.16 -0.16)">
     <use xlink:href="#CMSS17-53" transform="scale(0.996264)"/>
     <use xlink:href="#CMSS17-69" transform="translate(52.048516 0) scale(0.996264)"/>
     <use xlink:href="#CMSS17-7a" transform="translate(74.229239 0) scale(0.996264)"/>
     <use xlink:href="#CMSS17-65" transform="translate(114.907111 0) scale(0.996264)"/>
     <use xlink:href="#CMSS17-32" transform="translate(187.775046 0) scale(0.996264)"/>
     <use xlink:href="#CMSS17-30" transform="translate(234.618669 0) scale(0.996264)"/>
    </g>
   </g>
  </g>
  <g id="legend_3">
   <g id="patch_9">
    <path d="M 86.680686 34.299476 
L 626.119314 34.299476 
Q 629.319314 34.299476 629.319314 31.099476 
L 629.319314 10.4 
Q 629.319314 7.2 626.119314 7.2 
L 86.680686 7.2 
Q 83.480686 7.2 83.480686 10.4 
L 83.480686 31.099476 
Q 83.480686 34.299476 86.680686 34.299476 
z
" style="fill: #ffffff; opacity: 0.8; stroke: #cccccc; stroke-linejoin: miter"/>
   </g>
   <g id="line2d_82"/>
   <g id="text_40">
    <!-- Relative Error $\delta$: -->
    <g transform="translate(97.880686 24.8) scale(0.16 -0.16)">
     <defs>
      <path id="CMSS17-52" d="M 2522 2109 
L 2534 2115 
C 3533 2459 3539 3147 3539 3268 
C 3539 3873 2925 4453 2003 4453 
L 570 4453 
L 570 32 
L 1094 32 
L 1094 2048 
L 2035 2048 
L 3168 32 
L 3706 32 
L 2522 2109 
z
M 1094 2437 
L 1094 4096 
L 1933 4096 
C 2746 4096 3034 3637 3034 3267 
C 3034 2922 2778 2437 1933 2437 
L 1094 2437 
z
" transform="scale(0.015625)"/>
      <path id="CMSS17-61" d="M 2406 1791 
C 2406 2392 1978 2808 1402 2808 
C 1120 2808 813 2757 461 2553 
L 499 2135 
C 659 2248 934 2432 1395 2432 
C 1722 2432 1920 2180 1920 1782 
L 1920 1536 
C 896 1536 256 1238 256 726 
C 256 461 416 -64 947 -64 
C 1043 -64 1562 -64 1933 217 
L 1933 -19 
L 2406 -19 
L 2406 1791 
z
M 1920 816 
C 1920 701 1920 548 1728 434 
C 1562 325 1350 325 1261 325 
C 941 325 723 511 723 744 
C 723 1211 1722 1211 1920 1211 
L 1920 816 
z
" transform="scale(0.015625)"/>
      <path id="CMSS17-76" d="M 2675 2752 
L 2176 2752 
L 1747 1556 
C 1613 1165 1421 627 1389 352 
L 1382 352 
C 1370 468 1318 634 1286 749 
C 1248 890 1197 1056 1158 1172 
L 595 2752 
L 83 2752 
L 1094 0 
L 1664 0 
L 2675 2752 
z
" transform="scale(0.015625)"/>
      <path id="CMMI12-e" d="M 1664 2795 
C 845 2597 256 1748 256 1001 
C 256 319 717 -64 1229 -64 
C 1984 -64 2496 970 2496 1818 
C 2496 2392 2227 2744 2067 2954 
C 1830 3254 1446 3746 1446 4052 
C 1446 4161 1530 4352 1811 4352 
C 2010 4352 2131 4282 2323 4173 
C 2381 4134 2528 4052 2611 4052 
C 2746 4052 2842 4185 2842 4287 
C 2842 4409 2746 4428 2522 4479 
C 2221 4543 2131 4543 2022 4543 
C 1914 4543 1286 4543 1286 3892 
C 1286 3579 1446 3216 1664 2795 
z
M 1734 2669 
C 1978 2165 2074 1974 2074 1560 
C 2074 1063 1805 63 1235 63 
C 986 63 627 229 627 821 
C 627 1235 864 2439 1734 2669 
z
" transform="scale(0.015625)"/>
     </defs>
     <use xlink:href="#CMSS17-52" transform="scale(0.996264)"/>
     <use xlink:href="#CMSS17-65" transform="translate(60.416155 0) scale(0.996264)"/>
     <use xlink:href="#CMSS17-6c" transform="translate(102.054977 0) scale(0.996264)"/>
     <use xlink:href="#CMSS17-61" transform="translate(124.2357 0) scale(0.996264)"/>
     <use xlink:href="#CMSS17-74" transform="translate(169.157621 0) scale(0.996264)"/>
     <use xlink:href="#CMSS17-69" transform="translate(202.989187 0) scale(0.996264)"/>
     <use xlink:href="#CMSS17-76" transform="translate(225.16991 0) scale(0.996264)"/>
     <use xlink:href="#CMSS17-65" transform="translate(268.170052 0) scale(0.996264)"/>
     <use xlink:href="#CMSS17-45" transform="translate(341.037987 0) scale(0.996264)"/>
     <use xlink:href="#CMSS17-72" transform="translate(396.93 0) scale(0.996264)"/>
     <use xlink:href="#CMSS17-72" transform="translate(428.839773 0) scale(0.996264)"/>
     <use xlink:href="#CMSS17-6f" transform="translate(460.749545 0) scale(0.996264)"/>
     <use xlink:href="#CMSS17-72" transform="translate(504.990715 0) scale(0.996264)"/>
     <use xlink:href="#CMMI12-e" transform="translate(568.1296 0) scale(0.996264)"/>
     <use xlink:href="#CMSS17-3a" transform="translate(615.070986 0) scale(0.996264)"/>
    </g>
   </g>
   <g id="line2d_83">
    <path d="M 236.22328 19.2 
L 236.22328 19.2 
L 236.22328 19.2 
" style="fill: none; stroke: #fda762; stroke-width: 1.5; stroke-linecap: square"/>
    <g>
     <use xlink:href="#m29c171131b" x="236.22328" y="19.2" style="fill: #fda762; stroke: #fda762; stroke-linejoin: miter"/>
    </g>
   </g>
   <g id="text_41">
    <!-- Size 4 -->
    <g transform="translate(244.22328 24.8) scale(0.16 -0.16)">
     <use xlink:href="#CMSS17-53" transform="scale(0.996264)"/>
     <use xlink:href="#CMSS17-69" transform="translate(52.048516 0) scale(0.996264)"/>
     <use xlink:href="#CMSS17-7a" transform="translate(74.229239 0) scale(0.996264)"/>
     <use xlink:href="#CMSS17-65" transform="translate(114.907111 0) scale(0.996264)"/>
     <use xlink:href="#CMSS17-34" transform="translate(187.775046 0) scale(0.996264)"/>
    </g>
   </g>
   <g id="line2d_84">
    <path d="M 315.280095 19.2 
L 315.280095 19.2 
L 315.280095 19.2 
" style="fill: none; stroke: #fd8c3b; stroke-width: 1.5; stroke-linecap: square"/>
    <g>
     <use xlink:href="#ma36731f8c7" x="315.280095" y="19.2" style="fill: #fd8c3b; stroke: #fd8c3b; stroke-linejoin: miter"/>
    </g>
   </g>
   <g id="text_42">
    <!-- Size 8 -->
    <g transform="translate(323.280095 24.8) scale(0.16 -0.16)">
     <use xlink:href="#CMSS17-53" transform="scale(0.996264)"/>
     <use xlink:href="#CMSS17-69" transform="translate(52.048516 0) scale(0.996264)"/>
     <use xlink:href="#CMSS17-7a" transform="translate(74.229239 0) scale(0.996264)"/>
     <use xlink:href="#CMSS17-65" transform="translate(114.907111 0) scale(0.996264)"/>
     <use xlink:href="#CMSS17-38" transform="translate(187.775046 0) scale(0.996264)"/>
    </g>
   </g>
   <g id="line2d_85">
    <path d="M 394.336909 19.2 
L 394.336909 19.2 
L 394.336909 19.2 
" style="fill: none; stroke: #f3701b; stroke-width: 1.5; stroke-linecap: square"/>
    <g>
     <use xlink:href="#m038121a94d" x="394.336909" y="19.2" style="fill: #f3701b; stroke: #f3701b; stroke-linejoin: miter"/>
    </g>
   </g>
   <g id="text_43">
    <!-- Size 12 -->
    <g transform="translate(402.336909 24.8) scale(0.16 -0.16)">
     <use xlink:href="#CMSS17-53" transform="scale(0.996264)"/>
     <use xlink:href="#CMSS17-69" transform="translate(52.048516 0) scale(0.996264)"/>
     <use xlink:href="#CMSS17-7a" transform="translate(74.229239 0) scale(0.996264)"/>
     <use xlink:href="#CMSS17-65" transform="translate(114.907111 0) scale(0.996264)"/>
     <use xlink:href="#CMSS17-31" transform="translate(187.775046 0) scale(0.996264)"/>
     <use xlink:href="#CMSS17-32" transform="translate(234.618669 0) scale(0.996264)"/>
    </g>
   </g>
   <g id="line2d_86">
    <path d="M 481.197711 19.2 
L 481.197711 19.2 
L 481.197711 19.2 
" style="fill: none; stroke: #e25508; stroke-width: 1.5; stroke-linecap: square"/>
    <g>
     <use xlink:href="#mc517caef23" x="481.197711" y="19.2" style="fill: #e25508; stroke: #e25508"/>
    </g>
   </g>
   <g id="text_44">
    <!-- Size 16 -->
    <g transform="translate(489.197711 24.8) scale(0.16 -0.16)">
     <use xlink:href="#CMSS17-53" transform="scale(0.996264)"/>
     <use xlink:href="#CMSS17-69" transform="translate(52.048516 0) scale(0.996264)"/>
     <use xlink:href="#CMSS17-7a" transform="translate(74.229239 0) scale(0.996264)"/>
     <use xlink:href="#CMSS17-65" transform="translate(114.907111 0) scale(0.996264)"/>
     <use xlink:href="#CMSS17-31" transform="translate(187.775046 0) scale(0.996264)"/>
     <use xlink:href="#CMSS17-36" transform="translate(234.618669 0) scale(0.996264)"/>
    </g>
   </g>
   <g id="line2d_87">
    <path d="M 568.058512 19.2 
L 568.058512 19.2 
L 568.058512 19.2 
" style="fill: none; stroke: #c54102; stroke-width: 1.5; stroke-linecap: square"/>
    <g>
     <use xlink:href="#m59e16310f1" x="568.058512" y="19.2" style="fill: #c54102; stroke: #c54102; stroke-linejoin: miter"/>
    </g>
   </g>
   <g id="text_45">
    <!-- Size 20 -->
    <g transform="translate(576.058512 24.8) scale(0.16 -0.16)">
     <use xlink:href="#CMSS17-53" transform="scale(0.996264)"/>
     <use xlink:href="#CMSS17-69" transform="translate(52.048516 0) scale(0.996264)"/>
     <use xlink:href="#CMSS17-7a" transform="translate(74.229239 0) scale(0.996264)"/>
     <use xlink:href="#CMSS17-65" transform="translate(114.907111 0) scale(0.996264)"/>
     <use xlink:href="#CMSS17-32" transform="translate(187.775046 0) scale(0.996264)"/>
     <use xlink:href="#CMSS17-30" transform="translate(234.618669 0) scale(0.996264)"/>
    </g>
   </g>
  </g>
 </g>
 <defs>
  <clipPath id="p969524c248">
   <rect x="62.234653" y="72.64" width="643.365347" height="319.221871"/>
  </clipPath>
 </defs>
</svg>
