<?xml version="1.0" encoding="utf-8" standalone="no"?>
<!DOCTYPE svg PUBLIC "-//W3C//DTD SVG 1.1//EN"
  "http://www.w3.org/Graphics/SVG/1.1/DTD/svg11.dtd">
<svg xmlns:xlink="http://www.w3.org/1999/xlink" width="757.047381pt" height="393.465261pt" viewBox="0 0 757.047381 393.465261" xmlns="http://www.w3.org/2000/svg" version="1.1">
 <metadata>
  <rdf:RDF xmlns:dc="http://purl.org/dc/elements/1.1/" xmlns:cc="http://creativecommons.org/ns#" xmlns:rdf="http://www.w3.org/1999/02/22-rdf-syntax-ns#">
   <cc:Work>
    <dc:type rdf:resource="http://purl.org/dc/dcmitype/StillImage"/>
    <dc:date>2025-10-15T19:47:33.312903</dc:date>
    <dc:format>image/svg+xml</dc:format>
    <dc:creator>
     <cc:Agent>
      <dc:title>Matplotlib v3.10.6, https://matplotlib.org/</dc:title>
     </cc:Agent>
    </dc:creator>
   </cc:Work>
  </rdf:RDF>
 </metadata>
 <defs>
  <style type="text/css">*{stroke-linejoin: round; stroke-linecap: butt}</style>
 </defs>
 <g id="figure_1">
  <g id="patch_1">
   <path d="M 0 393.465261 
L 757.047381 393.465261 
L 757.047381 0 
L 0 0 
z
" style="fill: #ffffff"/>
  </g>
  <g id="axes_1">
   <g id="patch_2">
    <path d="M 65.504952 339.84 
L 623.504952 339.84 
L 623.504952 7.2 
L 65.504952 7.2 
z
" style="fill: #ffffff"/>
   </g>
   <g id="line2d_1">
    <path d="M 90.868588 92.918017 
L 98.920536 54.756832 
L 106.972484 113.099137 
L 115.024433 85.521541 
L 123.076381 89.93635 
L 131.128329 72.097797 
L 139.180277 92.031081 
L 147.232225 84.776118 
L 155.284173 187.369246 
L 163.336121 148.627028 
L 171.388069 221.421575 
L 179.440017 193.262947 
L 187.491965 177.365336 
L 195.543913 158.94575 
L 203.595861 193.331276 
L 211.647809 185.495279 
L 219.699757 99.760791 
L 227.751705 49.020994 
L 235.803653 114.173661 
L 243.855601 74.017454 
L 251.907549 98.098191 
L 259.959497 67.681027 
L 268.011446 94.424673 
L 276.063394 74.591098 
L 284.115342 196.677508 
L 292.16729 145.356678 
L 300.219238 224.961588 
L 308.271186 184.224347 
L 316.323134 187.992665 
L 324.375082 156.994467 
L 332.42703 198.190356 
L 340.478978 177.775748 
L 348.530926 66.847745 
L 356.582874 28.757853 
L 364.634822 100.63515 
L 372.68677 73.128847 
L 380.738718 61.912445 
L 388.790666 44.145185 
L 396.842614 77.61346 
L 404.894562 70.42979 
L 412.94651 163.119631 
L 420.998459 124.448706 
L 429.050407 210.778246 
L 437.102355 182.69091 
L 445.154303 151.162087 
L 453.206251 132.813794 
L 461.258199 180.734313 
L 469.310147 172.969609 
L 477.362095 72.988503 
L 485.414043 22.32 
L 493.465991 101.007659 
L 501.517939 60.922745 
L 509.569887 69.37227 
L 517.621835 39.026399 
L 525.673783 79.305037 
L 533.725731 59.542755 
L 541.777679 171.725878 
L 549.829627 120.476341 
L 557.881575 213.616242 
L 565.933523 172.950295 
L 573.985471 161.087401 
L 582.03742 130.160497 
L 590.089368 184.891377 
L 598.141316 164.548062 
" clip-path="url(#p54da3968cd)" style="fill: none; stroke-dasharray: 5.55,2.4; stroke-dashoffset: 0; stroke: #94c4df; stroke-width: 1.5"/>
   </g>
   <g id="line2d_2">
    <path d="M 90.868588 213.928297 
L 98.920536 184.834301 
L 106.972484 229.124743 
L 115.024433 208.599863 
L 123.076381 211.138013 
L 131.128329 195.827014 
L 139.180277 214.021339 
L 147.232225 207.359658 
L 155.284173 276.966686 
L 163.336121 252.978107 
L 171.388069 295.367122 
L 179.440017 281.331581 
L 187.491965 271.368471 
L 195.543913 260.89813 
L 203.595861 278.383178 
L 211.647809 277.270408 
L 219.699757 218.752718 
L 227.751705 180.819488 
L 235.803653 229.884817 
L 243.855601 200.49506 
L 251.907549 216.879303 
L 259.959497 192.750475 
L 268.011446 215.713399 
L 276.063394 200.201509 
L 284.115342 283.406612 
L 292.16729 250.674997 
L 300.219238 297.74022 
L 308.271186 275.059011 
L 316.323134 278.773761 
L 324.375082 259.52044 
L 332.42703 281.6998 
L 340.478978 271.87908 
L 348.530926 194.1907 
L 356.582874 164.533783 
L 364.634822 219.761868 
L 372.68677 198.425358 
L 380.738718 189.758646 
L 388.790666 173.86912 
L 396.842614 202.975821 
L 404.894562 195.513478 
L 412.94651 262.361697 
L 420.998459 236.924664 
L 429.050407 291.927359 
L 437.102355 276.265256 
L 445.154303 254.82346 
L 453.206251 243.063591 
L 461.258199 272.758484 
L 469.310147 270.307544 
L 477.362095 198.504001 
L 485.414043 160.050379 
L 493.465991 220.026195 
L 501.517939 189.863934 
L 509.569887 194.982999 
L 517.621835 170.323796 
L 525.673783 204.169603 
L 533.725731 187.901732 
L 541.777679 268.389333 
L 549.829627 234.117454 
L 557.881575 293.869887 
L 565.933523 269.43503 
L 573.985471 261.803875 
L 582.03742 241.187307 
L 590.089368 275.640423 
L 598.141316 264.37927 
" clip-path="url(#p54da3968cd)" style="fill: none; stroke-dasharray: 5.55,2.4; stroke-dashoffset: 0; stroke: #64a9d3; stroke-width: 1.5"/>
   </g>
   <g id="line2d_3">
    <path d="M 90.868588 245.310922 
L 98.920536 217.57927 
L 106.972484 259.666287 
L 115.024433 240.477822 
L 123.076381 242.233169 
L 131.128329 226.321877 
L 139.180277 246.027642 
L 147.232225 238.755201 
L 155.284173 298.368662 
L 163.336121 279.804537 
L 171.388069 310.685039 
L 179.440017 302.41764 
L 187.491965 294.565211 
L 195.543913 287.403424 
L 203.595861 297.503572 
L 211.647809 299.951859 
L 219.699757 249.596773 
L 227.751705 214.036143 
L 235.803653 260.343677 
L 243.855601 233.283033 
L 251.907549 247.322706 
L 259.959497 223.617764 
L 268.011446 247.534688 
L 276.063394 232.415059 
L 284.115342 304.001236 
L 292.16729 277.76065 
L 300.219238 312.725754 
L 308.271186 296.917858 
L 316.323134 301.076694 
L 324.375082 286.177835 
L 332.42703 300.379677 
L 340.478978 295.201816 
L 348.530926 226.600327 
L 356.582874 197.897222 
L 364.634822 250.838502 
L 372.68677 230.197582 
L 380.738718 221.853753 
L 388.790666 204.977128 
L 396.842614 235.439115 
L 404.894562 226.758373 
L 412.94651 287.426858 
L 420.998459 266.415044 
L 429.050407 310.494677 
L 437.102355 299.870901 
L 445.154303 281.494324 
L 453.206251 272.083037 
L 461.258199 294.999964 
L 469.310147 295.345278 
L 477.362095 230.419013 
L 485.414043 193.956965 
L 493.465991 251.074807 
L 501.517939 222.628087 
L 509.569887 226.46716 
L 517.621835 201.874251 
L 525.673783 236.50065 
L 533.725731 220.047077 
L 541.777679 292.749261 
L 549.829627 263.915584 
L 557.881575 312.181218 
L 565.933523 293.833045 
L 573.985471 287.680931 
L 582.03742 270.411351 
L 590.089368 297.523824 
L 598.141316 290.086489 
" clip-path="url(#p54da3968cd)" style="fill: none; stroke-dasharray: 5.55,2.4; stroke-dashoffset: 0; stroke: #3e8ec4; stroke-width: 1.5"/>
   </g>
   <g id="line2d_4">
    <path d="M 90.868588 259.341962 
L 98.920536 231.55552 
L 106.972484 273.649891 
L 115.024433 254.701375 
L 123.076381 255.901647 
L 131.128329 238.925606 
L 139.180277 260.604766 
L 147.232225 252.518572 
L 155.284173 306.812435 
L 163.336121 291.634199 
L 171.388069 315.64339 
L 179.440017 310.765359 
L 187.491965 304.170228 
L 195.543913 299.300137 
L 203.595861 304.420485 
L 211.647809 309.365107 
L 219.699757 263.376317 
L 227.751705 228.23898 
L 235.803653 274.289489 
L 243.855601 247.933527 
L 251.907549 260.683573 
L 259.959497 236.401687 
L 268.011446 262.02685 
L 276.063394 246.566413 
L 284.115342 312.05655 
L 292.16729 289.711938 
L 300.219238 317.538 
L 308.271186 305.636278 
L 316.323134 310.250456 
L 324.375082 298.14494 
L 332.42703 307.090218 
L 340.478978 304.922694 
L 348.530926 240.669453 
L 356.582874 211.624319 
L 364.634822 264.863327 
L 372.68677 243.911931 
L 380.738718 235.495089 
L 388.790666 217.320682 
L 396.842614 249.919434 
L 404.894562 239.937185 
L 412.94651 298.179629 
L 420.998459 279.83195 
L 429.050407 317.380001 
L 437.102355 309.979047 
L 445.154303 293.270453 
L 453.206251 285.368468 
L 461.258199 303.92808 
L 469.310147 306.396036 
L 477.362095 244.253559 
L 485.414043 207.946516 
L 493.465991 265.087129 
L 501.517939 236.815997 
L 509.569887 239.816521 
L 517.621835 214.431478 
L 525.673783 250.919625 
L 533.725731 233.658865 
L 541.777679 303.163951 
L 549.829627 277.474146 
L 557.881575 318.944914 
L 565.933523 304.319003 
L 573.985471 299.081584 
L 582.03742 283.790506 
L 590.089368 306.27868 
L 598.141316 301.45228 
" clip-path="url(#p54da3968cd)" style="fill: none; stroke-dasharray: 5.55,2.4; stroke-dashoffset: 0; stroke: #1f6eb3; stroke-width: 1.5"/>
   </g>
   <g id="line2d_5">
    <path d="M 90.868588 267.113143 
L 98.920536 238.836832 
L 106.972484 281.649489 
L 115.024433 262.557676 
L 123.076381 263.302318 
L 131.128329 245.22746 
L 139.180277 268.883715 
L 147.232225 259.944076 
L 155.284173 310.797494 
L 163.336121 298.06637 
L 171.388069 317.503354 
L 179.440017 314.721658 
L 187.491965 308.983897 
L 195.543913 305.923938 
L 203.595861 307.364307 
L 211.647809 314.096394 
L 219.699757 271.000237 
L 227.751705 235.655406 
L 235.803653 282.26752 
L 243.855601 256.041191 
L 251.907549 267.902571 
L 259.959497 242.810265 
L 268.011446 270.257003 
L 276.063394 254.222269 
L 284.115342 315.818414 
L 292.16729 296.215533 
L 300.219238 319.327267 
L 308.271186 309.806284 
L 316.323134 314.809647 
L 324.375082 304.80953 
L 332.42703 309.923128 
L 340.478978 309.835165 
L 348.530926 248.162417 
L 356.582874 218.44885 
L 364.634822 272.729891 
L 372.68677 251.161903 
L 380.738718 242.563397 
L 388.790666 223.187229 
L 396.842614 257.914292 
L 404.894562 246.699057 
L 412.94651 303.818543 
L 420.998459 287.440823 
L 429.050407 320.396684 
L 437.102355 315.267344 
L 445.154303 299.684427 
L 453.206251 292.967663 
L 461.258199 308.232314 
L 469.310147 312.411826 
L 477.362095 251.607749 
L 485.414043 214.926008 
L 493.465991 272.946789 
L 501.517939 244.347795 
L 509.569887 246.712046 
L 517.621835 220.421903 
L 525.673783 258.878869 
L 533.725731 240.678062 
L 541.777679 308.601494 
L 549.829627 285.164628 
L 557.881575 321.894588 
L 565.933523 309.831238 
L 573.985471 305.273011 
L 582.03742 291.443355 
L 590.089368 310.481873 
L 598.141316 307.65376 
" clip-path="url(#p54da3968cd)" style="fill: none; stroke-dasharray: 5.55,2.4; stroke-dashoffset: 0; stroke: #084f99; stroke-width: 1.5"/>
   </g>
   <g id="line2d_6">
    <path d="M 90.868588 271.937731 
L 98.920536 243.03521 
L 106.972484 286.821563 
L 115.024433 267.418667 
L 123.076381 267.770983 
L 131.128329 248.691142 
L 139.180277 274.187461 
L 147.232225 264.408372 
L 155.284173 312.849205 
L 163.336121 301.970245 
L 171.388069 318.252539 
L 179.440017 316.768133 
L 187.491965 311.636714 
L 195.543913 310.063083 
L 203.595861 308.718292 
L 211.647809 316.712559 
L 219.699757 275.727294 
L 227.751705 239.943353 
L 235.803653 287.425691 
L 243.855601 261.069615 
L 251.907549 272.250485 
L 259.959497 246.343157 
L 268.011446 275.529049 
L 276.063394 258.840432 
L 284.115342 317.732634 
L 292.16729 300.166675 
L 300.219238 320.041416 
L 308.271186 311.985547 
L 316.323134 317.298149 
L 324.375082 308.975403 
L 332.42703 311.214856 
L 340.478978 312.568597 
L 348.530926 252.597617 
L 356.582874 222.175335 
L 364.634822 277.691075 
L 372.68677 255.415309 
L 380.738718 246.61293 
L 388.790666 226.231373 
L 396.842614 262.858522 
L 404.894562 250.528629 
L 412.94651 307.09533 
L 420.998459 292.306299 
L 429.050407 321.828158 
L 437.102355 318.331754 
L 445.154303 303.585347 
L 453.206251 297.880035 
L 461.258199 310.501845 
L 469.310147 316.068273 
L 477.362095 255.951002 
L 485.414043 218.75251 
L 493.465991 277.903705 
L 501.517939 248.788715 
L 509.569887 250.648159 
L 517.621835 223.543358 
L 525.673783 263.799744 
L 533.725731 244.676824 
L 541.777679 311.744769 
L 549.829627 290.083318 
L 557.881575 323.287269 
L 565.933523 313.043573 
L 573.985471 309.02525 
L 582.03742 296.390447 
L 590.089368 312.687773 
L 598.141316 311.433628 
" clip-path="url(#p54da3968cd)" style="fill: none; stroke-dasharray: 5.55,2.4; stroke-dashoffset: 0; stroke: #08306b; stroke-width: 1.5"/>
   </g>
   <g id="matplotlib.axis_1">
    <g id="xtick_1">
     <g id="line2d_7">
      <defs>
       <path id="md06b67684c" d="M 0 0 
L 0 3.5 
" style="stroke: #000000; stroke-width: 0.8"/>
      </defs>
      <g>
       <use xlink:href="#md06b67684c" x="90.868588" y="339.84" style="stroke: #000000; stroke-width: 0.8"/>
      </g>
     </g>
     <g id="text_1">
      <!-- $\mathdefault{0}$ -->
      <g transform="translate(86.299541 360.676997) scale(0.2 -0.2)">
       <defs>
        <path id="CMR17-30" d="M 2688 2025 
C 2688 2416 2682 3080 2413 3591 
C 2176 4039 1798 4198 1466 4198 
C 1158 4198 768 4058 525 3597 
C 269 3118 243 2524 243 2025 
C 243 1661 250 1106 448 619 
C 723 -39 1216 -128 1466 -128 
C 1760 -128 2208 -7 2470 600 
C 2662 1042 2688 1559 2688 2025 
z
M 1466 -26 
C 1056 -26 813 325 723 812 
C 653 1188 653 1738 653 2096 
C 653 2588 653 2997 736 3387 
C 858 3929 1216 4096 1466 4096 
C 1728 4096 2067 3923 2189 3400 
C 2272 3036 2278 2607 2278 2096 
C 2278 1680 2278 1169 2202 792 
C 2067 95 1690 -26 1466 -26 
z
" transform="scale(0.015625)"/>
       </defs>
       <use xlink:href="#CMR17-30" transform="scale(0.996264)"/>
      </g>
     </g>
    </g>
    <g id="xtick_2">
     <g id="line2d_8">
      <g>
       <use xlink:href="#md06b67684c" x="171.388069" y="339.84" style="stroke: #000000; stroke-width: 0.8"/>
      </g>
     </g>
     <g id="text_2">
      <!-- $\mathdefault{10}$ -->
      <g transform="translate(162.249973 360.676997) scale(0.2 -0.2)">
       <defs>
        <path id="CMR17-31" d="M 1702 4058 
C 1702 4192 1696 4192 1606 4192 
C 1357 3916 979 3827 621 3827 
C 602 3827 570 3827 563 3808 
C 557 3795 557 3782 557 3648 
C 755 3648 1088 3686 1344 3839 
L 1344 461 
C 1344 236 1331 160 781 160 
L 589 160 
L 589 0 
C 896 0 1216 0 1523 0 
C 1830 0 2150 0 2458 0 
L 2458 160 
L 2266 160 
C 1715 160 1702 230 1702 458 
L 1702 4058 
z
" transform="scale(0.015625)"/>
       </defs>
       <use xlink:href="#CMR17-31" transform="scale(0.996264)"/>
       <use xlink:href="#CMR17-30" transform="translate(45.690477 0) scale(0.996264)"/>
      </g>
     </g>
    </g>
    <g id="xtick_3">
     <g id="line2d_9">
      <g>
       <use xlink:href="#md06b67684c" x="251.907549" y="339.84" style="stroke: #000000; stroke-width: 0.8"/>
      </g>
     </g>
     <g id="text_3">
      <!-- $\mathdefault{20}$ -->
      <g transform="translate(242.769454 360.676997) scale(0.2 -0.2)">
       <defs>
        <path id="CMR17-32" d="M 2669 989 
L 2554 989 
C 2490 536 2438 459 2413 420 
C 2381 369 1920 369 1830 369 
L 602 369 
C 832 619 1280 1072 1824 1597 
C 2214 1967 2669 2402 2669 3035 
C 2669 3790 2067 4224 1395 4224 
C 691 4224 262 3604 262 3030 
C 262 2780 448 2748 525 2748 
C 589 2748 781 2787 781 3010 
C 781 3207 614 3264 525 3264 
C 486 3264 448 3258 422 3245 
C 544 3790 915 4058 1306 4058 
C 1862 4058 2227 3617 2227 3035 
C 2227 2479 1901 2000 1536 1584 
L 262 146 
L 262 0 
L 2515 0 
L 2669 989 
z
" transform="scale(0.015625)"/>
       </defs>
       <use xlink:href="#CMR17-32" transform="scale(0.996264)"/>
       <use xlink:href="#CMR17-30" transform="translate(45.690477 0) scale(0.996264)"/>
      </g>
     </g>
    </g>
    <g id="xtick_4">
     <g id="line2d_10">
      <g>
       <use xlink:href="#md06b67684c" x="332.42703" y="339.84" style="stroke: #000000; stroke-width: 0.8"/>
      </g>
     </g>
     <g id="text_4">
      <!-- $\mathdefault{30}$ -->
      <g transform="translate(323.288935 360.676997) scale(0.2 -0.2)">
       <defs>
        <path id="CMR17-33" d="M 1414 2157 
C 1984 2157 2234 1662 2234 1090 
C 2234 320 1824 25 1453 25 
C 1114 25 563 194 390 693 
C 422 680 454 680 486 680 
C 640 680 755 782 755 948 
C 755 1133 614 1216 486 1216 
C 378 1216 211 1165 211 926 
C 211 335 787 -128 1466 -128 
C 2176 -128 2720 430 2720 1085 
C 2720 1707 2208 2157 1600 2227 
C 2086 2328 2554 2756 2554 3329 
C 2554 3820 2048 4179 1472 4179 
C 890 4179 378 3829 378 3329 
C 378 3110 544 3072 627 3072 
C 762 3072 877 3155 877 3321 
C 877 3486 762 3569 627 3569 
C 602 3569 570 3569 544 3557 
C 730 3959 1235 4032 1459 4032 
C 1683 4032 2106 3925 2106 3320 
C 2106 3143 2080 2828 1862 2550 
C 1670 2304 1453 2304 1242 2284 
C 1210 2284 1062 2269 1037 2269 
C 992 2263 966 2257 966 2208 
C 966 2163 973 2157 1101 2157 
L 1414 2157 
z
" transform="scale(0.015625)"/>
       </defs>
       <use xlink:href="#CMR17-33" transform="scale(0.996264)"/>
       <use xlink:href="#CMR17-30" transform="translate(45.690477 0) scale(0.996264)"/>
      </g>
     </g>
    </g>
    <g id="xtick_5">
     <g id="line2d_11">
      <g>
       <use xlink:href="#md06b67684c" x="412.94651" y="339.84" style="stroke: #000000; stroke-width: 0.8"/>
      </g>
     </g>
     <g id="text_5">
      <!-- $\mathdefault{40}$ -->
      <g transform="translate(403.808415 360.676997) scale(0.2 -0.2)">
       <defs>
        <path id="CMR17-34" d="M 2150 4122 
C 2150 4256 2144 4256 2029 4256 
L 128 1254 
L 128 1088 
L 1779 1088 
L 1779 457 
C 1779 224 1766 160 1318 160 
L 1197 160 
L 1197 0 
C 1402 0 1747 0 1965 0 
C 2182 0 2528 0 2733 0 
L 2733 160 
L 2611 160 
C 2163 160 2150 224 2150 457 
L 2150 1088 
L 2803 1088 
L 2803 1254 
L 2150 1254 
L 2150 4122 
z
M 1798 3703 
L 1798 1254 
L 256 1254 
L 1798 3703 
z
" transform="scale(0.015625)"/>
       </defs>
       <use xlink:href="#CMR17-34" transform="scale(0.996264)"/>
       <use xlink:href="#CMR17-30" transform="translate(45.690477 0) scale(0.996264)"/>
      </g>
     </g>
    </g>
    <g id="xtick_6">
     <g id="line2d_12">
      <g>
       <use xlink:href="#md06b67684c" x="493.465991" y="339.84" style="stroke: #000000; stroke-width: 0.8"/>
      </g>
     </g>
     <g id="text_6">
      <!-- $\mathdefault{50}$ -->
      <g transform="translate(484.327896 360.676997) scale(0.2 -0.2)">
       <defs>
        <path id="CMR17-35" d="M 730 3692 
C 794 3666 1056 3584 1325 3584 
C 1920 3584 2246 3911 2432 4100 
C 2432 4157 2432 4192 2394 4192 
C 2387 4192 2374 4192 2323 4163 
C 2099 4058 1837 3973 1517 3973 
C 1325 3973 1037 3999 723 4139 
C 653 4171 640 4171 634 4171 
C 602 4171 595 4164 595 4037 
L 595 2203 
C 595 2089 595 2057 659 2057 
C 691 2057 704 2070 736 2114 
C 941 2401 1222 2522 1542 2522 
C 1766 2522 2246 2382 2246 1289 
C 2246 1085 2246 715 2054 421 
C 1894 159 1645 25 1370 25 
C 947 25 518 320 403 814 
C 429 807 480 795 506 795 
C 589 795 749 840 749 1038 
C 749 1210 627 1280 506 1280 
C 358 1280 262 1190 262 1011 
C 262 454 704 -128 1382 -128 
C 2042 -128 2669 440 2669 1264 
C 2669 2030 2170 2624 1549 2624 
C 1222 2624 947 2503 730 2274 
L 730 3692 
z
" transform="scale(0.015625)"/>
       </defs>
       <use xlink:href="#CMR17-35" transform="scale(0.996264)"/>
       <use xlink:href="#CMR17-30" transform="translate(45.690477 0) scale(0.996264)"/>
      </g>
     </g>
    </g>
    <g id="xtick_7">
     <g id="line2d_13">
      <g>
       <use xlink:href="#md06b67684c" x="573.985471" y="339.84" style="stroke: #000000; stroke-width: 0.8"/>
      </g>
     </g>
     <g id="text_7">
      <!-- $\mathdefault{60}$ -->
      <g transform="translate(564.847376 360.676997) scale(0.2 -0.2)">
       <defs>
        <path id="CMR17-36" d="M 678 2176 
C 678 3690 1395 4032 1811 4032 
C 1946 4032 2272 4009 2400 3776 
C 2298 3776 2106 3776 2106 3553 
C 2106 3381 2246 3323 2336 3323 
C 2394 3323 2566 3348 2566 3560 
C 2566 3954 2246 4179 1805 4179 
C 1043 4179 243 3390 243 1984 
C 243 253 966 -128 1478 -128 
C 2099 -128 2688 427 2688 1283 
C 2688 2081 2170 2662 1517 2662 
C 1126 2662 838 2407 678 1960 
L 678 2176 
z
M 1478 25 
C 691 25 691 1200 691 1436 
C 691 1896 909 2560 1504 2560 
C 1613 2560 1926 2560 2138 2120 
C 2253 1870 2253 1609 2253 1289 
C 2253 944 2253 690 2118 434 
C 1978 171 1773 25 1478 25 
z
" transform="scale(0.015625)"/>
       </defs>
       <use xlink:href="#CMR17-36" transform="scale(0.996264)"/>
       <use xlink:href="#CMR17-30" transform="translate(45.690477 0) scale(0.996264)"/>
      </g>
     </g>
    </g>
    <g id="text_8">
     <!-- $\mathbf{b}$ in base 10 -->
     <g transform="translate(295.434374 382.389627) scale(0.2 -0.2)">
      <defs>
       <path id="CMBX12-62" d="M 1331 4416 
L 224 4416 
L 224 4117 
C 621 4117 666 4117 666 3867 
L 666 0 
L 934 0 
C 1043 123 1152 247 1254 376 
C 1581 38 1933 -32 2189 -32 
C 3072 -32 3750 504 3750 1431 
C 3750 2305 3149 2880 2272 2880 
C 1894 2880 1594 2759 1331 2555 
L 1331 4416 
z
M 1363 2248 
C 1587 2555 1920 2670 2189 2670 
C 2982 2670 2982 1859 2982 1437 
C 2982 1149 2982 785 2829 548 
C 2630 241 2330 178 2125 178 
C 1690 178 1453 484 1363 625 
L 1363 2248 
z
" transform="scale(0.015625)"/>
       <path id="CMSS17-69" d="M 979 4183 
L 442 4183 
L 442 3648 
L 979 3648 
L 979 4183 
z
M 947 2739 
L 474 2739 
L 474 0 
L 947 0 
L 947 2739 
z
" transform="scale(0.015625)"/>
       <path id="CMSS17-6e" d="M 2618 1877 
C 2618 2283 2522 2816 1798 2816 
C 1389 2816 1120 2606 941 2389 
L 941 2758 
L 474 2758 
L 474 0 
L 960 0 
L 960 1559 
C 960 1964 1114 2428 1549 2428 
C 2112 2428 2131 2048 2131 1829 
L 2131 0 
L 2618 0 
L 2618 1877 
z
" transform="scale(0.015625)"/>
       <path id="CMSS17-62" d="M 954 4416 
L 480 4416 
L 480 -13 
L 966 -13 
L 966 274 
C 1210 38 1504 -64 1766 -64 
C 2381 -64 2880 549 2880 1352 
C 2880 2086 2496 2756 1926 2756 
C 1523 2756 1165 2591 954 2419 
L 954 4416 
z
M 966 2046 
C 1107 2222 1306 2368 1587 2368 
C 1965 2368 2394 2097 2394 1352 
C 2394 558 1882 325 1530 325 
C 1402 325 1267 356 1139 464 
C 966 615 966 709 966 797 
L 966 2046 
z
" transform="scale(0.015625)"/>
       <path id="CMSS17-61" d="M 2406 1791 
C 2406 2392 1978 2808 1402 2808 
C 1120 2808 813 2757 461 2553 
L 499 2135 
C 659 2248 934 2432 1395 2432 
C 1722 2432 1920 2180 1920 1782 
L 1920 1536 
C 896 1536 256 1238 256 726 
C 256 461 416 -64 947 -64 
C 1043 -64 1562 -64 1933 217 
L 1933 -19 
L 2406 -19 
L 2406 1791 
z
M 1920 816 
C 1920 701 1920 548 1728 434 
C 1562 325 1350 325 1261 325 
C 941 325 723 511 723 744 
C 723 1211 1722 1211 1920 1211 
L 1920 816 
z
" transform="scale(0.015625)"/>
       <path id="CMSS17-73" d="M 2061 2627 
C 1683 2807 1389 2807 1197 2807 
C 742 2807 198 2648 198 2003 
C 198 1359 902 1218 1094 1179 
C 1389 1122 1715 1058 1715 740 
C 1715 337 1254 337 1171 337 
C 915 337 563 407 243 638 
L 166 210 
C 531 0 883 -64 1178 -64 
C 1965 -64 2163 416 2163 781 
C 2163 1094 1984 1305 1862 1401 
C 1651 1568 1574 1587 1050 1696 
C 960 1709 646 1779 646 2066 
C 646 2432 1050 2432 1139 2432 
C 1555 2432 1811 2303 1984 2208 
L 2061 2627 
z
" transform="scale(0.015625)"/>
       <path id="CMSS17-65" d="M 2502 1377 
C 2502 1590 2490 2003 2285 2345 
C 2061 2713 1696 2816 1421 2816 
C 755 2816 192 2188 192 1375 
C 192 582 774 -64 1510 -64 
C 1798 -64 2150 19 2470 248 
C 2470 274 2458 414 2451 420 
C 2451 433 2432 630 2432 656 
C 2125 407 1773 325 1517 325 
C 1107 325 666 667 646 1377 
L 2502 1377 
z
M 698 1728 
C 781 2084 1062 2421 1421 2421 
C 1517 2421 1965 2421 2080 1728 
L 698 1728 
z
" transform="scale(0.015625)"/>
       <path id="CMSS17-31" d="M 1818 4288 
L 1696 4288 
C 1350 3940 947 3890 538 3890 
L 538 3520 
C 723 3520 1024 3520 1325 3667 
L 1325 369 
L 570 369 
L 570 0 
L 2573 0 
L 2573 369 
L 1818 369 
L 1818 4288 
z
" transform="scale(0.015625)"/>
       <path id="CMSS17-30" d="M 2758 2044 
C 2758 2405 2752 3077 2490 3596 
C 2227 4096 1805 4229 1504 4229 
C 1069 4229 698 3975 506 3570 
C 301 3146 243 2709 243 2044 
C 243 1589 262 1031 493 543 
C 755 5 1197 -128 1498 -128 
C 1894 -128 2278 81 2496 518 
C 2720 974 2758 1474 2758 2044 
z
M 1498 261 
C 1011 261 864 811 819 995 
C 742 1310 730 1614 730 2114 
C 730 2506 730 2948 851 3297 
C 998 3701 1254 3840 1498 3840 
C 1971 3840 2125 3372 2176 3208 
C 2272 2873 2272 2481 2272 2114 
C 2272 1526 2272 261 1498 261 
z
" transform="scale(0.015625)"/>
      </defs>
      <use xlink:href="#CMBX12-62" transform="scale(0.996264)"/>
      <use xlink:href="#CMSS17-69" transform="translate(93.495613 0) scale(0.996264)"/>
      <use xlink:href="#CMSS17-6e" transform="translate(115.676336 0) scale(0.996264)"/>
      <use xlink:href="#CMSS17-62" transform="translate(195.110392 0) scale(0.996264)"/>
      <use xlink:href="#CMSS17-61" transform="translate(243.315335 0) scale(0.996264)"/>
      <use xlink:href="#CMSS17-73" transform="translate(288.237256 0) scale(0.996264)"/>
      <use xlink:href="#CMSS17-65" transform="translate(324.150798 0) scale(0.996264)"/>
      <use xlink:href="#CMSS17-31" transform="translate(397.018733 0) scale(0.996264)"/>
      <use xlink:href="#CMSS17-30" transform="translate(443.862356 0) scale(0.996264)"/>
     </g>
    </g>
   </g>
   <g id="matplotlib.axis_2">
    <g id="ytick_1">
     <g id="line2d_14">
      <defs>
       <path id="m7b78289992" d="M 0 0 
L -3.5 0 
" style="stroke: #000000; stroke-width: 0.8"/>
      </defs>
      <g>
       <use xlink:href="#m7b78289992" x="65.504952" y="316.468199" style="stroke: #000000; stroke-width: 0.8"/>
      </g>
     </g>
     <g id="text_9">
      <!-- $\mathdefault{300}$ -->
      <g transform="translate(31.090666 323.386697) scale(0.2 -0.2)">
       <use xlink:href="#CMR17-33" transform="scale(0.996264)"/>
       <use xlink:href="#CMR17-30" transform="translate(45.690477 0) scale(0.996264)"/>
       <use xlink:href="#CMR17-30" transform="translate(91.380954 0) scale(0.996264)"/>
      </g>
     </g>
    </g>
    <g id="ytick_2">
     <g id="line2d_15">
      <g>
       <use xlink:href="#m7b78289992" x="65.504952" y="252.171009" style="stroke: #000000; stroke-width: 0.8"/>
      </g>
     </g>
     <g id="text_10">
      <!-- $\mathdefault{400}$ -->
      <g transform="translate(31.090666 259.089507) scale(0.2 -0.2)">
       <use xlink:href="#CMR17-34" transform="scale(0.996264)"/>
       <use xlink:href="#CMR17-30" transform="translate(45.690477 0) scale(0.996264)"/>
       <use xlink:href="#CMR17-30" transform="translate(91.380954 0) scale(0.996264)"/>
      </g>
     </g>
    </g>
    <g id="ytick_3">
     <g id="line2d_16">
      <g>
       <use xlink:href="#m7b78289992" x="65.504952" y="187.873819" style="stroke: #000000; stroke-width: 0.8"/>
      </g>
     </g>
     <g id="text_11">
      <!-- $\mathdefault{500}$ -->
      <g transform="translate(31.090666 194.792318) scale(0.2 -0.2)">
       <use xlink:href="#CMR17-35" transform="scale(0.996264)"/>
       <use xlink:href="#CMR17-30" transform="translate(45.690477 0) scale(0.996264)"/>
       <use xlink:href="#CMR17-30" transform="translate(91.380954 0) scale(0.996264)"/>
      </g>
     </g>
    </g>
    <g id="ytick_4">
     <g id="line2d_17">
      <g>
       <use xlink:href="#m7b78289992" x="65.504952" y="123.57663" style="stroke: #000000; stroke-width: 0.8"/>
      </g>
     </g>
     <g id="text_12">
      <!-- $\mathdefault{600}$ -->
      <g transform="translate(31.090666 130.495128) scale(0.2 -0.2)">
       <use xlink:href="#CMR17-36" transform="scale(0.996264)"/>
       <use xlink:href="#CMR17-30" transform="translate(45.690477 0) scale(0.996264)"/>
       <use xlink:href="#CMR17-30" transform="translate(91.380954 0) scale(0.996264)"/>
      </g>
     </g>
    </g>
    <g id="ytick_5">
     <g id="line2d_18">
      <g>
       <use xlink:href="#m7b78289992" x="65.504952" y="59.27944" style="stroke: #000000; stroke-width: 0.8"/>
      </g>
     </g>
     <g id="text_13">
      <!-- $\mathdefault{700}$ -->
      <g transform="translate(31.090666 66.197939) scale(0.2 -0.2)">
       <defs>
        <path id="CMR17-37" d="M 2886 3941 
L 2886 4081 
L 1382 4081 
C 634 4081 621 4165 595 4288 
L 480 4288 
L 294 3094 
L 410 3094 
C 429 3215 474 3540 550 3661 
C 589 3712 1062 3712 1171 3712 
L 2579 3712 
L 1869 2661 
C 1395 1954 1069 999 1069 165 
C 1069 89 1069 -128 1299 -128 
C 1530 -128 1530 89 1530 171 
L 1530 465 
C 1530 1508 1709 2196 2003 2636 
L 2886 3941 
z
" transform="scale(0.015625)"/>
       </defs>
       <use xlink:href="#CMR17-37" transform="scale(0.996264)"/>
       <use xlink:href="#CMR17-30" transform="translate(45.690477 0) scale(0.996264)"/>
       <use xlink:href="#CMR17-30" transform="translate(91.380954 0) scale(0.996264)"/>
      </g>
     </g>
    </g>
    <g id="text_14">
     <!-- $h(\mathbf{b})$ -->
     <g transform="translate(22.126022 192.418263) rotate(-90) scale(0.2 -0.2)">
      <defs>
       <path id="CMMI12-68" d="M 1798 4257 
C 1805 4283 1818 4321 1818 4352 
C 1818 4416 1754 4416 1741 4416 
C 1734 4416 1421 4388 1389 4380 
C 1280 4373 1184 4358 1069 4358 
C 909 4345 864 4339 864 4224 
C 864 4160 915 4160 1005 4160 
C 1318 4160 1325 4103 1325 4040 
C 1325 4002 1312 3951 1306 3932 
L 378 248 
C 352 152 352 140 352 101 
C 352 -38 461 -64 525 -64 
C 634 -64 717 19 749 89 
L 1037 1245 
C 1069 1386 1107 1520 1139 1660 
C 1210 1929 1210 1935 1331 2120 
C 1453 2305 1741 2689 2234 2689 
C 2490 2689 2579 2497 2579 2242 
C 2579 1884 2330 1188 2189 805 
C 2131 651 2099 568 2099 453 
C 2099 166 2298 -64 2605 -64 
C 3200 -64 3424 875 3424 913 
C 3424 945 3398 971 3360 971 
C 3302 971 3296 952 3264 843 
C 3117 332 2880 64 2624 64 
C 2560 64 2458 64 2458 269 
C 2458 436 2534 640 2560 710 
C 2675 1018 2963 1773 2963 2145 
C 2963 2528 2739 2816 2253 2816 
C 1888 2816 1568 2644 1306 2312 
L 1798 4257 
z
" transform="scale(0.015625)"/>
       <path id="CMR17-28" d="M 1958 -1561 
C 1958 -1555 1958 -1542 1939 -1523 
C 1645 -1224 858 -407 858 1581 
C 858 3569 1632 4379 1946 4697 
C 1946 4704 1958 4717 1958 4736 
C 1958 4755 1939 4768 1914 4768 
C 1843 4768 1299 4296 986 3594 
C 666 2887 576 2199 576 1588 
C 576 1128 621 351 1005 -471 
C 1312 -1135 1837 -1600 1914 -1600 
C 1946 -1600 1958 -1587 1958 -1561 
z
" transform="scale(0.015625)"/>
       <path id="CMR17-29" d="M 1683 1581 
C 1683 2040 1638 2817 1254 3639 
C 947 4303 422 4768 346 4768 
C 326 4768 301 4761 301 4729 
C 301 4717 307 4710 314 4697 
C 621 4378 1402 3568 1402 1584 
C 1402 -407 627 -1217 314 -1537 
C 307 -1549 301 -1556 301 -1568 
C 301 -1600 326 -1600 346 -1600 
C 416 -1600 960 -1128 1274 -426 
C 1594 281 1683 969 1683 1581 
z
" transform="scale(0.015625)"/>
      </defs>
      <use xlink:href="#CMMI12-68" transform="scale(0.996264)"/>
      <use xlink:href="#CMR17-28" transform="translate(56.154624 0) scale(0.996264)"/>
      <use xlink:href="#CMBX12-62" transform="translate(91.435392 0) scale(0.996264)"/>
      <use xlink:href="#CMR17-29" transform="translate(153.701892 0) scale(0.996264)"/>
     </g>
    </g>
   </g>
   <g id="line2d_19">
    <path d="M 90.868588 284.288256 
L 98.920536 250.555412 
L 106.972484 308.033744 
L 115.024433 279.592695 
L 123.076381 277.532305 
L 131.128329 253.960778 
L 139.180277 292.234599 
L 147.232225 273.954867 
L 155.284173 315.443417 
L 163.336121 310.724559 
L 171.388069 318.814653 
L 179.440017 319.387589 
L 187.491965 315.706579 
L 195.543913 321.149037 
L 203.595861 310.03462 
L 211.647809 320.768873 
L 219.699757 287.725848 
L 227.751705 247.703699 
L 235.803653 308.587212 
L 243.855601 273.856858 
L 251.907549 281.629431 
L 259.959497 251.768598 
L 268.011446 293.447601 
L 276.063394 268.878562 
L 284.115342 320.081342 
L 292.16729 309.073179 
L 300.219238 320.568453 
L 308.271186 314.852084 
L 316.323134 321.004038 
L 324.375082 320.15719 
L 332.42703 312.447954 
L 340.478978 316.892902 
L 348.530926 261.4289 
L 356.582874 227.731703 
L 364.634822 291.977532 
L 372.68677 263.572129 
L 380.738718 253.696133 
L 388.790666 230.160252 
L 396.842614 275.20157 
L 404.894562 256.957484 
L 412.94651 313.142829 
L 420.998459 308.459618 
L 429.050407 323.317207 
L 437.102355 323.92579 
L 445.154303 312.429174 
L 453.206251 317.907279 
L 461.258199 313.560358 
L 469.310147 324.330257 
L 477.362095 264.515485 
L 485.414043 224.528982 
L 493.465991 292.179992 
L 501.517939 257.485283 
L 509.569887 257.442251 
L 517.621835 227.617065 
L 525.673783 276.063564 
L 533.725731 251.530171 
L 541.777679 317.429747 
L 549.829627 306.457229 
L 557.881575 324.72 
L 565.933523 319.039278 
L 573.985471 317.375625 
L 582.03742 316.564424 
L 590.089368 315.622684 
L 598.141316 320.103278 
" clip-path="url(#p54da3968cd)" style="fill: none; stroke: #ff0000; stroke-width: 1.5; stroke-linecap: square"/>
   </g>
   <g id="line2d_20"/>
   <g id="patch_3">
    <path d="M 65.504952 339.84 
L 65.504952 7.2 
" style="fill: none; stroke: #000000; stroke-width: 0.8; stroke-linejoin: miter; stroke-linecap: square"/>
   </g>
   <g id="patch_4">
    <path d="M 623.504952 339.84 
L 623.504952 7.2 
" style="fill: none; stroke: #000000; stroke-width: 0.8; stroke-linejoin: miter; stroke-linecap: square"/>
   </g>
   <g id="patch_5">
    <path d="M 65.504952 339.84 
L 623.504952 339.84 
" style="fill: none; stroke: #000000; stroke-width: 0.8; stroke-linejoin: miter; stroke-linecap: square"/>
   </g>
   <g id="patch_6">
    <path d="M 65.504952 7.2 
L 623.504952 7.2 
" style="fill: none; stroke: #000000; stroke-width: 0.8; stroke-linejoin: miter; stroke-linecap: square"/>
   </g>
   <g id="line2d_21">
    <defs>
     <path id="mff57fdaca0" d="M 0 3 
C 0.795609 3 1.55874 2.683901 2.12132 2.12132 
C 2.683901 1.55874 3 0.795609 3 0 
C 3 -0.795609 2.683901 -1.55874 2.12132 -2.12132 
C 1.55874 -2.683901 0.795609 -3 0 -3 
C -0.795609 -3 -1.55874 -2.683901 -2.12132 -2.12132 
C -2.683901 -1.55874 -3 -0.795609 -3 0 
C -3 0.795609 -2.683901 1.55874 -2.12132 2.12132 
C -1.55874 2.683901 -0.795609 3 0 3 
z
" style="stroke: #94c4df"/>
    </defs>
    <g clip-path="url(#p54da3968cd)">
     <use xlink:href="#mff57fdaca0" x="300.219238" y="224.961588" style="fill: #94c4df; stroke: #94c4df"/>
    </g>
   </g>
   <g id="line2d_22">
    <defs>
     <path id="m3ce7a0f6f0" d="M 0 3 
C 0.795609 3 1.55874 2.683901 2.12132 2.12132 
C 2.683901 1.55874 3 0.795609 3 0 
C 3 -0.795609 2.683901 -1.55874 2.12132 -2.12132 
C 1.55874 -2.683901 0.795609 -3 0 -3 
C -0.795609 -3 -1.55874 -2.683901 -2.12132 -2.12132 
C -2.683901 -1.55874 -3 -0.795609 -3 0 
C -3 0.795609 -2.683901 1.55874 -2.12132 2.12132 
C -1.55874 2.683901 -0.795609 3 0 3 
z
" style="stroke: #64a9d3"/>
    </defs>
    <g clip-path="url(#p54da3968cd)">
     <use xlink:href="#m3ce7a0f6f0" x="300.219238" y="297.74022" style="fill: #64a9d3; stroke: #64a9d3"/>
    </g>
   </g>
   <g id="line2d_23">
    <defs>
     <path id="m0436f540fa" d="M 0 3 
C 0.795609 3 1.55874 2.683901 2.12132 2.12132 
C 2.683901 1.55874 3 0.795609 3 0 
C 3 -0.795609 2.683901 -1.55874 2.12132 -2.12132 
C 1.55874 -2.683901 0.795609 -3 0 -3 
C -0.795609 -3 -1.55874 -2.683901 -2.12132 -2.12132 
C -2.683901 -1.55874 -3 -0.795609 -3 0 
C -3 0.795609 -2.683901 1.55874 -2.12132 2.12132 
C -1.55874 2.683901 -0.795609 3 0 3 
z
" style="stroke: #3e8ec4"/>
    </defs>
    <g clip-path="url(#p54da3968cd)">
     <use xlink:href="#m0436f540fa" x="300.219238" y="312.725754" style="fill: #3e8ec4; stroke: #3e8ec4"/>
    </g>
   </g>
   <g id="line2d_24">
    <defs>
     <path id="mb05b20b1bb" d="M 0 3 
C 0.795609 3 1.55874 2.683901 2.12132 2.12132 
C 2.683901 1.55874 3 0.795609 3 0 
C 3 -0.795609 2.683901 -1.55874 2.12132 -2.12132 
C 1.55874 -2.683901 0.795609 -3 0 -3 
C -0.795609 -3 -1.55874 -2.683901 -2.12132 -2.12132 
C -2.683901 -1.55874 -3 -0.795609 -3 0 
C -3 0.795609 -2.683901 1.55874 -2.12132 2.12132 
C -1.55874 2.683901 -0.795609 3 0 3 
z
" style="stroke: #1f6eb3"/>
    </defs>
    <g clip-path="url(#p54da3968cd)">
     <use xlink:href="#mb05b20b1bb" x="557.881575" y="318.944914" style="fill: #1f6eb3; stroke: #1f6eb3"/>
    </g>
   </g>
   <g id="line2d_25">
    <defs>
     <path id="mfe5c04e499" d="M 0 3 
C 0.795609 3 1.55874 2.683901 2.12132 2.12132 
C 2.683901 1.55874 3 0.795609 3 0 
C 3 -0.795609 2.683901 -1.55874 2.12132 -2.12132 
C 1.55874 -2.683901 0.795609 -3 0 -3 
C -0.795609 -3 -1.55874 -2.683901 -2.12132 -2.12132 
C -2.683901 -1.55874 -3 -0.795609 -3 0 
C -3 0.795609 -2.683901 1.55874 -2.12132 2.12132 
C -1.55874 2.683901 -0.795609 3 0 3 
z
" style="stroke: #084f99"/>
    </defs>
    <g clip-path="url(#p54da3968cd)">
     <use xlink:href="#mfe5c04e499" x="557.881575" y="321.894588" style="fill: #084f99; stroke: #084f99"/>
    </g>
   </g>
   <g id="line2d_26">
    <defs>
     <path id="m6591c1d3d9" d="M 0 3 
C 0.795609 3 1.55874 2.683901 2.12132 2.12132 
C 2.683901 1.55874 3 0.795609 3 0 
C 3 -0.795609 2.683901 -1.55874 2.12132 -2.12132 
C 1.55874 -2.683901 0.795609 -3 0 -3 
C -0.795609 -3 -1.55874 -2.683901 -2.12132 -2.12132 
C -2.683901 -1.55874 -3 -0.795609 -3 0 
C -3 0.795609 -2.683901 1.55874 -2.12132 2.12132 
C -1.55874 2.683901 -0.795609 3 0 3 
z
" style="stroke: #08306b"/>
    </defs>
    <g clip-path="url(#p54da3968cd)">
     <use xlink:href="#m6591c1d3d9" x="557.881575" y="323.287269" style="fill: #08306b; stroke: #08306b"/>
    </g>
   </g>
   <g id="line2d_27">
    <defs>
     <path id="m1150e13f84" d="M 0 3 
C 0.795609 3 1.55874 2.683901 2.12132 2.12132 
C 2.683901 1.55874 3 0.795609 3 0 
C 3 -0.795609 2.683901 -1.55874 2.12132 -2.12132 
C 1.55874 -2.683901 0.795609 -3 0 -3 
C -0.795609 -3 -1.55874 -2.683901 -2.12132 -2.12132 
C -2.683901 -1.55874 -3 -0.795609 -3 0 
C -3 0.795609 -2.683901 1.55874 -2.12132 2.12132 
C -1.55874 2.683901 -0.795609 3 0 3 
z
" style="stroke: #ff0000"/>
    </defs>
    <g clip-path="url(#p54da3968cd)">
     <use xlink:href="#m1150e13f84" x="557.881575" y="324.72" style="fill: #ff0000; stroke: #ff0000"/>
    </g>
   </g>
   <g id="legend_1">
    <g id="patch_7">
     <path d="M 637.504952 249.413937 
L 745.847381 249.413937 
Q 749.847381 249.413937 749.847381 245.413937 
L 749.847381 21.2 
Q 749.847381 17.2 745.847381 17.2 
L 637.504952 17.2 
Q 633.504952 17.2 633.504952 21.2 
L 633.504952 245.413937 
Q 633.504952 249.413937 637.504952 249.413937 
z
" style="fill: #ffffff; opacity: 0.8; stroke: #cccccc; stroke-linejoin: miter"/>
    </g>
    <g id="line2d_28">
     <g>
      <use xlink:href="#m1150e13f84" x="661.504952" y="32.2" style="fill: #ff0000; stroke: #ff0000"/>
     </g>
    </g>
    <g id="text_15">
     <!-- $h_{\max}$ -->
     <g transform="translate(697.504952 39.2) scale(0.2 -0.2)">
      <defs>
       <path id="CMR17-6d" d="M 4326 1933 
C 4326 2252 4269 2790 3507 2790 
C 3072 2790 2771 2496 2656 2151 
L 2650 2151 
C 2573 2676 2195 2790 1837 2790 
C 1331 2790 1069 2400 973 2144 
L 966 2144 
L 966 2790 
L 211 2720 
L 211 2554 
C 589 2554 646 2515 646 2208 
L 646 428 
C 646 184 621 153 211 153 
L 211 -13 
C 365 0 646 0 813 0 
C 979 0 1267 0 1421 -13 
L 1421 153 
C 1011 153 986 178 986 428 
L 986 1658 
C 986 2247 1344 2688 1792 2688 
C 2266 2688 2317 2266 2317 1958 
L 2317 428 
C 2317 184 2291 153 1882 153 
L 1882 -13 
C 2035 0 2317 0 2483 0 
C 2650 0 2938 0 3091 -13 
L 3091 153 
C 2682 153 2656 178 2656 428 
L 2656 1658 
C 2656 2247 3014 2688 3462 2688 
C 3936 2688 3987 2266 3987 1958 
L 3987 428 
C 3987 184 3962 153 3552 153 
L 3552 -13 
C 3706 0 3987 0 4154 0 
C 4320 0 4608 0 4762 -13 
L 4762 153 
C 4352 153 4326 178 4326 428 
L 4326 1933 
z
" transform="scale(0.015625)"/>
       <path id="CMR17-61" d="M 2304 1653 
C 2304 2072 2304 2294 2035 2543 
C 1798 2752 1523 2816 1306 2816 
C 800 2816 435 2407 435 1971 
C 435 1728 627 1728 666 1728 
C 749 1728 896 1778 896 1954 
C 896 2112 774 2181 666 2181 
C 640 2181 608 2174 589 2168 
C 723 2592 1069 2714 1293 2714 
C 1613 2714 1965 2429 1965 1885 
L 1965 1600 
C 1587 1600 1133 1549 774 1357 
C 371 1133 256 813 256 570 
C 256 77 832 -64 1171 -64 
C 1523 -64 1850 139 1990 511 
C 2003 233 2182 -18 2464 -18 
C 2598 -18 2938 70 2938 567 
L 2938 920 
L 2822 920 
L 2822 562 
C 2822 178 2650 128 2566 128 
C 2304 128 2304 458 2304 738 
L 2304 1653 
z
M 1965 870 
C 1965 317 1568 38 1216 38 
C 896 38 646 275 646 570 
C 646 761 730 1100 1101 1305 
C 1408 1478 1760 1504 1965 1504 
L 1965 870 
z
" transform="scale(0.015625)"/>
       <path id="CMR17-78" d="M 1664 1477 
C 1856 1726 2074 2006 2253 2216 
C 2464 2458 2707 2560 2989 2560 
L 2989 2726 
C 2880 2726 2656 2726 2541 2726 
C 2368 2726 2170 2726 2022 2732 
L 2022 2566 
C 2112 2553 2163 2489 2163 2400 
C 2163 2285 2099 2215 2067 2171 
L 1594 1573 
L 1030 2306 
C 973 2376 973 2388 973 2420 
C 973 2497 1037 2560 1146 2560 
L 1146 2732 
C 992 2726 717 2726 557 2726 
C 384 2726 179 2726 38 2732 
L 38 2560 
C 384 2560 461 2534 614 2343 
L 1350 1395 
C 1363 1382 1395 1344 1395 1325 
C 1395 1299 838 619 768 530 
C 480 185 179 160 6 160 
L 6 0 
C 115 0 339 0 454 0 
C 582 0 864 0 979 -6 
L 979 160 
C 941 166 838 179 838 325 
C 838 440 890 510 947 586 
L 1478 1236 
L 2035 512 
C 2086 442 2163 346 2163 301 
C 2163 211 2086 160 1984 160 
L 1984 -6 
C 2138 0 2413 0 2573 0 
C 2746 0 2950 0 3091 -6 
L 3091 160 
C 2771 160 2675 172 2522 370 
L 1664 1477 
z
" transform="scale(0.015625)"/>
      </defs>
      <use xlink:href="#CMMI12-68" transform="scale(0.996264)"/>
      <use xlink:href="#CMR17-6d" transform="translate(56.154624 -14.943915) scale(0.697382)"/>
      <use xlink:href="#CMR17-61" transform="translate(109.998091 -14.943915) scale(0.697382)"/>
      <use xlink:href="#CMR17-78" transform="translate(141.981273 -14.943915) scale(0.697382)"/>
     </g>
    </g>
    <g id="line2d_29">
     <path d="M 641.504952 60.075634 
L 661.504952 60.075634 
L 681.504952 60.075634 
" style="fill: none; stroke: #000000; stroke-opacity: 0; stroke-width: 1.5; stroke-linecap: square"/>
    </g>
    <g id="text_16">
     <!-- $h_{(p)}$ -->
     <g transform="translate(687.504952 67.075634) scale(0.2 -0.2)">
      <defs>
       <path id="CMMI12-70" d="M 275 -789 
C 230 -980 205 -1031 -58 -1031 
C -134 -1031 -198 -1031 -198 -1152 
C -198 -1165 -192 -1216 -122 -1216 
C -38 -1216 51 -1216 134 -1216 
L 410 -1216 
C 544 -1216 870 -1216 1005 -1216 
C 1043 -1216 1120 -1216 1120 -1101 
C 1120 -1031 1075 -1031 966 -1031 
C 672 -1031 653 -987 653 -937 
C 653 -861 941 219 979 364 
C 1050 185 1222 -64 1555 -64 
C 2278 -64 3059 875 3059 1814 
C 3059 2401 2726 2816 2246 2816 
C 1837 2816 1491 2420 1421 2331 
C 1370 2650 1120 2816 864 2816 
C 678 2816 531 2727 410 2484 
C 294 2254 205 1865 205 1839 
C 205 1814 230 1782 275 1782 
C 326 1782 333 1788 371 1935 
C 467 2312 589 2689 845 2689 
C 992 2689 1043 2587 1043 2397 
C 1043 2245 1024 2181 998 2067 
L 275 -789 
z
M 1382 1993 
C 1427 2171 1606 2357 1709 2446 
C 1779 2510 1990 2689 2234 2689 
C 2515 2689 2643 2408 2643 2076 
C 2643 1769 2464 1047 2304 715 
C 2144 370 1850 64 1555 64 
C 1120 64 1050 613 1050 639 
C 1050 658 1062 709 1069 741 
L 1382 1993 
z
" transform="scale(0.015625)"/>
      </defs>
      <use xlink:href="#CMMI12-68" transform="scale(0.996264)"/>
      <use xlink:href="#CMR17-28" transform="translate(56.154624 -17.925121) scale(0.697382)"/>
      <use xlink:href="#CMMI12-70" transform="translate(80.851044 -17.925121) scale(0.697382)"/>
      <use xlink:href="#CMR17-29" transform="translate(115.122551 -17.925121) scale(0.697382)"/>
     </g>
    </g>
    <g id="line2d_30">
     <g>
      <use xlink:href="#mff57fdaca0" x="661.504952" y="91.160135" style="fill: #94c4df; stroke: #94c4df"/>
     </g>
    </g>
    <g id="text_17">
     <!-- $p=1$ -->
     <g transform="translate(697.504952 98.160135) scale(0.2 -0.2)">
      <defs>
       <path id="CMR17-3d" d="M 4115 2017 
C 4211 2017 4307 2017 4307 2125 
C 4307 2240 4198 2240 4090 2240 
L 512 2240 
C 403 2240 294 2240 294 2125 
C 294 2017 390 2017 486 2017 
L 4115 2017 
z
M 4090 896 
C 4198 896 4307 896 4307 1011 
C 4307 1119 4211 1119 4115 1119 
L 486 1119 
C 390 1119 294 1119 294 1011 
C 294 896 403 896 512 896 
L 4090 896 
z
" transform="scale(0.015625)"/>
      </defs>
      <use xlink:href="#CMMI12-70" transform="scale(0.996264)"/>
      <use xlink:href="#CMR17-3d" transform="translate(76.633523 0) scale(0.996264)"/>
      <use xlink:href="#CMR17-31" transform="translate(176.02232 0) scale(0.996264)"/>
     </g>
    </g>
    <g id="line2d_31">
     <g>
      <use xlink:href="#m3ce7a0f6f0" x="661.504952" y="119.035769" style="fill: #64a9d3; stroke: #64a9d3"/>
     </g>
    </g>
    <g id="text_18">
     <!-- $p=2$ -->
     <g transform="translate(697.504952 126.035769) scale(0.2 -0.2)">
      <use xlink:href="#CMMI12-70" transform="scale(0.996264)"/>
      <use xlink:href="#CMR17-3d" transform="translate(76.633523 0) scale(0.996264)"/>
      <use xlink:href="#CMR17-32" transform="translate(176.02232 0) scale(0.996264)"/>
     </g>
    </g>
    <g id="line2d_32">
     <g>
      <use xlink:href="#m0436f540fa" x="661.504952" y="146.911403" style="fill: #3e8ec4; stroke: #3e8ec4"/>
     </g>
    </g>
    <g id="text_19">
     <!-- $p=3$ -->
     <g transform="translate(697.504952 153.911403) scale(0.2 -0.2)">
      <use xlink:href="#CMMI12-70" transform="scale(0.996264)"/>
      <use xlink:href="#CMR17-3d" transform="translate(76.633523 0) scale(0.996264)"/>
      <use xlink:href="#CMR17-33" transform="translate(176.02232 0) scale(0.996264)"/>
     </g>
    </g>
    <g id="line2d_33">
     <g>
      <use xlink:href="#mb05b20b1bb" x="661.504952" y="174.787036" style="fill: #1f6eb3; stroke: #1f6eb3"/>
     </g>
    </g>
    <g id="text_20">
     <!-- $p=4$ -->
     <g transform="translate(697.504952 181.787036) scale(0.2 -0.2)">
      <use xlink:href="#CMMI12-70" transform="scale(0.996264)"/>
      <use xlink:href="#CMR17-3d" transform="translate(76.633523 0) scale(0.996264)"/>
      <use xlink:href="#CMR17-34" transform="translate(176.02232 0) scale(0.996264)"/>
     </g>
    </g>
    <g id="line2d_34">
     <g>
      <use xlink:href="#mfe5c04e499" x="661.504952" y="202.66267" style="fill: #084f99; stroke: #084f99"/>
     </g>
    </g>
    <g id="text_21">
     <!-- $p=5$ -->
     <g transform="translate(697.504952 209.66267) scale(0.2 -0.2)">
      <use xlink:href="#CMMI12-70" transform="scale(0.996264)"/>
      <use xlink:href="#CMR17-3d" transform="translate(76.633523 0) scale(0.996264)"/>
      <use xlink:href="#CMR17-35" transform="translate(176.02232 0) scale(0.996264)"/>
     </g>
    </g>
    <g id="line2d_35">
     <g>
      <use xlink:href="#m6591c1d3d9" x="661.504952" y="230.538304" style="fill: #08306b; stroke: #08306b"/>
     </g>
    </g>
    <g id="text_22">
     <!-- $p=6$ -->
     <g transform="translate(697.504952 237.538304) scale(0.2 -0.2)">
      <use xlink:href="#CMMI12-70" transform="scale(0.996264)"/>
      <use xlink:href="#CMR17-3d" transform="translate(76.633523 0) scale(0.996264)"/>
      <use xlink:href="#CMR17-36" transform="translate(176.02232 0) scale(0.996264)"/>
     </g>
    </g>
   </g>
  </g>
 </g>
 <defs>
  <clipPath id="p54da3968cd">
   <rect x="65.504952" y="7.2" width="558" height="332.64"/>
  </clipPath>
 </defs>
</svg>
