<?xml version="1.0" encoding="utf-8" standalone="no"?>
<!DOCTYPE svg PUBLIC "-//W3C//DTD SVG 1.1//EN"
  "http://www.w3.org/Graphics/SVG/1.1/DTD/svg11.dtd">
<svg xmlns:xlink="http://www.w3.org/1999/xlink" width="730.80371pt" height="386.378129pt" viewBox="0 0 730.80371 386.378129" xmlns="http://www.w3.org/2000/svg" version="1.1">
 <metadata>
  <rdf:RDF xmlns:dc="http://purl.org/dc/elements/1.1/" xmlns:cc="http://creativecommons.org/ns#" xmlns:rdf="http://www.w3.org/1999/02/22-rdf-syntax-ns#">
   <cc:Work>
    <dc:type rdf:resource="http://purl.org/dc/dcmitype/StillImage"/>
    <dc:date>2025-10-15T19:47:28.042052</dc:date>
    <dc:format>image/svg+xml</dc:format>
    <dc:creator>
     <cc:Agent>
      <dc:title>Matplotlib v3.10.6, https://matplotlib.org/</dc:title>
     </cc:Agent>
    </dc:creator>
   </cc:Work>
  </rdf:RDF>
 </metadata>
 <defs>
  <style type="text/css">*{stroke-linejoin: round; stroke-linecap: butt}</style>
 </defs>
 <g id="figure_1">
  <g id="patch_1">
   <path d="M 0 386.378129 
L 730.80371 386.378129 
L 730.80371 0 
L 0 0 
z
" style="fill: #ffffff"/>
  </g>
  <g id="axes_1">
   <g id="patch_2">
    <path d="M 57.552185 339.84 
L 615.552185 339.84 
L 615.552185 7.2 
L 57.552185 7.2 
z
" style="fill: #ffffff"/>
   </g>
   <g id="line2d_1">
    <path d="M 82.915822 295.387325 
L 90.96777 278.236971 
L 99.019718 287.261683 
L 107.071666 271.111983 
L 115.123614 283.937097 
L 123.175562 260.264343 
L 131.22751 270.506112 
L 139.279458 247.834011 
L 147.331406 291.605897 
L 155.383354 278.760695 
L 163.435302 278.581952 
L 171.48725 266.737403 
L 179.539198 281.537577 
L 187.591146 262.169974 
L 195.643094 263.208287 
L 203.695042 244.841338 
L 211.74699 270.143614 
L 219.798938 282.602471 
L 227.850886 271.981462 
L 235.902835 285.440972 
L 243.954783 290.676859 
L 252.006731 296.613316 
L 260.058679 287.209364 
L 268.110627 294.146474 
L 276.162575 262.591322 
L 284.214523 279.355331 
L 292.266471 259.530867 
L 300.318419 277.295529 
L 308.370367 284.506475 
L 316.422315 294.748083 
L 324.474263 276.140675 
L 332.526211 287.382937 
L 340.578159 290.830594 
L 348.630107 283.806951 
L 356.682055 287.519736 
L 364.734003 281.496747 
L 372.785951 275.61847 
L 380.837899 262.072426 
L 388.889848 267.002269 
L 396.941796 254.456878 
L 404.993744 300.385613 
L 413.045692 297.667121 
L 421.09764 292.176451 
L 429.149588 290.458613 
L 437.201536 286.555396 
L 445.253484 277.314504 
L 453.305432 273.04089 
L 461.35738 264.800652 
L 469.409328 249.691236 
L 477.461276 272.276803 
L 485.513224 256.343867 
L 493.565172 279.930088 
L 501.61712 266.462585 
L 509.669068 282.525752 
L 517.721016 267.809873 
L 525.772964 284.873693 
L 533.824912 255.475391 
L 541.87686 282.36611 
L 549.928809 257.229719 
L 557.980757 285.121091 
L 566.032705 273.628647 
L 574.084653 293.996965 
L 582.136601 270.077631 
L 590.188549 291.446603 
" clip-path="url(#p8603dc661e)" style="fill: none; stroke-dasharray: 1.5,2.475; stroke-dashoffset: 0; stroke: #98d594; stroke-width: 1.5"/>
   </g>
   <g id="line2d_2">
    <path d="M 82.915822 283.90545 
L 90.96777 268.778834 
L 99.019718 271.730046 
L 107.071666 274.679487 
L 115.123614 296.797893 
L 123.175562 316.380961 
L 131.22751 253.732159 
L 139.279458 291.391283 
L 147.331406 275.208276 
L 155.383354 259.089294 
L 163.435302 286.723962 
L 171.48725 288.681036 
L 179.539198 276.107201 
L 187.591146 294.697903 
L 195.643094 256.732556 
L 203.695042 293.399315 
L 211.74699 295.537089 
L 219.798938 258.927055 
L 227.850886 273.509906 
L 235.902835 254.975927 
L 243.954783 310.682411 
L 252.006731 308.78206 
L 260.058679 257.764896 
L 268.110627 273.940601 
L 276.162575 291.050803 
L 284.214523 253.448402 
L 292.266471 292.714708 
L 300.318419 273.188363 
L 308.370367 294.202606 
L 316.422315 291.309889 
L 324.474263 264.97618 
L 332.526211 280.15952 
L 340.578159 272.937392 
L 348.630107 257.93254 
L 356.682055 284.000605 
L 364.734003 287.071809 
L 372.785951 282.493161 
L 380.837899 302.197993 
L 388.889848 262.666043 
L 396.941796 300.446931 
L 404.993744 267.349778 
L 413.045692 251.35256 
L 421.09764 302.104079 
L 429.149588 304.182918 
L 437.201536 264.912029 
L 445.253484 283.624495 
L 453.305432 268.776 
L 461.35738 305.564522 
L 469.409328 283.370037 
L 477.461276 246.881766 
L 485.513224 284.581469 
L 493.565172 266.169254 
L 501.61712 295.178684 
L 509.669068 293.400097 
L 517.721016 265.499785 
L 525.772964 281.797254 
L 533.824912 281.993309 
L 541.87686 244.512672 
L 549.928809 306.89583 
L 557.980757 287.49125 
L 566.032705 281.808439 
L 574.084653 279.037486 
L 582.136601 275.820629 
L 590.188549 291.125732 
" clip-path="url(#p8603dc661e)" style="fill: none; stroke-dasharray: 1.5,2.475; stroke-dashoffset: 0; stroke: #4bb062; stroke-width: 1.5"/>
   </g>
   <g id="line2d_3">
    <path d="M 82.915822 254.567922 
L 90.96777 275.742943 
L 99.019718 269.757969 
L 107.071666 267.366659 
L 115.123614 257.614743 
L 123.175562 291.875779 
L 131.22751 263.564968 
L 139.279458 274.259674 
L 147.331406 270.250253 
L 155.383354 297.004278 
L 163.435302 264.815101 
L 171.48725 268.002795 
L 179.539198 284.87996 
L 187.591146 324.72 
L 195.643094 270.204987 
L 203.695042 286.478695 
L 211.74699 264.176638 
L 219.798938 281.602102 
L 227.850886 279.338377 
L 235.902835 273.197509 
L 243.954783 253.926574 
L 252.006731 284.438053 
L 260.058679 259.848491 
L 268.110627 266.793638 
L 276.162575 259.23 
L 284.214523 282.234467 
L 292.266471 253.76654 
L 300.318419 253.204675 
L 308.370367 260.562822 
L 316.422315 296.653304 
L 324.474263 245.85954 
L 332.526211 258.383691 
L 340.578159 271.132259 
L 348.630107 267.926095 
L 356.682055 298.220215 
L 364.734003 271.447719 
L 372.785951 260.711888 
L 380.837899 270.591739 
L 388.889848 278.560022 
L 396.941796 264.873541 
L 404.993744 273.526626 
L 413.045692 275.899465 
L 421.09764 279.989382 
L 429.149588 258.79589 
L 437.201536 274.689141 
L 445.253484 290.147995 
L 453.305432 271.912075 
L 461.35738 263.804598 
L 469.409328 296.368826 
L 477.461276 289.413104 
L 485.513224 323.428473 
L 493.565172 292.906419 
L 501.61712 272.651571 
L 509.669068 278.781863 
L 517.721016 290.471395 
L 525.772964 273.035356 
L 533.824912 278.134223 
L 541.87686 276.757504 
L 549.928809 284.568671 
L 557.980757 259.625621 
L 566.032705 265.999853 
L 574.084653 277.709149 
L 582.136601 263.19448 
L 590.188549 251.337444 
" clip-path="url(#p8603dc661e)" style="fill: none; stroke-dasharray: 1.5,2.475; stroke-dashoffset: 0; stroke: #157f3b; stroke-width: 1.5"/>
   </g>
   <g id="line2d_4">
    <path d="M 82.915822 256.321822 
L 90.96777 270.287888 
L 99.019718 282.214292 
L 107.071666 277.491556 
L 115.123614 261.065175 
L 123.175562 287.800737 
L 131.22751 264.599646 
L 139.279458 272.646406 
L 147.331406 249.762438 
L 155.383354 265.708637 
L 163.435302 274.47471 
L 171.48725 271.732107 
L 179.539198 274.583233 
L 187.591146 303.298927 
L 195.643094 276.937505 
L 203.695042 286.964397 
L 211.74699 227.465547 
L 219.798938 226.695625 
L 227.850886 276.359469 
L 235.902835 256.900746 
L 243.954783 229.241279 
L 252.006731 241.240853 
L 260.058679 255.777202 
L 268.110627 249.087974 
L 276.162575 223.836597 
L 284.214523 225.046808 
L 292.266471 271.550321 
L 300.318419 254.07173 
L 308.370367 245.68977 
L 316.422315 259.669476 
L 324.474263 271.045495 
L 332.526211 266.336399 
L 340.578159 259.118787 
L 348.630107 285.196745 
L 356.682055 259.679656 
L 364.734003 267.068812 
L 372.785951 246.801745 
L 380.837899 285.649199 
L 388.889848 225.004615 
L 396.941796 245.163267 
L 404.993744 238.1227 
L 413.045692 266.18079 
L 421.09764 237.50337 
L 429.149588 246.872659 
L 437.201536 245.883099 
L 445.253484 286.710685 
L 453.305432 222.90577 
L 461.35738 245.044554 
L 469.409328 260.937209 
L 477.461276 272.27918 
L 485.513224 284.49953 
L 493.565172 277.152699 
L 501.61712 245.652547 
L 509.669068 269.764013 
L 517.721016 246.856868 
L 525.772964 252.279532 
L 533.824912 242.871555 
L 541.87686 256.193658 
L 549.928809 265.253678 
L 557.980757 259.88698 
L 566.032705 247.664333 
L 574.084653 273.755932 
L 582.136601 247.688457 
L 590.188549 255.091254 
" clip-path="url(#p8603dc661e)" style="fill: none; stroke-dasharray: 1.5,2.475; stroke-dashoffset: 0; stroke: #00441b; stroke-width: 1.5"/>
   </g>
   <g id="line2d_5">
    <path d="M 82.915822 79.26957 
L 90.96777 82.133689 
L 99.019718 100.051042 
L 107.071666 79.736738 
L 115.123614 88.50196 
L 123.175562 145.408873 
L 131.22751 41.489937 
L 139.279458 75.218426 
L 147.331406 75.913916 
L 155.383354 89.649956 
L 163.435302 93.682777 
L 171.48725 84.240394 
L 179.539198 106.195022 
L 187.591146 173.973856 
L 195.643094 56.170387 
L 203.695042 100.770798 
L 211.74699 46.40994 
L 219.798938 38.914304 
L 227.850886 90.276265 
L 235.902835 59.602206 
L 243.954783 73.614176 
L 252.006731 120.161333 
L 260.058679 49.687005 
L 268.110627 73.055739 
L 276.162575 25.795774 
L 284.214523 29.172059 
L 292.266471 66.649488 
L 300.318419 46.84735 
L 308.370367 74.048725 
L 316.422315 131.467804 
L 324.474263 47.108943 
L 332.526211 81.349599 
L 340.578159 83.106085 
L 348.630107 83.949383 
L 356.682055 118.507263 
L 364.734003 96.172139 
L 372.785951 54.712317 
L 380.837899 109.59841 
L 388.889848 22.32 
L 396.941796 54.027669 
L 404.993744 68.471768 
L 413.045692 80.186988 
L 421.09764 100.860335 
L 429.149588 89.397132 
L 437.201536 61.126716 
L 445.253484 126.88473 
L 453.305432 25.721788 
L 461.35738 68.301378 
L 469.409328 79.45436 
L 477.461276 69.937904 
L 485.513224 137.940392 
L 493.565172 105.245513 
L 501.61712 69.032438 
L 509.669068 113.558776 
L 517.721016 59.724974 
L 525.772964 81.072888 
L 533.824912 47.561531 
L 541.87686 48.916997 
L 549.928809 103.034951 
L 557.980757 81.211994 
L 566.032705 58.188325 
L 574.084653 113.586584 
L 582.136601 45.868249 
L 590.188549 78.088085 
" clip-path="url(#p8603dc661e)" style="fill: none; stroke-dasharray: 5.55,2.4; stroke-dashoffset: 0; stroke: #94c4df; stroke-width: 1.5"/>
   </g>
   <g id="line2d_6">
    <path d="M 82.915822 203.405632 
L 90.96777 209.317698 
L 99.019718 217.625775 
L 107.071666 208.129211 
L 115.123614 208.57482 
L 123.175562 233.24467 
L 131.22751 188.740304 
L 139.279458 202.459763 
L 147.331406 203.069493 
L 155.383354 209.968406 
L 163.435302 214.307633 
L 171.48725 209.388083 
L 179.539198 221.286202 
L 187.591146 243.879103 
L 195.643094 195.758883 
L 203.695042 212.727306 
L 211.74699 183.761577 
L 219.798938 181.172532 
L 227.850886 213.495402 
L 235.902835 196.056718 
L 243.954783 190.901487 
L 252.006731 217.190671 
L 260.058679 191.0596 
L 268.110627 201.121616 
L 276.162575 174.231785 
L 284.214523 176.289024 
L 292.266471 198.556996 
L 300.318419 190.279256 
L 308.370367 200.032583 
L 316.422315 229.878747 
L 324.474263 190.236383 
L 332.526211 207.156795 
L 340.578159 208.033254 
L 348.630107 208.435938 
L 356.682055 224.157606 
L 364.734003 215.534045 
L 372.785951 193.172844 
L 380.837899 219.246372 
L 388.889848 174.597484 
L 396.941796 189.426814 
L 404.993744 195.614091 
L 413.045692 204.244612 
L 421.09764 209.053198 
L 429.149588 204.806272 
L 437.201536 195.867281 
L 445.253484 231.504244 
L 453.305432 175.7843 
L 461.35738 195.554186 
L 469.409328 203.103565 
L 477.461276 200.046971 
L 485.513224 226.598677 
L 493.565172 219.55522 
L 501.61712 198.428304 
L 509.669068 223.986666 
L 517.721016 194.935225 
L 525.772964 206.515343 
L 533.824912 188.712619 
L 541.87686 189.726729 
L 549.928809 213.875256 
L 557.980757 206.353588 
L 566.032705 195.310344 
L 574.084653 224.227186 
L 582.136601 189.904916 
L 590.188549 202.02044 
" clip-path="url(#p8603dc661e)" style="fill: none; stroke-dasharray: 5.55,2.4; stroke-dashoffset: 0; stroke: #64a9d3; stroke-width: 1.5"/>
   </g>
   <g id="line2d_7">
    <path d="M 82.915822 227.679663 
L 90.96777 235.468007 
L 99.019718 241.567707 
L 107.071666 234.530827 
L 115.123614 232.169179 
L 123.175562 249.439376 
L 131.22751 218.925137 
L 139.279458 227.394122 
L 147.331406 228.133911 
L 155.383354 233.887968 
L 163.435302 238.814742 
L 171.48725 234.856922 
L 179.539198 244.920197 
L 187.591146 255.836885 
L 195.643094 224.258425 
L 203.695042 233.168009 
L 211.74699 209.557757 
L 219.798938 207.968166 
L 227.850886 238.867763 
L 235.902835 223.505078 
L 243.954783 212.24378 
L 252.006731 233.418582 
L 260.058679 219.667516 
L 268.110627 226.359575 
L 276.162575 202.59869 
L 284.214523 204.209809 
L 292.266471 224.913258 
L 300.318419 219.29645 
L 308.370367 224.326937 
L 316.422315 248.268267 
L 324.474263 219.016641 
L 332.526211 232.413129 
L 340.578159 233.18172 
L 348.630107 233.370264 
L 356.682055 244.547902 
L 364.734003 239.788415 
L 372.785951 220.765119 
L 380.837899 240.785655 
L 388.889848 203.91242 
L 396.941796 216.255165 
L 404.993744 219.824135 
L 413.045692 228.653014 
L 421.09764 227.79261 
L 429.149588 226.586084 
L 437.201536 222.508262 
L 445.253484 252.921884 
L 453.305432 204.249445 
L 461.35738 220.613142 
L 469.409328 227.126297 
L 477.461276 225.630947 
L 485.513224 243.567273 
L 493.565172 242.61277 
L 501.61712 223.756721 
L 509.669068 246.329771 
L 517.721016 221.786194 
L 525.772964 231.353444 
L 533.824912 216.594172 
L 541.87686 217.655849 
L 549.928809 235.427678 
L 557.980757 231.261065 
L 566.032705 222.70967 
L 574.084653 246.743311 
L 582.136601 219.013418 
L 590.188549 225.971556 
" clip-path="url(#p8603dc661e)" style="fill: none; stroke-dasharray: 5.55,2.4; stroke-dashoffset: 0; stroke: #3e8ec4; stroke-width: 1.5"/>
   </g>
   <g id="line2d_8">
    <path d="M 82.915822 237.138112 
L 90.96777 246.379781 
L 99.019718 251.398553 
L 107.071666 245.548593 
L 115.123614 241.416259 
L 123.175562 255.167241 
L 131.22751 231.44814 
L 139.279458 236.963041 
L 147.331406 237.871825 
L 155.383354 243.414024 
L 163.435302 248.828051 
L 171.48725 245.33579 
L 179.539198 254.760818 
L 187.591146 259.615006 
L 195.643094 236.006456 
L 203.695042 240.006052 
L 211.74699 218.836102 
L 219.798938 217.589731 
L 227.850886 249.482508 
L 235.902835 234.583574 
L 243.954783 219.981295 
L 252.006731 238.275325 
L 260.058679 231.376432 
L 268.110627 236.216512 
L 276.162575 213.104681 
L 284.214523 214.416671 
L 292.266471 235.492898 
L 300.318419 231.086974 
L 308.370367 233.542979 
L 316.422315 254.67235 
L 324.474263 230.53052 
L 332.526211 242.545341 
L 340.578159 243.335745 
L 348.630107 243.318658 
L 356.682055 252.136221 
L 364.734003 249.710659 
L 372.785951 231.680552 
L 380.837899 249.223539 
L 388.889848 214.734696 
L 396.941796 227.010789 
L 404.993744 228.790563 
L 413.045692 238.207126 
L 421.09764 233.656006 
L 429.149588 234.774007 
L 437.201536 232.89913 
L 445.253484 261.786942 
L 453.305432 214.424444 
L 461.35738 230.569677 
L 469.409328 236.370452 
L 477.461276 235.499391 
L 485.513224 249.926614 
L 493.565172 251.934951 
L 501.61712 233.545929 
L 509.669068 255.407517 
L 517.721016 232.396736 
L 525.772964 241.011917 
L 533.824912 227.4959 
L 541.87686 228.647 
L 549.928809 243.834398 
L 557.980757 241.146242 
L 566.032705 233.564246 
L 574.084653 256.003197 
L 582.136601 230.776942 
L 590.188549 235.162027 
" clip-path="url(#p8603dc661e)" style="fill: none; stroke-dasharray: 5.55,2.4; stroke-dashoffset: 0; stroke: #1f6eb3; stroke-width: 1.5"/>
   </g>
   <g id="line2d_9">
    <path d="M 82.915822 241.925215 
L 90.96777 252.297268 
L 99.019718 256.61935 
L 107.071666 251.52357 
L 115.123614 246.115041 
L 123.175562 257.684684 
L 131.22751 238.180281 
L 139.279458 241.588013 
L 147.331406 242.669914 
L 155.383354 248.326327 
L 163.435302 254.100909 
L 171.48725 250.936461 
L 179.539198 260.082034 
L 187.591146 261.062536 
L 195.643094 242.271835 
L 203.695042 242.725622 
L 211.74699 222.981497 
L 219.798938 221.874101 
L 227.850886 255.260023 
L 235.902835 240.361894 
L 243.954783 223.652924 
L 252.006731 240.022155 
L 260.058679 237.620161 
L 268.110627 241.137406 
L 276.162575 217.980074 
L 284.214523 219.098016 
L 292.266471 241.00115 
L 300.318419 237.268982 
L 308.370367 238.028579 
L 316.422315 257.352487 
L 324.474263 236.395566 
L 332.526211 247.769872 
L 340.578159 248.622254 
L 348.630107 248.401165 
L 356.682055 255.640455 
L 364.734003 254.953018 
L 372.785951 237.194389 
L 380.837899 253.497601 
L 388.889848 219.658352 
L 396.941796 232.641709 
L 404.993744 232.971122 
L 413.045692 243.014902 
L 421.09764 235.85759 
L 429.149588 238.812493 
L 437.201536 238.041215 
L 445.253484 266.537269 
L 453.305432 218.826864 
L 461.35738 235.703943 
L 469.409328 240.959005 
L 477.461276 240.297444 
L 485.513224 252.898749 
L 493.565172 256.785048 
L 501.61712 238.367032 
L 509.669068 260.160288 
L 517.721016 237.769435 
L 525.772964 245.738295 
L 533.824912 232.94787 
L 541.87686 234.185109 
L 549.928809 248.108254 
L 557.980757 246.203689 
L 566.032705 239.030162 
L 574.084653 260.946645 
L 582.136601 236.864361 
L 590.188549 239.755301 
" clip-path="url(#p8603dc661e)" style="fill: none; stroke-dasharray: 5.55,2.4; stroke-dashoffset: 0; stroke: #084f99; stroke-width: 1.5"/>
   </g>
   <g id="line2d_10">
    <path d="M 82.915822 244.734874 
L 90.96777 255.981185 
L 99.019718 259.791681 
L 107.071666 255.242543 
L 115.123614 248.874626 
L 123.175562 258.906358 
L 131.22751 242.321434 
L 139.279458 244.085711 
L 147.331406 245.32874 
L 155.383354 251.237436 
L 163.435302 257.263898 
L 171.48725 254.378693 
L 179.539198 263.383224 
L 187.591146 261.668326 
L 195.643094 246.092606 
L 203.695042 243.885872 
L 211.74699 225.033438 
L 219.798938 223.998255 
L 227.850886 258.87353 
L 235.902835 243.817577 
L 243.954783 225.667007 
L 252.006731 240.712518 
L 260.058679 241.462274 
L 268.110627 243.922095 
L 276.162575 220.500399 
L 284.214523 221.513844 
L 292.266471 244.299841 
L 300.318419 240.975555 
L 308.370367 240.532669 
L 316.422315 258.561232 
L 324.474263 239.756766 
L 332.526211 250.840946 
L 340.578159 251.764278 
L 348.630107 251.350289 
L 356.682055 257.427336 
L 364.734003 258.118176 
L 372.785951 240.35038 
L 380.837899 255.985558 
L 388.889848 222.115895 
L 396.941796 236.039014 
L 404.993744 235.15006 
L 413.045692 245.772755 
L 421.09764 236.762332 
L 429.149588 241.139456 
L 437.201536 240.905732 
L 445.253484 269.447641 
L 453.305432 220.885427 
L 461.35738 238.727501 
L 469.409328 243.580306 
L 477.461276 242.904712 
L 485.513224 254.428697 
L 493.565172 259.658553 
L 501.61712 241.050042 
L 509.669068 262.997288 
L 517.721016 240.8574 
L 525.772964 248.316456 
L 533.824912 236.053685 
L 541.87686 237.363505 
L 549.928809 250.618857 
L 557.980757 249.174723 
L 566.032705 242.126584 
L 574.084653 263.97878 
L 582.136601 240.428786 
L 590.188549 242.433894 
" clip-path="url(#p8603dc661e)" style="fill: none; stroke-dasharray: 5.55,2.4; stroke-dashoffset: 0; stroke: #08306b; stroke-width: 1.5"/>
   </g>
   <g id="matplotlib.axis_1">
    <g id="xtick_1">
     <g id="line2d_11">
      <defs>
       <path id="me3a5048054" d="M 0 0 
L 0 3.5 
" style="stroke: #000000; stroke-width: 0.8"/>
      </defs>
      <g>
       <use xlink:href="#me3a5048054" x="82.915822" y="339.84" style="stroke: #000000; stroke-width: 0.8"/>
      </g>
     </g>
     <g id="text_1">
      <!-- $\mathdefault{0}$ -->
      <g transform="translate(79.013828 357.909588) scale(0.16 -0.16)">
       <defs>
        <path id="CMR17-30" d="M 2688 2025 
C 2688 2416 2682 3080 2413 3591 
C 2176 4039 1798 4198 1466 4198 
C 1158 4198 768 4058 525 3597 
C 269 3118 243 2524 243 2025 
C 243 1661 250 1106 448 619 
C 723 -39 1216 -128 1466 -128 
C 1760 -128 2208 -7 2470 600 
C 2662 1042 2688 1559 2688 2025 
z
M 1466 -26 
C 1056 -26 813 325 723 812 
C 653 1188 653 1738 653 2096 
C 653 2588 653 2997 736 3387 
C 858 3929 1216 4096 1466 4096 
C 1728 4096 2067 3923 2189 3400 
C 2272 3036 2278 2607 2278 2096 
C 2278 1680 2278 1169 2202 792 
C 2067 95 1690 -26 1466 -26 
z
" transform="scale(0.015625)"/>
       </defs>
       <use xlink:href="#CMR17-30" transform="scale(0.996264)"/>
      </g>
     </g>
    </g>
    <g id="xtick_2">
     <g id="line2d_12">
      <g>
       <use xlink:href="#me3a5048054" x="163.435302" y="339.84" style="stroke: #000000; stroke-width: 0.8"/>
      </g>
     </g>
     <g id="text_2">
      <!-- $\mathdefault{10}$ -->
      <g transform="translate(155.631315 357.909588) scale(0.16 -0.16)">
       <defs>
        <path id="CMR17-31" d="M 1702 4058 
C 1702 4192 1696 4192 1606 4192 
C 1357 3916 979 3827 621 3827 
C 602 3827 570 3827 563 3808 
C 557 3795 557 3782 557 3648 
C 755 3648 1088 3686 1344 3839 
L 1344 461 
C 1344 236 1331 160 781 160 
L 589 160 
L 589 0 
C 896 0 1216 0 1523 0 
C 1830 0 2150 0 2458 0 
L 2458 160 
L 2266 160 
C 1715 160 1702 230 1702 458 
L 1702 4058 
z
" transform="scale(0.015625)"/>
       </defs>
       <use xlink:href="#CMR17-31" transform="scale(0.996264)"/>
       <use xlink:href="#CMR17-30" transform="translate(45.690477 0) scale(0.996264)"/>
      </g>
     </g>
    </g>
    <g id="xtick_3">
     <g id="line2d_13">
      <g>
       <use xlink:href="#me3a5048054" x="243.954783" y="339.84" style="stroke: #000000; stroke-width: 0.8"/>
      </g>
     </g>
     <g id="text_3">
      <!-- $\mathdefault{20}$ -->
      <g transform="translate(236.150796 357.909588) scale(0.16 -0.16)">
       <defs>
        <path id="CMR17-32" d="M 2669 989 
L 2554 989 
C 2490 536 2438 459 2413 420 
C 2381 369 1920 369 1830 369 
L 602 369 
C 832 619 1280 1072 1824 1597 
C 2214 1967 2669 2402 2669 3035 
C 2669 3790 2067 4224 1395 4224 
C 691 4224 262 3604 262 3030 
C 262 2780 448 2748 525 2748 
C 589 2748 781 2787 781 3010 
C 781 3207 614 3264 525 3264 
C 486 3264 448 3258 422 3245 
C 544 3790 915 4058 1306 4058 
C 1862 4058 2227 3617 2227 3035 
C 2227 2479 1901 2000 1536 1584 
L 262 146 
L 262 0 
L 2515 0 
L 2669 989 
z
" transform="scale(0.015625)"/>
       </defs>
       <use xlink:href="#CMR17-32" transform="scale(0.996264)"/>
       <use xlink:href="#CMR17-30" transform="translate(45.690477 0) scale(0.996264)"/>
      </g>
     </g>
    </g>
    <g id="xtick_4">
     <g id="line2d_14">
      <g>
       <use xlink:href="#me3a5048054" x="324.474263" y="339.84" style="stroke: #000000; stroke-width: 0.8"/>
      </g>
     </g>
     <g id="text_4">
      <!-- $\mathdefault{30}$ -->
      <g transform="translate(316.670276 357.909588) scale(0.16 -0.16)">
       <defs>
        <path id="CMR17-33" d="M 1414 2157 
C 1984 2157 2234 1662 2234 1090 
C 2234 320 1824 25 1453 25 
C 1114 25 563 194 390 693 
C 422 680 454 680 486 680 
C 640 680 755 782 755 948 
C 755 1133 614 1216 486 1216 
C 378 1216 211 1165 211 926 
C 211 335 787 -128 1466 -128 
C 2176 -128 2720 430 2720 1085 
C 2720 1707 2208 2157 1600 2227 
C 2086 2328 2554 2756 2554 3329 
C 2554 3820 2048 4179 1472 4179 
C 890 4179 378 3829 378 3329 
C 378 3110 544 3072 627 3072 
C 762 3072 877 3155 877 3321 
C 877 3486 762 3569 627 3569 
C 602 3569 570 3569 544 3557 
C 730 3959 1235 4032 1459 4032 
C 1683 4032 2106 3925 2106 3320 
C 2106 3143 2080 2828 1862 2550 
C 1670 2304 1453 2304 1242 2284 
C 1210 2284 1062 2269 1037 2269 
C 992 2263 966 2257 966 2208 
C 966 2163 973 2157 1101 2157 
L 1414 2157 
z
" transform="scale(0.015625)"/>
       </defs>
       <use xlink:href="#CMR17-33" transform="scale(0.996264)"/>
       <use xlink:href="#CMR17-30" transform="translate(45.690477 0) scale(0.996264)"/>
      </g>
     </g>
    </g>
    <g id="xtick_5">
     <g id="line2d_15">
      <g>
       <use xlink:href="#me3a5048054" x="404.993744" y="339.84" style="stroke: #000000; stroke-width: 0.8"/>
      </g>
     </g>
     <g id="text_5">
      <!-- $\mathdefault{40}$ -->
      <g transform="translate(397.189757 357.909588) scale(0.16 -0.16)">
       <defs>
        <path id="CMR17-34" d="M 2150 4122 
C 2150 4256 2144 4256 2029 4256 
L 128 1254 
L 128 1088 
L 1779 1088 
L 1779 457 
C 1779 224 1766 160 1318 160 
L 1197 160 
L 1197 0 
C 1402 0 1747 0 1965 0 
C 2182 0 2528 0 2733 0 
L 2733 160 
L 2611 160 
C 2163 160 2150 224 2150 457 
L 2150 1088 
L 2803 1088 
L 2803 1254 
L 2150 1254 
L 2150 4122 
z
M 1798 3703 
L 1798 1254 
L 256 1254 
L 1798 3703 
z
" transform="scale(0.015625)"/>
       </defs>
       <use xlink:href="#CMR17-34" transform="scale(0.996264)"/>
       <use xlink:href="#CMR17-30" transform="translate(45.690477 0) scale(0.996264)"/>
      </g>
     </g>
    </g>
    <g id="xtick_6">
     <g id="line2d_16">
      <g>
       <use xlink:href="#me3a5048054" x="485.513224" y="339.84" style="stroke: #000000; stroke-width: 0.8"/>
      </g>
     </g>
     <g id="text_6">
      <!-- $\mathdefault{50}$ -->
      <g transform="translate(477.709237 357.909588) scale(0.16 -0.16)">
       <defs>
        <path id="CMR17-35" d="M 730 3692 
C 794 3666 1056 3584 1325 3584 
C 1920 3584 2246 3911 2432 4100 
C 2432 4157 2432 4192 2394 4192 
C 2387 4192 2374 4192 2323 4163 
C 2099 4058 1837 3973 1517 3973 
C 1325 3973 1037 3999 723 4139 
C 653 4171 640 4171 634 4171 
C 602 4171 595 4164 595 4037 
L 595 2203 
C 595 2089 595 2057 659 2057 
C 691 2057 704 2070 736 2114 
C 941 2401 1222 2522 1542 2522 
C 1766 2522 2246 2382 2246 1289 
C 2246 1085 2246 715 2054 421 
C 1894 159 1645 25 1370 25 
C 947 25 518 320 403 814 
C 429 807 480 795 506 795 
C 589 795 749 840 749 1038 
C 749 1210 627 1280 506 1280 
C 358 1280 262 1190 262 1011 
C 262 454 704 -128 1382 -128 
C 2042 -128 2669 440 2669 1264 
C 2669 2030 2170 2624 1549 2624 
C 1222 2624 947 2503 730 2274 
L 730 3692 
z
" transform="scale(0.015625)"/>
       </defs>
       <use xlink:href="#CMR17-35" transform="scale(0.996264)"/>
       <use xlink:href="#CMR17-30" transform="translate(45.690477 0) scale(0.996264)"/>
      </g>
     </g>
    </g>
    <g id="xtick_7">
     <g id="line2d_17">
      <g>
       <use xlink:href="#me3a5048054" x="566.032705" y="339.84" style="stroke: #000000; stroke-width: 0.8"/>
      </g>
     </g>
     <g id="text_7">
      <!-- $\mathdefault{60}$ -->
      <g transform="translate(558.228718 357.909588) scale(0.16 -0.16)">
       <defs>
        <path id="CMR17-36" d="M 678 2176 
C 678 3690 1395 4032 1811 4032 
C 1946 4032 2272 4009 2400 3776 
C 2298 3776 2106 3776 2106 3553 
C 2106 3381 2246 3323 2336 3323 
C 2394 3323 2566 3348 2566 3560 
C 2566 3954 2246 4179 1805 4179 
C 1043 4179 243 3390 243 1984 
C 243 253 966 -128 1478 -128 
C 2099 -128 2688 427 2688 1283 
C 2688 2081 2170 2662 1517 2662 
C 1126 2662 838 2407 678 1960 
L 678 2176 
z
M 1478 25 
C 691 25 691 1200 691 1436 
C 691 1896 909 2560 1504 2560 
C 1613 2560 1926 2560 2138 2120 
C 2253 1870 2253 1609 2253 1289 
C 2253 944 2253 690 2118 434 
C 1978 171 1773 25 1478 25 
z
" transform="scale(0.015625)"/>
       </defs>
       <use xlink:href="#CMR17-36" transform="scale(0.996264)"/>
       <use xlink:href="#CMR17-30" transform="translate(45.690477 0) scale(0.996264)"/>
      </g>
     </g>
    </g>
    <g id="text_8">
     <!-- $\mathbf{b}$ in base 10 -->
     <g transform="translate(295.924373 376.078653) scale(0.16 -0.16)">
      <defs>
       <path id="CMBX12-62" d="M 1331 4416 
L 224 4416 
L 224 4117 
C 621 4117 666 4117 666 3867 
L 666 0 
L 934 0 
C 1043 123 1152 247 1254 376 
C 1581 38 1933 -32 2189 -32 
C 3072 -32 3750 504 3750 1431 
C 3750 2305 3149 2880 2272 2880 
C 1894 2880 1594 2759 1331 2555 
L 1331 4416 
z
M 1363 2248 
C 1587 2555 1920 2670 2189 2670 
C 2982 2670 2982 1859 2982 1437 
C 2982 1149 2982 785 2829 548 
C 2630 241 2330 178 2125 178 
C 1690 178 1453 484 1363 625 
L 1363 2248 
z
" transform="scale(0.015625)"/>
       <path id="CMSS17-69" d="M 979 4183 
L 442 4183 
L 442 3648 
L 979 3648 
L 979 4183 
z
M 947 2739 
L 474 2739 
L 474 0 
L 947 0 
L 947 2739 
z
" transform="scale(0.015625)"/>
       <path id="CMSS17-6e" d="M 2618 1877 
C 2618 2283 2522 2816 1798 2816 
C 1389 2816 1120 2606 941 2389 
L 941 2758 
L 474 2758 
L 474 0 
L 960 0 
L 960 1559 
C 960 1964 1114 2428 1549 2428 
C 2112 2428 2131 2048 2131 1829 
L 2131 0 
L 2618 0 
L 2618 1877 
z
" transform="scale(0.015625)"/>
       <path id="CMSS17-62" d="M 954 4416 
L 480 4416 
L 480 -13 
L 966 -13 
L 966 274 
C 1210 38 1504 -64 1766 -64 
C 2381 -64 2880 549 2880 1352 
C 2880 2086 2496 2756 1926 2756 
C 1523 2756 1165 2591 954 2419 
L 954 4416 
z
M 966 2046 
C 1107 2222 1306 2368 1587 2368 
C 1965 2368 2394 2097 2394 1352 
C 2394 558 1882 325 1530 325 
C 1402 325 1267 356 1139 464 
C 966 615 966 709 966 797 
L 966 2046 
z
" transform="scale(0.015625)"/>
       <path id="CMSS17-61" d="M 2406 1791 
C 2406 2392 1978 2808 1402 2808 
C 1120 2808 813 2757 461 2553 
L 499 2135 
C 659 2248 934 2432 1395 2432 
C 1722 2432 1920 2180 1920 1782 
L 1920 1536 
C 896 1536 256 1238 256 726 
C 256 461 416 -64 947 -64 
C 1043 -64 1562 -64 1933 217 
L 1933 -19 
L 2406 -19 
L 2406 1791 
z
M 1920 816 
C 1920 701 1920 548 1728 434 
C 1562 325 1350 325 1261 325 
C 941 325 723 511 723 744 
C 723 1211 1722 1211 1920 1211 
L 1920 816 
z
" transform="scale(0.015625)"/>
       <path id="CMSS17-73" d="M 2061 2627 
C 1683 2807 1389 2807 1197 2807 
C 742 2807 198 2648 198 2003 
C 198 1359 902 1218 1094 1179 
C 1389 1122 1715 1058 1715 740 
C 1715 337 1254 337 1171 337 
C 915 337 563 407 243 638 
L 166 210 
C 531 0 883 -64 1178 -64 
C 1965 -64 2163 416 2163 781 
C 2163 1094 1984 1305 1862 1401 
C 1651 1568 1574 1587 1050 1696 
C 960 1709 646 1779 646 2066 
C 646 2432 1050 2432 1139 2432 
C 1555 2432 1811 2303 1984 2208 
L 2061 2627 
z
" transform="scale(0.015625)"/>
       <path id="CMSS17-65" d="M 2502 1377 
C 2502 1590 2490 2003 2285 2345 
C 2061 2713 1696 2816 1421 2816 
C 755 2816 192 2188 192 1375 
C 192 582 774 -64 1510 -64 
C 1798 -64 2150 19 2470 248 
C 2470 274 2458 414 2451 420 
C 2451 433 2432 630 2432 656 
C 2125 407 1773 325 1517 325 
C 1107 325 666 667 646 1377 
L 2502 1377 
z
M 698 1728 
C 781 2084 1062 2421 1421 2421 
C 1517 2421 1965 2421 2080 1728 
L 698 1728 
z
" transform="scale(0.015625)"/>
       <path id="CMSS17-31" d="M 1818 4288 
L 1696 4288 
C 1350 3940 947 3890 538 3890 
L 538 3520 
C 723 3520 1024 3520 1325 3667 
L 1325 369 
L 570 369 
L 570 0 
L 2573 0 
L 2573 369 
L 1818 369 
L 1818 4288 
z
" transform="scale(0.015625)"/>
       <path id="CMSS17-30" d="M 2758 2044 
C 2758 2405 2752 3077 2490 3596 
C 2227 4096 1805 4229 1504 4229 
C 1069 4229 698 3975 506 3570 
C 301 3146 243 2709 243 2044 
C 243 1589 262 1031 493 543 
C 755 5 1197 -128 1498 -128 
C 1894 -128 2278 81 2496 518 
C 2720 974 2758 1474 2758 2044 
z
M 1498 261 
C 1011 261 864 811 819 995 
C 742 1310 730 1614 730 2114 
C 730 2506 730 2948 851 3297 
C 998 3701 1254 3840 1498 3840 
C 1971 3840 2125 3372 2176 3208 
C 2272 2873 2272 2481 2272 2114 
C 2272 1526 2272 261 1498 261 
z
" transform="scale(0.015625)"/>
      </defs>
      <use xlink:href="#CMBX12-62" transform="scale(0.996264)"/>
      <use xlink:href="#CMSS17-69" transform="translate(93.495613 0) scale(0.996264)"/>
      <use xlink:href="#CMSS17-6e" transform="translate(115.676336 0) scale(0.996264)"/>
      <use xlink:href="#CMSS17-62" transform="translate(195.110392 0) scale(0.996264)"/>
      <use xlink:href="#CMSS17-61" transform="translate(243.315335 0) scale(0.996264)"/>
      <use xlink:href="#CMSS17-73" transform="translate(288.237256 0) scale(0.996264)"/>
      <use xlink:href="#CMSS17-65" transform="translate(324.150798 0) scale(0.996264)"/>
      <use xlink:href="#CMSS17-31" transform="translate(397.018733 0) scale(0.996264)"/>
      <use xlink:href="#CMSS17-30" transform="translate(443.862356 0) scale(0.996264)"/>
     </g>
    </g>
   </g>
   <g id="matplotlib.axis_2">
    <g id="ytick_1">
     <g id="line2d_18">
      <defs>
       <path id="me3b23817f0" d="M 0 0 
L -3.5 0 
" style="stroke: #000000; stroke-width: 0.8"/>
      </defs>
      <g>
       <use xlink:href="#me3b23817f0" x="57.552185" y="336.970983" style="stroke: #000000; stroke-width: 0.8"/>
      </g>
     </g>
     <g id="text_9">
      <!-- $\mathdefault{0}$ -->
      <g transform="translate(42.748198 342.505777) scale(0.16 -0.16)">
       <use xlink:href="#CMR17-30" transform="scale(0.996264)"/>
      </g>
     </g>
    </g>
    <g id="ytick_2">
     <g id="line2d_19">
      <g>
       <use xlink:href="#me3b23817f0" x="57.552185" y="293.044879" style="stroke: #000000; stroke-width: 0.8"/>
      </g>
     </g>
     <g id="text_10">
      <!-- $\mathdefault{20}$ -->
      <g transform="translate(34.944211 298.579674) scale(0.16 -0.16)">
       <use xlink:href="#CMR17-32" transform="scale(0.996264)"/>
       <use xlink:href="#CMR17-30" transform="translate(45.690477 0) scale(0.996264)"/>
      </g>
     </g>
    </g>
    <g id="ytick_3">
     <g id="line2d_20">
      <g>
       <use xlink:href="#me3b23817f0" x="57.552185" y="249.118776" style="stroke: #000000; stroke-width: 0.8"/>
      </g>
     </g>
     <g id="text_11">
      <!-- $\mathdefault{40}$ -->
      <g transform="translate(34.944211 254.65357) scale(0.16 -0.16)">
       <use xlink:href="#CMR17-34" transform="scale(0.996264)"/>
       <use xlink:href="#CMR17-30" transform="translate(45.690477 0) scale(0.996264)"/>
      </g>
     </g>
    </g>
    <g id="ytick_4">
     <g id="line2d_21">
      <g>
       <use xlink:href="#me3b23817f0" x="57.552185" y="205.192673" style="stroke: #000000; stroke-width: 0.8"/>
      </g>
     </g>
     <g id="text_12">
      <!-- $\mathdefault{60}$ -->
      <g transform="translate(34.944211 210.727467) scale(0.16 -0.16)">
       <use xlink:href="#CMR17-36" transform="scale(0.996264)"/>
       <use xlink:href="#CMR17-30" transform="translate(45.690477 0) scale(0.996264)"/>
      </g>
     </g>
    </g>
    <g id="ytick_5">
     <g id="line2d_22">
      <g>
       <use xlink:href="#me3b23817f0" x="57.552185" y="161.26657" style="stroke: #000000; stroke-width: 0.8"/>
      </g>
     </g>
     <g id="text_13">
      <!-- $\mathdefault{80}$ -->
      <g transform="translate(34.944211 166.801364) scale(0.16 -0.16)">
       <defs>
        <path id="CMR17-38" d="M 1741 2264 
C 2144 2467 2554 2773 2554 3263 
C 2554 3841 1990 4179 1472 4179 
C 890 4179 378 3759 378 3180 
C 378 3021 416 2747 666 2505 
C 730 2442 998 2251 1171 2130 
C 883 1983 211 1634 211 934 
C 211 279 838 -128 1459 -128 
C 2144 -128 2720 362 2720 1010 
C 2720 1590 2330 1857 2074 2029 
L 1741 2264 
z
M 902 2822 
C 851 2854 595 3051 595 3351 
C 595 3739 998 4032 1459 4032 
C 1965 4032 2336 3676 2336 3262 
C 2336 2669 1670 2331 1638 2331 
C 1632 2331 1626 2331 1574 2370 
L 902 2822 
z
M 2080 1519 
C 2176 1449 2483 1240 2483 851 
C 2483 381 2010 25 1472 25 
C 890 25 448 438 448 940 
C 448 1443 838 1862 1280 2060 
L 2080 1519 
z
" transform="scale(0.015625)"/>
       </defs>
       <use xlink:href="#CMR17-38" transform="scale(0.996264)"/>
       <use xlink:href="#CMR17-30" transform="translate(45.690477 0) scale(0.996264)"/>
      </g>
     </g>
    </g>
    <g id="ytick_6">
     <g id="line2d_23">
      <g>
       <use xlink:href="#me3b23817f0" x="57.552185" y="117.340466" style="stroke: #000000; stroke-width: 0.8"/>
      </g>
     </g>
     <g id="text_14">
      <!-- $\mathdefault{100}$ -->
      <g transform="translate(27.140224 122.875261) scale(0.16 -0.16)">
       <use xlink:href="#CMR17-31" transform="scale(0.996264)"/>
       <use xlink:href="#CMR17-30" transform="translate(45.690477 0) scale(0.996264)"/>
       <use xlink:href="#CMR17-30" transform="translate(91.380954 0) scale(0.996264)"/>
      </g>
     </g>
    </g>
    <g id="ytick_7">
     <g id="line2d_24">
      <g>
       <use xlink:href="#me3b23817f0" x="57.552185" y="73.414363" style="stroke: #000000; stroke-width: 0.8"/>
      </g>
     </g>
     <g id="text_15">
      <!-- $\mathdefault{120}$ -->
      <g transform="translate(27.140224 78.949157) scale(0.16 -0.16)">
       <use xlink:href="#CMR17-31" transform="scale(0.996264)"/>
       <use xlink:href="#CMR17-32" transform="translate(45.690477 0) scale(0.996264)"/>
       <use xlink:href="#CMR17-30" transform="translate(91.380954 0) scale(0.996264)"/>
      </g>
     </g>
    </g>
    <g id="ytick_8">
     <g id="line2d_25">
      <g>
       <use xlink:href="#me3b23817f0" x="57.552185" y="29.48826" style="stroke: #000000; stroke-width: 0.8"/>
      </g>
     </g>
     <g id="text_16">
      <!-- $\mathdefault{140}$ -->
      <g transform="translate(27.140224 35.023054) scale(0.16 -0.16)">
       <use xlink:href="#CMR17-31" transform="scale(0.996264)"/>
       <use xlink:href="#CMR17-34" transform="translate(45.690477 0) scale(0.996264)"/>
       <use xlink:href="#CMR17-30" transform="translate(91.380954 0) scale(0.996264)"/>
      </g>
     </g>
    </g>
    <g id="text_17">
     <!-- $h(\mathbf{b})$ -->
     <g transform="translate(19.155168 189.063458) rotate(-90) scale(0.16 -0.16)">
      <defs>
       <path id="CMMI12-68" d="M 1798 4257 
C 1805 4283 1818 4321 1818 4352 
C 1818 4416 1754 4416 1741 4416 
C 1734 4416 1421 4388 1389 4380 
C 1280 4373 1184 4358 1069 4358 
C 909 4345 864 4339 864 4224 
C 864 4160 915 4160 1005 4160 
C 1318 4160 1325 4103 1325 4040 
C 1325 4002 1312 3951 1306 3932 
L 378 248 
C 352 152 352 140 352 101 
C 352 -38 461 -64 525 -64 
C 634 -64 717 19 749 89 
L 1037 1245 
C 1069 1386 1107 1520 1139 1660 
C 1210 1929 1210 1935 1331 2120 
C 1453 2305 1741 2689 2234 2689 
C 2490 2689 2579 2497 2579 2242 
C 2579 1884 2330 1188 2189 805 
C 2131 651 2099 568 2099 453 
C 2099 166 2298 -64 2605 -64 
C 3200 -64 3424 875 3424 913 
C 3424 945 3398 971 3360 971 
C 3302 971 3296 952 3264 843 
C 3117 332 2880 64 2624 64 
C 2560 64 2458 64 2458 269 
C 2458 436 2534 640 2560 710 
C 2675 1018 2963 1773 2963 2145 
C 2963 2528 2739 2816 2253 2816 
C 1888 2816 1568 2644 1306 2312 
L 1798 4257 
z
" transform="scale(0.015625)"/>
       <path id="CMR17-28" d="M 1958 -1561 
C 1958 -1555 1958 -1542 1939 -1523 
C 1645 -1224 858 -407 858 1581 
C 858 3569 1632 4379 1946 4697 
C 1946 4704 1958 4717 1958 4736 
C 1958 4755 1939 4768 1914 4768 
C 1843 4768 1299 4296 986 3594 
C 666 2887 576 2199 576 1588 
C 576 1128 621 351 1005 -471 
C 1312 -1135 1837 -1600 1914 -1600 
C 1946 -1600 1958 -1587 1958 -1561 
z
" transform="scale(0.015625)"/>
       <path id="CMR17-29" d="M 1683 1581 
C 1683 2040 1638 2817 1254 3639 
C 947 4303 422 4768 346 4768 
C 326 4768 301 4761 301 4729 
C 301 4717 307 4710 314 4697 
C 621 4378 1402 3568 1402 1584 
C 1402 -407 627 -1217 314 -1537 
C 307 -1549 301 -1556 301 -1568 
C 301 -1600 326 -1600 346 -1600 
C 416 -1600 960 -1128 1274 -426 
C 1594 281 1683 969 1683 1581 
z
" transform="scale(0.015625)"/>
      </defs>
      <use xlink:href="#CMMI12-68" transform="scale(0.996264)"/>
      <use xlink:href="#CMR17-28" transform="translate(56.154624 0) scale(0.996264)"/>
      <use xlink:href="#CMBX12-62" transform="translate(91.435392 0) scale(0.996264)"/>
      <use xlink:href="#CMR17-29" transform="translate(153.701892 0) scale(0.996264)"/>
     </g>
    </g>
   </g>
   <g id="line2d_26">
    <path d="M 82.915822 254.567922 
L 90.96777 268.778834 
L 99.019718 269.757969 
L 107.071666 267.366659 
L 115.123614 257.614743 
L 123.175562 260.264343 
L 131.22751 253.732159 
L 139.279458 247.834011 
L 147.331406 249.762438 
L 155.383354 259.089294 
L 163.435302 264.815101 
L 171.48725 266.737403 
L 179.539198 274.583233 
L 187.591146 262.169974 
L 195.643094 256.732556 
L 203.695042 244.841338 
L 211.74699 227.465547 
L 219.798938 226.695625 
L 227.850886 271.981462 
L 235.902835 254.975927 
L 243.954783 229.241279 
L 252.006731 241.240853 
L 260.058679 255.777202 
L 268.110627 249.087974 
L 276.162575 223.836597 
L 284.214523 225.046808 
L 292.266471 253.76654 
L 300.318419 253.204675 
L 308.370367 245.68977 
L 316.422315 259.669476 
L 324.474263 245.85954 
L 332.526211 258.383691 
L 340.578159 259.118787 
L 348.630107 257.93254 
L 356.682055 259.679656 
L 364.734003 267.068812 
L 372.785951 246.801745 
L 380.837899 262.072426 
L 388.889848 225.004615 
L 396.941796 245.163267 
L 404.993744 238.1227 
L 413.045692 251.35256 
L 421.09764 237.50337 
L 429.149588 246.872659 
L 437.201536 245.883099 
L 445.253484 277.314504 
L 453.305432 222.90577 
L 461.35738 245.044554 
L 469.409328 249.691236 
L 477.461276 246.881766 
L 485.513224 256.343867 
L 493.565172 266.169254 
L 501.61712 245.652547 
L 509.669068 269.764013 
L 517.721016 246.856868 
L 525.772964 252.279532 
L 533.824912 242.871555 
L 541.87686 244.512672 
L 549.928809 257.229719 
L 557.980757 259.625621 
L 566.032705 247.664333 
L 574.084653 273.755932 
L 582.136601 247.688457 
L 590.188549 251.337444 
" clip-path="url(#p8603dc661e)" style="fill: none; stroke: #ff0000; stroke-width: 1.5; stroke-linecap: square"/>
   </g>
   <g id="line2d_27"/>
   <g id="line2d_28"/>
   <g id="patch_3">
    <path d="M 57.552185 339.84 
L 57.552185 7.2 
" style="fill: none; stroke: #000000; stroke-width: 0.8; stroke-linejoin: miter; stroke-linecap: square"/>
   </g>
   <g id="patch_4">
    <path d="M 615.552185 339.84 
L 615.552185 7.2 
" style="fill: none; stroke: #000000; stroke-width: 0.8; stroke-linejoin: miter; stroke-linecap: square"/>
   </g>
   <g id="patch_5">
    <path d="M 57.552185 339.84 
L 615.552185 339.84 
" style="fill: none; stroke: #000000; stroke-width: 0.8; stroke-linejoin: miter; stroke-linecap: square"/>
   </g>
   <g id="patch_6">
    <path d="M 57.552185 7.2 
L 615.552185 7.2 
" style="fill: none; stroke: #000000; stroke-width: 0.8; stroke-linejoin: miter; stroke-linecap: square"/>
   </g>
   <g id="line2d_29">
    <defs>
     <path id="m379138104a" d="M 0 3 
C 0.795609 3 1.55874 2.683901 2.12132 2.12132 
C 2.683901 1.55874 3 0.795609 3 0 
C 3 -0.795609 2.683901 -1.55874 2.12132 -2.12132 
C 1.55874 -2.683901 0.795609 -3 0 -3 
C -0.795609 -3 -1.55874 -2.683901 -2.12132 -2.12132 
C -2.683901 -1.55874 -3 -0.795609 -3 0 
C -3 0.795609 -2.683901 1.55874 -2.12132 2.12132 
C -1.55874 2.683901 -0.795609 3 0 3 
z
" style="stroke: #98d594"/>
    </defs>
    <g clip-path="url(#p8603dc661e)">
     <use xlink:href="#m379138104a" x="404.993744" y="300.385613" style="fill: #98d594; stroke: #98d594"/>
    </g>
   </g>
   <g id="line2d_30">
    <defs>
     <path id="m71116bcfc6" d="M 0 3 
C 0.795609 3 1.55874 2.683901 2.12132 2.12132 
C 2.683901 1.55874 3 0.795609 3 0 
C 3 -0.795609 2.683901 -1.55874 2.12132 -2.12132 
C 1.55874 -2.683901 0.795609 -3 0 -3 
C -0.795609 -3 -1.55874 -2.683901 -2.12132 -2.12132 
C -2.683901 -1.55874 -3 -0.795609 -3 0 
C -3 0.795609 -2.683901 1.55874 -2.12132 2.12132 
C -1.55874 2.683901 -0.795609 3 0 3 
z
" style="stroke: #4bb062"/>
    </defs>
    <g clip-path="url(#p8603dc661e)">
     <use xlink:href="#m71116bcfc6" x="123.175562" y="316.380961" style="fill: #4bb062; stroke: #4bb062"/>
    </g>
   </g>
   <g id="line2d_31">
    <defs>
     <path id="mdd014a7234" d="M 0 3 
C 0.795609 3 1.55874 2.683901 2.12132 2.12132 
C 2.683901 1.55874 3 0.795609 3 0 
C 3 -0.795609 2.683901 -1.55874 2.12132 -2.12132 
C 1.55874 -2.683901 0.795609 -3 0 -3 
C -0.795609 -3 -1.55874 -2.683901 -2.12132 -2.12132 
C -2.683901 -1.55874 -3 -0.795609 -3 0 
C -3 0.795609 -2.683901 1.55874 -2.12132 2.12132 
C -1.55874 2.683901 -0.795609 3 0 3 
z
" style="stroke: #157f3b"/>
    </defs>
    <g clip-path="url(#p8603dc661e)">
     <use xlink:href="#mdd014a7234" x="187.591146" y="324.72" style="fill: #157f3b; stroke: #157f3b"/>
    </g>
   </g>
   <g id="line2d_32">
    <defs>
     <path id="m87d2d7fa88" d="M 0 3 
C 0.795609 3 1.55874 2.683901 2.12132 2.12132 
C 2.683901 1.55874 3 0.795609 3 0 
C 3 -0.795609 2.683901 -1.55874 2.12132 -2.12132 
C 1.55874 -2.683901 0.795609 -3 0 -3 
C -0.795609 -3 -1.55874 -2.683901 -2.12132 -2.12132 
C -2.683901 -1.55874 -3 -0.795609 -3 0 
C -3 0.795609 -2.683901 1.55874 -2.12132 2.12132 
C -1.55874 2.683901 -0.795609 3 0 3 
z
" style="stroke: #00441b"/>
    </defs>
    <g clip-path="url(#p8603dc661e)">
     <use xlink:href="#m87d2d7fa88" x="187.591146" y="303.298927" style="fill: #00441b; stroke: #00441b"/>
    </g>
   </g>
   <g id="line2d_33">
    <defs>
     <path id="m5070aed89e" d="M 0 3 
C 0.795609 3 1.55874 2.683901 2.12132 2.12132 
C 2.683901 1.55874 3 0.795609 3 0 
C 3 -0.795609 2.683901 -1.55874 2.12132 -2.12132 
C 1.55874 -2.683901 0.795609 -3 0 -3 
C -0.795609 -3 -1.55874 -2.683901 -2.12132 -2.12132 
C -2.683901 -1.55874 -3 -0.795609 -3 0 
C -3 0.795609 -2.683901 1.55874 -2.12132 2.12132 
C -1.55874 2.683901 -0.795609 3 0 3 
z
" style="stroke: #94c4df"/>
    </defs>
    <g clip-path="url(#p8603dc661e)">
     <use xlink:href="#m5070aed89e" x="187.591146" y="173.973856" style="fill: #94c4df; stroke: #94c4df"/>
    </g>
   </g>
   <g id="line2d_34">
    <defs>
     <path id="m74e33c20ad" d="M 0 3 
C 0.795609 3 1.55874 2.683901 2.12132 2.12132 
C 2.683901 1.55874 3 0.795609 3 0 
C 3 -0.795609 2.683901 -1.55874 2.12132 -2.12132 
C 1.55874 -2.683901 0.795609 -3 0 -3 
C -0.795609 -3 -1.55874 -2.683901 -2.12132 -2.12132 
C -2.683901 -1.55874 -3 -0.795609 -3 0 
C -3 0.795609 -2.683901 1.55874 -2.12132 2.12132 
C -1.55874 2.683901 -0.795609 3 0 3 
z
" style="stroke: #64a9d3"/>
    </defs>
    <g clip-path="url(#p8603dc661e)">
     <use xlink:href="#m74e33c20ad" x="187.591146" y="243.879103" style="fill: #64a9d3; stroke: #64a9d3"/>
    </g>
   </g>
   <g id="line2d_35">
    <defs>
     <path id="m95419ab546" d="M 0 3 
C 0.795609 3 1.55874 2.683901 2.12132 2.12132 
C 2.683901 1.55874 3 0.795609 3 0 
C 3 -0.795609 2.683901 -1.55874 2.12132 -2.12132 
C 1.55874 -2.683901 0.795609 -3 0 -3 
C -0.795609 -3 -1.55874 -2.683901 -2.12132 -2.12132 
C -2.683901 -1.55874 -3 -0.795609 -3 0 
C -3 0.795609 -2.683901 1.55874 -2.12132 2.12132 
C -1.55874 2.683901 -0.795609 3 0 3 
z
" style="stroke: #3e8ec4"/>
    </defs>
    <g clip-path="url(#p8603dc661e)">
     <use xlink:href="#m95419ab546" x="187.591146" y="255.836885" style="fill: #3e8ec4; stroke: #3e8ec4"/>
    </g>
   </g>
   <g id="line2d_36">
    <defs>
     <path id="m0cdbd28ebe" d="M 0 3 
C 0.795609 3 1.55874 2.683901 2.12132 2.12132 
C 2.683901 1.55874 3 0.795609 3 0 
C 3 -0.795609 2.683901 -1.55874 2.12132 -2.12132 
C 1.55874 -2.683901 0.795609 -3 0 -3 
C -0.795609 -3 -1.55874 -2.683901 -2.12132 -2.12132 
C -2.683901 -1.55874 -3 -0.795609 -3 0 
C -3 0.795609 -2.683901 1.55874 -2.12132 2.12132 
C -1.55874 2.683901 -0.795609 3 0 3 
z
" style="stroke: #1f6eb3"/>
    </defs>
    <g clip-path="url(#p8603dc661e)">
     <use xlink:href="#m0cdbd28ebe" x="445.253484" y="261.786942" style="fill: #1f6eb3; stroke: #1f6eb3"/>
    </g>
   </g>
   <g id="line2d_37">
    <defs>
     <path id="m54132c4106" d="M 0 3 
C 0.795609 3 1.55874 2.683901 2.12132 2.12132 
C 2.683901 1.55874 3 0.795609 3 0 
C 3 -0.795609 2.683901 -1.55874 2.12132 -2.12132 
C 1.55874 -2.683901 0.795609 -3 0 -3 
C -0.795609 -3 -1.55874 -2.683901 -2.12132 -2.12132 
C -2.683901 -1.55874 -3 -0.795609 -3 0 
C -3 0.795609 -2.683901 1.55874 -2.12132 2.12132 
C -1.55874 2.683901 -0.795609 3 0 3 
z
" style="stroke: #084f99"/>
    </defs>
    <g clip-path="url(#p8603dc661e)">
     <use xlink:href="#m54132c4106" x="445.253484" y="266.537269" style="fill: #084f99; stroke: #084f99"/>
    </g>
   </g>
   <g id="line2d_38">
    <defs>
     <path id="mbccb3482ea" d="M 0 3 
C 0.795609 3 1.55874 2.683901 2.12132 2.12132 
C 2.683901 1.55874 3 0.795609 3 0 
C 3 -0.795609 2.683901 -1.55874 2.12132 -2.12132 
C 1.55874 -2.683901 0.795609 -3 0 -3 
C -0.795609 -3 -1.55874 -2.683901 -2.12132 -2.12132 
C -2.683901 -1.55874 -3 -0.795609 -3 0 
C -3 0.795609 -2.683901 1.55874 -2.12132 2.12132 
C -1.55874 2.683901 -0.795609 3 0 3 
z
" style="stroke: #08306b"/>
    </defs>
    <g clip-path="url(#p8603dc661e)">
     <use xlink:href="#mbccb3482ea" x="445.253484" y="269.447641" style="fill: #08306b; stroke: #08306b"/>
    </g>
   </g>
   <g id="line2d_39">
    <defs>
     <path id="mcadb6aacd3" d="M 0 3 
C 0.795609 3 1.55874 2.683901 2.12132 2.12132 
C 2.683901 1.55874 3 0.795609 3 0 
C 3 -0.795609 2.683901 -1.55874 2.12132 -2.12132 
C 1.55874 -2.683901 0.795609 -3 0 -3 
C -0.795609 -3 -1.55874 -2.683901 -2.12132 -2.12132 
C -2.683901 -1.55874 -3 -0.795609 -3 0 
C -3 0.795609 -2.683901 1.55874 -2.12132 2.12132 
C -1.55874 2.683901 -0.795609 3 0 3 
z
" style="stroke: #ff0000"/>
    </defs>
    <g clip-path="url(#p8603dc661e)">
     <use xlink:href="#mcadb6aacd3" x="445.253484" y="277.314504" style="fill: #ff0000; stroke: #ff0000"/>
    </g>
   </g>
   <g id="legend_1">
    <g id="patch_7">
     <path d="M 626.752185 312.461304 
L 720.40371 312.461304 
Q 723.60371 312.461304 723.60371 309.261304 
L 723.60371 18.4 
Q 723.60371 15.2 720.40371 15.2 
L 626.752185 15.2 
Q 623.552185 15.2 623.552185 18.4 
L 623.552185 309.261304 
Q 623.552185 312.461304 626.752185 312.461304 
z
" style="fill: #ffffff; opacity: 0.8; stroke: #cccccc; stroke-linejoin: miter"/>
    </g>
    <g id="line2d_40">
     <g>
      <use xlink:href="#mcadb6aacd3" x="645.952185" y="27.2" style="fill: #ff0000; stroke: #ff0000"/>
     </g>
    </g>
    <g id="text_18">
     <!-- $h_{\max}$ -->
     <g transform="translate(674.752185 32.8) scale(0.16 -0.16)">
      <defs>
       <path id="CMR17-6d" d="M 4326 1933 
C 4326 2252 4269 2790 3507 2790 
C 3072 2790 2771 2496 2656 2151 
L 2650 2151 
C 2573 2676 2195 2790 1837 2790 
C 1331 2790 1069 2400 973 2144 
L 966 2144 
L 966 2790 
L 211 2720 
L 211 2554 
C 589 2554 646 2515 646 2208 
L 646 428 
C 646 184 621 153 211 153 
L 211 -13 
C 365 0 646 0 813 0 
C 979 0 1267 0 1421 -13 
L 1421 153 
C 1011 153 986 178 986 428 
L 986 1658 
C 986 2247 1344 2688 1792 2688 
C 2266 2688 2317 2266 2317 1958 
L 2317 428 
C 2317 184 2291 153 1882 153 
L 1882 -13 
C 2035 0 2317 0 2483 0 
C 2650 0 2938 0 3091 -13 
L 3091 153 
C 2682 153 2656 178 2656 428 
L 2656 1658 
C 2656 2247 3014 2688 3462 2688 
C 3936 2688 3987 2266 3987 1958 
L 3987 428 
C 3987 184 3962 153 3552 153 
L 3552 -13 
C 3706 0 3987 0 4154 0 
C 4320 0 4608 0 4762 -13 
L 4762 153 
C 4352 153 4326 178 4326 428 
L 4326 1933 
z
" transform="scale(0.015625)"/>
       <path id="CMR17-61" d="M 2304 1653 
C 2304 2072 2304 2294 2035 2543 
C 1798 2752 1523 2816 1306 2816 
C 800 2816 435 2407 435 1971 
C 435 1728 627 1728 666 1728 
C 749 1728 896 1778 896 1954 
C 896 2112 774 2181 666 2181 
C 640 2181 608 2174 589 2168 
C 723 2592 1069 2714 1293 2714 
C 1613 2714 1965 2429 1965 1885 
L 1965 1600 
C 1587 1600 1133 1549 774 1357 
C 371 1133 256 813 256 570 
C 256 77 832 -64 1171 -64 
C 1523 -64 1850 139 1990 511 
C 2003 233 2182 -18 2464 -18 
C 2598 -18 2938 70 2938 567 
L 2938 920 
L 2822 920 
L 2822 562 
C 2822 178 2650 128 2566 128 
C 2304 128 2304 458 2304 738 
L 2304 1653 
z
M 1965 870 
C 1965 317 1568 38 1216 38 
C 896 38 646 275 646 570 
C 646 761 730 1100 1101 1305 
C 1408 1478 1760 1504 1965 1504 
L 1965 870 
z
" transform="scale(0.015625)"/>
       <path id="CMR17-78" d="M 1664 1477 
C 1856 1726 2074 2006 2253 2216 
C 2464 2458 2707 2560 2989 2560 
L 2989 2726 
C 2880 2726 2656 2726 2541 2726 
C 2368 2726 2170 2726 2022 2732 
L 2022 2566 
C 2112 2553 2163 2489 2163 2400 
C 2163 2285 2099 2215 2067 2171 
L 1594 1573 
L 1030 2306 
C 973 2376 973 2388 973 2420 
C 973 2497 1037 2560 1146 2560 
L 1146 2732 
C 992 2726 717 2726 557 2726 
C 384 2726 179 2726 38 2732 
L 38 2560 
C 384 2560 461 2534 614 2343 
L 1350 1395 
C 1363 1382 1395 1344 1395 1325 
C 1395 1299 838 619 768 530 
C 480 185 179 160 6 160 
L 6 0 
C 115 0 339 0 454 0 
C 582 0 864 0 979 -6 
L 979 160 
C 941 166 838 179 838 325 
C 838 440 890 510 947 586 
L 1478 1236 
L 2035 512 
C 2086 442 2163 346 2163 301 
C 2163 211 2086 160 1984 160 
L 1984 -6 
C 2138 0 2413 0 2573 0 
C 2746 0 2950 0 3091 -6 
L 3091 160 
C 2771 160 2675 172 2522 370 
L 1664 1477 
z
" transform="scale(0.015625)"/>
      </defs>
      <use xlink:href="#CMMI12-68" transform="scale(0.996264)"/>
      <use xlink:href="#CMR17-6d" transform="translate(56.154624 -14.943915) scale(0.697382)"/>
      <use xlink:href="#CMR17-61" transform="translate(109.998091 -14.943915) scale(0.697382)"/>
      <use xlink:href="#CMR17-78" transform="translate(141.981273 -14.943915) scale(0.697382)"/>
     </g>
    </g>
    <g id="line2d_41">
     <path d="M 629.952185 49.499476 
L 645.952185 49.499476 
L 661.952185 49.499476 
" style="fill: none; stroke: #000000; stroke-opacity: 0; stroke-width: 1.5; stroke-linecap: square"/>
    </g>
    <g id="text_19">
     <!-- $h_{m}$ -->
     <g transform="translate(664.752185 55.099476) scale(0.16 -0.16)">
      <defs>
       <path id="CMMI12-6d" d="M 1318 1871 
C 1331 1910 1491 2229 1728 2433 
C 1894 2586 2112 2689 2362 2689 
C 2618 2689 2707 2497 2707 2242 
C 2707 2203 2707 2076 2630 1775 
L 2470 1118 
C 2419 926 2298 453 2285 383 
C 2259 287 2221 121 2221 96 
C 2221 6 2291 -64 2387 -64 
C 2579 -64 2611 83 2669 313 
L 3053 1839 
C 3066 1890 3398 2689 4102 2689 
C 4358 2689 4448 2497 4448 2242 
C 4448 1884 4198 1188 4058 805 
C 4000 651 3968 568 3968 453 
C 3968 166 4166 -64 4474 -64 
C 5069 -64 5293 875 5293 913 
C 5293 945 5267 971 5229 971 
C 5171 971 5165 952 5133 843 
C 4986 332 4749 64 4493 64 
C 4429 64 4326 64 4326 269 
C 4326 436 4403 640 4429 710 
C 4544 1018 4832 1773 4832 2145 
C 4832 2528 4608 2816 4122 2816 
C 3693 2816 3347 2574 3091 2197 
C 3072 2542 2861 2816 2381 2816 
C 1811 2816 1510 2415 1395 2255 
C 1376 2618 1114 2816 832 2816 
C 646 2816 499 2727 378 2484 
C 262 2254 173 1865 173 1839 
C 173 1814 198 1782 243 1782 
C 294 1782 301 1788 339 1935 
C 435 2312 557 2689 813 2689 
C 960 2689 1011 2586 1011 2395 
C 1011 2254 947 2005 902 1807 
L 723 1118 
C 698 996 627 709 595 594 
C 550 428 480 128 480 96 
C 480 6 550 -64 646 -64 
C 723 -64 813 -26 864 70 
C 877 102 934 326 966 453 
L 1107 1028 
L 1318 1871 
z
" transform="scale(0.015625)"/>
      </defs>
      <use xlink:href="#CMMI12-68" transform="scale(0.996264)"/>
      <use xlink:href="#CMMI12-6d" transform="translate(56.154624 -14.943915) scale(0.697382)"/>
     </g>
    </g>
    <g id="line2d_42">
     <g>
      <use xlink:href="#m379138104a" x="645.952185" y="71.798952" style="fill: #98d594; stroke: #98d594"/>
     </g>
    </g>
    <g id="text_20">
     <!-- $m=1$ -->
     <g transform="translate(674.752185 77.398952) scale(0.16 -0.16)">
      <defs>
       <path id="CMR17-3d" d="M 4115 2017 
C 4211 2017 4307 2017 4307 2125 
C 4307 2240 4198 2240 4090 2240 
L 512 2240 
C 403 2240 294 2240 294 2125 
C 294 2017 390 2017 486 2017 
L 4115 2017 
z
M 4090 896 
C 4198 896 4307 896 4307 1011 
C 4307 1119 4211 1119 4115 1119 
L 486 1119 
C 390 1119 294 1119 294 1011 
C 294 896 403 896 512 896 
L 4090 896 
z
" transform="scale(0.015625)"/>
      </defs>
      <use xlink:href="#CMMI12-6d" transform="scale(0.996264)"/>
      <use xlink:href="#CMR17-3d" transform="translate(113.001233 0) scale(0.996264)"/>
      <use xlink:href="#CMR17-31" transform="translate(212.39003 0) scale(0.996264)"/>
     </g>
    </g>
    <g id="line2d_43">
     <g>
      <use xlink:href="#m71116bcfc6" x="645.952185" y="94.098429" style="fill: #4bb062; stroke: #4bb062"/>
     </g>
    </g>
    <g id="text_21">
     <!-- $m=2$ -->
     <g transform="translate(674.752185 99.698429) scale(0.16 -0.16)">
      <use xlink:href="#CMMI12-6d" transform="scale(0.996264)"/>
      <use xlink:href="#CMR17-3d" transform="translate(113.001233 0) scale(0.996264)"/>
      <use xlink:href="#CMR17-32" transform="translate(212.39003 0) scale(0.996264)"/>
     </g>
    </g>
    <g id="line2d_44">
     <g>
      <use xlink:href="#mdd014a7234" x="645.952185" y="116.397905" style="fill: #157f3b; stroke: #157f3b"/>
     </g>
    </g>
    <g id="text_22">
     <!-- $m=3$ -->
     <g transform="translate(674.752185 121.997905) scale(0.16 -0.16)">
      <use xlink:href="#CMMI12-6d" transform="scale(0.996264)"/>
      <use xlink:href="#CMR17-3d" transform="translate(113.001233 0) scale(0.996264)"/>
      <use xlink:href="#CMR17-33" transform="translate(212.39003 0) scale(0.996264)"/>
     </g>
    </g>
    <g id="line2d_45">
     <g>
      <use xlink:href="#m87d2d7fa88" x="645.952185" y="138.697381" style="fill: #00441b; stroke: #00441b"/>
     </g>
    </g>
    <g id="text_23">
     <!-- $m=4$ -->
     <g transform="translate(674.752185 144.297381) scale(0.16 -0.16)">
      <use xlink:href="#CMMI12-6d" transform="scale(0.996264)"/>
      <use xlink:href="#CMR17-3d" transform="translate(113.001233 0) scale(0.996264)"/>
      <use xlink:href="#CMR17-34" transform="translate(212.39003 0) scale(0.996264)"/>
     </g>
    </g>
    <g id="line2d_46">
     <path d="M 629.952185 160.996857 
L 645.952185 160.996857 
L 661.952185 160.996857 
" style="fill: none; stroke: #000000; stroke-opacity: 0; stroke-width: 1.5; stroke-linecap: square"/>
    </g>
    <g id="text_24">
     <!-- $h_{(p)}$ -->
     <g transform="translate(664.752185 166.596857) scale(0.16 -0.16)">
      <defs>
       <path id="CMMI12-70" d="M 275 -789 
C 230 -980 205 -1031 -58 -1031 
C -134 -1031 -198 -1031 -198 -1152 
C -198 -1165 -192 -1216 -122 -1216 
C -38 -1216 51 -1216 134 -1216 
L 410 -1216 
C 544 -1216 870 -1216 1005 -1216 
C 1043 -1216 1120 -1216 1120 -1101 
C 1120 -1031 1075 -1031 966 -1031 
C 672 -1031 653 -987 653 -937 
C 653 -861 941 219 979 364 
C 1050 185 1222 -64 1555 -64 
C 2278 -64 3059 875 3059 1814 
C 3059 2401 2726 2816 2246 2816 
C 1837 2816 1491 2420 1421 2331 
C 1370 2650 1120 2816 864 2816 
C 678 2816 531 2727 410 2484 
C 294 2254 205 1865 205 1839 
C 205 1814 230 1782 275 1782 
C 326 1782 333 1788 371 1935 
C 467 2312 589 2689 845 2689 
C 992 2689 1043 2587 1043 2397 
C 1043 2245 1024 2181 998 2067 
L 275 -789 
z
M 1382 1993 
C 1427 2171 1606 2357 1709 2446 
C 1779 2510 1990 2689 2234 2689 
C 2515 2689 2643 2408 2643 2076 
C 2643 1769 2464 1047 2304 715 
C 2144 370 1850 64 1555 64 
C 1120 64 1050 613 1050 639 
C 1050 658 1062 709 1069 741 
L 1382 1993 
z
" transform="scale(0.015625)"/>
      </defs>
      <use xlink:href="#CMMI12-68" transform="scale(0.996264)"/>
      <use xlink:href="#CMR17-28" transform="translate(56.154624 -17.925121) scale(0.697382)"/>
      <use xlink:href="#CMMI12-70" transform="translate(80.851044 -17.925121) scale(0.697382)"/>
      <use xlink:href="#CMR17-29" transform="translate(115.122551 -17.925121) scale(0.697382)"/>
     </g>
    </g>
    <g id="line2d_47">
     <g>
      <use xlink:href="#m5070aed89e" x="645.952185" y="185.864447" style="fill: #94c4df; stroke: #94c4df"/>
     </g>
    </g>
    <g id="text_25">
     <!-- $p=1$ -->
     <g transform="translate(674.752185 191.464447) scale(0.16 -0.16)">
      <use xlink:href="#CMMI12-70" transform="scale(0.996264)"/>
      <use xlink:href="#CMR17-3d" transform="translate(76.633523 0) scale(0.996264)"/>
      <use xlink:href="#CMR17-31" transform="translate(176.02232 0) scale(0.996264)"/>
     </g>
    </g>
    <g id="line2d_48">
     <g>
      <use xlink:href="#m74e33c20ad" x="645.952185" y="208.163923" style="fill: #64a9d3; stroke: #64a9d3"/>
     </g>
    </g>
    <g id="text_26">
     <!-- $p=2$ -->
     <g transform="translate(674.752185 213.763923) scale(0.16 -0.16)">
      <use xlink:href="#CMMI12-70" transform="scale(0.996264)"/>
      <use xlink:href="#CMR17-3d" transform="translate(76.633523 0) scale(0.996264)"/>
      <use xlink:href="#CMR17-32" transform="translate(176.02232 0) scale(0.996264)"/>
     </g>
    </g>
    <g id="line2d_49">
     <g>
      <use xlink:href="#m95419ab546" x="645.952185" y="230.463399" style="fill: #3e8ec4; stroke: #3e8ec4"/>
     </g>
    </g>
    <g id="text_27">
     <!-- $p=3$ -->
     <g transform="translate(674.752185 236.063399) scale(0.16 -0.16)">
      <use xlink:href="#CMMI12-70" transform="scale(0.996264)"/>
      <use xlink:href="#CMR17-3d" transform="translate(76.633523 0) scale(0.996264)"/>
      <use xlink:href="#CMR17-33" transform="translate(176.02232 0) scale(0.996264)"/>
     </g>
    </g>
    <g id="line2d_50">
     <g>
      <use xlink:href="#m0cdbd28ebe" x="645.952185" y="252.762875" style="fill: #1f6eb3; stroke: #1f6eb3"/>
     </g>
    </g>
    <g id="text_28">
     <!-- $p=4$ -->
     <g transform="translate(674.752185 258.362875) scale(0.16 -0.16)">
      <use xlink:href="#CMMI12-70" transform="scale(0.996264)"/>
      <use xlink:href="#CMR17-3d" transform="translate(76.633523 0) scale(0.996264)"/>
      <use xlink:href="#CMR17-34" transform="translate(176.02232 0) scale(0.996264)"/>
     </g>
    </g>
    <g id="line2d_51">
     <g>
      <use xlink:href="#m54132c4106" x="645.952185" y="275.062351" style="fill: #084f99; stroke: #084f99"/>
     </g>
    </g>
    <g id="text_29">
     <!-- $p=5$ -->
     <g transform="translate(674.752185 280.662351) scale(0.16 -0.16)">
      <use xlink:href="#CMMI12-70" transform="scale(0.996264)"/>
      <use xlink:href="#CMR17-3d" transform="translate(76.633523 0) scale(0.996264)"/>
      <use xlink:href="#CMR17-35" transform="translate(176.02232 0) scale(0.996264)"/>
     </g>
    </g>
    <g id="line2d_52">
     <g>
      <use xlink:href="#mbccb3482ea" x="645.952185" y="297.361828" style="fill: #08306b; stroke: #08306b"/>
     </g>
    </g>
    <g id="text_30">
     <!-- $p=6$ -->
     <g transform="translate(674.752185 302.961828) scale(0.16 -0.16)">
      <use xlink:href="#CMMI12-70" transform="scale(0.996264)"/>
      <use xlink:href="#CMR17-3d" transform="translate(76.633523 0) scale(0.996264)"/>
      <use xlink:href="#CMR17-36" transform="translate(176.02232 0) scale(0.996264)"/>
     </g>
    </g>
   </g>
  </g>
 </g>
 <defs>
  <clipPath id="p8603dc661e">
   <rect x="57.552185" y="7.2" width="558" height="332.64"/>
  </clipPath>
 </defs>
</svg>
