<?xml version="1.0" encoding="utf-8" standalone="no"?>
<!DOCTYPE svg PUBLIC "-//W3C//DTD SVG 1.1//EN"
  "http://www.w3.org/Graphics/SVG/1.1/DTD/svg11.dtd">
<svg xmlns:xlink="http://www.w3.org/1999/xlink" width="717.180891pt" height="386.378129pt" viewBox="0 0 717.180891 386.378129" xmlns="http://www.w3.org/2000/svg" version="1.1">
 <metadata>
  <rdf:RDF xmlns:dc="http://purl.org/dc/elements/1.1/" xmlns:cc="http://creativecommons.org/ns#" xmlns:rdf="http://www.w3.org/1999/02/22-rdf-syntax-ns#">
   <cc:Work>
    <dc:type rdf:resource="http://purl.org/dc/dcmitype/StillImage"/>
    <dc:date>2025-10-15T19:47:42.669856</dc:date>
    <dc:format>image/svg+xml</dc:format>
    <dc:creator>
     <cc:Agent>
      <dc:title>Matplotlib v3.10.6, https://matplotlib.org/</dc:title>
     </cc:Agent>
    </dc:creator>
   </cc:Work>
  </rdf:RDF>
 </metadata>
 <defs>
  <style type="text/css">*{stroke-linejoin: round; stroke-linecap: butt}</style>
 </defs>
 <g id="figure_1">
  <g id="patch_1">
   <path d="M 0 386.378129 
L 717.180891 386.378129 
L 717.180891 0 
L 0 0 
z
" style="fill: #ffffff"/>
  </g>
  <g id="axes_1">
   <g id="patch_2">
    <path d="M 49.748198 339.84 
L 607.748198 339.84 
L 607.748198 7.2 
L 49.748198 7.2 
z
" style="fill: #ffffff"/>
   </g>
   <g id="line2d_1">
    <path d="M 75.111835 22.32 
L 83.163783 74.776093 
L 91.215731 72.518447 
L 99.267679 111.198905 
L 107.319627 100.453081 
L 115.371575 132.907282 
L 123.423523 123.616684 
L 131.475471 142.295249 
L 139.527419 84.767359 
L 147.579367 115.080005 
L 155.631315 123.496028 
L 163.683263 140.033039 
L 171.735211 124.572414 
L 179.787159 134.883168 
L 187.839107 136.266238 
L 195.891055 132.801357 
L 203.943003 88.843759 
L 211.994951 131.680099 
L 220.046899 116.85568 
L 228.098848 145.916386 
L 236.150796 141.645524 
L 244.202744 164.479972 
L 252.254692 142.622601 
L 260.30664 151.681414 
L 268.358588 123.497679 
L 276.410536 144.190574 
L 284.462484 140.039823 
L 292.514432 146.957082 
L 300.56638 137.971418 
L 308.618328 138.66242 
L 316.670276 127.478717 
L 324.722224 114.394084 
L 332.774172 114.394084 
L 340.82612 127.478717 
L 348.878068 138.66242 
L 356.930016 137.971418 
L 364.981964 146.957082 
L 373.033912 140.039823 
L 381.085861 144.190574 
L 389.137809 123.497679 
L 397.189757 151.681414 
L 405.241705 142.622601 
L 413.293653 164.479972 
L 421.345601 141.645524 
L 429.397549 145.916386 
L 437.449497 116.85568 
L 445.501445 131.680099 
L 453.553393 88.843759 
L 461.605341 132.801357 
L 469.657289 136.266238 
L 477.709237 134.883168 
L 485.761185 124.572414 
L 493.813133 140.033039 
L 501.865081 123.496028 
L 509.917029 115.080005 
L 517.968977 84.767359 
L 526.020925 142.295249 
L 534.072873 123.616684 
L 542.124822 132.907282 
L 550.17677 100.453081 
L 558.228718 111.198905 
L 566.280666 72.518447 
L 574.332614 74.776093 
L 582.384562 22.32 
" clip-path="url(#p776aed644e)" style="fill: none; stroke-dasharray: 5.55,2.4; stroke-dashoffset: 0; stroke: #94c4df; stroke-width: 1.5"/>
   </g>
   <g id="line2d_2">
    <path d="M 75.111835 139.997131 
L 83.163783 164.369868 
L 91.215731 177.10687 
L 99.267679 192.382018 
L 107.319627 210.465899 
L 115.371575 225.104995 
L 123.423523 229.181998 
L 131.475471 235.221869 
L 139.527419 199.174956 
L 147.579367 212.524677 
L 155.631315 228.532141 
L 163.683263 232.955186 
L 171.735211 237.350039 
L 179.787159 241.34484 
L 187.839107 246.496733 
L 195.891055 241.728632 
L 203.943003 201.608921 
L 211.994951 223.007704 
L 220.046899 223.668945 
L 228.098848 236.426066 
L 236.150796 249.224237 
L 244.202744 261.629036 
L 252.254692 250.900467 
L 260.30664 254.739284 
L 268.358588 236.22074 
L 276.410536 247.122525 
L 284.462484 248.917751 
L 292.514432 251.082373 
L 300.56638 247.019083 
L 308.618328 248.685941 
L 316.670276 238.379944 
L 324.722224 231.205173 
L 332.774172 231.205173 
L 340.82612 238.379944 
L 348.878068 248.685941 
L 356.930016 247.019083 
L 364.981964 251.082373 
L 373.033912 248.917751 
L 381.085861 247.122525 
L 389.137809 236.22074 
L 397.189757 254.739284 
L 405.241705 250.900467 
L 413.293653 261.629036 
L 421.345601 249.224237 
L 429.397549 236.426066 
L 437.449497 223.668945 
L 445.501445 223.007704 
L 453.553393 201.608921 
L 461.605341 241.728632 
L 469.657289 246.496733 
L 477.709237 241.34484 
L 485.761185 237.350039 
L 493.813133 232.955186 
L 501.865081 228.532141 
L 509.917029 212.524677 
L 517.968977 199.174956 
L 526.020925 235.221869 
L 534.072873 229.181998 
L 542.124822 225.104995 
L 550.17677 210.465899 
L 558.228718 192.382018 
L 566.280666 177.10687 
L 574.332614 164.369868 
L 582.384562 139.997131 
" clip-path="url(#p776aed644e)" style="fill: none; stroke-dasharray: 5.55,2.4; stroke-dashoffset: 0; stroke: #64a9d3; stroke-width: 1.5"/>
   </g>
   <g id="line2d_3">
    <path d="M 75.111835 161.660608 
L 83.163783 177.287322 
L 91.215731 196.045045 
L 99.267679 203.883347 
L 107.319627 234.65748 
L 115.371575 242.370722 
L 123.423523 253.079454 
L 131.475471 253.589196 
L 139.527419 224.420752 
L 147.579367 231.063091 
L 155.631315 252.084048 
L 163.683263 251.135881 
L 171.735211 266.355413 
L 179.787159 267.166765 
L 187.839107 275.270565 
L 195.891055 269.031534 
L 203.943003 226.277108 
L 211.994951 239.763051 
L 220.046899 247.616397 
L 228.098848 253.831225 
L 236.150796 276.764085 
L 244.202744 284.744456 
L 252.254692 279.113923 
L 260.30664 280.344148 
L 268.358588 265.031142 
L 276.410536 271.679571 
L 284.462484 277.21026 
L 292.514432 276.823579 
L 300.56638 275.13857 
L 308.618328 277.659239 
L 316.670276 266.396566 
L 324.722224 261.801185 
L 332.774172 261.801185 
L 340.82612 266.396566 
L 348.878068 277.659239 
L 356.930016 275.13857 
L 364.981964 276.823579 
L 373.033912 277.21026 
L 381.085861 271.679571 
L 389.137809 265.031142 
L 397.189757 280.344148 
L 405.241705 279.113923 
L 413.293653 284.744456 
L 421.345601 276.764085 
L 429.397549 253.831225 
L 437.449497 247.616397 
L 445.501445 239.763051 
L 453.553393 226.277108 
L 461.605341 269.031534 
L 469.657289 275.270565 
L 477.709237 267.166765 
L 485.761185 266.355413 
L 493.813133 251.135881 
L 501.865081 252.084048 
L 509.917029 231.063091 
L 517.968977 224.420752 
L 526.020925 253.589196 
L 534.072873 253.079454 
L 542.124822 242.370722 
L 550.17677 234.65748 
L 558.228718 203.883347 
L 566.280666 196.045045 
L 574.332614 177.287322 
L 582.384562 161.660608 
" clip-path="url(#p776aed644e)" style="fill: none; stroke-dasharray: 5.55,2.4; stroke-dashoffset: 0; stroke: #3e8ec4; stroke-width: 1.5"/>
   </g>
   <g id="line2d_4">
    <path d="M 75.111835 167.687933 
L 83.163783 179.974467 
L 91.215731 201.207083 
L 99.267679 206.228472 
L 107.319627 243.145081 
L 115.371575 247.278348 
L 123.423523 261.809033 
L 131.475471 259.18103 
L 139.527419 233.320824 
L 147.579367 236.438251 
L 155.631315 260.57333 
L 163.683263 256.598996 
L 171.735211 279.154692 
L 179.787159 277.586519 
L 187.839107 288.269068 
L 195.891055 280.608308 
L 203.943003 234.870345 
L 211.994951 244.405015 
L 220.046899 256.246776 
L 228.098848 258.947076 
L 236.150796 288.82846 
L 244.202744 293.812331 
L 252.254692 291.822897 
L 260.30664 291.056013 
L 268.358588 277.620457 
L 276.410536 281.350751 
L 284.462484 289.899703 
L 292.514432 287.511399 
L 300.56638 287.59803 
L 308.618328 290.933432 
L 316.670276 278.419959 
L 324.722224 275.698546 
L 332.774172 275.698546 
L 340.82612 278.419959 
L 348.878068 290.933432 
L 356.930016 287.59803 
L 364.981964 287.511399 
L 373.033912 289.899703 
L 381.085861 281.350751 
L 389.137809 277.620457 
L 397.189757 291.056013 
L 405.241705 291.822897 
L 413.293653 293.812331 
L 421.345601 288.82846 
L 429.397549 258.947076 
L 437.449497 256.246776 
L 445.501445 244.405015 
L 453.553393 234.870345 
L 461.605341 280.608308 
L 469.657289 288.269068 
L 477.709237 277.586519 
L 485.761185 279.154692 
L 493.813133 256.598996 
L 501.865081 260.57333 
L 509.917029 236.438251 
L 517.968977 233.320824 
L 526.020925 259.18103 
L 534.072873 261.809033 
L 542.124822 247.278348 
L 550.17677 243.145081 
L 558.228718 206.228472 
L 566.280666 201.207083 
L 574.332614 179.974467 
L 582.384562 167.687933 
" clip-path="url(#p776aed644e)" style="fill: none; stroke-dasharray: 5.55,2.4; stroke-dashoffset: 0; stroke: #1f6eb3; stroke-width: 1.5"/>
   </g>
   <g id="line2d_5">
    <path d="M 75.111835 169.606429 
L 83.163783 180.606955 
L 91.215731 202.814764 
L 99.267679 206.769308 
L 107.319627 246.631821 
L 115.371575 248.876474 
L 123.423523 265.566756 
L 131.475471 261.141905 
L 139.527419 236.997216 
L 147.579367 238.2263 
L 155.631315 264.171182 
L 163.683263 258.487712 
L 171.735211 286.120417 
L 179.787159 282.642539 
L 187.839107 295.569826 
L 195.891055 286.588399 
L 203.943003 238.371723 
L 211.994951 245.875882 
L 220.046899 259.903698 
L 228.098848 260.674013 
L 236.150796 295.331127 
L 244.202744 298.062227 
L 252.254692 298.933407 
L 260.30664 296.494965 
L 268.358588 284.383609 
L 276.410536 285.905088 
L 284.462484 296.957781 
L 292.514432 292.88631 
L 300.56638 294.416046 
L 308.618328 298.53399 
L 316.670276 284.72825 
L 324.722224 283.562439 
L 332.774172 283.562439 
L 340.82612 284.72825 
L 348.878068 298.53399 
L 356.930016 294.416046 
L 364.981964 292.88631 
L 373.033912 296.957781 
L 381.085861 285.905088 
L 389.137809 284.383609 
L 397.189757 296.494965 
L 405.241705 298.933407 
L 413.293653 298.062227 
L 421.345601 295.331127 
L 429.397549 260.674013 
L 437.449497 259.903698 
L 445.501445 245.875882 
L 453.553393 238.371723 
L 461.605341 286.588399 
L 469.657289 295.569826 
L 477.709237 282.642539 
L 485.761185 286.120417 
L 493.813133 258.487712 
L 501.865081 264.171182 
L 509.917029 238.2263 
L 517.968977 236.997216 
L 526.020925 261.141905 
L 534.072873 265.566756 
L 542.124822 248.876474 
L 550.17677 246.631821 
L 558.228718 206.769308 
L 566.280666 202.814764 
L 574.332614 180.606955 
L 582.384562 169.606429 
" clip-path="url(#p776aed644e)" style="fill: none; stroke-dasharray: 5.55,2.4; stroke-dashoffset: 0; stroke: #084f99; stroke-width: 1.5"/>
   </g>
   <g id="line2d_6">
    <path d="M 75.111835 170.259768 
L 83.163783 180.76604 
L 91.215731 203.350333 
L 99.267679 206.902594 
L 107.319627 248.176291 
L 115.371575 249.433434 
L 123.423523 267.316251 
L 131.475471 261.878816 
L 139.527419 238.635224 
L 147.579367 238.86307 
L 155.631315 265.818559 
L 163.683263 259.18727 
L 171.735211 290.352819 
L 179.787159 285.328058 
L 187.839107 300.181963 
L 195.891055 290.002085 
L 203.943003 239.909327 
L 211.994951 246.374495 
L 220.046899 261.577766 
L 228.098848 261.298266 
L 236.150796 299.236088 
L 244.202744 300.233384 
L 252.254692 303.403644 
L 260.30664 299.538005 
L 268.358588 288.428754 
L 276.410536 288.244168 
L 284.462484 301.362802 
L 292.514432 295.860284 
L 300.56638 298.586512 
L 308.618328 303.453663 
L 316.670276 288.396115 
L 324.722224 288.576949 
L 332.774172 288.576949 
L 340.82612 288.396115 
L 348.878068 303.453663 
L 356.930016 298.586512 
L 364.981964 295.860284 
L 373.033912 301.362802 
L 381.085861 288.244168 
L 389.137809 288.428754 
L 397.189757 299.538005 
L 405.241705 303.403644 
L 413.293653 300.233384 
L 421.345601 299.236088 
L 429.397549 261.298266 
L 437.449497 261.577766 
L 445.501445 246.374495 
L 453.553393 239.909327 
L 461.605341 290.002085 
L 469.657289 300.181963 
L 477.709237 285.328058 
L 485.761185 290.352819 
L 493.813133 259.18727 
L 501.865081 265.818559 
L 509.917029 238.86307 
L 517.968977 238.635224 
L 526.020925 261.878816 
L 534.072873 267.316251 
L 542.124822 249.433434 
L 550.17677 248.176291 
L 558.228718 206.902594 
L 566.280666 203.350333 
L 574.332614 180.76604 
L 582.384562 170.259768 
" clip-path="url(#p776aed644e)" style="fill: none; stroke-dasharray: 5.55,2.4; stroke-dashoffset: 0; stroke: #08306b; stroke-width: 1.5"/>
   </g>
   <g id="matplotlib.axis_1">
    <g id="xtick_1">
     <g id="line2d_7">
      <defs>
       <path id="m910fc0cbca" d="M 0 0 
L 0 3.5 
" style="stroke: #000000; stroke-width: 0.8"/>
      </defs>
      <g>
       <use xlink:href="#m910fc0cbca" x="75.111835" y="339.84" style="stroke: #000000; stroke-width: 0.8"/>
      </g>
     </g>
     <g id="text_1">
      <!-- $\mathdefault{0}$ -->
      <g transform="translate(71.209841 357.909588) scale(0.16 -0.16)">
       <defs>
        <path id="CMR17-30" d="M 2688 2025 
C 2688 2416 2682 3080 2413 3591 
C 2176 4039 1798 4198 1466 4198 
C 1158 4198 768 4058 525 3597 
C 269 3118 243 2524 243 2025 
C 243 1661 250 1106 448 619 
C 723 -39 1216 -128 1466 -128 
C 1760 -128 2208 -7 2470 600 
C 2662 1042 2688 1559 2688 2025 
z
M 1466 -26 
C 1056 -26 813 325 723 812 
C 653 1188 653 1738 653 2096 
C 653 2588 653 2997 736 3387 
C 858 3929 1216 4096 1466 4096 
C 1728 4096 2067 3923 2189 3400 
C 2272 3036 2278 2607 2278 2096 
C 2278 1680 2278 1169 2202 792 
C 2067 95 1690 -26 1466 -26 
z
" transform="scale(0.015625)"/>
       </defs>
       <use xlink:href="#CMR17-30" transform="scale(0.996264)"/>
      </g>
     </g>
    </g>
    <g id="xtick_2">
     <g id="line2d_8">
      <g>
       <use xlink:href="#m910fc0cbca" x="155.631315" y="339.84" style="stroke: #000000; stroke-width: 0.8"/>
      </g>
     </g>
     <g id="text_2">
      <!-- $\mathdefault{10}$ -->
      <g transform="translate(147.827328 357.909588) scale(0.16 -0.16)">
       <defs>
        <path id="CMR17-31" d="M 1702 4058 
C 1702 4192 1696 4192 1606 4192 
C 1357 3916 979 3827 621 3827 
C 602 3827 570 3827 563 3808 
C 557 3795 557 3782 557 3648 
C 755 3648 1088 3686 1344 3839 
L 1344 461 
C 1344 236 1331 160 781 160 
L 589 160 
L 589 0 
C 896 0 1216 0 1523 0 
C 1830 0 2150 0 2458 0 
L 2458 160 
L 2266 160 
C 1715 160 1702 230 1702 458 
L 1702 4058 
z
" transform="scale(0.015625)"/>
       </defs>
       <use xlink:href="#CMR17-31" transform="scale(0.996264)"/>
       <use xlink:href="#CMR17-30" transform="translate(45.690477 0) scale(0.996264)"/>
      </g>
     </g>
    </g>
    <g id="xtick_3">
     <g id="line2d_9">
      <g>
       <use xlink:href="#m910fc0cbca" x="236.150796" y="339.84" style="stroke: #000000; stroke-width: 0.8"/>
      </g>
     </g>
     <g id="text_3">
      <!-- $\mathdefault{20}$ -->
      <g transform="translate(228.346809 357.909588) scale(0.16 -0.16)">
       <defs>
        <path id="CMR17-32" d="M 2669 989 
L 2554 989 
C 2490 536 2438 459 2413 420 
C 2381 369 1920 369 1830 369 
L 602 369 
C 832 619 1280 1072 1824 1597 
C 2214 1967 2669 2402 2669 3035 
C 2669 3790 2067 4224 1395 4224 
C 691 4224 262 3604 262 3030 
C 262 2780 448 2748 525 2748 
C 589 2748 781 2787 781 3010 
C 781 3207 614 3264 525 3264 
C 486 3264 448 3258 422 3245 
C 544 3790 915 4058 1306 4058 
C 1862 4058 2227 3617 2227 3035 
C 2227 2479 1901 2000 1536 1584 
L 262 146 
L 262 0 
L 2515 0 
L 2669 989 
z
" transform="scale(0.015625)"/>
       </defs>
       <use xlink:href="#CMR17-32" transform="scale(0.996264)"/>
       <use xlink:href="#CMR17-30" transform="translate(45.690477 0) scale(0.996264)"/>
      </g>
     </g>
    </g>
    <g id="xtick_4">
     <g id="line2d_10">
      <g>
       <use xlink:href="#m910fc0cbca" x="316.670276" y="339.84" style="stroke: #000000; stroke-width: 0.8"/>
      </g>
     </g>
     <g id="text_4">
      <!-- $\mathdefault{30}$ -->
      <g transform="translate(308.866289 357.909588) scale(0.16 -0.16)">
       <defs>
        <path id="CMR17-33" d="M 1414 2157 
C 1984 2157 2234 1662 2234 1090 
C 2234 320 1824 25 1453 25 
C 1114 25 563 194 390 693 
C 422 680 454 680 486 680 
C 640 680 755 782 755 948 
C 755 1133 614 1216 486 1216 
C 378 1216 211 1165 211 926 
C 211 335 787 -128 1466 -128 
C 2176 -128 2720 430 2720 1085 
C 2720 1707 2208 2157 1600 2227 
C 2086 2328 2554 2756 2554 3329 
C 2554 3820 2048 4179 1472 4179 
C 890 4179 378 3829 378 3329 
C 378 3110 544 3072 627 3072 
C 762 3072 877 3155 877 3321 
C 877 3486 762 3569 627 3569 
C 602 3569 570 3569 544 3557 
C 730 3959 1235 4032 1459 4032 
C 1683 4032 2106 3925 2106 3320 
C 2106 3143 2080 2828 1862 2550 
C 1670 2304 1453 2304 1242 2284 
C 1210 2284 1062 2269 1037 2269 
C 992 2263 966 2257 966 2208 
C 966 2163 973 2157 1101 2157 
L 1414 2157 
z
" transform="scale(0.015625)"/>
       </defs>
       <use xlink:href="#CMR17-33" transform="scale(0.996264)"/>
       <use xlink:href="#CMR17-30" transform="translate(45.690477 0) scale(0.996264)"/>
      </g>
     </g>
    </g>
    <g id="xtick_5">
     <g id="line2d_11">
      <g>
       <use xlink:href="#m910fc0cbca" x="397.189757" y="339.84" style="stroke: #000000; stroke-width: 0.8"/>
      </g>
     </g>
     <g id="text_5">
      <!-- $\mathdefault{40}$ -->
      <g transform="translate(389.38577 357.909588) scale(0.16 -0.16)">
       <defs>
        <path id="CMR17-34" d="M 2150 4122 
C 2150 4256 2144 4256 2029 4256 
L 128 1254 
L 128 1088 
L 1779 1088 
L 1779 457 
C 1779 224 1766 160 1318 160 
L 1197 160 
L 1197 0 
C 1402 0 1747 0 1965 0 
C 2182 0 2528 0 2733 0 
L 2733 160 
L 2611 160 
C 2163 160 2150 224 2150 457 
L 2150 1088 
L 2803 1088 
L 2803 1254 
L 2150 1254 
L 2150 4122 
z
M 1798 3703 
L 1798 1254 
L 256 1254 
L 1798 3703 
z
" transform="scale(0.015625)"/>
       </defs>
       <use xlink:href="#CMR17-34" transform="scale(0.996264)"/>
       <use xlink:href="#CMR17-30" transform="translate(45.690477 0) scale(0.996264)"/>
      </g>
     </g>
    </g>
    <g id="xtick_6">
     <g id="line2d_12">
      <g>
       <use xlink:href="#m910fc0cbca" x="477.709237" y="339.84" style="stroke: #000000; stroke-width: 0.8"/>
      </g>
     </g>
     <g id="text_6">
      <!-- $\mathdefault{50}$ -->
      <g transform="translate(469.90525 357.909588) scale(0.16 -0.16)">
       <defs>
        <path id="CMR17-35" d="M 730 3692 
C 794 3666 1056 3584 1325 3584 
C 1920 3584 2246 3911 2432 4100 
C 2432 4157 2432 4192 2394 4192 
C 2387 4192 2374 4192 2323 4163 
C 2099 4058 1837 3973 1517 3973 
C 1325 3973 1037 3999 723 4139 
C 653 4171 640 4171 634 4171 
C 602 4171 595 4164 595 4037 
L 595 2203 
C 595 2089 595 2057 659 2057 
C 691 2057 704 2070 736 2114 
C 941 2401 1222 2522 1542 2522 
C 1766 2522 2246 2382 2246 1289 
C 2246 1085 2246 715 2054 421 
C 1894 159 1645 25 1370 25 
C 947 25 518 320 403 814 
C 429 807 480 795 506 795 
C 589 795 749 840 749 1038 
C 749 1210 627 1280 506 1280 
C 358 1280 262 1190 262 1011 
C 262 454 704 -128 1382 -128 
C 2042 -128 2669 440 2669 1264 
C 2669 2030 2170 2624 1549 2624 
C 1222 2624 947 2503 730 2274 
L 730 3692 
z
" transform="scale(0.015625)"/>
       </defs>
       <use xlink:href="#CMR17-35" transform="scale(0.996264)"/>
       <use xlink:href="#CMR17-30" transform="translate(45.690477 0) scale(0.996264)"/>
      </g>
     </g>
    </g>
    <g id="xtick_7">
     <g id="line2d_13">
      <g>
       <use xlink:href="#m910fc0cbca" x="558.228718" y="339.84" style="stroke: #000000; stroke-width: 0.8"/>
      </g>
     </g>
     <g id="text_7">
      <!-- $\mathdefault{60}$ -->
      <g transform="translate(550.424731 357.909588) scale(0.16 -0.16)">
       <defs>
        <path id="CMR17-36" d="M 678 2176 
C 678 3690 1395 4032 1811 4032 
C 1946 4032 2272 4009 2400 3776 
C 2298 3776 2106 3776 2106 3553 
C 2106 3381 2246 3323 2336 3323 
C 2394 3323 2566 3348 2566 3560 
C 2566 3954 2246 4179 1805 4179 
C 1043 4179 243 3390 243 1984 
C 243 253 966 -128 1478 -128 
C 2099 -128 2688 427 2688 1283 
C 2688 2081 2170 2662 1517 2662 
C 1126 2662 838 2407 678 1960 
L 678 2176 
z
M 1478 25 
C 691 25 691 1200 691 1436 
C 691 1896 909 2560 1504 2560 
C 1613 2560 1926 2560 2138 2120 
C 2253 1870 2253 1609 2253 1289 
C 2253 944 2253 690 2118 434 
C 1978 171 1773 25 1478 25 
z
" transform="scale(0.015625)"/>
       </defs>
       <use xlink:href="#CMR17-36" transform="scale(0.996264)"/>
       <use xlink:href="#CMR17-30" transform="translate(45.690477 0) scale(0.996264)"/>
      </g>
     </g>
    </g>
    <g id="text_8">
     <!-- $\mathbf{b}$ in base 10 -->
     <g transform="translate(288.120386 376.078653) scale(0.16 -0.16)">
      <defs>
       <path id="CMBX12-62" d="M 1331 4416 
L 224 4416 
L 224 4117 
C 621 4117 666 4117 666 3867 
L 666 0 
L 934 0 
C 1043 123 1152 247 1254 376 
C 1581 38 1933 -32 2189 -32 
C 3072 -32 3750 504 3750 1431 
C 3750 2305 3149 2880 2272 2880 
C 1894 2880 1594 2759 1331 2555 
L 1331 4416 
z
M 1363 2248 
C 1587 2555 1920 2670 2189 2670 
C 2982 2670 2982 1859 2982 1437 
C 2982 1149 2982 785 2829 548 
C 2630 241 2330 178 2125 178 
C 1690 178 1453 484 1363 625 
L 1363 2248 
z
" transform="scale(0.015625)"/>
       <path id="CMSS17-69" d="M 979 4183 
L 442 4183 
L 442 3648 
L 979 3648 
L 979 4183 
z
M 947 2739 
L 474 2739 
L 474 0 
L 947 0 
L 947 2739 
z
" transform="scale(0.015625)"/>
       <path id="CMSS17-6e" d="M 2618 1877 
C 2618 2283 2522 2816 1798 2816 
C 1389 2816 1120 2606 941 2389 
L 941 2758 
L 474 2758 
L 474 0 
L 960 0 
L 960 1559 
C 960 1964 1114 2428 1549 2428 
C 2112 2428 2131 2048 2131 1829 
L 2131 0 
L 2618 0 
L 2618 1877 
z
" transform="scale(0.015625)"/>
       <path id="CMSS17-62" d="M 954 4416 
L 480 4416 
L 480 -13 
L 966 -13 
L 966 274 
C 1210 38 1504 -64 1766 -64 
C 2381 -64 2880 549 2880 1352 
C 2880 2086 2496 2756 1926 2756 
C 1523 2756 1165 2591 954 2419 
L 954 4416 
z
M 966 2046 
C 1107 2222 1306 2368 1587 2368 
C 1965 2368 2394 2097 2394 1352 
C 2394 558 1882 325 1530 325 
C 1402 325 1267 356 1139 464 
C 966 615 966 709 966 797 
L 966 2046 
z
" transform="scale(0.015625)"/>
       <path id="CMSS17-61" d="M 2406 1791 
C 2406 2392 1978 2808 1402 2808 
C 1120 2808 813 2757 461 2553 
L 499 2135 
C 659 2248 934 2432 1395 2432 
C 1722 2432 1920 2180 1920 1782 
L 1920 1536 
C 896 1536 256 1238 256 726 
C 256 461 416 -64 947 -64 
C 1043 -64 1562 -64 1933 217 
L 1933 -19 
L 2406 -19 
L 2406 1791 
z
M 1920 816 
C 1920 701 1920 548 1728 434 
C 1562 325 1350 325 1261 325 
C 941 325 723 511 723 744 
C 723 1211 1722 1211 1920 1211 
L 1920 816 
z
" transform="scale(0.015625)"/>
       <path id="CMSS17-73" d="M 2061 2627 
C 1683 2807 1389 2807 1197 2807 
C 742 2807 198 2648 198 2003 
C 198 1359 902 1218 1094 1179 
C 1389 1122 1715 1058 1715 740 
C 1715 337 1254 337 1171 337 
C 915 337 563 407 243 638 
L 166 210 
C 531 0 883 -64 1178 -64 
C 1965 -64 2163 416 2163 781 
C 2163 1094 1984 1305 1862 1401 
C 1651 1568 1574 1587 1050 1696 
C 960 1709 646 1779 646 2066 
C 646 2432 1050 2432 1139 2432 
C 1555 2432 1811 2303 1984 2208 
L 2061 2627 
z
" transform="scale(0.015625)"/>
       <path id="CMSS17-65" d="M 2502 1377 
C 2502 1590 2490 2003 2285 2345 
C 2061 2713 1696 2816 1421 2816 
C 755 2816 192 2188 192 1375 
C 192 582 774 -64 1510 -64 
C 1798 -64 2150 19 2470 248 
C 2470 274 2458 414 2451 420 
C 2451 433 2432 630 2432 656 
C 2125 407 1773 325 1517 325 
C 1107 325 666 667 646 1377 
L 2502 1377 
z
M 698 1728 
C 781 2084 1062 2421 1421 2421 
C 1517 2421 1965 2421 2080 1728 
L 698 1728 
z
" transform="scale(0.015625)"/>
       <path id="CMSS17-31" d="M 1818 4288 
L 1696 4288 
C 1350 3940 947 3890 538 3890 
L 538 3520 
C 723 3520 1024 3520 1325 3667 
L 1325 369 
L 570 369 
L 570 0 
L 2573 0 
L 2573 369 
L 1818 369 
L 1818 4288 
z
" transform="scale(0.015625)"/>
       <path id="CMSS17-30" d="M 2758 2044 
C 2758 2405 2752 3077 2490 3596 
C 2227 4096 1805 4229 1504 4229 
C 1069 4229 698 3975 506 3570 
C 301 3146 243 2709 243 2044 
C 243 1589 262 1031 493 543 
C 755 5 1197 -128 1498 -128 
C 1894 -128 2278 81 2496 518 
C 2720 974 2758 1474 2758 2044 
z
M 1498 261 
C 1011 261 864 811 819 995 
C 742 1310 730 1614 730 2114 
C 730 2506 730 2948 851 3297 
C 998 3701 1254 3840 1498 3840 
C 1971 3840 2125 3372 2176 3208 
C 2272 2873 2272 2481 2272 2114 
C 2272 1526 2272 261 1498 261 
z
" transform="scale(0.015625)"/>
      </defs>
      <use xlink:href="#CMBX12-62" transform="scale(0.996264)"/>
      <use xlink:href="#CMSS17-69" transform="translate(93.495613 0) scale(0.996264)"/>
      <use xlink:href="#CMSS17-6e" transform="translate(115.676336 0) scale(0.996264)"/>
      <use xlink:href="#CMSS17-62" transform="translate(195.110392 0) scale(0.996264)"/>
      <use xlink:href="#CMSS17-61" transform="translate(243.315335 0) scale(0.996264)"/>
      <use xlink:href="#CMSS17-73" transform="translate(288.237256 0) scale(0.996264)"/>
      <use xlink:href="#CMSS17-65" transform="translate(324.150798 0) scale(0.996264)"/>
      <use xlink:href="#CMSS17-31" transform="translate(397.018733 0) scale(0.996264)"/>
      <use xlink:href="#CMSS17-30" transform="translate(443.862356 0) scale(0.996264)"/>
     </g>
    </g>
   </g>
   <g id="matplotlib.axis_2">
    <g id="ytick_1">
     <g id="line2d_14">
      <defs>
       <path id="m4487ee7fa7" d="M 0 0 
L -3.5 0 
" style="stroke: #000000; stroke-width: 0.8"/>
      </defs>
      <g>
       <use xlink:href="#m4487ee7fa7" x="49.748198" y="326.686629" style="stroke: #000000; stroke-width: 0.8"/>
      </g>
     </g>
     <g id="text_9">
      <!-- $\mathdefault{20}$ -->
      <g transform="translate(27.140224 332.221423) scale(0.16 -0.16)">
       <use xlink:href="#CMR17-32" transform="scale(0.996264)"/>
       <use xlink:href="#CMR17-30" transform="translate(45.690477 0) scale(0.996264)"/>
      </g>
     </g>
    </g>
    <g id="ytick_2">
     <g id="line2d_15">
      <g>
       <use xlink:href="#m4487ee7fa7" x="49.748198" y="279.771496" style="stroke: #000000; stroke-width: 0.8"/>
      </g>
     </g>
     <g id="text_10">
      <!-- $\mathdefault{25}$ -->
      <g transform="translate(27.140224 285.30629) scale(0.16 -0.16)">
       <use xlink:href="#CMR17-32" transform="scale(0.996264)"/>
       <use xlink:href="#CMR17-35" transform="translate(45.690477 0) scale(0.996264)"/>
      </g>
     </g>
    </g>
    <g id="ytick_3">
     <g id="line2d_16">
      <g>
       <use xlink:href="#m4487ee7fa7" x="49.748198" y="232.856364" style="stroke: #000000; stroke-width: 0.8"/>
      </g>
     </g>
     <g id="text_11">
      <!-- $\mathdefault{30}$ -->
      <g transform="translate(27.140224 238.391158) scale(0.16 -0.16)">
       <use xlink:href="#CMR17-33" transform="scale(0.996264)"/>
       <use xlink:href="#CMR17-30" transform="translate(45.690477 0) scale(0.996264)"/>
      </g>
     </g>
    </g>
    <g id="ytick_4">
     <g id="line2d_17">
      <g>
       <use xlink:href="#m4487ee7fa7" x="49.748198" y="185.941231" style="stroke: #000000; stroke-width: 0.8"/>
      </g>
     </g>
     <g id="text_12">
      <!-- $\mathdefault{35}$ -->
      <g transform="translate(27.140224 191.476026) scale(0.16 -0.16)">
       <use xlink:href="#CMR17-33" transform="scale(0.996264)"/>
       <use xlink:href="#CMR17-35" transform="translate(45.690477 0) scale(0.996264)"/>
      </g>
     </g>
    </g>
    <g id="ytick_5">
     <g id="line2d_18">
      <g>
       <use xlink:href="#m4487ee7fa7" x="49.748198" y="139.026099" style="stroke: #000000; stroke-width: 0.8"/>
      </g>
     </g>
     <g id="text_13">
      <!-- $\mathdefault{40}$ -->
      <g transform="translate(27.140224 144.560893) scale(0.16 -0.16)">
       <use xlink:href="#CMR17-34" transform="scale(0.996264)"/>
       <use xlink:href="#CMR17-30" transform="translate(45.690477 0) scale(0.996264)"/>
      </g>
     </g>
    </g>
    <g id="ytick_6">
     <g id="line2d_19">
      <g>
       <use xlink:href="#m4487ee7fa7" x="49.748198" y="92.110967" style="stroke: #000000; stroke-width: 0.8"/>
      </g>
     </g>
     <g id="text_14">
      <!-- $\mathdefault{45}$ -->
      <g transform="translate(27.140224 97.645761) scale(0.16 -0.16)">
       <use xlink:href="#CMR17-34" transform="scale(0.996264)"/>
       <use xlink:href="#CMR17-35" transform="translate(45.690477 0) scale(0.996264)"/>
      </g>
     </g>
    </g>
    <g id="ytick_7">
     <g id="line2d_20">
      <g>
       <use xlink:href="#m4487ee7fa7" x="49.748198" y="45.195834" style="stroke: #000000; stroke-width: 0.8"/>
      </g>
     </g>
     <g id="text_15">
      <!-- $\mathdefault{50}$ -->
      <g transform="translate(27.140224 50.730628) scale(0.16 -0.16)">
       <use xlink:href="#CMR17-35" transform="scale(0.996264)"/>
       <use xlink:href="#CMR17-30" transform="translate(45.690477 0) scale(0.996264)"/>
      </g>
     </g>
    </g>
    <g id="text_16">
     <!-- $h(\mathbf{b})$ -->
     <g transform="translate(19.155168 189.063458) rotate(-90) scale(0.16 -0.16)">
      <defs>
       <path id="CMMI12-68" d="M 1798 4257 
C 1805 4283 1818 4321 1818 4352 
C 1818 4416 1754 4416 1741 4416 
C 1734 4416 1421 4388 1389 4380 
C 1280 4373 1184 4358 1069 4358 
C 909 4345 864 4339 864 4224 
C 864 4160 915 4160 1005 4160 
C 1318 4160 1325 4103 1325 4040 
C 1325 4002 1312 3951 1306 3932 
L 378 248 
C 352 152 352 140 352 101 
C 352 -38 461 -64 525 -64 
C 634 -64 717 19 749 89 
L 1037 1245 
C 1069 1386 1107 1520 1139 1660 
C 1210 1929 1210 1935 1331 2120 
C 1453 2305 1741 2689 2234 2689 
C 2490 2689 2579 2497 2579 2242 
C 2579 1884 2330 1188 2189 805 
C 2131 651 2099 568 2099 453 
C 2099 166 2298 -64 2605 -64 
C 3200 -64 3424 875 3424 913 
C 3424 945 3398 971 3360 971 
C 3302 971 3296 952 3264 843 
C 3117 332 2880 64 2624 64 
C 2560 64 2458 64 2458 269 
C 2458 436 2534 640 2560 710 
C 2675 1018 2963 1773 2963 2145 
C 2963 2528 2739 2816 2253 2816 
C 1888 2816 1568 2644 1306 2312 
L 1798 4257 
z
" transform="scale(0.015625)"/>
       <path id="CMR17-28" d="M 1958 -1561 
C 1958 -1555 1958 -1542 1939 -1523 
C 1645 -1224 858 -407 858 1581 
C 858 3569 1632 4379 1946 4697 
C 1946 4704 1958 4717 1958 4736 
C 1958 4755 1939 4768 1914 4768 
C 1843 4768 1299 4296 986 3594 
C 666 2887 576 2199 576 1588 
C 576 1128 621 351 1005 -471 
C 1312 -1135 1837 -1600 1914 -1600 
C 1946 -1600 1958 -1587 1958 -1561 
z
" transform="scale(0.015625)"/>
       <path id="CMR17-29" d="M 1683 1581 
C 1683 2040 1638 2817 1254 3639 
C 947 4303 422 4768 346 4768 
C 326 4768 301 4761 301 4729 
C 301 4717 307 4710 314 4697 
C 621 4378 1402 3568 1402 1584 
C 1402 -407 627 -1217 314 -1537 
C 307 -1549 301 -1556 301 -1568 
C 301 -1600 326 -1600 346 -1600 
C 416 -1600 960 -1128 1274 -426 
C 1594 281 1683 969 1683 1581 
z
" transform="scale(0.015625)"/>
      </defs>
      <use xlink:href="#CMMI12-68" transform="scale(0.996264)"/>
      <use xlink:href="#CMR17-28" transform="translate(56.154624 0) scale(0.996264)"/>
      <use xlink:href="#CMBX12-62" transform="translate(91.435392 0) scale(0.996264)"/>
      <use xlink:href="#CMR17-29" transform="translate(153.701892 0) scale(0.996264)"/>
     </g>
    </g>
   </g>
   <g id="line2d_21">
    <path d="M 75.111835 170.62846 
L 83.163783 180.823455 
L 91.215731 203.642193 
L 99.267679 206.949371 
L 107.319627 249.565588 
L 115.371575 249.759637 
L 123.423523 269.061899 
L 131.475471 262.36813 
L 139.527419 240.126144 
L 147.579367 239.249415 
L 155.631315 267.404988 
L 163.683263 259.640442 
L 171.735211 299.899259 
L 179.787159 289.021584 
L 187.839107 313.660681 
L 195.891055 295.895188 
L 203.943003 241.268708 
L 211.994951 246.653826 
L 220.046899 263.189178 
L 228.098848 261.686479 
L 236.150796 307.540178 
L 244.202744 302.92435 
L 252.254692 315.943226 
L 260.30664 304.439581 
L 268.358588 296.869672 
L 276.410536 291.183068 
L 284.462484 313.055254 
L 292.514432 300.480832 
L 300.56638 308.341447 
L 308.618328 324.72 
L 316.670276 295.180587 
L 324.722224 304.671322 
L 332.774172 304.671322 
L 340.82612 295.180587 
L 348.878068 324.72 
L 356.930016 308.341447 
L 364.981964 300.480832 
L 373.033912 313.055254 
L 381.085861 291.183068 
L 389.137809 296.869672 
L 397.189757 304.439581 
L 405.241705 315.943226 
L 413.293653 302.92435 
L 421.345601 307.540178 
L 429.397549 261.686479 
L 437.449497 263.189178 
L 445.501445 246.653826 
L 453.553393 241.268708 
L 461.605341 295.895188 
L 469.657289 313.660681 
L 477.709237 289.021584 
L 485.761185 299.899259 
L 493.813133 259.640442 
L 501.865081 267.404988 
L 509.917029 239.249415 
L 517.968977 240.126144 
L 526.020925 262.36813 
L 534.072873 269.061899 
L 542.124822 249.759637 
L 550.17677 249.565588 
L 558.228718 206.949371 
L 566.280666 203.642193 
L 574.332614 180.823455 
L 582.384562 170.62846 
" clip-path="url(#p776aed644e)" style="fill: none; stroke: #ff0000; stroke-width: 1.5; stroke-linecap: square"/>
   </g>
   <g id="line2d_22"/>
   <g id="patch_3">
    <path d="M 49.748198 339.84 
L 49.748198 7.2 
" style="fill: none; stroke: #000000; stroke-width: 0.8; stroke-linejoin: miter; stroke-linecap: square"/>
   </g>
   <g id="patch_4">
    <path d="M 607.748198 339.84 
L 607.748198 7.2 
" style="fill: none; stroke: #000000; stroke-width: 0.8; stroke-linejoin: miter; stroke-linecap: square"/>
   </g>
   <g id="patch_5">
    <path d="M 49.748198 339.84 
L 607.748198 339.84 
" style="fill: none; stroke: #000000; stroke-width: 0.8; stroke-linejoin: miter; stroke-linecap: square"/>
   </g>
   <g id="patch_6">
    <path d="M 49.748198 7.2 
L 607.748198 7.2 
" style="fill: none; stroke: #000000; stroke-width: 0.8; stroke-linejoin: miter; stroke-linecap: square"/>
   </g>
   <g id="line2d_23">
    <defs>
     <path id="m19c1b1c1c3" d="M 0 3 
C 0.795609 3 1.55874 2.683901 2.12132 2.12132 
C 2.683901 1.55874 3 0.795609 3 0 
C 3 -0.795609 2.683901 -1.55874 2.12132 -2.12132 
C 1.55874 -2.683901 0.795609 -3 0 -3 
C -0.795609 -3 -1.55874 -2.683901 -2.12132 -2.12132 
C -2.683901 -1.55874 -3 -0.795609 -3 0 
C -3 0.795609 -2.683901 1.55874 -2.12132 2.12132 
C -1.55874 2.683901 -0.795609 3 0 3 
z
" style="stroke: #94c4df"/>
    </defs>
    <g clip-path="url(#p776aed644e)">
     <use xlink:href="#m19c1b1c1c3" x="244.202744" y="164.479972" style="fill: #94c4df; stroke: #94c4df"/>
    </g>
   </g>
   <g id="line2d_24">
    <defs>
     <path id="m71f9780e6d" d="M 0 3 
C 0.795609 3 1.55874 2.683901 2.12132 2.12132 
C 2.683901 1.55874 3 0.795609 3 0 
C 3 -0.795609 2.683901 -1.55874 2.12132 -2.12132 
C 1.55874 -2.683901 0.795609 -3 0 -3 
C -0.795609 -3 -1.55874 -2.683901 -2.12132 -2.12132 
C -2.683901 -1.55874 -3 -0.795609 -3 0 
C -3 0.795609 -2.683901 1.55874 -2.12132 2.12132 
C -1.55874 2.683901 -0.795609 3 0 3 
z
" style="stroke: #64a9d3"/>
    </defs>
    <g clip-path="url(#p776aed644e)">
     <use xlink:href="#m71f9780e6d" x="244.202744" y="261.629036" style="fill: #64a9d3; stroke: #64a9d3"/>
    </g>
   </g>
   <g id="line2d_25">
    <defs>
     <path id="mda423c157f" d="M 0 3 
C 0.795609 3 1.55874 2.683901 2.12132 2.12132 
C 2.683901 1.55874 3 0.795609 3 0 
C 3 -0.795609 2.683901 -1.55874 2.12132 -2.12132 
C 1.55874 -2.683901 0.795609 -3 0 -3 
C -0.795609 -3 -1.55874 -2.683901 -2.12132 -2.12132 
C -2.683901 -1.55874 -3 -0.795609 -3 0 
C -3 0.795609 -2.683901 1.55874 -2.12132 2.12132 
C -1.55874 2.683901 -0.795609 3 0 3 
z
" style="stroke: #3e8ec4"/>
    </defs>
    <g clip-path="url(#p776aed644e)">
     <use xlink:href="#mda423c157f" x="244.202744" y="284.744456" style="fill: #3e8ec4; stroke: #3e8ec4"/>
    </g>
   </g>
   <g id="line2d_26">
    <defs>
     <path id="m2d0ab48258" d="M 0 3 
C 0.795609 3 1.55874 2.683901 2.12132 2.12132 
C 2.683901 1.55874 3 0.795609 3 0 
C 3 -0.795609 2.683901 -1.55874 2.12132 -2.12132 
C 1.55874 -2.683901 0.795609 -3 0 -3 
C -0.795609 -3 -1.55874 -2.683901 -2.12132 -2.12132 
C -2.683901 -1.55874 -3 -0.795609 -3 0 
C -3 0.795609 -2.683901 1.55874 -2.12132 2.12132 
C -1.55874 2.683901 -0.795609 3 0 3 
z
" style="stroke: #1f6eb3"/>
    </defs>
    <g clip-path="url(#p776aed644e)">
     <use xlink:href="#m2d0ab48258" x="244.202744" y="293.812331" style="fill: #1f6eb3; stroke: #1f6eb3"/>
    </g>
   </g>
   <g id="line2d_27">
    <defs>
     <path id="mcbf353d00d" d="M 0 3 
C 0.795609 3 1.55874 2.683901 2.12132 2.12132 
C 2.683901 1.55874 3 0.795609 3 0 
C 3 -0.795609 2.683901 -1.55874 2.12132 -2.12132 
C 1.55874 -2.683901 0.795609 -3 0 -3 
C -0.795609 -3 -1.55874 -2.683901 -2.12132 -2.12132 
C -2.683901 -1.55874 -3 -0.795609 -3 0 
C -3 0.795609 -2.683901 1.55874 -2.12132 2.12132 
C -1.55874 2.683901 -0.795609 3 0 3 
z
" style="stroke: #084f99"/>
    </defs>
    <g clip-path="url(#p776aed644e)">
     <use xlink:href="#mcbf353d00d" x="252.254692" y="298.933407" style="fill: #084f99; stroke: #084f99"/>
    </g>
   </g>
   <g id="line2d_28">
    <defs>
     <path id="m98ed25975f" d="M 0 3 
C 0.795609 3 1.55874 2.683901 2.12132 2.12132 
C 2.683901 1.55874 3 0.795609 3 0 
C 3 -0.795609 2.683901 -1.55874 2.12132 -2.12132 
C 1.55874 -2.683901 0.795609 -3 0 -3 
C -0.795609 -3 -1.55874 -2.683901 -2.12132 -2.12132 
C -2.683901 -1.55874 -3 -0.795609 -3 0 
C -3 0.795609 -2.683901 1.55874 -2.12132 2.12132 
C -1.55874 2.683901 -0.795609 3 0 3 
z
" style="stroke: #08306b"/>
    </defs>
    <g clip-path="url(#p776aed644e)">
     <use xlink:href="#m98ed25975f" x="308.618328" y="303.453663" style="fill: #08306b; stroke: #08306b"/>
    </g>
   </g>
   <g id="line2d_29">
    <defs>
     <path id="mc5919e28d3" d="M 0 3 
C 0.795609 3 1.55874 2.683901 2.12132 2.12132 
C 2.683901 1.55874 3 0.795609 3 0 
C 3 -0.795609 2.683901 -1.55874 2.12132 -2.12132 
C 1.55874 -2.683901 0.795609 -3 0 -3 
C -0.795609 -3 -1.55874 -2.683901 -2.12132 -2.12132 
C -2.683901 -1.55874 -3 -0.795609 -3 0 
C -3 0.795609 -2.683901 1.55874 -2.12132 2.12132 
C -1.55874 2.683901 -0.795609 3 0 3 
z
" style="stroke: #ff0000"/>
    </defs>
    <g clip-path="url(#p776aed644e)">
     <use xlink:href="#mc5919e28d3" x="308.618328" y="324.72" style="fill: #ff0000; stroke: #ff0000"/>
    </g>
   </g>
   <g id="legend_1">
    <g id="patch_7">
     <path d="M 618.948198 200.963923 
L 706.780891 200.963923 
Q 709.980891 200.963923 709.980891 197.763923 
L 709.980891 18.4 
Q 709.980891 15.2 706.780891 15.2 
L 618.948198 15.2 
Q 615.748198 15.2 615.748198 18.4 
L 615.748198 197.763923 
Q 615.748198 200.963923 618.948198 200.963923 
z
" style="fill: #ffffff; opacity: 0.8; stroke: #cccccc; stroke-linejoin: miter"/>
    </g>
    <g id="line2d_30">
     <g>
      <use xlink:href="#mc5919e28d3" x="638.148198" y="27.2" style="fill: #ff0000; stroke: #ff0000"/>
     </g>
    </g>
    <g id="text_17">
     <!-- $h_{\max}$ -->
     <g transform="translate(666.948198 32.8) scale(0.16 -0.16)">
      <defs>
       <path id="CMR17-6d" d="M 4326 1933 
C 4326 2252 4269 2790 3507 2790 
C 3072 2790 2771 2496 2656 2151 
L 2650 2151 
C 2573 2676 2195 2790 1837 2790 
C 1331 2790 1069 2400 973 2144 
L 966 2144 
L 966 2790 
L 211 2720 
L 211 2554 
C 589 2554 646 2515 646 2208 
L 646 428 
C 646 184 621 153 211 153 
L 211 -13 
C 365 0 646 0 813 0 
C 979 0 1267 0 1421 -13 
L 1421 153 
C 1011 153 986 178 986 428 
L 986 1658 
C 986 2247 1344 2688 1792 2688 
C 2266 2688 2317 2266 2317 1958 
L 2317 428 
C 2317 184 2291 153 1882 153 
L 1882 -13 
C 2035 0 2317 0 2483 0 
C 2650 0 2938 0 3091 -13 
L 3091 153 
C 2682 153 2656 178 2656 428 
L 2656 1658 
C 2656 2247 3014 2688 3462 2688 
C 3936 2688 3987 2266 3987 1958 
L 3987 428 
C 3987 184 3962 153 3552 153 
L 3552 -13 
C 3706 0 3987 0 4154 0 
C 4320 0 4608 0 4762 -13 
L 4762 153 
C 4352 153 4326 178 4326 428 
L 4326 1933 
z
" transform="scale(0.015625)"/>
       <path id="CMR17-61" d="M 2304 1653 
C 2304 2072 2304 2294 2035 2543 
C 1798 2752 1523 2816 1306 2816 
C 800 2816 435 2407 435 1971 
C 435 1728 627 1728 666 1728 
C 749 1728 896 1778 896 1954 
C 896 2112 774 2181 666 2181 
C 640 2181 608 2174 589 2168 
C 723 2592 1069 2714 1293 2714 
C 1613 2714 1965 2429 1965 1885 
L 1965 1600 
C 1587 1600 1133 1549 774 1357 
C 371 1133 256 813 256 570 
C 256 77 832 -64 1171 -64 
C 1523 -64 1850 139 1990 511 
C 2003 233 2182 -18 2464 -18 
C 2598 -18 2938 70 2938 567 
L 2938 920 
L 2822 920 
L 2822 562 
C 2822 178 2650 128 2566 128 
C 2304 128 2304 458 2304 738 
L 2304 1653 
z
M 1965 870 
C 1965 317 1568 38 1216 38 
C 896 38 646 275 646 570 
C 646 761 730 1100 1101 1305 
C 1408 1478 1760 1504 1965 1504 
L 1965 870 
z
" transform="scale(0.015625)"/>
       <path id="CMR17-78" d="M 1664 1477 
C 1856 1726 2074 2006 2253 2216 
C 2464 2458 2707 2560 2989 2560 
L 2989 2726 
C 2880 2726 2656 2726 2541 2726 
C 2368 2726 2170 2726 2022 2732 
L 2022 2566 
C 2112 2553 2163 2489 2163 2400 
C 2163 2285 2099 2215 2067 2171 
L 1594 1573 
L 1030 2306 
C 973 2376 973 2388 973 2420 
C 973 2497 1037 2560 1146 2560 
L 1146 2732 
C 992 2726 717 2726 557 2726 
C 384 2726 179 2726 38 2732 
L 38 2560 
C 384 2560 461 2534 614 2343 
L 1350 1395 
C 1363 1382 1395 1344 1395 1325 
C 1395 1299 838 619 768 530 
C 480 185 179 160 6 160 
L 6 0 
C 115 0 339 0 454 0 
C 582 0 864 0 979 -6 
L 979 160 
C 941 166 838 179 838 325 
C 838 440 890 510 947 586 
L 1478 1236 
L 2035 512 
C 2086 442 2163 346 2163 301 
C 2163 211 2086 160 1984 160 
L 1984 -6 
C 2138 0 2413 0 2573 0 
C 2746 0 2950 0 3091 -6 
L 3091 160 
C 2771 160 2675 172 2522 370 
L 1664 1477 
z
" transform="scale(0.015625)"/>
      </defs>
      <use xlink:href="#CMMI12-68" transform="scale(0.996264)"/>
      <use xlink:href="#CMR17-6d" transform="translate(56.154624 -14.943915) scale(0.697382)"/>
      <use xlink:href="#CMR17-61" transform="translate(109.998091 -14.943915) scale(0.697382)"/>
      <use xlink:href="#CMR17-78" transform="translate(141.981273 -14.943915) scale(0.697382)"/>
     </g>
    </g>
    <g id="line2d_31">
     <path d="M 622.148198 49.499476 
L 638.148198 49.499476 
L 654.148198 49.499476 
" style="fill: none; stroke: #000000; stroke-opacity: 0; stroke-width: 1.5; stroke-linecap: square"/>
    </g>
    <g id="text_18">
     <!-- $h_{(p)}$ -->
     <g transform="translate(656.948198 55.099476) scale(0.16 -0.16)">
      <defs>
       <path id="CMMI12-70" d="M 275 -789 
C 230 -980 205 -1031 -58 -1031 
C -134 -1031 -198 -1031 -198 -1152 
C -198 -1165 -192 -1216 -122 -1216 
C -38 -1216 51 -1216 134 -1216 
L 410 -1216 
C 544 -1216 870 -1216 1005 -1216 
C 1043 -1216 1120 -1216 1120 -1101 
C 1120 -1031 1075 -1031 966 -1031 
C 672 -1031 653 -987 653 -937 
C 653 -861 941 219 979 364 
C 1050 185 1222 -64 1555 -64 
C 2278 -64 3059 875 3059 1814 
C 3059 2401 2726 2816 2246 2816 
C 1837 2816 1491 2420 1421 2331 
C 1370 2650 1120 2816 864 2816 
C 678 2816 531 2727 410 2484 
C 294 2254 205 1865 205 1839 
C 205 1814 230 1782 275 1782 
C 326 1782 333 1788 371 1935 
C 467 2312 589 2689 845 2689 
C 992 2689 1043 2587 1043 2397 
C 1043 2245 1024 2181 998 2067 
L 275 -789 
z
M 1382 1993 
C 1427 2171 1606 2357 1709 2446 
C 1779 2510 1990 2689 2234 2689 
C 2515 2689 2643 2408 2643 2076 
C 2643 1769 2464 1047 2304 715 
C 2144 370 1850 64 1555 64 
C 1120 64 1050 613 1050 639 
C 1050 658 1062 709 1069 741 
L 1382 1993 
z
" transform="scale(0.015625)"/>
      </defs>
      <use xlink:href="#CMMI12-68" transform="scale(0.996264)"/>
      <use xlink:href="#CMR17-28" transform="translate(56.154624 -17.925121) scale(0.697382)"/>
      <use xlink:href="#CMMI12-70" transform="translate(80.851044 -17.925121) scale(0.697382)"/>
      <use xlink:href="#CMR17-29" transform="translate(115.122551 -17.925121) scale(0.697382)"/>
     </g>
    </g>
    <g id="line2d_32">
     <g>
      <use xlink:href="#m19c1b1c1c3" x="638.148198" y="74.367066" style="fill: #94c4df; stroke: #94c4df"/>
     </g>
    </g>
    <g id="text_19">
     <!-- $p=1$ -->
     <g transform="translate(666.948198 79.967066) scale(0.16 -0.16)">
      <defs>
       <path id="CMR17-3d" d="M 4115 2017 
C 4211 2017 4307 2017 4307 2125 
C 4307 2240 4198 2240 4090 2240 
L 512 2240 
C 403 2240 294 2240 294 2125 
C 294 2017 390 2017 486 2017 
L 4115 2017 
z
M 4090 896 
C 4198 896 4307 896 4307 1011 
C 4307 1119 4211 1119 4115 1119 
L 486 1119 
C 390 1119 294 1119 294 1011 
C 294 896 403 896 512 896 
L 4090 896 
z
" transform="scale(0.015625)"/>
      </defs>
      <use xlink:href="#CMMI12-70" transform="scale(0.996264)"/>
      <use xlink:href="#CMR17-3d" transform="translate(76.633523 0) scale(0.996264)"/>
      <use xlink:href="#CMR17-31" transform="translate(176.02232 0) scale(0.996264)"/>
     </g>
    </g>
    <g id="line2d_33">
     <g>
      <use xlink:href="#m71f9780e6d" x="638.148198" y="96.666542" style="fill: #64a9d3; stroke: #64a9d3"/>
     </g>
    </g>
    <g id="text_20">
     <!-- $p=2$ -->
     <g transform="translate(666.948198 102.266542) scale(0.16 -0.16)">
      <use xlink:href="#CMMI12-70" transform="scale(0.996264)"/>
      <use xlink:href="#CMR17-3d" transform="translate(76.633523 0) scale(0.996264)"/>
      <use xlink:href="#CMR17-32" transform="translate(176.02232 0) scale(0.996264)"/>
     </g>
    </g>
    <g id="line2d_34">
     <g>
      <use xlink:href="#mda423c157f" x="638.148198" y="118.966018" style="fill: #3e8ec4; stroke: #3e8ec4"/>
     </g>
    </g>
    <g id="text_21">
     <!-- $p=3$ -->
     <g transform="translate(666.948198 124.566018) scale(0.16 -0.16)">
      <use xlink:href="#CMMI12-70" transform="scale(0.996264)"/>
      <use xlink:href="#CMR17-3d" transform="translate(76.633523 0) scale(0.996264)"/>
      <use xlink:href="#CMR17-33" transform="translate(176.02232 0) scale(0.996264)"/>
     </g>
    </g>
    <g id="line2d_35">
     <g>
      <use xlink:href="#m2d0ab48258" x="638.148198" y="141.265494" style="fill: #1f6eb3; stroke: #1f6eb3"/>
     </g>
    </g>
    <g id="text_22">
     <!-- $p=4$ -->
     <g transform="translate(666.948198 146.865494) scale(0.16 -0.16)">
      <use xlink:href="#CMMI12-70" transform="scale(0.996264)"/>
      <use xlink:href="#CMR17-3d" transform="translate(76.633523 0) scale(0.996264)"/>
      <use xlink:href="#CMR17-34" transform="translate(176.02232 0) scale(0.996264)"/>
     </g>
    </g>
    <g id="line2d_36">
     <g>
      <use xlink:href="#mcbf353d00d" x="638.148198" y="163.56497" style="fill: #084f99; stroke: #084f99"/>
     </g>
    </g>
    <g id="text_23">
     <!-- $p=5$ -->
     <g transform="translate(666.948198 169.16497) scale(0.16 -0.16)">
      <use xlink:href="#CMMI12-70" transform="scale(0.996264)"/>
      <use xlink:href="#CMR17-3d" transform="translate(76.633523 0) scale(0.996264)"/>
      <use xlink:href="#CMR17-35" transform="translate(176.02232 0) scale(0.996264)"/>
     </g>
    </g>
    <g id="line2d_37">
     <g>
      <use xlink:href="#m98ed25975f" x="638.148198" y="185.864447" style="fill: #08306b; stroke: #08306b"/>
     </g>
    </g>
    <g id="text_24">
     <!-- $p=6$ -->
     <g transform="translate(666.948198 191.464447) scale(0.16 -0.16)">
      <use xlink:href="#CMMI12-70" transform="scale(0.996264)"/>
      <use xlink:href="#CMR17-3d" transform="translate(76.633523 0) scale(0.996264)"/>
      <use xlink:href="#CMR17-36" transform="translate(176.02232 0) scale(0.996264)"/>
     </g>
    </g>
   </g>
  </g>
 </g>
 <defs>
  <clipPath id="p776aed644e">
   <rect x="49.748198" y="7.2" width="558" height="332.64"/>
  </clipPath>
 </defs>
</svg>
