<?xml version="1.0" encoding="utf-8" standalone="no"?>
<!DOCTYPE svg PUBLIC "-//W3C//DTD SVG 1.1//EN"
  "http://www.w3.org/Graphics/SVG/1.1/DTD/svg11.dtd">
<svg xmlns:xlink="http://www.w3.org/1999/xlink" width="617.512587pt" height="386.378129pt" viewBox="0 0 617.512587 386.378129" xmlns="http://www.w3.org/2000/svg" version="1.1">
 <metadata>
  <rdf:RDF xmlns:dc="http://purl.org/dc/elements/1.1/" xmlns:cc="http://creativecommons.org/ns#" xmlns:rdf="http://www.w3.org/1999/02/22-rdf-syntax-ns#">
   <cc:Work>
    <dc:type rdf:resource="http://purl.org/dc/dcmitype/StillImage"/>
    <dc:date>2025-10-15T19:47:30.879565</dc:date>
    <dc:format>image/svg+xml</dc:format>
    <dc:creator>
     <cc:Agent>
      <dc:title>Matplotlib v3.10.6, https://matplotlib.org/</dc:title>
     </cc:Agent>
    </dc:creator>
   </cc:Work>
  </rdf:RDF>
 </metadata>
 <defs>
  <style type="text/css">*{stroke-linejoin: round; stroke-linecap: butt}</style>
 </defs>
 <g id="figure_1">
  <g id="patch_1">
   <path d="M 0 386.378129 
L 617.512587 386.378129 
L 617.512587 0 
L 0 0 
z
" style="fill: #ffffff"/>
  </g>
  <g id="axes_1">
   <g id="patch_2">
    <path d="M 52.312587 339.84 
L 610.312587 339.84 
L 610.312587 7.2 
L 52.312587 7.2 
z
" style="fill: #ffffff"/>
   </g>
   <g id="matplotlib.axis_1">
    <g id="xtick_1">
     <g id="line2d_1">
      <path d="M 77.676223 339.84 
L 77.676223 7.2 
" clip-path="url(#p05501a7a88)" style="fill: none; stroke: #b0b0b0; stroke-width: 0.8; stroke-linecap: square"/>
     </g>
     <g id="line2d_2">
      <defs>
       <path id="mf7e2aa47f4" d="M 0 0 
L 0 3.5 
" style="stroke: #000000; stroke-width: 0.8"/>
      </defs>
      <g>
       <use xlink:href="#mf7e2aa47f4" x="77.676223" y="339.84" style="stroke: #000000; stroke-width: 0.8"/>
      </g>
     </g>
     <g id="text_1">
      <!-- $\mathdefault{0}$ -->
      <g transform="translate(73.77423 357.909588) scale(0.16 -0.16)">
       <defs>
        <path id="CMR17-30" d="M 2688 2025 
C 2688 2416 2682 3080 2413 3591 
C 2176 4039 1798 4198 1466 4198 
C 1158 4198 768 4058 525 3597 
C 269 3118 243 2524 243 2025 
C 243 1661 250 1106 448 619 
C 723 -39 1216 -128 1466 -128 
C 1760 -128 2208 -7 2470 600 
C 2662 1042 2688 1559 2688 2025 
z
M 1466 -26 
C 1056 -26 813 325 723 812 
C 653 1188 653 1738 653 2096 
C 653 2588 653 2997 736 3387 
C 858 3929 1216 4096 1466 4096 
C 1728 4096 2067 3923 2189 3400 
C 2272 3036 2278 2607 2278 2096 
C 2278 1680 2278 1169 2202 792 
C 2067 95 1690 -26 1466 -26 
z
" transform="scale(0.015625)"/>
       </defs>
       <use xlink:href="#CMR17-30" transform="scale(0.996264)"/>
      </g>
     </g>
    </g>
    <g id="xtick_2">
     <g id="line2d_3">
      <path d="M 178.126268 339.84 
L 178.126268 7.2 
" clip-path="url(#p05501a7a88)" style="fill: none; stroke: #b0b0b0; stroke-width: 0.8; stroke-linecap: square"/>
     </g>
     <g id="line2d_4">
      <g>
       <use xlink:href="#mf7e2aa47f4" x="178.126268" y="339.84" style="stroke: #000000; stroke-width: 0.8"/>
      </g>
     </g>
     <g id="text_2">
      <!-- $\mathdefault{20}$ -->
      <g transform="translate(170.322281 357.909588) scale(0.16 -0.16)">
       <defs>
        <path id="CMR17-32" d="M 2669 989 
L 2554 989 
C 2490 536 2438 459 2413 420 
C 2381 369 1920 369 1830 369 
L 602 369 
C 832 619 1280 1072 1824 1597 
C 2214 1967 2669 2402 2669 3035 
C 2669 3790 2067 4224 1395 4224 
C 691 4224 262 3604 262 3030 
C 262 2780 448 2748 525 2748 
C 589 2748 781 2787 781 3010 
C 781 3207 614 3264 525 3264 
C 486 3264 448 3258 422 3245 
C 544 3790 915 4058 1306 4058 
C 1862 4058 2227 3617 2227 3035 
C 2227 2479 1901 2000 1536 1584 
L 262 146 
L 262 0 
L 2515 0 
L 2669 989 
z
" transform="scale(0.015625)"/>
       </defs>
       <use xlink:href="#CMR17-32" transform="scale(0.996264)"/>
       <use xlink:href="#CMR17-30" transform="translate(45.690477 0) scale(0.996264)"/>
      </g>
     </g>
    </g>
    <g id="xtick_3">
     <g id="line2d_5">
      <path d="M 278.576313 339.84 
L 278.576313 7.2 
" clip-path="url(#p05501a7a88)" style="fill: none; stroke: #b0b0b0; stroke-width: 0.8; stroke-linecap: square"/>
     </g>
     <g id="line2d_6">
      <g>
       <use xlink:href="#mf7e2aa47f4" x="278.576313" y="339.84" style="stroke: #000000; stroke-width: 0.8"/>
      </g>
     </g>
     <g id="text_3">
      <!-- $\mathdefault{40}$ -->
      <g transform="translate(270.772326 357.909588) scale(0.16 -0.16)">
       <defs>
        <path id="CMR17-34" d="M 2150 4122 
C 2150 4256 2144 4256 2029 4256 
L 128 1254 
L 128 1088 
L 1779 1088 
L 1779 457 
C 1779 224 1766 160 1318 160 
L 1197 160 
L 1197 0 
C 1402 0 1747 0 1965 0 
C 2182 0 2528 0 2733 0 
L 2733 160 
L 2611 160 
C 2163 160 2150 224 2150 457 
L 2150 1088 
L 2803 1088 
L 2803 1254 
L 2150 1254 
L 2150 4122 
z
M 1798 3703 
L 1798 1254 
L 256 1254 
L 1798 3703 
z
" transform="scale(0.015625)"/>
       </defs>
       <use xlink:href="#CMR17-34" transform="scale(0.996264)"/>
       <use xlink:href="#CMR17-30" transform="translate(45.690477 0) scale(0.996264)"/>
      </g>
     </g>
    </g>
    <g id="xtick_4">
     <g id="line2d_7">
      <path d="M 379.026358 339.84 
L 379.026358 7.2 
" clip-path="url(#p05501a7a88)" style="fill: none; stroke: #b0b0b0; stroke-width: 0.8; stroke-linecap: square"/>
     </g>
     <g id="line2d_8">
      <g>
       <use xlink:href="#mf7e2aa47f4" x="379.026358" y="339.84" style="stroke: #000000; stroke-width: 0.8"/>
      </g>
     </g>
     <g id="text_4">
      <!-- $\mathdefault{60}$ -->
      <g transform="translate(371.222371 357.909588) scale(0.16 -0.16)">
       <defs>
        <path id="CMR17-36" d="M 678 2176 
C 678 3690 1395 4032 1811 4032 
C 1946 4032 2272 4009 2400 3776 
C 2298 3776 2106 3776 2106 3553 
C 2106 3381 2246 3323 2336 3323 
C 2394 3323 2566 3348 2566 3560 
C 2566 3954 2246 4179 1805 4179 
C 1043 4179 243 3390 243 1984 
C 243 253 966 -128 1478 -128 
C 2099 -128 2688 427 2688 1283 
C 2688 2081 2170 2662 1517 2662 
C 1126 2662 838 2407 678 1960 
L 678 2176 
z
M 1478 25 
C 691 25 691 1200 691 1436 
C 691 1896 909 2560 1504 2560 
C 1613 2560 1926 2560 2138 2120 
C 2253 1870 2253 1609 2253 1289 
C 2253 944 2253 690 2118 434 
C 1978 171 1773 25 1478 25 
z
" transform="scale(0.015625)"/>
       </defs>
       <use xlink:href="#CMR17-36" transform="scale(0.996264)"/>
       <use xlink:href="#CMR17-30" transform="translate(45.690477 0) scale(0.996264)"/>
      </g>
     </g>
    </g>
    <g id="xtick_5">
     <g id="line2d_9">
      <path d="M 479.476403 339.84 
L 479.476403 7.2 
" clip-path="url(#p05501a7a88)" style="fill: none; stroke: #b0b0b0; stroke-width: 0.8; stroke-linecap: square"/>
     </g>
     <g id="line2d_10">
      <g>
       <use xlink:href="#mf7e2aa47f4" x="479.476403" y="339.84" style="stroke: #000000; stroke-width: 0.8"/>
      </g>
     </g>
     <g id="text_5">
      <!-- $\mathdefault{80}$ -->
      <g transform="translate(471.672416 357.909588) scale(0.16 -0.16)">
       <defs>
        <path id="CMR17-38" d="M 1741 2264 
C 2144 2467 2554 2773 2554 3263 
C 2554 3841 1990 4179 1472 4179 
C 890 4179 378 3759 378 3180 
C 378 3021 416 2747 666 2505 
C 730 2442 998 2251 1171 2130 
C 883 1983 211 1634 211 934 
C 211 279 838 -128 1459 -128 
C 2144 -128 2720 362 2720 1010 
C 2720 1590 2330 1857 2074 2029 
L 1741 2264 
z
M 902 2822 
C 851 2854 595 3051 595 3351 
C 595 3739 998 4032 1459 4032 
C 1965 4032 2336 3676 2336 3262 
C 2336 2669 1670 2331 1638 2331 
C 1632 2331 1626 2331 1574 2370 
L 902 2822 
z
M 2080 1519 
C 2176 1449 2483 1240 2483 851 
C 2483 381 2010 25 1472 25 
C 890 25 448 438 448 940 
C 448 1443 838 1862 1280 2060 
L 2080 1519 
z
" transform="scale(0.015625)"/>
       </defs>
       <use xlink:href="#CMR17-38" transform="scale(0.996264)"/>
       <use xlink:href="#CMR17-30" transform="translate(45.690477 0) scale(0.996264)"/>
      </g>
     </g>
    </g>
    <g id="xtick_6">
     <g id="line2d_11">
      <path d="M 579.926448 339.84 
L 579.926448 7.2 
" clip-path="url(#p05501a7a88)" style="fill: none; stroke: #b0b0b0; stroke-width: 0.8; stroke-linecap: square"/>
     </g>
     <g id="line2d_12">
      <g>
       <use xlink:href="#mf7e2aa47f4" x="579.926448" y="339.84" style="stroke: #000000; stroke-width: 0.8"/>
      </g>
     </g>
     <g id="text_6">
      <!-- $\mathdefault{100}$ -->
      <g transform="translate(568.220468 357.909588) scale(0.16 -0.16)">
       <defs>
        <path id="CMR17-31" d="M 1702 4058 
C 1702 4192 1696 4192 1606 4192 
C 1357 3916 979 3827 621 3827 
C 602 3827 570 3827 563 3808 
C 557 3795 557 3782 557 3648 
C 755 3648 1088 3686 1344 3839 
L 1344 461 
C 1344 236 1331 160 781 160 
L 589 160 
L 589 0 
C 896 0 1216 0 1523 0 
C 1830 0 2150 0 2458 0 
L 2458 160 
L 2266 160 
C 1715 160 1702 230 1702 458 
L 1702 4058 
z
" transform="scale(0.015625)"/>
       </defs>
       <use xlink:href="#CMR17-31" transform="scale(0.996264)"/>
       <use xlink:href="#CMR17-30" transform="translate(45.690477 0) scale(0.996264)"/>
       <use xlink:href="#CMR17-30" transform="translate(91.380954 0) scale(0.996264)"/>
      </g>
     </g>
    </g>
    <g id="text_7">
     <!-- $p$ -->
     <g transform="translate(327.395825 376.078653) scale(0.16 -0.16)">
      <defs>
       <path id="CMMI12-70" d="M 275 -789 
C 230 -980 205 -1031 -58 -1031 
C -134 -1031 -198 -1031 -198 -1152 
C -198 -1165 -192 -1216 -122 -1216 
C -38 -1216 51 -1216 134 -1216 
L 410 -1216 
C 544 -1216 870 -1216 1005 -1216 
C 1043 -1216 1120 -1216 1120 -1101 
C 1120 -1031 1075 -1031 966 -1031 
C 672 -1031 653 -987 653 -937 
C 653 -861 941 219 979 364 
C 1050 185 1222 -64 1555 -64 
C 2278 -64 3059 875 3059 1814 
C 3059 2401 2726 2816 2246 2816 
C 1837 2816 1491 2420 1421 2331 
C 1370 2650 1120 2816 864 2816 
C 678 2816 531 2727 410 2484 
C 294 2254 205 1865 205 1839 
C 205 1814 230 1782 275 1782 
C 326 1782 333 1788 371 1935 
C 467 2312 589 2689 845 2689 
C 992 2689 1043 2587 1043 2397 
C 1043 2245 1024 2181 998 2067 
L 275 -789 
z
M 1382 1993 
C 1427 2171 1606 2357 1709 2446 
C 1779 2510 1990 2689 2234 2689 
C 2515 2689 2643 2408 2643 2076 
C 2643 1769 2464 1047 2304 715 
C 2144 370 1850 64 1555 64 
C 1120 64 1050 613 1050 639 
C 1050 658 1062 709 1069 741 
L 1382 1993 
z
" transform="scale(0.015625)"/>
      </defs>
      <use xlink:href="#CMMI12-70" transform="scale(0.996264)"/>
     </g>
    </g>
   </g>
   <g id="matplotlib.axis_2">
    <g id="ytick_1">
     <g id="line2d_13">
      <path d="M 52.312587 327.648113 
L 610.312587 327.648113 
" clip-path="url(#p05501a7a88)" style="fill: none; stroke: #b0b0b0; stroke-width: 0.8; stroke-linecap: square"/>
     </g>
     <g id="line2d_14">
      <defs>
       <path id="m33b3773564" d="M 0 0 
L -3.5 0 
" style="stroke: #000000; stroke-width: 0.8"/>
      </defs>
      <g>
       <use xlink:href="#m33b3773564" x="52.312587" y="327.648113" style="stroke: #000000; stroke-width: 0.8"/>
      </g>
     </g>
     <g id="text_8">
      <!-- $\mathdefault{0.0}$ -->
      <g transform="translate(25.369064 333.182907) scale(0.16 -0.16)">
       <defs>
        <path id="CMMI12-3a" d="M 1178 307 
C 1178 492 1024 619 870 619 
C 685 619 557 466 557 313 
C 557 128 710 0 864 0 
C 1050 0 1178 153 1178 307 
z
" transform="scale(0.015625)"/>
       </defs>
       <use xlink:href="#CMR17-30" transform="scale(0.996264)"/>
       <use xlink:href="#CMMI12-3a" transform="translate(45.690477 0) scale(0.996264)"/>
       <use xlink:href="#CMR17-30" transform="translate(72.787654 0) scale(0.996264)"/>
      </g>
     </g>
    </g>
    <g id="ytick_2">
     <g id="line2d_15">
      <path d="M 52.312587 266.157745 
L 610.312587 266.157745 
" clip-path="url(#p05501a7a88)" style="fill: none; stroke: #b0b0b0; stroke-width: 0.8; stroke-linecap: square"/>
     </g>
     <g id="line2d_16">
      <g>
       <use xlink:href="#m33b3773564" x="52.312587" y="266.157745" style="stroke: #000000; stroke-width: 0.8"/>
      </g>
     </g>
     <g id="text_9">
      <!-- $\mathdefault{0.2}$ -->
      <g transform="translate(25.369064 271.692539) scale(0.16 -0.16)">
       <use xlink:href="#CMR17-30" transform="scale(0.996264)"/>
       <use xlink:href="#CMMI12-3a" transform="translate(45.690477 0) scale(0.996264)"/>
       <use xlink:href="#CMR17-32" transform="translate(72.787654 0) scale(0.996264)"/>
      </g>
     </g>
    </g>
    <g id="ytick_3">
     <g id="line2d_17">
      <path d="M 52.312587 204.667378 
L 610.312587 204.667378 
" clip-path="url(#p05501a7a88)" style="fill: none; stroke: #b0b0b0; stroke-width: 0.8; stroke-linecap: square"/>
     </g>
     <g id="line2d_18">
      <g>
       <use xlink:href="#m33b3773564" x="52.312587" y="204.667378" style="stroke: #000000; stroke-width: 0.8"/>
      </g>
     </g>
     <g id="text_10">
      <!-- $\mathdefault{0.4}$ -->
      <g transform="translate(25.369064 210.202172) scale(0.16 -0.16)">
       <use xlink:href="#CMR17-30" transform="scale(0.996264)"/>
       <use xlink:href="#CMMI12-3a" transform="translate(45.690477 0) scale(0.996264)"/>
       <use xlink:href="#CMR17-34" transform="translate(72.787654 0) scale(0.996264)"/>
      </g>
     </g>
    </g>
    <g id="ytick_4">
     <g id="line2d_19">
      <path d="M 52.312587 143.17701 
L 610.312587 143.17701 
" clip-path="url(#p05501a7a88)" style="fill: none; stroke: #b0b0b0; stroke-width: 0.8; stroke-linecap: square"/>
     </g>
     <g id="line2d_20">
      <g>
       <use xlink:href="#m33b3773564" x="52.312587" y="143.17701" style="stroke: #000000; stroke-width: 0.8"/>
      </g>
     </g>
     <g id="text_11">
      <!-- $\mathdefault{0.6}$ -->
      <g transform="translate(25.369064 148.711804) scale(0.16 -0.16)">
       <use xlink:href="#CMR17-30" transform="scale(0.996264)"/>
       <use xlink:href="#CMMI12-3a" transform="translate(45.690477 0) scale(0.996264)"/>
       <use xlink:href="#CMR17-36" transform="translate(72.787654 0) scale(0.996264)"/>
      </g>
     </g>
    </g>
    <g id="ytick_5">
     <g id="line2d_21">
      <path d="M 52.312587 81.686643 
L 610.312587 81.686643 
" clip-path="url(#p05501a7a88)" style="fill: none; stroke: #b0b0b0; stroke-width: 0.8; stroke-linecap: square"/>
     </g>
     <g id="line2d_22">
      <g>
       <use xlink:href="#m33b3773564" x="52.312587" y="81.686643" style="stroke: #000000; stroke-width: 0.8"/>
      </g>
     </g>
     <g id="text_12">
      <!-- $\mathdefault{0.8}$ -->
      <g transform="translate(25.369064 87.221437) scale(0.16 -0.16)">
       <use xlink:href="#CMR17-30" transform="scale(0.996264)"/>
       <use xlink:href="#CMMI12-3a" transform="translate(45.690477 0) scale(0.996264)"/>
       <use xlink:href="#CMR17-38" transform="translate(72.787654 0) scale(0.996264)"/>
      </g>
     </g>
    </g>
    <g id="ytick_6">
     <g id="line2d_23">
      <path d="M 52.312587 20.196275 
L 610.312587 20.196275 
" clip-path="url(#p05501a7a88)" style="fill: none; stroke: #b0b0b0; stroke-width: 0.8; stroke-linecap: square"/>
     </g>
     <g id="line2d_24">
      <g>
       <use xlink:href="#m33b3773564" x="52.312587" y="20.196275" style="stroke: #000000; stroke-width: 0.8"/>
      </g>
     </g>
     <g id="text_13">
      <!-- $\mathdefault{1.0}$ -->
      <g transform="translate(25.369064 25.731069) scale(0.16 -0.16)">
       <use xlink:href="#CMR17-31" transform="scale(0.996264)"/>
       <use xlink:href="#CMMI12-3a" transform="translate(45.690477 0) scale(0.996264)"/>
       <use xlink:href="#CMR17-30" transform="translate(72.787654 0) scale(0.996264)"/>
      </g>
     </g>
    </g>
    <g id="text_14">
     <!-- $M^{-1/p}$ -->
     <g transform="translate(18.269588 194.627713) rotate(-90) scale(0.16 -0.16)">
      <defs>
       <path id="CMMI12-4d" d="M 5811 3886 
C 5869 4103 5882 4167 6336 4167 
C 6458 4167 6515 4167 6515 4288 
C 6515 4352 6470 4352 6349 4352 
L 5581 4352 
C 5421 4352 5414 4346 5344 4243 
L 3008 562 
L 2528 4211 
C 2509 4352 2502 4352 2336 4352 
L 1542 4352 
C 1421 4352 1363 4352 1363 4231 
C 1363 4167 1421 4167 1517 4167 
C 1907 4167 1907 4116 1907 4046 
C 1907 4034 1907 3995 1882 3899 
L 1062 634 
C 986 327 838 186 410 186 
C 390 186 314 186 314 73 
C 314 0 371 0 397 0 
C 525 0 851 0 979 0 
L 1286 0 
C 1376 0 1485 0 1574 0 
C 1619 0 1690 0 1690 122 
C 1690 180 1626 186 1600 186 
C 1389 186 1184 224 1184 454 
C 1184 518 1184 524 1210 613 
L 2093 4129 
L 2099 4129 
L 2630 172 
C 2650 19 2656 0 2714 0 
C 2784 0 2816 51 2848 109 
L 5421 4161 
L 5427 4161 
L 4499 473 
C 4442 250 4429 186 3981 186 
C 3859 186 3795 186 3795 70 
C 3795 0 3853 0 3891 0 
C 4000 0 4128 0 4237 0 
L 4992 0 
C 5101 0 5235 0 5344 0 
C 5395 0 5466 0 5466 122 
C 5466 186 5408 186 5312 186 
C 4922 186 4922 234 4922 294 
C 4922 301 4922 345 4934 396 
L 5811 3886 
z
" transform="scale(0.015625)"/>
       <path id="CMSY10-0" d="M 4218 1472 
C 4326 1472 4442 1472 4442 1600 
C 4442 1728 4326 1728 4218 1728 
L 755 1728 
C 646 1728 531 1728 531 1600 
C 531 1472 646 1472 755 1472 
L 4218 1472 
z
" transform="scale(0.015625)"/>
       <path id="CMMI12-3d" d="M 2746 4562 
C 2746 4569 2784 4666 2784 4678 
C 2784 4755 2720 4800 2669 4800 
C 2637 4800 2579 4800 2528 4659 
L 384 -1363 
C 384 -1370 346 -1465 346 -1478 
C 346 -1555 410 -1600 461 -1600 
C 499 -1600 557 -1593 602 -1459 
L 2746 4562 
z
" transform="scale(0.015625)"/>
      </defs>
      <use xlink:href="#CMMI12-4d" transform="scale(0.996264)"/>
      <use xlink:href="#CMSY10-0" transform="translate(104.780079 36.153639) scale(0.697382)"/>
      <use xlink:href="#CMR17-31" transform="translate(159.021072 36.153639) scale(0.697382)"/>
      <use xlink:href="#CMMI12-3d" transform="translate(191.004254 36.153639) scale(0.697382)"/>
      <use xlink:href="#CMMI12-70" transform="translate(225.146545 36.153639) scale(0.697382)"/>
     </g>
    </g>
   </g>
   <g id="line2d_25">
    <path d="M 82.698725 173.922194 
L 87.671003 110.625125 
L 92.64328 84.001535 
L 97.615557 69.451288 
L 102.587834 60.294805 
L 107.560112 54.005444 
L 112.532389 49.419998 
L 117.504666 45.929082 
L 122.476943 43.182787 
L 127.44922 40.965928 
L 132.421498 39.138915 
L 137.393775 37.607256 
L 142.366052 36.304703 
L 147.338329 35.183439 
L 152.310607 34.208085 
L 157.282884 33.351906 
L 162.255161 32.594319 
L 167.227438 31.919224 
L 172.199716 31.313845 
L 177.171993 30.767913 
L 182.14427 30.273084 
L 187.116547 29.822502 
L 192.088824 29.410488 
L 197.061102 29.032294 
L 202.033379 28.683919 
L 207.005656 28.361971 
L 211.977933 28.063553 
L 216.950211 27.786176 
L 221.922488 27.527691 
L 226.894765 27.286232 
L 231.867042 27.06017 
L 236.83932 26.848078 
L 241.811597 26.648699 
L 246.783874 26.460925 
L 251.756151 26.28377 
L 256.728428 26.116359 
L 261.700706 25.957908 
L 266.672983 25.807719 
L 271.64526 25.66516 
L 276.617537 25.529665 
L 281.589815 25.400721 
L 286.562092 25.277865 
L 291.534369 25.160676 
L 296.506646 25.048769 
L 301.478923 24.941797 
L 306.451201 24.839438 
L 311.423478 24.741403 
L 316.395755 24.647421 
L 321.368032 24.557247 
L 326.34031 24.470655 
L 331.312587 24.387434 
L 336.284864 24.307391 
L 341.257141 24.230349 
L 346.229419 24.156141 
L 351.201696 24.084614 
L 356.173973 24.015625 
L 361.14625 23.949041 
L 366.118527 23.884739 
L 371.090805 23.822603 
L 376.063082 23.762527 
L 381.035359 23.704408 
L 386.007636 23.648153 
L 390.979914 23.593674 
L 395.952191 23.540888 
L 400.924468 23.489717 
L 405.896745 23.440088 
L 410.869022 23.391932 
L 415.8413 23.345186 
L 420.813577 23.299787 
L 425.785854 23.255679 
L 430.758131 23.212807 
L 435.730409 23.17112 
L 440.702686 23.130569 
L 445.674963 23.091109 
L 450.64724 23.052697 
L 455.619518 23.01529 
L 460.591795 22.97885 
L 465.564072 22.943341 
L 470.536349 22.908726 
L 475.508626 22.874973 
L 480.480904 22.842049 
L 485.453181 22.809925 
L 490.425458 22.778572 
L 495.397735 22.747962 
L 500.370013 22.718069 
L 505.34229 22.688869 
L 510.314567 22.660336 
L 515.286844 22.63245 
L 520.259121 22.605188 
L 525.231399 22.578529 
L 530.203676 22.552454 
L 535.175953 22.526944 
L 540.14823 22.50198 
L 545.120508 22.477545 
L 550.092785 22.453622 
L 555.065062 22.430196 
L 560.037339 22.407252 
L 565.009617 22.384773 
L 569.981894 22.362748 
L 574.954171 22.341161 
L 579.926448 22.32 
" clip-path="url(#p05501a7a88)" style="fill: none; stroke: #94c4df; stroke-width: 1.5; stroke-linecap: square"/>
   </g>
   <g id="line2d_26">
    <path d="M 82.698725 250.785153 
L 87.671003 174.456713 
L 92.64328 134.565335 
L 97.615557 110.81545 
L 102.587834 95.163598 
L 107.560112 84.096763 
L 112.532389 75.865965 
L 117.504666 69.508129 
L 122.476943 64.450723 
L 127.44922 60.332503 
L 132.421498 56.914467 
L 137.393775 54.032254 
L 142.366052 51.569156 
L 147.338329 49.440032 
L 152.310607 47.581321 
L 157.282884 45.944617 
L 162.255161 44.49241 
L 167.227438 43.195185 
L 172.199716 42.0294 
L 177.171993 40.976049 
L 182.14427 40.019623 
L 187.116547 39.147335 
L 192.088824 38.348555 
L 197.061102 37.614369 
L 202.033379 36.937249 
L 207.005656 36.310791 
L 211.977933 35.729517 
L 216.950211 35.188709 
L 221.922488 34.684285 
L 226.894765 34.212692 
L 231.867042 33.770828 
L 236.83932 33.355967 
L 241.811597 32.965708 
L 246.783874 32.597926 
L 251.756151 32.250734 
L 256.728428 31.922449 
L 261.700706 31.611569 
L 266.672983 31.316745 
L 271.64526 31.036765 
L 276.617537 30.770536 
L 281.589815 30.517068 
L 286.562092 30.275467 
L 291.534369 30.044916 
L 296.506646 29.824677 
L 301.478923 29.614071 
L 306.451201 29.41248 
L 311.423478 29.219339 
L 316.395755 29.034126 
L 321.368032 28.856363 
L 326.34031 28.685609 
L 331.312587 28.521459 
L 336.284864 28.363535 
L 341.257141 28.211492 
L 346.229419 28.065005 
L 351.201696 27.923776 
L 356.173973 27.787528 
L 361.14625 27.656 
L 366.118527 27.528953 
L 371.090805 27.40616 
L 376.063082 27.287412 
L 381.035359 27.172512 
L 386.007636 27.061276 
L 390.979914 26.953531 
L 395.952191 26.849116 
L 400.924468 26.747879 
L 405.896745 26.649676 
L 410.869022 26.554374 
L 415.8413 26.461846 
L 420.813577 26.371972 
L 425.785854 26.28464 
L 430.758131 26.199743 
L 435.730409 26.117181 
L 440.702686 26.036859 
L 445.674963 25.958687 
L 450.64724 25.88258 
L 455.619518 25.808458 
L 460.591795 25.736242 
L 465.564072 25.665862 
L 470.536349 25.597247 
L 475.508626 25.530332 
L 480.480904 25.465055 
L 485.453181 25.401357 
L 490.425458 25.33918 
L 495.397735 25.278471 
L 500.370013 25.219179 
L 505.34229 25.161254 
L 510.314567 25.10465 
L 515.286844 25.049322 
L 520.259121 24.995227 
L 525.231399 24.942325 
L 530.203676 24.890577 
L 535.175953 24.839944 
L 540.14823 24.790393 
L 545.120508 24.741887 
L 550.092785 24.694396 
L 555.065062 24.647886 
L 560.037339 24.602328 
L 565.009617 24.557694 
L 569.981894 24.513954 
L 574.954171 24.471083 
L 579.926448 24.429055 
" clip-path="url(#p05501a7a88)" style="fill: none; stroke: #79b5d9; stroke-width: 1.5; stroke-linecap: square"/>
   </g>
   <g id="line2d_27">
    <path d="M 82.698725 289.216633 
L 87.671003 219.513923 
L 92.64328 174.635665 
L 97.615557 145.552909 
L 102.587834 125.484728 
L 107.560112 110.879068 
L 112.532389 99.798207 
L 117.504666 91.11368 
L 122.476943 84.128569 
L 127.44922 78.390786 
L 132.421498 73.594836 
L 137.393775 69.527105 
L 142.366052 66.033854 
L 147.338329 63.001669 
L 152.310607 60.345085 
L 157.282884 57.998496 
L 162.255161 55.910709 
L 167.227438 54.0412 
L 172.199716 52.357476 
L 177.171993 50.833182 
L 182.14427 49.446716 
L 187.116547 48.18021 
L 192.088824 47.018751 
L 197.061102 45.9498 
L 202.033379 44.962734 
L 207.005656 44.048497 
L 211.977933 43.19932 
L 216.950211 42.4085 
L 221.922488 41.670224 
L 226.894765 40.979426 
L 231.867042 40.33167 
L 236.83932 39.723056 
L 241.811597 39.150143 
L 246.783874 38.60988 
L 251.756151 38.099552 
L 256.728428 37.616742 
L 261.700706 37.15928 
L 266.672983 36.725224 
L 271.64526 36.312822 
L 276.617537 35.920493 
L 281.589815 35.546808 
L 286.562092 35.190467 
L 291.534369 34.850292 
L 296.506646 34.525206 
L 301.478923 34.214229 
L 306.451201 33.91646 
L 311.423478 33.631077 
L 316.395755 33.357321 
L 321.368032 33.094498 
L 326.34031 32.841965 
L 331.312587 32.599129 
L 336.284864 32.365442 
L 341.257141 32.140398 
L 346.229419 31.923525 
L 351.201696 31.714385 
L 356.173973 31.512574 
L 361.14625 31.317713 
L 366.118527 31.129447 
L 371.090805 30.947449 
L 376.063082 30.77141 
L 381.035359 30.601043 
L 386.007636 30.436078 
L 390.979914 30.276261 
L 395.952191 30.121356 
L 400.924468 29.971139 
L 405.896745 29.825402 
L 410.869022 29.683946 
L 415.8413 29.546585 
L 420.813577 29.413145 
L 425.785854 29.283459 
L 430.758131 29.157373 
L 435.730409 29.034736 
L 440.702686 28.915412 
L 445.674963 28.799265 
L 450.64724 28.686173 
L 455.619518 28.576015 
L 460.591795 28.468678 
L 465.564072 28.364057 
L 470.536349 28.262049 
L 475.508626 28.162557 
L 480.480904 28.065489 
L 485.453181 27.970759 
L 490.425458 27.878282 
L 495.397735 27.787979 
L 500.370013 27.699774 
L 505.34229 27.613595 
L 510.314567 27.529373 
L 515.286844 27.447042 
L 520.259121 27.36654 
L 525.231399 27.287805 
L 530.203676 27.210781 
L 535.175953 27.135411 
L 540.14823 27.061644 
L 545.120508 26.989429 
L 550.092785 26.918717 
L 555.065062 26.849462 
L 560.037339 26.78162 
L 565.009617 26.715147 
L 569.981894 26.650002 
L 574.954171 26.586147 
L 579.926448 26.523542 
" clip-path="url(#p05501a7a88)" style="fill: none; stroke: #60a7d2; stroke-width: 1.5; stroke-linecap: square"/>
   </g>
   <g id="line2d_28">
    <path d="M 82.698725 308.432373 
L 87.671003 251.318743 
L 92.64328 206.390229 
L 97.615557 174.725288 
L 102.587834 151.851312 
L 107.560112 134.716237 
L 112.532389 121.455656 
L 117.504666 110.91091 
L 122.476943 102.335209 
L 127.44922 95.229157 
L 132.421498 89.247498 
L 137.393775 84.144484 
L 142.366052 79.740698 
L 147.338329 75.902224 
L 152.310607 72.527154 
L 157.282884 69.536599 
L 162.255161 66.868563 
L 167.227438 64.473663 
L 172.199716 62.312085 
L 177.171993 60.351379 
L 182.14427 58.564835 
L 187.116547 56.930269 
L 192.088824 55.429105 
L 197.061102 54.045675 
L 202.033379 52.766665 
L 207.005656 51.580696 
L 211.977933 50.477981 
L 216.950211 49.45006 
L 221.922488 48.489578 
L 226.894765 47.590115 
L 231.867042 46.74604 
L 236.83932 45.952392 
L 241.811597 45.204787 
L 246.783874 44.499333 
L 251.756151 43.832566 
L 256.728428 43.201389 
L 261.700706 42.603028 
L 266.672983 42.034991 
L 271.64526 41.495029 
L 276.617537 40.981114 
L 281.589815 40.491405 
L 286.562092 40.024232 
L 291.534369 39.578075 
L 296.506646 39.151548 
L 301.478923 38.743383 
L 306.451201 38.35242 
L 311.423478 37.977595 
L 316.395755 37.617928 
L 321.368032 37.272519 
L 326.34031 36.940536 
L 331.312587 36.621213 
L 336.284864 36.313838 
L 341.257141 36.017753 
L 346.229419 35.732348 
L 351.201696 35.457055 
L 356.173973 35.191346 
L 361.14625 34.93473 
L 366.118527 34.686747 
L 371.090805 34.44697 
L 376.063082 34.214997 
L 381.035359 33.990454 
L 386.007636 33.77299 
L 390.979914 33.562274 
L 395.952191 33.357999 
L 400.924468 33.159872 
L 405.896745 32.967621 
L 410.869022 32.780988 
L 415.8413 32.59973 
L 420.813577 32.423619 
L 425.785854 32.252438 
L 430.758131 32.085984 
L 435.730409 31.924062 
L 440.702686 31.766491 
L 445.674963 31.613098 
L 450.64724 31.463718 
L 455.619518 31.318196 
L 460.591795 31.176385 
L 465.564072 31.038144 
L 470.536349 30.903341 
L 475.508626 30.771848 
L 480.480904 30.643545 
L 485.453181 30.518318 
L 490.425458 30.396057 
L 495.397735 30.276658 
L 500.370013 30.160022 
L 505.34229 30.046054 
L 510.314567 29.934664 
L 515.286844 29.825764 
L 520.259121 29.719273 
L 525.231399 29.615111 
L 530.203676 29.513203 
L 535.175953 29.413477 
L 540.14823 29.315863 
L 545.120508 29.220294 
L 550.092785 29.126707 
L 555.065062 29.035042 
L 560.037339 28.945239 
L 565.009617 28.857242 
L 569.981894 28.770998 
L 574.954171 28.686455 
L 579.926448 28.603562 
" clip-path="url(#p05501a7a88)" style="fill: none; stroke: #4a98c9; stroke-width: 1.5; stroke-linecap: square"/>
   </g>
   <g id="line2d_29">
    <path d="M 82.698725 318.040243 
L 87.671003 273.769014 
L 92.64328 231.554791 
L 97.615557 199.224135 
L 102.587834 174.779109 
L 107.560112 155.932134 
L 112.532389 141.054535 
L 117.504666 129.051171 
L 122.476943 119.180638 
L 127.44922 110.930026 
L 132.421498 103.935773 
L 137.393775 97.934081 
L 142.366052 92.729394 
L 147.338329 88.173924 
L 152.310607 84.154036 
L 157.282884 80.580995 
L 162.255161 77.38454 
L 167.227438 74.508343 
L 172.199716 71.906732 
L 177.171993 69.542297 
L 182.14427 67.384105 
L 187.116547 65.406365 
L 192.088824 63.587404 
L 197.061102 61.908878 
L 202.033379 60.355157 
L 207.005656 58.912844 
L 211.977933 57.570391 
L 216.950211 56.317788 
L 221.922488 55.14632 
L 226.894765 54.04836 
L 231.867042 53.017209 
L 236.83932 52.046954 
L 241.811597 51.132363 
L 246.783874 50.268783 
L 251.756151 49.452066 
L 256.728428 48.678501 
L 261.700706 47.94476 
L 266.672983 47.247846 
L 271.64526 46.585057 
L 276.617537 45.953948 
L 281.589815 45.352302 
L 286.562092 44.778104 
L 291.534369 44.229519 
L 296.506646 43.704872 
L 301.478923 43.20263 
L 306.451201 42.721388 
L 311.423478 42.259857 
L 316.395755 41.816851 
L 321.368032 41.391278 
L 326.34031 40.982127 
L 331.312587 40.588468 
L 336.284864 40.209437 
L 341.257141 39.844233 
L 346.229419 39.492115 
L 351.201696 39.15239 
L 356.173973 38.824418 
L 361.14625 38.507598 
L 366.118527 38.20137 
L 371.090805 37.905214 
L 376.063082 37.61864 
L 381.035359 37.34119 
L 386.007636 37.072437 
L 390.979914 36.811976 
L 395.952191 36.559432 
L 400.924468 36.314447 
L 405.896745 36.076688 
L 410.869022 35.84584 
L 415.8413 35.621606 
L 420.813577 35.403705 
L 425.785854 35.191873 
L 430.758131 34.985861 
L 435.730409 34.785431 
L 440.702686 34.590361 
L 445.674963 34.400436 
L 450.64724 34.215458 
L 455.619518 34.035235 
L 460.591795 33.859585 
L 465.564072 33.688338 
L 470.536349 33.52133 
L 475.508626 33.358405 
L 480.480904 33.199415 
L 485.453181 33.04422 
L 490.425458 32.892686 
L 495.397735 32.744683 
L 500.370013 32.600091 
L 505.34229 32.458793 
L 510.314567 32.320677 
L 515.286844 32.185638 
L 520.259121 32.053573 
L 525.231399 31.924385 
L 530.203676 31.797982 
L 535.175953 31.674274 
L 540.14823 31.553176 
L 545.120508 31.434606 
L 550.092785 31.318486 
L 555.065062 31.204741 
L 560.037339 31.093299 
L 565.009617 30.98409 
L 569.981894 30.877049 
L 574.954171 30.77211 
L 579.926448 30.669213 
" clip-path="url(#p05501a7a88)" style="fill: none; stroke: #3787c0; stroke-width: 1.5; stroke-linecap: square"/>
   </g>
   <g id="line2d_30">
    <path d="M 82.698725 322.844178 
L 87.671003 289.61613 
L 92.64328 251.496969 
L 97.615557 219.798169 
L 102.587834 194.716613 
L 107.560112 174.815009 
L 112.532389 158.790513 
L 117.504666 145.673146 
L 122.476943 134.766624 
L 127.44922 125.570236 
L 132.421498 117.719078 
L 137.393775 110.942774 
L 142.366052 105.03757 
L 147.338329 99.847424 
L 152.310607 95.251036 
L 157.282884 91.152809 
L 162.255161 87.476458 
L 167.227438 84.160406 
L 172.199716 81.154433 
L 177.171993 78.417187 
L 182.14427 75.914321 
L 187.116547 73.617078 
L 192.088824 71.501202 
L 197.061102 69.546096 
L 202.033379 67.734157 
L 207.005656 66.050256 
L 211.977933 64.481315 
L 216.950211 63.015976 
L 221.922488 61.644326 
L 226.894765 60.357675 
L 231.867042 59.148373 
L 236.83932 58.009659 
L 241.811597 56.935539 
L 246.783874 55.920675 
L 251.756151 54.960301 
L 256.728428 54.050151 
L 261.700706 53.186388 
L 266.672983 52.365559 
L 271.64526 51.584544 
L 276.617537 50.840517 
L 281.589815 50.130915 
L 286.562092 49.453404 
L 291.534369 48.805857 
L 296.506646 48.186331 
L 301.478923 47.593048 
L 306.451201 47.024375 
L 311.423478 46.478814 
L 316.395755 45.954985 
L 321.368032 45.451615 
L 326.34031 44.967529 
L 331.312587 44.501642 
L 336.284864 44.052945 
L 341.257141 43.620506 
L 346.229419 43.203457 
L 351.201696 42.800991 
L 356.173973 42.412358 
L 361.14625 42.036855 
L 366.118527 41.673829 
L 371.090805 41.322669 
L 376.063082 40.982803 
L 381.035359 40.653694 
L 386.007636 40.33484 
L 390.979914 40.025769 
L 395.952191 39.726038 
L 400.924468 39.43523 
L 405.896745 39.152952 
L 410.869022 38.878836 
L 415.8413 38.612531 
L 420.813577 38.353709 
L 425.785854 38.102059 
L 430.758131 37.857287 
L 435.730409 37.619115 
L 440.702686 37.387279 
L 445.674963 37.161531 
L 450.64724 36.941633 
L 455.619518 36.727361 
L 460.591795 36.518502 
L 465.564072 36.314853 
L 470.536349 36.116223 
L 475.508626 35.922427 
L 480.480904 35.733291 
L 485.453181 35.54865 
L 490.425458 35.368345 
L 495.397735 35.192225 
L 500.370013 35.020146 
L 505.34229 34.851971 
L 510.314567 34.687568 
L 515.286844 34.526812 
L 520.259121 34.369583 
L 525.231399 34.215765 
L 530.203676 34.06525 
L 535.175953 33.917932 
L 540.14823 33.77371 
L 545.120508 33.632488 
L 550.092785 33.494173 
L 555.065062 33.358676 
L 560.037339 33.225912 
L 565.009617 33.095799 
L 569.981894 32.968259 
L 574.954171 32.843215 
L 579.926448 32.720596 
" clip-path="url(#p05501a7a88)" style="fill: none; stroke: #2575b7; stroke-width: 1.5; stroke-linecap: square"/>
   </g>
   <g id="line2d_31">
    <path d="M 82.698725 324.72 
L 87.671003 297.992693 
L 92.64328 263.153172 
L 97.615557 232.442752 
L 102.587834 207.344339 
L 107.560112 187.017 
L 112.532389 170.416655 
L 117.504666 156.686644 
L 122.476943 145.180259 
L 127.44922 135.41749 
L 132.421498 127.040744 
L 137.393775 119.780703 
L 142.366052 113.43184 
L 147.338329 107.83516 
L 152.310607 102.866045 
L 157.282884 98.425603 
L 162.255161 94.434458 
L 167.227438 90.828216 
L 172.199716 87.55413 
L 177.171993 84.568601 
L 182.14427 81.835292 
L 187.116547 79.323688 
L 192.088824 77.007981 
L 197.061102 74.866203 
L 202.033379 72.879536 
L 207.005656 71.031774 
L 211.977933 69.308884 
L 216.950211 67.698658 
L 221.922488 66.190422 
L 226.894765 64.774806 
L 231.867042 63.443553 
L 236.83932 62.189354 
L 241.811597 61.005721 
L 246.783874 59.886872 
L 251.756151 58.827639 
L 256.728428 57.823389 
L 261.700706 56.869955 
L 266.672983 55.96358 
L 271.64526 55.10087 
L 276.617537 54.278747 
L 281.589815 53.494416 
L 286.562092 52.745334 
L 291.534369 52.029178 
L 296.506646 51.343827 
L 301.478923 50.687337 
L 306.451201 50.057924 
L 311.423478 49.453949 
L 316.395755 48.873901 
L 321.368032 48.316387 
L 326.34031 47.78012 
L 331.312587 47.263909 
L 336.284864 46.766651 
L 341.257141 46.287321 
L 346.229419 45.824967 
L 351.201696 45.378705 
L 356.173973 44.947708 
L 361.14625 44.531208 
L 366.118527 44.128485 
L 371.090805 43.738867 
L 376.063082 43.361725 
L 381.035359 42.99647 
L 386.007636 42.642549 
L 390.979914 42.299442 
L 395.952191 41.966661 
L 400.924468 41.643748 
L 405.896745 41.330271 
L 410.869022 41.025821 
L 415.8413 40.730014 
L 420.813577 40.442488 
L 425.785854 40.1629 
L 430.758131 39.890926 
L 435.730409 39.626259 
L 440.702686 39.368609 
L 445.674963 39.1177 
L 450.64724 38.873271 
L 455.619518 38.635075 
L 460.591795 38.402876 
L 465.564072 38.176451 
L 470.536349 37.955586 
L 475.508626 37.74008 
L 480.480904 37.529741 
L 485.453181 37.324384 
L 490.425458 37.123834 
L 495.397735 36.927925 
L 500.370013 36.736498 
L 505.34229 36.549401 
L 510.314567 36.366487 
L 515.286844 36.18762 
L 520.259121 36.012665 
L 525.231399 35.841496 
L 530.203676 35.673992 
L 535.175953 35.510035 
L 540.14823 35.349515 
L 545.120508 35.192325 
L 550.092785 35.038361 
L 555.065062 34.887526 
L 560.037339 34.739726 
L 565.009617 34.594869 
L 569.981894 34.452869 
L 574.954171 34.313642 
L 579.926448 34.177107 
" clip-path="url(#p05501a7a88)" style="fill: none; stroke: #1764ab; stroke-width: 1.5; stroke-linecap: square"/>
   </g>
   <g id="line2d_32">
    <path d="M 77.676223 35.568867 
L 584.94895 35.568867 
" clip-path="url(#p05501a7a88)" style="fill: none; stroke-dasharray: 5.55,2.4; stroke-dashoffset: 0; stroke: #000000; stroke-width: 1.5"/>
   </g>
   <g id="patch_3">
    <path d="M 52.312587 339.84 
L 52.312587 7.2 
" style="fill: none; stroke: #000000; stroke-width: 0.8; stroke-linejoin: miter; stroke-linecap: square"/>
   </g>
   <g id="patch_4">
    <path d="M 610.312587 339.84 
L 610.312587 7.2 
" style="fill: none; stroke: #000000; stroke-width: 0.8; stroke-linejoin: miter; stroke-linecap: square"/>
   </g>
   <g id="patch_5">
    <path d="M 52.312587 339.84 
L 610.312587 339.84 
" style="fill: none; stroke: #000000; stroke-width: 0.8; stroke-linejoin: miter; stroke-linecap: square"/>
   </g>
   <g id="patch_6">
    <path d="M 52.312587 7.2 
L 610.312587 7.2 
" style="fill: none; stroke: #000000; stroke-width: 0.8; stroke-linejoin: miter; stroke-linecap: square"/>
   </g>
   <g id="legend_1">
    <g id="patch_7">
     <path d="M 486.74063 331.84 
L 599.112587 331.84 
Q 602.312587 331.84 602.312587 328.64 
L 602.312587 151.84419 
Q 602.312587 148.64419 599.112587 148.64419 
L 486.74063 148.64419 
Q 483.54063 148.64419 483.54063 151.84419 
L 483.54063 328.64 
Q 483.54063 331.84 486.74063 331.84 
z
" style="fill: #ffffff; opacity: 0.8; stroke: #cccccc; stroke-linejoin: miter"/>
    </g>
    <g id="line2d_33">
     <path d="M 489.94063 160.64419 
L 505.94063 160.64419 
L 521.94063 160.64419 
" style="fill: none; stroke: #94c4df; stroke-width: 1.5; stroke-linecap: square"/>
    </g>
    <g id="text_15">
     <!-- $M = 2$ -->
     <g transform="translate(534.74063 166.24419) scale(0.16 -0.16)">
      <defs>
       <path id="CMR17-3d" d="M 4115 2017 
C 4211 2017 4307 2017 4307 2125 
C 4307 2240 4198 2240 4090 2240 
L 512 2240 
C 403 2240 294 2240 294 2125 
C 294 2017 390 2017 486 2017 
L 4115 2017 
z
M 4090 896 
C 4198 896 4307 896 4307 1011 
C 4307 1119 4211 1119 4115 1119 
L 486 1119 
C 390 1119 294 1119 294 1011 
C 294 896 403 896 512 896 
L 4090 896 
z
" transform="scale(0.015625)"/>
      </defs>
      <use xlink:href="#CMMI12-4d" transform="scale(0.996264)"/>
      <use xlink:href="#CMR17-3d" transform="translate(132.454088 0) scale(0.996264)"/>
      <use xlink:href="#CMR17-32" transform="translate(231.842885 0) scale(0.996264)"/>
     </g>
    </g>
    <g id="line2d_34">
     <path d="M 489.94063 182.943667 
L 505.94063 182.943667 
L 521.94063 182.943667 
" style="fill: none; stroke: #79b5d9; stroke-width: 1.5; stroke-linecap: square"/>
    </g>
    <g id="text_16">
     <!-- $M = 4$ -->
     <g transform="translate(534.74063 188.543667) scale(0.16 -0.16)">
      <use xlink:href="#CMMI12-4d" transform="scale(0.996264)"/>
      <use xlink:href="#CMR17-3d" transform="translate(132.454088 0) scale(0.996264)"/>
      <use xlink:href="#CMR17-34" transform="translate(231.842885 0) scale(0.996264)"/>
     </g>
    </g>
    <g id="line2d_35">
     <path d="M 489.94063 205.243143 
L 505.94063 205.243143 
L 521.94063 205.243143 
" style="fill: none; stroke: #60a7d2; stroke-width: 1.5; stroke-linecap: square"/>
    </g>
    <g id="text_17">
     <!-- $M = 8$ -->
     <g transform="translate(534.74063 210.843143) scale(0.16 -0.16)">
      <use xlink:href="#CMMI12-4d" transform="scale(0.996264)"/>
      <use xlink:href="#CMR17-3d" transform="translate(132.454088 0) scale(0.996264)"/>
      <use xlink:href="#CMR17-38" transform="translate(231.842885 0) scale(0.996264)"/>
     </g>
    </g>
    <g id="line2d_36">
     <path d="M 489.94063 227.542619 
L 505.94063 227.542619 
L 521.94063 227.542619 
" style="fill: none; stroke: #4a98c9; stroke-width: 1.5; stroke-linecap: square"/>
    </g>
    <g id="text_18">
     <!-- $M = 16$ -->
     <g transform="translate(534.74063 233.142619) scale(0.16 -0.16)">
      <use xlink:href="#CMMI12-4d" transform="scale(0.996264)"/>
      <use xlink:href="#CMR17-3d" transform="translate(132.454088 0) scale(0.996264)"/>
      <use xlink:href="#CMR17-31" transform="translate(231.842885 0) scale(0.996264)"/>
      <use xlink:href="#CMR17-36" transform="translate(277.533362 0) scale(0.996264)"/>
     </g>
    </g>
    <g id="line2d_37">
     <path d="M 489.94063 249.842095 
L 505.94063 249.842095 
L 521.94063 249.842095 
" style="fill: none; stroke: #3787c0; stroke-width: 1.5; stroke-linecap: square"/>
    </g>
    <g id="text_19">
     <!-- $M = 32$ -->
     <g transform="translate(534.74063 255.442095) scale(0.16 -0.16)">
      <defs>
       <path id="CMR17-33" d="M 1414 2157 
C 1984 2157 2234 1662 2234 1090 
C 2234 320 1824 25 1453 25 
C 1114 25 563 194 390 693 
C 422 680 454 680 486 680 
C 640 680 755 782 755 948 
C 755 1133 614 1216 486 1216 
C 378 1216 211 1165 211 926 
C 211 335 787 -128 1466 -128 
C 2176 -128 2720 430 2720 1085 
C 2720 1707 2208 2157 1600 2227 
C 2086 2328 2554 2756 2554 3329 
C 2554 3820 2048 4179 1472 4179 
C 890 4179 378 3829 378 3329 
C 378 3110 544 3072 627 3072 
C 762 3072 877 3155 877 3321 
C 877 3486 762 3569 627 3569 
C 602 3569 570 3569 544 3557 
C 730 3959 1235 4032 1459 4032 
C 1683 4032 2106 3925 2106 3320 
C 2106 3143 2080 2828 1862 2550 
C 1670 2304 1453 2304 1242 2284 
C 1210 2284 1062 2269 1037 2269 
C 992 2263 966 2257 966 2208 
C 966 2163 973 2157 1101 2157 
L 1414 2157 
z
" transform="scale(0.015625)"/>
      </defs>
      <use xlink:href="#CMMI12-4d" transform="scale(0.996264)"/>
      <use xlink:href="#CMR17-3d" transform="translate(132.454088 0) scale(0.996264)"/>
      <use xlink:href="#CMR17-33" transform="translate(231.842885 0) scale(0.996264)"/>
      <use xlink:href="#CMR17-32" transform="translate(277.533362 0) scale(0.996264)"/>
     </g>
    </g>
    <g id="line2d_38">
     <path d="M 489.94063 272.141571 
L 505.94063 272.141571 
L 521.94063 272.141571 
" style="fill: none; stroke: #2575b7; stroke-width: 1.5; stroke-linecap: square"/>
    </g>
    <g id="text_20">
     <!-- $M = 64$ -->
     <g transform="translate(534.74063 277.741571) scale(0.16 -0.16)">
      <use xlink:href="#CMMI12-4d" transform="scale(0.996264)"/>
      <use xlink:href="#CMR17-3d" transform="translate(132.454088 0) scale(0.996264)"/>
      <use xlink:href="#CMR17-36" transform="translate(231.842885 0) scale(0.996264)"/>
      <use xlink:href="#CMR17-34" transform="translate(277.533362 0) scale(0.996264)"/>
     </g>
    </g>
    <g id="line2d_39">
     <path d="M 489.94063 294.441048 
L 505.94063 294.441048 
L 521.94063 294.441048 
" style="fill: none; stroke: #1764ab; stroke-width: 1.5; stroke-linecap: square"/>
    </g>
    <g id="text_21">
     <!-- $M = 105$ -->
     <g transform="translate(534.74063 300.041048) scale(0.16 -0.16)">
      <defs>
       <path id="CMR17-35" d="M 730 3692 
C 794 3666 1056 3584 1325 3584 
C 1920 3584 2246 3911 2432 4100 
C 2432 4157 2432 4192 2394 4192 
C 2387 4192 2374 4192 2323 4163 
C 2099 4058 1837 3973 1517 3973 
C 1325 3973 1037 3999 723 4139 
C 653 4171 640 4171 634 4171 
C 602 4171 595 4164 595 4037 
L 595 2203 
C 595 2089 595 2057 659 2057 
C 691 2057 704 2070 736 2114 
C 941 2401 1222 2522 1542 2522 
C 1766 2522 2246 2382 2246 1289 
C 2246 1085 2246 715 2054 421 
C 1894 159 1645 25 1370 25 
C 947 25 518 320 403 814 
C 429 807 480 795 506 795 
C 589 795 749 840 749 1038 
C 749 1210 627 1280 506 1280 
C 358 1280 262 1190 262 1011 
C 262 454 704 -128 1382 -128 
C 2042 -128 2669 440 2669 1264 
C 2669 2030 2170 2624 1549 2624 
C 1222 2624 947 2503 730 2274 
L 730 3692 
z
" transform="scale(0.015625)"/>
      </defs>
      <use xlink:href="#CMMI12-4d" transform="scale(0.996264)"/>
      <use xlink:href="#CMR17-3d" transform="translate(132.454088 0) scale(0.996264)"/>
      <use xlink:href="#CMR17-31" transform="translate(231.842885 0) scale(0.996264)"/>
      <use xlink:href="#CMR17-30" transform="translate(277.533362 0) scale(0.996264)"/>
      <use xlink:href="#CMR17-35" transform="translate(323.223839 0) scale(0.996264)"/>
     </g>
    </g>
    <g id="line2d_40">
     <path d="M 489.94063 316.740524 
L 505.94063 316.740524 
L 521.94063 316.740524 
" style="fill: none; stroke-dasharray: 5.55,2.4; stroke-dashoffset: 0; stroke: #000000; stroke-width: 1.5"/>
    </g>
    <g id="text_22">
     <!-- 0.95 -->
     <g transform="translate(534.74063 322.340524) scale(0.16 -0.16)">
      <defs>
       <path id="CMSS17-30" d="M 2758 2044 
C 2758 2405 2752 3077 2490 3596 
C 2227 4096 1805 4229 1504 4229 
C 1069 4229 698 3975 506 3570 
C 301 3146 243 2709 243 2044 
C 243 1589 262 1031 493 543 
C 755 5 1197 -128 1498 -128 
C 1894 -128 2278 81 2496 518 
C 2720 974 2758 1474 2758 2044 
z
M 1498 261 
C 1011 261 864 811 819 995 
C 742 1310 730 1614 730 2114 
C 730 2506 730 2948 851 3297 
C 998 3701 1254 3840 1498 3840 
C 1971 3840 2125 3372 2176 3208 
C 2272 2873 2272 2481 2272 2114 
C 2272 1526 2272 261 1498 261 
z
" transform="scale(0.015625)"/>
       <path id="CMSS17-2e" d="M 1088 510 
L 576 510 
L 576 0 
L 1088 0 
L 1088 510 
z
" transform="scale(0.015625)"/>
       <path id="CMSS17-39" d="M 435 174 
C 614 21 845 -128 1235 -128 
C 2010 -128 2752 721 2752 2095 
C 2752 3932 1952 4229 1523 4229 
C 1094 4229 819 4041 582 3741 
C 301 3397 250 3090 250 2733 
C 250 2307 326 2045 506 1745 
C 749 1357 973 1275 1222 1275 
C 1600 1275 1978 1459 2234 1776 
C 2189 902 1798 267 1235 267 
C 1005 267 819 339 634 516 
L 435 174 
z
M 2214 2746 
C 2221 2703 2221 2622 2221 2596 
C 2221 2074 1914 1664 1466 1664 
C 1171 1664 1018 1813 902 2006 
C 762 2249 755 2485 755 2733 
C 755 2976 755 3244 934 3511 
C 1069 3703 1235 3840 1523 3840 
C 2112 3840 2208 3000 2214 2746 
z
" transform="scale(0.015625)"/>
       <path id="CMSS17-35" d="M 934 3752 
L 2502 3752 
L 2502 4160 
L 467 4160 
L 467 1781 
L 896 1781 
C 1011 2046 1248 2240 1555 2240 
C 1843 2240 2163 1989 2163 1266 
C 2163 493 1709 267 1376 267 
C 966 267 589 512 422 851 
L 218 499 
C 512 49 992 -128 1376 -128 
C 2118 -128 2701 497 2701 1253 
C 2701 2030 2182 2629 1562 2629 
C 1338 2629 1120 2553 934 2399 
L 934 3752 
z
" transform="scale(0.015625)"/>
      </defs>
      <use xlink:href="#CMSS17-30" transform="scale(0.996264)"/>
      <use xlink:href="#CMSS17-2e" transform="translate(46.843624 0) scale(0.996264)"/>
      <use xlink:href="#CMSS17-39" transform="translate(72.867828 0) scale(0.996264)"/>
      <use xlink:href="#CMSS17-35" transform="translate(119.711452 0) scale(0.996264)"/>
     </g>
    </g>
   </g>
  </g>
 </g>
 <defs>
  <clipPath id="p05501a7a88">
   <rect x="52.312587" y="7.2" width="558" height="332.64"/>
  </clipPath>
 </defs>
</svg>
