<?xml version="1.0" encoding="utf-8" standalone="no"?>
<!DOCTYPE svg PUBLIC "-//W3C//DTD SVG 1.1//EN"
  "http://www.w3.org/Graphics/SVG/1.1/DTD/svg11.dtd">
<svg xmlns:xlink="http://www.w3.org/1999/xlink" width="617.512587pt" height="386.378129pt" viewBox="0 0 617.512587 386.378129" xmlns="http://www.w3.org/2000/svg" version="1.1">
 <metadata>
  <rdf:RDF xmlns:dc="http://purl.org/dc/elements/1.1/" xmlns:cc="http://creativecommons.org/ns#" xmlns:rdf="http://www.w3.org/1999/02/22-rdf-syntax-ns#">
   <cc:Work>
    <dc:type rdf:resource="http://purl.org/dc/dcmitype/StillImage"/>
    <dc:date>2025-10-15T19:47:32.919463</dc:date>
    <dc:format>image/svg+xml</dc:format>
    <dc:creator>
     <cc:Agent>
      <dc:title>Matplotlib v3.10.6, https://matplotlib.org/</dc:title>
     </cc:Agent>
    </dc:creator>
   </cc:Work>
  </rdf:RDF>
 </metadata>
 <defs>
  <style type="text/css">*{stroke-linejoin: round; stroke-linecap: butt}</style>
 </defs>
 <g id="figure_1">
  <g id="patch_1">
   <path d="M 0 386.378129 
L 617.512587 386.378129 
L 617.512587 0 
L 0 0 
z
" style="fill: #ffffff"/>
  </g>
  <g id="axes_1">
   <g id="patch_2">
    <path d="M 52.312587 339.84 
L 610.312587 339.84 
L 610.312587 7.2 
L 52.312587 7.2 
z
" style="fill: #ffffff"/>
   </g>
   <g id="matplotlib.axis_1">
    <g id="xtick_1">
     <g id="line2d_1">
      <path d="M 52.312587 339.84 
L 52.312587 7.2 
" clip-path="url(#p19fc856810)" style="fill: none; stroke: #b0b0b0; stroke-width: 0.8; stroke-linecap: square"/>
     </g>
     <g id="line2d_2">
      <defs>
       <path id="madac90b764" d="M 0 0 
L 0 3.5 
" style="stroke: #000000; stroke-width: 0.8"/>
      </defs>
      <g>
       <use xlink:href="#madac90b764" x="52.312587" y="339.84" style="stroke: #000000; stroke-width: 0.8"/>
      </g>
     </g>
     <g id="text_1">
      <!-- $\mathdefault{0.00}$ -->
      <g transform="translate(38.438832 357.909588) scale(0.16 -0.16)">
       <defs>
        <path id="CMR17-30" d="M 2688 2025 
C 2688 2416 2682 3080 2413 3591 
C 2176 4039 1798 4198 1466 4198 
C 1158 4198 768 4058 525 3597 
C 269 3118 243 2524 243 2025 
C 243 1661 250 1106 448 619 
C 723 -39 1216 -128 1466 -128 
C 1760 -128 2208 -7 2470 600 
C 2662 1042 2688 1559 2688 2025 
z
M 1466 -26 
C 1056 -26 813 325 723 812 
C 653 1188 653 1738 653 2096 
C 653 2588 653 2997 736 3387 
C 858 3929 1216 4096 1466 4096 
C 1728 4096 2067 3923 2189 3400 
C 2272 3036 2278 2607 2278 2096 
C 2278 1680 2278 1169 2202 792 
C 2067 95 1690 -26 1466 -26 
z
" transform="scale(0.015625)"/>
        <path id="CMMI12-3a" d="M 1178 307 
C 1178 492 1024 619 870 619 
C 685 619 557 466 557 313 
C 557 128 710 0 864 0 
C 1050 0 1178 153 1178 307 
z
" transform="scale(0.015625)"/>
       </defs>
       <use xlink:href="#CMR17-30" transform="scale(0.996264)"/>
       <use xlink:href="#CMMI12-3a" transform="translate(45.690477 0) scale(0.996264)"/>
       <use xlink:href="#CMR17-30" transform="translate(72.787654 0) scale(0.996264)"/>
       <use xlink:href="#CMR17-30" transform="translate(118.478131 0) scale(0.996264)"/>
      </g>
     </g>
    </g>
    <g id="xtick_2">
     <g id="line2d_3">
      <path d="M 149.493352 339.84 
L 149.493352 7.2 
" clip-path="url(#p19fc856810)" style="fill: none; stroke: #b0b0b0; stroke-width: 0.8; stroke-linecap: square"/>
     </g>
     <g id="line2d_4">
      <g>
       <use xlink:href="#madac90b764" x="149.493352" y="339.84" style="stroke: #000000; stroke-width: 0.8"/>
      </g>
     </g>
     <g id="text_2">
      <!-- $\mathdefault{0.02}$ -->
      <g transform="translate(135.619597 357.909588) scale(0.16 -0.16)">
       <defs>
        <path id="CMR17-32" d="M 2669 989 
L 2554 989 
C 2490 536 2438 459 2413 420 
C 2381 369 1920 369 1830 369 
L 602 369 
C 832 619 1280 1072 1824 1597 
C 2214 1967 2669 2402 2669 3035 
C 2669 3790 2067 4224 1395 4224 
C 691 4224 262 3604 262 3030 
C 262 2780 448 2748 525 2748 
C 589 2748 781 2787 781 3010 
C 781 3207 614 3264 525 3264 
C 486 3264 448 3258 422 3245 
C 544 3790 915 4058 1306 4058 
C 1862 4058 2227 3617 2227 3035 
C 2227 2479 1901 2000 1536 1584 
L 262 146 
L 262 0 
L 2515 0 
L 2669 989 
z
" transform="scale(0.015625)"/>
       </defs>
       <use xlink:href="#CMR17-30" transform="scale(0.996264)"/>
       <use xlink:href="#CMMI12-3a" transform="translate(45.690477 0) scale(0.996264)"/>
       <use xlink:href="#CMR17-30" transform="translate(72.787654 0) scale(0.996264)"/>
       <use xlink:href="#CMR17-32" transform="translate(118.478131 0) scale(0.996264)"/>
      </g>
     </g>
    </g>
    <g id="xtick_3">
     <g id="line2d_5">
      <path d="M 246.674117 339.84 
L 246.674117 7.2 
" clip-path="url(#p19fc856810)" style="fill: none; stroke: #b0b0b0; stroke-width: 0.8; stroke-linecap: square"/>
     </g>
     <g id="line2d_6">
      <g>
       <use xlink:href="#madac90b764" x="246.674117" y="339.84" style="stroke: #000000; stroke-width: 0.8"/>
      </g>
     </g>
     <g id="text_3">
      <!-- $\mathdefault{0.04}$ -->
      <g transform="translate(232.800362 357.909588) scale(0.16 -0.16)">
       <defs>
        <path id="CMR17-34" d="M 2150 4122 
C 2150 4256 2144 4256 2029 4256 
L 128 1254 
L 128 1088 
L 1779 1088 
L 1779 457 
C 1779 224 1766 160 1318 160 
L 1197 160 
L 1197 0 
C 1402 0 1747 0 1965 0 
C 2182 0 2528 0 2733 0 
L 2733 160 
L 2611 160 
C 2163 160 2150 224 2150 457 
L 2150 1088 
L 2803 1088 
L 2803 1254 
L 2150 1254 
L 2150 4122 
z
M 1798 3703 
L 1798 1254 
L 256 1254 
L 1798 3703 
z
" transform="scale(0.015625)"/>
       </defs>
       <use xlink:href="#CMR17-30" transform="scale(0.996264)"/>
       <use xlink:href="#CMMI12-3a" transform="translate(45.690477 0) scale(0.996264)"/>
       <use xlink:href="#CMR17-30" transform="translate(72.787654 0) scale(0.996264)"/>
       <use xlink:href="#CMR17-34" transform="translate(118.478131 0) scale(0.996264)"/>
      </g>
     </g>
    </g>
    <g id="xtick_4">
     <g id="line2d_7">
      <path d="M 343.854882 339.84 
L 343.854882 7.2 
" clip-path="url(#p19fc856810)" style="fill: none; stroke: #b0b0b0; stroke-width: 0.8; stroke-linecap: square"/>
     </g>
     <g id="line2d_8">
      <g>
       <use xlink:href="#madac90b764" x="343.854882" y="339.84" style="stroke: #000000; stroke-width: 0.8"/>
      </g>
     </g>
     <g id="text_4">
      <!-- $\mathdefault{0.06}$ -->
      <g transform="translate(329.981127 357.909588) scale(0.16 -0.16)">
       <defs>
        <path id="CMR17-36" d="M 678 2176 
C 678 3690 1395 4032 1811 4032 
C 1946 4032 2272 4009 2400 3776 
C 2298 3776 2106 3776 2106 3553 
C 2106 3381 2246 3323 2336 3323 
C 2394 3323 2566 3348 2566 3560 
C 2566 3954 2246 4179 1805 4179 
C 1043 4179 243 3390 243 1984 
C 243 253 966 -128 1478 -128 
C 2099 -128 2688 427 2688 1283 
C 2688 2081 2170 2662 1517 2662 
C 1126 2662 838 2407 678 1960 
L 678 2176 
z
M 1478 25 
C 691 25 691 1200 691 1436 
C 691 1896 909 2560 1504 2560 
C 1613 2560 1926 2560 2138 2120 
C 2253 1870 2253 1609 2253 1289 
C 2253 944 2253 690 2118 434 
C 1978 171 1773 25 1478 25 
z
" transform="scale(0.015625)"/>
       </defs>
       <use xlink:href="#CMR17-30" transform="scale(0.996264)"/>
       <use xlink:href="#CMMI12-3a" transform="translate(45.690477 0) scale(0.996264)"/>
       <use xlink:href="#CMR17-30" transform="translate(72.787654 0) scale(0.996264)"/>
       <use xlink:href="#CMR17-36" transform="translate(118.478131 0) scale(0.996264)"/>
      </g>
     </g>
    </g>
    <g id="xtick_5">
     <g id="line2d_9">
      <path d="M 441.035647 339.84 
L 441.035647 7.2 
" clip-path="url(#p19fc856810)" style="fill: none; stroke: #b0b0b0; stroke-width: 0.8; stroke-linecap: square"/>
     </g>
     <g id="line2d_10">
      <g>
       <use xlink:href="#madac90b764" x="441.035647" y="339.84" style="stroke: #000000; stroke-width: 0.8"/>
      </g>
     </g>
     <g id="text_5">
      <!-- $\mathdefault{0.08}$ -->
      <g transform="translate(427.161892 357.909588) scale(0.16 -0.16)">
       <defs>
        <path id="CMR17-38" d="M 1741 2264 
C 2144 2467 2554 2773 2554 3263 
C 2554 3841 1990 4179 1472 4179 
C 890 4179 378 3759 378 3180 
C 378 3021 416 2747 666 2505 
C 730 2442 998 2251 1171 2130 
C 883 1983 211 1634 211 934 
C 211 279 838 -128 1459 -128 
C 2144 -128 2720 362 2720 1010 
C 2720 1590 2330 1857 2074 2029 
L 1741 2264 
z
M 902 2822 
C 851 2854 595 3051 595 3351 
C 595 3739 998 4032 1459 4032 
C 1965 4032 2336 3676 2336 3262 
C 2336 2669 1670 2331 1638 2331 
C 1632 2331 1626 2331 1574 2370 
L 902 2822 
z
M 2080 1519 
C 2176 1449 2483 1240 2483 851 
C 2483 381 2010 25 1472 25 
C 890 25 448 438 448 940 
C 448 1443 838 1862 1280 2060 
L 2080 1519 
z
" transform="scale(0.015625)"/>
       </defs>
       <use xlink:href="#CMR17-30" transform="scale(0.996264)"/>
       <use xlink:href="#CMMI12-3a" transform="translate(45.690477 0) scale(0.996264)"/>
       <use xlink:href="#CMR17-30" transform="translate(72.787654 0) scale(0.996264)"/>
       <use xlink:href="#CMR17-38" transform="translate(118.478131 0) scale(0.996264)"/>
      </g>
     </g>
    </g>
    <g id="xtick_6">
     <g id="line2d_11">
      <path d="M 538.216412 339.84 
L 538.216412 7.2 
" clip-path="url(#p19fc856810)" style="fill: none; stroke: #b0b0b0; stroke-width: 0.8; stroke-linecap: square"/>
     </g>
     <g id="line2d_12">
      <g>
       <use xlink:href="#madac90b764" x="538.216412" y="339.84" style="stroke: #000000; stroke-width: 0.8"/>
      </g>
     </g>
     <g id="text_6">
      <!-- $\mathdefault{0.10}$ -->
      <g transform="translate(524.342657 357.909588) scale(0.16 -0.16)">
       <defs>
        <path id="CMR17-31" d="M 1702 4058 
C 1702 4192 1696 4192 1606 4192 
C 1357 3916 979 3827 621 3827 
C 602 3827 570 3827 563 3808 
C 557 3795 557 3782 557 3648 
C 755 3648 1088 3686 1344 3839 
L 1344 461 
C 1344 236 1331 160 781 160 
L 589 160 
L 589 0 
C 896 0 1216 0 1523 0 
C 1830 0 2150 0 2458 0 
L 2458 160 
L 2266 160 
C 1715 160 1702 230 1702 458 
L 1702 4058 
z
" transform="scale(0.015625)"/>
       </defs>
       <use xlink:href="#CMR17-30" transform="scale(0.996264)"/>
       <use xlink:href="#CMMI12-3a" transform="translate(45.690477 0) scale(0.996264)"/>
       <use xlink:href="#CMR17-31" transform="translate(72.787654 0) scale(0.996264)"/>
       <use xlink:href="#CMR17-30" transform="translate(118.478131 0) scale(0.996264)"/>
      </g>
     </g>
    </g>
    <g id="text_7">
     <!-- Spectral Gap Ratio -->
     <g transform="translate(269.31889 376.078653) scale(0.16 -0.16)">
      <defs>
       <path id="CMSS17-53" d="M 2797 4169 
C 2515 4334 2208 4480 1690 4480 
C 864 4480 333 3879 333 3266 
C 333 3025 403 2753 653 2475 
C 902 2196 1184 2121 1542 2033 
C 1690 1994 1939 1924 1984 1906 
C 2342 1767 2515 1444 2515 1140 
C 2515 742 2202 318 1645 318 
C 1453 318 890 318 358 819 
L 269 318 
C 794 -64 1363 -128 1651 -128 
C 2438 -128 3002 488 3002 1186 
C 3002 1440 2925 1763 2656 2061 
C 2394 2347 2163 2410 1638 2549 
C 1338 2626 1146 2677 986 2873 
C 877 3013 819 3146 819 3317 
C 819 3673 1126 4060 1690 4060 
C 1971 4060 2336 4002 2707 3660 
L 2797 4169 
z
" transform="scale(0.015625)"/>
       <path id="CMSS17-70" d="M 966 333 
C 1178 129 1466 -5 1773 -5 
C 2368 -5 2880 603 2880 1412 
C 2880 2159 2496 2816 1946 2816 
C 1626 2816 1242 2702 954 2472 
L 954 2765 
L 480 2765 
L 480 -1216 
L 966 -1216 
L 966 333 
z
M 966 2100 
C 1018 2176 1235 2415 1587 2415 
C 2035 2415 2394 1960 2394 1412 
C 2394 787 1958 384 1530 384 
C 1402 384 1267 415 1139 523 
C 966 674 966 768 966 857 
L 966 2100 
z
" transform="scale(0.015625)"/>
       <path id="CMSS17-65" d="M 2502 1377 
C 2502 1590 2490 2003 2285 2345 
C 2061 2713 1696 2816 1421 2816 
C 755 2816 192 2188 192 1375 
C 192 582 774 -64 1510 -64 
C 1798 -64 2150 19 2470 248 
C 2470 274 2458 414 2451 420 
C 2451 433 2432 630 2432 656 
C 2125 407 1773 325 1517 325 
C 1107 325 666 667 646 1377 
L 2502 1377 
z
M 698 1728 
C 781 2084 1062 2421 1421 2421 
C 1517 2421 1965 2421 2080 1728 
L 698 1728 
z
" transform="scale(0.015625)"/>
       <path id="CMSS17-63" d="M 2464 2541 
C 2464 2585 2170 2714 2093 2739 
C 1882 2816 1613 2816 1542 2816 
C 710 2816 211 2093 211 1363 
C 211 595 768 -64 1517 -64 
C 1946 -64 2253 76 2502 242 
L 2464 664 
C 2189 453 1869 337 1523 337 
C 1024 337 698 774 698 1369 
C 698 1831 909 2414 1549 2414 
C 1901 2414 2099 2343 2394 2145 
L 2464 2541 
z
" transform="scale(0.015625)"/>
       <path id="CMSS17-74" d="M 1069 2368 
L 1901 2368 
L 1901 2737 
L 1069 2737 
L 1069 3520 
L 614 3520 
L 614 2737 
L 109 2737 
L 109 2368 
L 602 2368 
L 602 749 
C 602 384 685 -64 1107 -64 
C 1427 -64 1722 25 2003 172 
L 1901 548 
C 1747 414 1562 337 1363 337 
C 1082 337 1069 696 1069 856 
L 1069 2368 
z
" transform="scale(0.015625)"/>
       <path id="CMSS17-72" d="M 954 1363 
C 954 1965 1395 2368 1958 2368 
L 1958 2789 
C 1549 2789 1165 2585 934 2253 
L 934 2758 
L 480 2758 
L 480 0 
L 954 0 
L 954 1363 
z
" transform="scale(0.015625)"/>
       <path id="CMSS17-61" d="M 2406 1791 
C 2406 2392 1978 2808 1402 2808 
C 1120 2808 813 2757 461 2553 
L 499 2135 
C 659 2248 934 2432 1395 2432 
C 1722 2432 1920 2180 1920 1782 
L 1920 1536 
C 896 1536 256 1238 256 726 
C 256 461 416 -64 947 -64 
C 1043 -64 1562 -64 1933 217 
L 1933 -19 
L 2406 -19 
L 2406 1791 
z
M 1920 816 
C 1920 701 1920 548 1728 434 
C 1562 325 1350 325 1261 325 
C 941 325 723 511 723 744 
C 723 1211 1722 1211 1920 1211 
L 1920 816 
z
" transform="scale(0.015625)"/>
       <path id="CMSS17-6c" d="M 947 4416 
L 474 4416 
L 474 0 
L 947 0 
L 947 4416 
z
" transform="scale(0.015625)"/>
       <path id="CMSS17-47" d="M 3610 1856 
L 2336 1856 
L 2336 1461 
L 3123 1461 
L 3123 471 
C 2874 401 2618 350 2362 350 
C 1466 350 934 1301 934 2200 
C 934 3095 1491 4032 2362 4032 
C 2854 4032 3130 3881 3469 3627 
L 3552 4134 
C 3130 4351 2867 4440 2387 4440 
C 1146 4440 397 3324 397 2182 
C 397 1090 1152 -64 2349 -64 
C 2797 -64 3213 51 3610 248 
L 3610 1856 
z
" transform="scale(0.015625)"/>
       <path id="CMSS17-52" d="M 2522 2109 
L 2534 2115 
C 3533 2459 3539 3147 3539 3268 
C 3539 3873 2925 4453 2003 4453 
L 570 4453 
L 570 32 
L 1094 32 
L 1094 2048 
L 2035 2048 
L 3168 32 
L 3706 32 
L 2522 2109 
z
M 1094 2437 
L 1094 4096 
L 1933 4096 
C 2746 4096 3034 3637 3034 3267 
C 3034 2922 2778 2437 1933 2437 
L 1094 2437 
z
" transform="scale(0.015625)"/>
       <path id="CMSS17-69" d="M 979 4183 
L 442 4183 
L 442 3648 
L 979 3648 
L 979 4183 
z
M 947 2739 
L 474 2739 
L 474 0 
L 947 0 
L 947 2739 
z
" transform="scale(0.015625)"/>
       <path id="CMSS17-6f" d="M 2829 1356 
C 2829 2176 2221 2816 1504 2816 
C 768 2816 173 2157 173 1356 
C 173 544 787 -64 1498 -64 
C 2227 -64 2829 563 2829 1356 
z
M 1504 337 
C 1050 337 659 709 659 1408 
C 659 2151 1114 2427 1498 2427 
C 1914 2427 2342 2126 2342 1408 
C 2342 683 1926 337 1504 337 
z
" transform="scale(0.015625)"/>
      </defs>
      <use xlink:href="#CMSS17-53" transform="scale(0.996264)"/>
      <use xlink:href="#CMSS17-70" transform="translate(52.048516 0) scale(0.996264)"/>
      <use xlink:href="#CMSS17-65" transform="translate(102.855898 0) scale(0.996264)"/>
      <use xlink:href="#CMSS17-63" transform="translate(144.49472 0) scale(0.996264)"/>
      <use xlink:href="#CMSS17-74" transform="translate(186.133542 0) scale(0.996264)"/>
      <use xlink:href="#CMSS17-72" transform="translate(219.965109 0) scale(0.996264)"/>
      <use xlink:href="#CMSS17-61" transform="translate(251.874881 0) scale(0.996264)"/>
      <use xlink:href="#CMSS17-6c" transform="translate(296.796802 0) scale(0.996264)"/>
      <use xlink:href="#CMSS17-47" transform="translate(350.206638 0) scale(0.996264)"/>
      <use xlink:href="#CMSS17-61" transform="translate(412.664863 0) scale(0.996264)"/>
      <use xlink:href="#CMSS17-70" transform="translate(457.586784 0) scale(0.996264)"/>
      <use xlink:href="#CMSS17-52" transform="translate(537.02084 0) scale(0.996264)"/>
      <use xlink:href="#CMSS17-61" transform="translate(597.436995 0) scale(0.996264)"/>
      <use xlink:href="#CMSS17-74" transform="translate(642.358915 0) scale(0.996264)"/>
      <use xlink:href="#CMSS17-69" transform="translate(676.190482 0) scale(0.996264)"/>
      <use xlink:href="#CMSS17-6f" transform="translate(698.371205 0) scale(0.996264)"/>
     </g>
    </g>
   </g>
   <g id="matplotlib.axis_2">
    <g id="ytick_1">
     <g id="line2d_13">
      <path d="M 52.312587 324.72 
L 610.312587 324.72 
" clip-path="url(#p19fc856810)" style="fill: none; stroke: #b0b0b0; stroke-width: 0.8; stroke-linecap: square"/>
     </g>
     <g id="line2d_14">
      <defs>
       <path id="ma2a1d26cb4" d="M 0 0 
L -3.5 0 
" style="stroke: #000000; stroke-width: 0.8"/>
      </defs>
      <g>
       <use xlink:href="#ma2a1d26cb4" x="52.312587" y="324.72" style="stroke: #000000; stroke-width: 0.8"/>
      </g>
     </g>
     <g id="text_8">
      <!-- $\mathdefault{0.0}$ -->
      <g transform="translate(25.369064 330.254794) scale(0.16 -0.16)">
       <use xlink:href="#CMR17-30" transform="scale(0.996264)"/>
       <use xlink:href="#CMMI12-3a" transform="translate(45.690477 0) scale(0.996264)"/>
       <use xlink:href="#CMR17-30" transform="translate(72.787654 0) scale(0.996264)"/>
      </g>
     </g>
    </g>
    <g id="ytick_2">
     <g id="line2d_15">
      <path d="M 52.312587 271.1952 
L 610.312587 271.1952 
" clip-path="url(#p19fc856810)" style="fill: none; stroke: #b0b0b0; stroke-width: 0.8; stroke-linecap: square"/>
     </g>
     <g id="line2d_16">
      <g>
       <use xlink:href="#ma2a1d26cb4" x="52.312587" y="271.1952" style="stroke: #000000; stroke-width: 0.8"/>
      </g>
     </g>
     <g id="text_9">
      <!-- $\mathdefault{0.1}$ -->
      <g transform="translate(25.369064 276.729994) scale(0.16 -0.16)">
       <use xlink:href="#CMR17-30" transform="scale(0.996264)"/>
       <use xlink:href="#CMMI12-3a" transform="translate(45.690477 0) scale(0.996264)"/>
       <use xlink:href="#CMR17-31" transform="translate(72.787654 0) scale(0.996264)"/>
      </g>
     </g>
    </g>
    <g id="ytick_3">
     <g id="line2d_17">
      <path d="M 52.312587 217.6704 
L 610.312587 217.6704 
" clip-path="url(#p19fc856810)" style="fill: none; stroke: #b0b0b0; stroke-width: 0.8; stroke-linecap: square"/>
     </g>
     <g id="line2d_18">
      <g>
       <use xlink:href="#ma2a1d26cb4" x="52.312587" y="217.6704" style="stroke: #000000; stroke-width: 0.8"/>
      </g>
     </g>
     <g id="text_10">
      <!-- $\mathdefault{0.2}$ -->
      <g transform="translate(25.369064 223.205194) scale(0.16 -0.16)">
       <use xlink:href="#CMR17-30" transform="scale(0.996264)"/>
       <use xlink:href="#CMMI12-3a" transform="translate(45.690477 0) scale(0.996264)"/>
       <use xlink:href="#CMR17-32" transform="translate(72.787654 0) scale(0.996264)"/>
      </g>
     </g>
    </g>
    <g id="ytick_4">
     <g id="line2d_19">
      <path d="M 52.312587 164.1456 
L 610.312587 164.1456 
" clip-path="url(#p19fc856810)" style="fill: none; stroke: #b0b0b0; stroke-width: 0.8; stroke-linecap: square"/>
     </g>
     <g id="line2d_20">
      <g>
       <use xlink:href="#ma2a1d26cb4" x="52.312587" y="164.1456" style="stroke: #000000; stroke-width: 0.8"/>
      </g>
     </g>
     <g id="text_11">
      <!-- $\mathdefault{0.3}$ -->
      <g transform="translate(25.369064 169.680394) scale(0.16 -0.16)">
       <defs>
        <path id="CMR17-33" d="M 1414 2157 
C 1984 2157 2234 1662 2234 1090 
C 2234 320 1824 25 1453 25 
C 1114 25 563 194 390 693 
C 422 680 454 680 486 680 
C 640 680 755 782 755 948 
C 755 1133 614 1216 486 1216 
C 378 1216 211 1165 211 926 
C 211 335 787 -128 1466 -128 
C 2176 -128 2720 430 2720 1085 
C 2720 1707 2208 2157 1600 2227 
C 2086 2328 2554 2756 2554 3329 
C 2554 3820 2048 4179 1472 4179 
C 890 4179 378 3829 378 3329 
C 378 3110 544 3072 627 3072 
C 762 3072 877 3155 877 3321 
C 877 3486 762 3569 627 3569 
C 602 3569 570 3569 544 3557 
C 730 3959 1235 4032 1459 4032 
C 1683 4032 2106 3925 2106 3320 
C 2106 3143 2080 2828 1862 2550 
C 1670 2304 1453 2304 1242 2284 
C 1210 2284 1062 2269 1037 2269 
C 992 2263 966 2257 966 2208 
C 966 2163 973 2157 1101 2157 
L 1414 2157 
z
" transform="scale(0.015625)"/>
       </defs>
       <use xlink:href="#CMR17-30" transform="scale(0.996264)"/>
       <use xlink:href="#CMMI12-3a" transform="translate(45.690477 0) scale(0.996264)"/>
       <use xlink:href="#CMR17-33" transform="translate(72.787654 0) scale(0.996264)"/>
      </g>
     </g>
    </g>
    <g id="ytick_5">
     <g id="line2d_21">
      <path d="M 52.312587 110.6208 
L 610.312587 110.6208 
" clip-path="url(#p19fc856810)" style="fill: none; stroke: #b0b0b0; stroke-width: 0.8; stroke-linecap: square"/>
     </g>
     <g id="line2d_22">
      <g>
       <use xlink:href="#ma2a1d26cb4" x="52.312587" y="110.6208" style="stroke: #000000; stroke-width: 0.8"/>
      </g>
     </g>
     <g id="text_12">
      <!-- $\mathdefault{0.4}$ -->
      <g transform="translate(25.369064 116.155594) scale(0.16 -0.16)">
       <use xlink:href="#CMR17-30" transform="scale(0.996264)"/>
       <use xlink:href="#CMMI12-3a" transform="translate(45.690477 0) scale(0.996264)"/>
       <use xlink:href="#CMR17-34" transform="translate(72.787654 0) scale(0.996264)"/>
      </g>
     </g>
    </g>
    <g id="ytick_6">
     <g id="line2d_23">
      <path d="M 52.312587 57.096 
L 610.312587 57.096 
" clip-path="url(#p19fc856810)" style="fill: none; stroke: #b0b0b0; stroke-width: 0.8; stroke-linecap: square"/>
     </g>
     <g id="line2d_24">
      <g>
       <use xlink:href="#ma2a1d26cb4" x="52.312587" y="57.096" style="stroke: #000000; stroke-width: 0.8"/>
      </g>
     </g>
     <g id="text_13">
      <!-- $\mathdefault{0.5}$ -->
      <g transform="translate(25.369064 62.630794) scale(0.16 -0.16)">
       <defs>
        <path id="CMR17-35" d="M 730 3692 
C 794 3666 1056 3584 1325 3584 
C 1920 3584 2246 3911 2432 4100 
C 2432 4157 2432 4192 2394 4192 
C 2387 4192 2374 4192 2323 4163 
C 2099 4058 1837 3973 1517 3973 
C 1325 3973 1037 3999 723 4139 
C 653 4171 640 4171 634 4171 
C 602 4171 595 4164 595 4037 
L 595 2203 
C 595 2089 595 2057 659 2057 
C 691 2057 704 2070 736 2114 
C 941 2401 1222 2522 1542 2522 
C 1766 2522 2246 2382 2246 1289 
C 2246 1085 2246 715 2054 421 
C 1894 159 1645 25 1370 25 
C 947 25 518 320 403 814 
C 429 807 480 795 506 795 
C 589 795 749 840 749 1038 
C 749 1210 627 1280 506 1280 
C 358 1280 262 1190 262 1011 
C 262 454 704 -128 1382 -128 
C 2042 -128 2669 440 2669 1264 
C 2669 2030 2170 2624 1549 2624 
C 1222 2624 947 2503 730 2274 
L 730 3692 
z
" transform="scale(0.015625)"/>
       </defs>
       <use xlink:href="#CMR17-30" transform="scale(0.996264)"/>
       <use xlink:href="#CMMI12-3a" transform="translate(45.690477 0) scale(0.996264)"/>
       <use xlink:href="#CMR17-35" transform="translate(72.787654 0) scale(0.996264)"/>
      </g>
     </g>
    </g>
    <g id="text_14">
     <!-- Absolute Error $\epsilon$ -->
     <g transform="translate(18.269588 226.343549) rotate(-90) scale(0.16 -0.16)">
      <defs>
       <path id="CMSS17-41" d="M 2272 4416 
L 1722 4416 
L 166 0 
L 653 0 
L 1101 1280 
L 2816 1280 
L 3270 0 
L 3827 0 
L 2272 4416 
z
M 2694 1637 
L 1222 1637 
C 1530 2528 1914 3638 1958 3925 
L 1965 3925 
C 2010 3663 2138 3281 2246 2956 
L 2694 1637 
z
" transform="scale(0.015625)"/>
       <path id="CMSS17-62" d="M 954 4416 
L 480 4416 
L 480 -13 
L 966 -13 
L 966 274 
C 1210 38 1504 -64 1766 -64 
C 2381 -64 2880 549 2880 1352 
C 2880 2086 2496 2756 1926 2756 
C 1523 2756 1165 2591 954 2419 
L 954 4416 
z
M 966 2046 
C 1107 2222 1306 2368 1587 2368 
C 1965 2368 2394 2097 2394 1352 
C 2394 558 1882 325 1530 325 
C 1402 325 1267 356 1139 464 
C 966 615 966 709 966 797 
L 966 2046 
z
" transform="scale(0.015625)"/>
       <path id="CMSS17-73" d="M 2061 2627 
C 1683 2807 1389 2807 1197 2807 
C 742 2807 198 2648 198 2003 
C 198 1359 902 1218 1094 1179 
C 1389 1122 1715 1058 1715 740 
C 1715 337 1254 337 1171 337 
C 915 337 563 407 243 638 
L 166 210 
C 531 0 883 -64 1178 -64 
C 1965 -64 2163 416 2163 781 
C 2163 1094 1984 1305 1862 1401 
C 1651 1568 1574 1587 1050 1696 
C 960 1709 646 1779 646 2066 
C 646 2432 1050 2432 1139 2432 
C 1555 2432 1811 2303 1984 2208 
L 2061 2627 
z
" transform="scale(0.015625)"/>
       <path id="CMSS17-75" d="M 2618 2739 
L 2131 2739 
L 2131 972 
C 2131 498 1786 306 1421 306 
C 998 306 960 447 960 709 
L 960 2739 
L 474 2739 
L 474 678 
C 474 179 646 -64 1088 -64 
C 1306 -64 1798 -13 2144 306 
L 2144 0 
L 2618 0 
L 2618 2739 
z
" transform="scale(0.015625)"/>
       <path id="CMSS17-45" d="M 1958 433 
C 1446 433 1216 433 1101 433 
L 1101 2107 
L 3085 2107 
L 3085 2496 
L 1101 2496 
L 1101 4009 
L 1926 4009 
C 2003 4009 2080 4009 2157 4009 
L 3251 4009 
L 3251 4416 
L 563 4416 
L 563 0 
L 3334 0 
L 3334 433 
L 1958 433 
z
" transform="scale(0.015625)"/>
       <path id="CMMI12-f" d="M 1862 1467 
C 1958 1467 2067 1467 2067 1569 
C 2067 1652 2003 1652 1888 1652 
L 851 1652 
C 1011 2226 1389 2573 1958 2573 
L 2144 2573 
C 2253 2573 2349 2573 2349 2675 
C 2349 2758 2278 2758 2163 2758 
L 1946 2758 
C 1158 2758 294 2131 294 1126 
C 294 416 774 -64 1408 -64 
C 1818 -64 2221 194 2221 258 
C 2221 296 2202 336 2163 336 
C 2144 336 2131 329 2099 304 
C 1856 142 1619 64 1427 64 
C 1088 64 730 290 730 918 
C 730 1040 742 1208 800 1467 
L 1862 1467 
z
" transform="scale(0.015625)"/>
      </defs>
      <use xlink:href="#CMSS17-41" transform="scale(0.996264)"/>
      <use xlink:href="#CMSS17-62" transform="translate(62.217855 0) scale(0.996264)"/>
      <use xlink:href="#CMSS17-73" transform="translate(110.422798 0) scale(0.996264)"/>
      <use xlink:href="#CMSS17-6f" transform="translate(146.33634 0) scale(0.996264)"/>
      <use xlink:href="#CMSS17-6c" transform="translate(193.179964 0) scale(0.996264)"/>
      <use xlink:href="#CMSS17-75" transform="translate(215.360687 0) scale(0.996264)"/>
      <use xlink:href="#CMSS17-74" transform="translate(263.56563 0) scale(0.996264)"/>
      <use xlink:href="#CMSS17-65" transform="translate(297.397196 0) scale(0.996264)"/>
      <use xlink:href="#CMSS17-45" transform="translate(370.265131 0) scale(0.996264)"/>
      <use xlink:href="#CMSS17-72" transform="translate(426.157144 0) scale(0.996264)"/>
      <use xlink:href="#CMSS17-72" transform="translate(458.066917 0) scale(0.996264)"/>
      <use xlink:href="#CMSS17-6f" transform="translate(489.97669 0) scale(0.996264)"/>
      <use xlink:href="#CMSS17-72" transform="translate(534.217859 0) scale(0.996264)"/>
      <use xlink:href="#CMMI12-f" transform="translate(597.356744 0) scale(0.996264)"/>
     </g>
    </g>
   </g>
   <g id="line2d_25">
    <path d="M 56.154458 32.908408 
L 63.852803 22.32 
L 71.554378 38.299666 
L 79.255954 49.557296 
L 86.95753 69.051711 
L 94.63481 50.476325 
L 102.360681 88.641034 
L 110.135142 100.025447 
L 117.909603 98.588093 
L 125.441113 135.930977 
L 132.972622 122.828211 
L 140.747083 147.70885 
L 148.521544 122.337672 
L 156.296005 170.038239 
L 164.070467 190.908 
L 171.601976 214.777168 
L 179.133485 215.304663 
L 186.907946 206.735226 
L 194.682408 227.891216 
L 202.456869 237.451304 
L 210.23133 230.264471 
L 217.762839 243.984268 
L 225.294349 234.957913 
L 233.06881 226.121684 
L 240.843271 257.814 
L 248.617732 280.640753 
L 256.392193 263.651436 
L 263.923703 272.585455 
L 271.455212 290.028 
L 279.229673 289.299176 
L 287.004134 309.988404 
L 294.778596 296.794017 
L 302.553057 310.877379 
L 310.084566 319.854109 
L 317.616075 319.36752 
L 325.390537 314.808 
L 333.164998 318.964645 
L 340.939459 324.72 
L 618.512587 324.72 
L 618.512587 324.72 
" clip-path="url(#p19fc856810)" style="fill: none; stroke: #1f77b4; stroke-width: 1.5; stroke-linecap: square"/>
    <defs>
     <path id="md0fd9716f0" d="M 0 3 
C 0.795609 3 1.55874 2.683901 2.12132 2.12132 
C 2.683901 1.55874 3 0.795609 3 0 
C 3 -0.795609 2.683901 -1.55874 2.12132 -2.12132 
C 1.55874 -2.683901 0.795609 -3 0 -3 
C -0.795609 -3 -1.55874 -2.683901 -2.12132 -2.12132 
C -2.683901 -1.55874 -3 -0.795609 -3 0 
C -3 0.795609 -2.683901 1.55874 -2.12132 2.12132 
C -1.55874 2.683901 -0.795609 3 0 3 
z
" style="stroke: #1f77b4"/>
    </defs>
    <g clip-path="url(#p19fc856810)">
     <use xlink:href="#md0fd9716f0" x="56.154458" y="32.908408" style="fill: #1f77b4; stroke: #1f77b4"/>
     <use xlink:href="#md0fd9716f0" x="63.852803" y="22.32" style="fill: #1f77b4; stroke: #1f77b4"/>
     <use xlink:href="#md0fd9716f0" x="71.554378" y="38.299666" style="fill: #1f77b4; stroke: #1f77b4"/>
     <use xlink:href="#md0fd9716f0" x="79.255954" y="49.557296" style="fill: #1f77b4; stroke: #1f77b4"/>
     <use xlink:href="#md0fd9716f0" x="86.95753" y="69.051711" style="fill: #1f77b4; stroke: #1f77b4"/>
     <use xlink:href="#md0fd9716f0" x="94.63481" y="50.476325" style="fill: #1f77b4; stroke: #1f77b4"/>
     <use xlink:href="#md0fd9716f0" x="102.360681" y="88.641034" style="fill: #1f77b4; stroke: #1f77b4"/>
     <use xlink:href="#md0fd9716f0" x="110.135142" y="100.025447" style="fill: #1f77b4; stroke: #1f77b4"/>
     <use xlink:href="#md0fd9716f0" x="117.909603" y="98.588093" style="fill: #1f77b4; stroke: #1f77b4"/>
     <use xlink:href="#md0fd9716f0" x="125.441113" y="135.930977" style="fill: #1f77b4; stroke: #1f77b4"/>
     <use xlink:href="#md0fd9716f0" x="132.972622" y="122.828211" style="fill: #1f77b4; stroke: #1f77b4"/>
     <use xlink:href="#md0fd9716f0" x="140.747083" y="147.70885" style="fill: #1f77b4; stroke: #1f77b4"/>
     <use xlink:href="#md0fd9716f0" x="148.521544" y="122.337672" style="fill: #1f77b4; stroke: #1f77b4"/>
     <use xlink:href="#md0fd9716f0" x="156.296005" y="170.038239" style="fill: #1f77b4; stroke: #1f77b4"/>
     <use xlink:href="#md0fd9716f0" x="164.070467" y="190.908" style="fill: #1f77b4; stroke: #1f77b4"/>
     <use xlink:href="#md0fd9716f0" x="171.601976" y="214.777168" style="fill: #1f77b4; stroke: #1f77b4"/>
     <use xlink:href="#md0fd9716f0" x="179.133485" y="215.304663" style="fill: #1f77b4; stroke: #1f77b4"/>
     <use xlink:href="#md0fd9716f0" x="186.907946" y="206.735226" style="fill: #1f77b4; stroke: #1f77b4"/>
     <use xlink:href="#md0fd9716f0" x="194.682408" y="227.891216" style="fill: #1f77b4; stroke: #1f77b4"/>
     <use xlink:href="#md0fd9716f0" x="202.456869" y="237.451304" style="fill: #1f77b4; stroke: #1f77b4"/>
     <use xlink:href="#md0fd9716f0" x="210.23133" y="230.264471" style="fill: #1f77b4; stroke: #1f77b4"/>
     <use xlink:href="#md0fd9716f0" x="217.762839" y="243.984268" style="fill: #1f77b4; stroke: #1f77b4"/>
     <use xlink:href="#md0fd9716f0" x="225.294349" y="234.957913" style="fill: #1f77b4; stroke: #1f77b4"/>
     <use xlink:href="#md0fd9716f0" x="233.06881" y="226.121684" style="fill: #1f77b4; stroke: #1f77b4"/>
     <use xlink:href="#md0fd9716f0" x="240.843271" y="257.814" style="fill: #1f77b4; stroke: #1f77b4"/>
     <use xlink:href="#md0fd9716f0" x="248.617732" y="280.640753" style="fill: #1f77b4; stroke: #1f77b4"/>
     <use xlink:href="#md0fd9716f0" x="256.392193" y="263.651436" style="fill: #1f77b4; stroke: #1f77b4"/>
     <use xlink:href="#md0fd9716f0" x="263.923703" y="272.585455" style="fill: #1f77b4; stroke: #1f77b4"/>
     <use xlink:href="#md0fd9716f0" x="271.455212" y="290.028" style="fill: #1f77b4; stroke: #1f77b4"/>
     <use xlink:href="#md0fd9716f0" x="279.229673" y="289.299176" style="fill: #1f77b4; stroke: #1f77b4"/>
     <use xlink:href="#md0fd9716f0" x="287.004134" y="309.988404" style="fill: #1f77b4; stroke: #1f77b4"/>
     <use xlink:href="#md0fd9716f0" x="294.778596" y="296.794017" style="fill: #1f77b4; stroke: #1f77b4"/>
     <use xlink:href="#md0fd9716f0" x="302.553057" y="310.877379" style="fill: #1f77b4; stroke: #1f77b4"/>
     <use xlink:href="#md0fd9716f0" x="310.084566" y="319.854109" style="fill: #1f77b4; stroke: #1f77b4"/>
     <use xlink:href="#md0fd9716f0" x="317.616075" y="319.36752" style="fill: #1f77b4; stroke: #1f77b4"/>
     <use xlink:href="#md0fd9716f0" x="325.390537" y="314.808" style="fill: #1f77b4; stroke: #1f77b4"/>
     <use xlink:href="#md0fd9716f0" x="333.164998" y="318.964645" style="fill: #1f77b4; stroke: #1f77b4"/>
     <use xlink:href="#md0fd9716f0" x="340.939459" y="324.72" style="fill: #1f77b4; stroke: #1f77b4"/>
     <use xlink:href="#md0fd9716f0" x="348.71392" y="324.72" style="fill: #1f77b4; stroke: #1f77b4"/>
     <use xlink:href="#md0fd9716f0" x="356.24543" y="324.72" style="fill: #1f77b4; stroke: #1f77b4"/>
     <use xlink:href="#md0fd9716f0" x="363.776939" y="324.72" style="fill: #1f77b4; stroke: #1f77b4"/>
     <use xlink:href="#md0fd9716f0" x="371.5514" y="324.72" style="fill: #1f77b4; stroke: #1f77b4"/>
     <use xlink:href="#md0fd9716f0" x="379.325861" y="324.72" style="fill: #1f77b4; stroke: #1f77b4"/>
     <use xlink:href="#md0fd9716f0" x="387.100322" y="324.72" style="fill: #1f77b4; stroke: #1f77b4"/>
     <use xlink:href="#md0fd9716f0" x="394.874784" y="324.72" style="fill: #1f77b4; stroke: #1f77b4"/>
     <use xlink:href="#md0fd9716f0" x="402.406293" y="324.72" style="fill: #1f77b4; stroke: #1f77b4"/>
     <use xlink:href="#md0fd9716f0" x="409.937802" y="324.72" style="fill: #1f77b4; stroke: #1f77b4"/>
     <use xlink:href="#md0fd9716f0" x="417.712263" y="324.72" style="fill: #1f77b4; stroke: #1f77b4"/>
     <use xlink:href="#md0fd9716f0" x="425.486725" y="324.72" style="fill: #1f77b4; stroke: #1f77b4"/>
     <use xlink:href="#md0fd9716f0" x="433.261186" y="324.72" style="fill: #1f77b4; stroke: #1f77b4"/>
     <use xlink:href="#md0fd9716f0" x="441.035647" y="324.72" style="fill: #1f77b4; stroke: #1f77b4"/>
     <use xlink:href="#md0fd9716f0" x="448.567156" y="324.72" style="fill: #1f77b4; stroke: #1f77b4"/>
     <use xlink:href="#md0fd9716f0" x="456.098666" y="324.72" style="fill: #1f77b4; stroke: #1f77b4"/>
     <use xlink:href="#md0fd9716f0" x="463.873127" y="324.72" style="fill: #1f77b4; stroke: #1f77b4"/>
     <use xlink:href="#md0fd9716f0" x="471.647588" y="324.72" style="fill: #1f77b4; stroke: #1f77b4"/>
     <use xlink:href="#md0fd9716f0" x="479.422049" y="324.72" style="fill: #1f77b4; stroke: #1f77b4"/>
     <use xlink:href="#md0fd9716f0" x="487.19651" y="324.72" style="fill: #1f77b4; stroke: #1f77b4"/>
     <use xlink:href="#md0fd9716f0" x="494.72802" y="324.72" style="fill: #1f77b4; stroke: #1f77b4"/>
     <use xlink:href="#md0fd9716f0" x="502.259529" y="324.72" style="fill: #1f77b4; stroke: #1f77b4"/>
     <use xlink:href="#md0fd9716f0" x="510.03399" y="324.72" style="fill: #1f77b4; stroke: #1f77b4"/>
     <use xlink:href="#md0fd9716f0" x="517.808451" y="324.72" style="fill: #1f77b4; stroke: #1f77b4"/>
     <use xlink:href="#md0fd9716f0" x="525.582913" y="324.72" style="fill: #1f77b4; stroke: #1f77b4"/>
     <use xlink:href="#md0fd9716f0" x="533.357374" y="324.72" style="fill: #1f77b4; stroke: #1f77b4"/>
     <use xlink:href="#md0fd9716f0" x="540.160027" y="324.72" style="fill: #1f77b4; stroke: #1f77b4"/>
     <use xlink:href="#md0fd9716f0" x="547.934489" y="324.72" style="fill: #1f77b4; stroke: #1f77b4"/>
     <use xlink:href="#md0fd9716f0" x="557.652565" y="324.72" style="fill: #1f77b4; stroke: #1f77b4"/>
     <use xlink:href="#md0fd9716f0" x="564.941123" y="324.72" style="fill: #1f77b4; stroke: #1f77b4"/>
     <use xlink:href="#md0fd9716f0" x="572.22968" y="324.72" style="fill: #1f77b4; stroke: #1f77b4"/>
     <use xlink:href="#md0fd9716f0" x="579.518237" y="324.72" style="fill: #1f77b4; stroke: #1f77b4"/>
     <use xlink:href="#md0fd9716f0" x="586.806795" y="324.72" style="fill: #1f77b4; stroke: #1f77b4"/>
     <use xlink:href="#md0fd9716f0" x="594.095352" y="324.72" style="fill: #1f77b4; stroke: #1f77b4"/>
     <use xlink:href="#md0fd9716f0" x="601.383909" y="324.72" style="fill: #1f77b4; stroke: #1f77b4"/>
     <use xlink:href="#md0fd9716f0" x="611.101986" y="324.72" style="fill: #1f77b4; stroke: #1f77b4"/>
     <use xlink:href="#md0fd9716f0" x="618.390543" y="324.72" style="fill: #1f77b4; stroke: #1f77b4"/>
     <use xlink:href="#md0fd9716f0" x="625.679101" y="324.72" style="fill: #1f77b4; stroke: #1f77b4"/>
     <use xlink:href="#md0fd9716f0" x="632.967658" y="324.72" style="fill: #1f77b4; stroke: #1f77b4"/>
     <use xlink:href="#md0fd9716f0" x="640.256215" y="324.72" style="fill: #1f77b4; stroke: #1f77b4"/>
     <use xlink:href="#md0fd9716f0" x="649.974292" y="324.72" style="fill: #1f77b4; stroke: #1f77b4"/>
     <use xlink:href="#md0fd9716f0" x="657.262849" y="324.72" style="fill: #1f77b4; stroke: #1f77b4"/>
     <use xlink:href="#md0fd9716f0" x="664.551407" y="324.72" style="fill: #1f77b4; stroke: #1f77b4"/>
     <use xlink:href="#md0fd9716f0" x="671.839964" y="324.72" style="fill: #1f77b4; stroke: #1f77b4"/>
     <use xlink:href="#md0fd9716f0" x="679.128521" y="324.72" style="fill: #1f77b4; stroke: #1f77b4"/>
     <use xlink:href="#md0fd9716f0" x="686.417079" y="324.72" style="fill: #1f77b4; stroke: #1f77b4"/>
     <use xlink:href="#md0fd9716f0" x="693.705636" y="324.72" style="fill: #1f77b4; stroke: #1f77b4"/>
     <use xlink:href="#md0fd9716f0" x="703.423713" y="324.72" style="fill: #1f77b4; stroke: #1f77b4"/>
     <use xlink:href="#md0fd9716f0" x="710.71227" y="324.72" style="fill: #1f77b4; stroke: #1f77b4"/>
     <use xlink:href="#md0fd9716f0" x="718.000827" y="324.72" style="fill: #1f77b4; stroke: #1f77b4"/>
     <use xlink:href="#md0fd9716f0" x="725.289385" y="324.72" style="fill: #1f77b4; stroke: #1f77b4"/>
     <use xlink:href="#md0fd9716f0" x="732.577942" y="324.72" style="fill: #1f77b4; stroke: #1f77b4"/>
     <use xlink:href="#md0fd9716f0" x="742.296019" y="324.72" style="fill: #1f77b4; stroke: #1f77b4"/>
     <use xlink:href="#md0fd9716f0" x="749.584576" y="324.72" style="fill: #1f77b4; stroke: #1f77b4"/>
     <use xlink:href="#md0fd9716f0" x="756.873133" y="324.72" style="fill: #1f77b4; stroke: #1f77b4"/>
     <use xlink:href="#md0fd9716f0" x="764.161691" y="324.72" style="fill: #1f77b4; stroke: #1f77b4"/>
     <use xlink:href="#md0fd9716f0" x="771.450248" y="324.72" style="fill: #1f77b4; stroke: #1f77b4"/>
     <use xlink:href="#md0fd9716f0" x="778.738806" y="324.72" style="fill: #1f77b4; stroke: #1f77b4"/>
     <use xlink:href="#md0fd9716f0" x="786.027363" y="324.72" style="fill: #1f77b4; stroke: #1f77b4"/>
     <use xlink:href="#md0fd9716f0" x="795.74544" y="324.72" style="fill: #1f77b4; stroke: #1f77b4"/>
     <use xlink:href="#md0fd9716f0" x="803.033997" y="324.72" style="fill: #1f77b4; stroke: #1f77b4"/>
     <use xlink:href="#md0fd9716f0" x="810.322554" y="324.72" style="fill: #1f77b4; stroke: #1f77b4"/>
     <use xlink:href="#md0fd9716f0" x="817.611112" y="324.72" style="fill: #1f77b4; stroke: #1f77b4"/>
     <use xlink:href="#md0fd9716f0" x="824.899669" y="324.72" style="fill: #1f77b4; stroke: #1f77b4"/>
     <use xlink:href="#md0fd9716f0" x="834.617746" y="324.72" style="fill: #1f77b4; stroke: #1f77b4"/>
     <use xlink:href="#md0fd9716f0" x="841.906303" y="324.72" style="fill: #1f77b4; stroke: #1f77b4"/>
     <use xlink:href="#md0fd9716f0" x="849.19486" y="324.72" style="fill: #1f77b4; stroke: #1f77b4"/>
     <use xlink:href="#md0fd9716f0" x="856.483418" y="324.72" style="fill: #1f77b4; stroke: #1f77b4"/>
     <use xlink:href="#md0fd9716f0" x="863.771975" y="324.72" style="fill: #1f77b4; stroke: #1f77b4"/>
     <use xlink:href="#md0fd9716f0" x="871.060532" y="324.72" style="fill: #1f77b4; stroke: #1f77b4"/>
     <use xlink:href="#md0fd9716f0" x="878.34909" y="324.72" style="fill: #1f77b4; stroke: #1f77b4"/>
     <use xlink:href="#md0fd9716f0" x="888.067166" y="324.72" style="fill: #1f77b4; stroke: #1f77b4"/>
     <use xlink:href="#md0fd9716f0" x="895.355724" y="324.72" style="fill: #1f77b4; stroke: #1f77b4"/>
     <use xlink:href="#md0fd9716f0" x="902.644281" y="324.72" style="fill: #1f77b4; stroke: #1f77b4"/>
     <use xlink:href="#md0fd9716f0" x="909.932838" y="324.72" style="fill: #1f77b4; stroke: #1f77b4"/>
     <use xlink:href="#md0fd9716f0" x="917.221396" y="324.72" style="fill: #1f77b4; stroke: #1f77b4"/>
     <use xlink:href="#md0fd9716f0" x="926.939472" y="324.72" style="fill: #1f77b4; stroke: #1f77b4"/>
     <use xlink:href="#md0fd9716f0" x="934.22803" y="324.72" style="fill: #1f77b4; stroke: #1f77b4"/>
     <use xlink:href="#md0fd9716f0" x="941.516587" y="324.72" style="fill: #1f77b4; stroke: #1f77b4"/>
     <use xlink:href="#md0fd9716f0" x="948.805144" y="324.72" style="fill: #1f77b4; stroke: #1f77b4"/>
     <use xlink:href="#md0fd9716f0" x="956.093702" y="324.72" style="fill: #1f77b4; stroke: #1f77b4"/>
     <use xlink:href="#md0fd9716f0" x="963.382259" y="324.72" style="fill: #1f77b4; stroke: #1f77b4"/>
     <use xlink:href="#md0fd9716f0" x="970.670817" y="324.72" style="fill: #1f77b4; stroke: #1f77b4"/>
     <use xlink:href="#md0fd9716f0" x="980.388893" y="324.72" style="fill: #1f77b4; stroke: #1f77b4"/>
     <use xlink:href="#md0fd9716f0" x="987.67745" y="324.72" style="fill: #1f77b4; stroke: #1f77b4"/>
     <use xlink:href="#md0fd9716f0" x="994.966008" y="324.72" style="fill: #1f77b4; stroke: #1f77b4"/>
     <use xlink:href="#md0fd9716f0" x="1002.254565" y="324.72" style="fill: #1f77b4; stroke: #1f77b4"/>
     <use xlink:href="#md0fd9716f0" x="1009.543123" y="324.72" style="fill: #1f77b4; stroke: #1f77b4"/>
     <use xlink:href="#md0fd9716f0" x="1019.261199" y="324.72" style="fill: #1f77b4; stroke: #1f77b4"/>
     <use xlink:href="#md0fd9716f0" x="1026.549757" y="324.72" style="fill: #1f77b4; stroke: #1f77b4"/>
     <use xlink:href="#md0fd9716f0" x="1033.838314" y="324.72" style="fill: #1f77b4; stroke: #1f77b4"/>
     <use xlink:href="#md0fd9716f0" x="1041.126871" y="324.72" style="fill: #1f77b4; stroke: #1f77b4"/>
     <use xlink:href="#md0fd9716f0" x="1048.415429" y="324.72" style="fill: #1f77b4; stroke: #1f77b4"/>
     <use xlink:href="#md0fd9716f0" x="1055.703986" y="324.72" style="fill: #1f77b4; stroke: #1f77b4"/>
     <use xlink:href="#md0fd9716f0" x="1062.992543" y="324.72" style="fill: #1f77b4; stroke: #1f77b4"/>
     <use xlink:href="#md0fd9716f0" x="1072.71062" y="324.72" style="fill: #1f77b4; stroke: #1f77b4"/>
     <use xlink:href="#md0fd9716f0" x="1079.999177" y="324.72" style="fill: #1f77b4; stroke: #1f77b4"/>
     <use xlink:href="#md0fd9716f0" x="1087.287735" y="324.72" style="fill: #1f77b4; stroke: #1f77b4"/>
     <use xlink:href="#md0fd9716f0" x="1094.576292" y="324.72" style="fill: #1f77b4; stroke: #1f77b4"/>
     <use xlink:href="#md0fd9716f0" x="1101.864849" y="324.72" style="fill: #1f77b4; stroke: #1f77b4"/>
     <use xlink:href="#md0fd9716f0" x="1111.582926" y="324.72" style="fill: #1f77b4; stroke: #1f77b4"/>
     <use xlink:href="#md0fd9716f0" x="1118.871483" y="324.72" style="fill: #1f77b4; stroke: #1f77b4"/>
     <use xlink:href="#md0fd9716f0" x="1126.160041" y="324.72" style="fill: #1f77b4; stroke: #1f77b4"/>
     <use xlink:href="#md0fd9716f0" x="1133.448598" y="324.72" style="fill: #1f77b4; stroke: #1f77b4"/>
     <use xlink:href="#md0fd9716f0" x="1140.737155" y="324.72" style="fill: #1f77b4; stroke: #1f77b4"/>
     <use xlink:href="#md0fd9716f0" x="1148.025713" y="324.72" style="fill: #1f77b4; stroke: #1f77b4"/>
     <use xlink:href="#md0fd9716f0" x="1155.31427" y="324.72" style="fill: #1f77b4; stroke: #1f77b4"/>
     <use xlink:href="#md0fd9716f0" x="1165.032347" y="324.72" style="fill: #1f77b4; stroke: #1f77b4"/>
     <use xlink:href="#md0fd9716f0" x="1172.320904" y="324.72" style="fill: #1f77b4; stroke: #1f77b4"/>
     <use xlink:href="#md0fd9716f0" x="1186.898019" y="324.72" style="fill: #1f77b4; stroke: #1f77b4"/>
     <use xlink:href="#md0fd9716f0" x="1194.186576" y="324.72" style="fill: #1f77b4; stroke: #1f77b4"/>
     <use xlink:href="#md0fd9716f0" x="1203.904653" y="324.72" style="fill: #1f77b4; stroke: #1f77b4"/>
     <use xlink:href="#md0fd9716f0" x="1211.19321" y="324.72" style="fill: #1f77b4; stroke: #1f77b4"/>
     <use xlink:href="#md0fd9716f0" x="1218.481768" y="324.72" style="fill: #1f77b4; stroke: #1f77b4"/>
     <use xlink:href="#md0fd9716f0" x="1225.770325" y="324.72" style="fill: #1f77b4; stroke: #1f77b4"/>
     <use xlink:href="#md0fd9716f0" x="1233.058882" y="324.72" style="fill: #1f77b4; stroke: #1f77b4"/>
     <use xlink:href="#md0fd9716f0" x="1240.34744" y="324.72" style="fill: #1f77b4; stroke: #1f77b4"/>
     <use xlink:href="#md0fd9716f0" x="1247.635997" y="324.72" style="fill: #1f77b4; stroke: #1f77b4"/>
     <use xlink:href="#md0fd9716f0" x="1264.642631" y="324.72" style="fill: #1f77b4; stroke: #1f77b4"/>
     <use xlink:href="#md0fd9716f0" x="1271.931188" y="324.72" style="fill: #1f77b4; stroke: #1f77b4"/>
     <use xlink:href="#md0fd9716f0" x="1279.219746" y="324.72" style="fill: #1f77b4; stroke: #1f77b4"/>
     <use xlink:href="#md0fd9716f0" x="1286.508303" y="324.72" style="fill: #1f77b4; stroke: #1f77b4"/>
     <use xlink:href="#md0fd9716f0" x="1296.22638" y="324.72" style="fill: #1f77b4; stroke: #1f77b4"/>
     <use xlink:href="#md0fd9716f0" x="1303.514937" y="324.72" style="fill: #1f77b4; stroke: #1f77b4"/>
     <use xlink:href="#md0fd9716f0" x="1310.803494" y="324.72" style="fill: #1f77b4; stroke: #1f77b4"/>
     <use xlink:href="#md0fd9716f0" x="1318.092052" y="324.72" style="fill: #1f77b4; stroke: #1f77b4"/>
     <use xlink:href="#md0fd9716f0" x="1325.380609" y="324.72" style="fill: #1f77b4; stroke: #1f77b4"/>
     <use xlink:href="#md0fd9716f0" x="1332.669166" y="324.72" style="fill: #1f77b4; stroke: #1f77b4"/>
     <use xlink:href="#md0fd9716f0" x="1339.957724" y="324.72" style="fill: #1f77b4; stroke: #1f77b4"/>
     <use xlink:href="#md0fd9716f0" x="1349.6758" y="324.72" style="fill: #1f77b4; stroke: #1f77b4"/>
     <use xlink:href="#md0fd9716f0" x="1356.964358" y="324.72" style="fill: #1f77b4; stroke: #1f77b4"/>
     <use xlink:href="#md0fd9716f0" x="1371.541472" y="324.72" style="fill: #1f77b4; stroke: #1f77b4"/>
     <use xlink:href="#md0fd9716f0" x="1395.836664" y="324.72" style="fill: #1f77b4; stroke: #1f77b4"/>
     <use xlink:href="#md0fd9716f0" x="1410.413778" y="324.72" style="fill: #1f77b4; stroke: #1f77b4"/>
     <use xlink:href="#md0fd9716f0" x="1424.990893" y="324.72" style="fill: #1f77b4; stroke: #1f77b4"/>
     <use xlink:href="#md0fd9716f0" x="1432.279451" y="324.72" style="fill: #1f77b4; stroke: #1f77b4"/>
     <use xlink:href="#md0fd9716f0" x="1441.997527" y="324.72" style="fill: #1f77b4; stroke: #1f77b4"/>
     <use xlink:href="#md0fd9716f0" x="1449.286085" y="324.72" style="fill: #1f77b4; stroke: #1f77b4"/>
     <use xlink:href="#md0fd9716f0" x="1488.158391" y="324.72" style="fill: #1f77b4; stroke: #1f77b4"/>
     <use xlink:href="#md0fd9716f0" x="1534.319254" y="324.72" style="fill: #1f77b4; stroke: #1f77b4"/>
     <use xlink:href="#md0fd9716f0" x="1541.607811" y="324.72" style="fill: #1f77b4; stroke: #1f77b4"/>
     <use xlink:href="#md0fd9716f0" x="1580.480117" y="324.72" style="fill: #1f77b4; stroke: #1f77b4"/>
     <use xlink:href="#md0fd9716f0" x="1633.929538" y="324.72" style="fill: #1f77b4; stroke: #1f77b4"/>
     <use xlink:href="#md0fd9716f0" x="1648.506653" y="324.72" style="fill: #1f77b4; stroke: #1f77b4"/>
     <use xlink:href="#md0fd9716f0" x="1687.378959" y="324.72" style="fill: #1f77b4; stroke: #1f77b4"/>
     <use xlink:href="#md0fd9716f0" x="1709.244631" y="324.72" style="fill: #1f77b4; stroke: #1f77b4"/>
     <use xlink:href="#md0fd9716f0" x="1740.82838" y="324.72" style="fill: #1f77b4; stroke: #1f77b4"/>
     <use xlink:href="#md0fd9716f0" x="1772.412128" y="324.72" style="fill: #1f77b4; stroke: #1f77b4"/>
     <use xlink:href="#md0fd9716f0" x="1801.566358" y="324.72" style="fill: #1f77b4; stroke: #1f77b4"/>
     <use xlink:href="#md0fd9716f0" x="1833.150106" y="324.72" style="fill: #1f77b4; stroke: #1f77b4"/>
     <use xlink:href="#md0fd9716f0" x="1957.055582" y="324.72" style="fill: #1f77b4; stroke: #1f77b4"/>
     <use xlink:href="#md0fd9716f0" x="2355.496719" y="324.72" style="fill: #1f77b4; stroke: #1f77b4"/>
    </g>
   </g>
   <g id="line2d_26">
    <path d="M 401.062587 339.84 
L 401.062587 7.2 
" clip-path="url(#p19fc856810)" style="fill: none; stroke-dasharray: 5.55,2.4; stroke-dashoffset: 0; stroke: #ff0000; stroke-width: 1.5"/>
   </g>
   <g id="patch_3">
    <path d="M 52.312587 339.84 
L 52.312587 7.2 
" style="fill: none; stroke: #000000; stroke-width: 0.8; stroke-linejoin: miter; stroke-linecap: square"/>
   </g>
   <g id="patch_4">
    <path d="M 610.312587 339.84 
L 610.312587 7.2 
" style="fill: none; stroke: #000000; stroke-width: 0.8; stroke-linejoin: miter; stroke-linecap: square"/>
   </g>
   <g id="patch_5">
    <path d="M 52.312587 339.84 
L 610.312587 339.84 
" style="fill: none; stroke: #000000; stroke-width: 0.8; stroke-linejoin: miter; stroke-linecap: square"/>
   </g>
   <g id="patch_6">
    <path d="M 52.312587 7.2 
L 610.312587 7.2 
" style="fill: none; stroke: #000000; stroke-width: 0.8; stroke-linejoin: miter; stroke-linecap: square"/>
   </g>
  </g>
 </g>
 <defs>
  <clipPath id="p19fc856810">
   <rect x="52.312587" y="7.2" width="558" height="332.64"/>
  </clipPath>
 </defs>
</svg>
